<mxfile host="app.diagrams.net" modified="2023-09-02T06:24:42.642Z" agent="Mozilla/5.0 (Windows NT 10.0; Win64; x64) AppleWebKit/537.36 (KHTML, like Gecko) Chrome/116.0.0.0 Safari/537.36" etag="YyH60um_nnLfJhBJVuac" version="21.7.2" type="github">
  <diagram name="Page-1" id="FLZjNEqkDc3ut0iVVIZx">
    <mxGraphModel dx="1100" dy="610" grid="1" gridSize="10" guides="1" tooltips="1" connect="1" arrows="1" fold="1" page="1" pageScale="1" pageWidth="850" pageHeight="1100" math="0" shadow="0">
      <root>
        <mxCell id="0" />
        <mxCell id="1" parent="0" />
        <mxCell id="LE_jhCVqHfi3gLf_MCrG-3" value="SQL=&amp;gt; DDL =&amp;gt; Lenguaje de definiciÃ³n de datos&amp;nbsp;&lt;br style=&quot;border-color: var(--border-color); padding: 0px; margin: 0px;&quot;&gt;&lt;br&gt;CREATE SCHEMA IF NOT EXISTS test;&lt;br style=&quot;border-color: var(--border-color); padding: 0px; margin: 0px;&quot;&gt;CREATE DATABASE ejemplo;&lt;br&gt;CREATE TABLE table1;&lt;br&gt;ALTER TABLE table1;&lt;br&gt;USE ejemplo;&lt;br&gt;DROP ejemplo;&lt;br&gt;DROP table1;" style="rounded=0;whiteSpace=wrap;html=1;align=left;" parent="1" vertex="1">
          <mxGeometry x="40" y="10" width="290" height="140" as="geometry" />
        </mxCell>
        <mxCell id="LE_jhCVqHfi3gLf_MCrG-4" value="" style="shape=image;verticalLabelPosition=bottom;labelBackgroundColor=default;verticalAlign=top;aspect=fixed;imageAspect=0;image=data:image/png,iVBORw0KGgoAAAANSUhEUgAAB9cAAAIuCAYAAAAFRIjOAAAgAElEQVR4AezdeXTU1f3/8flMMgkBhIDIIkoRZV8liOJSZBG3SqEu1IVWiQt8ta1WbV1zsIoIWNlEBBXFugEtiqAe0aKAxVaOOypHVOAoAgfBw3JCTjK/ef3OhMzMnSX5JJOZz2zPPziDkpn5fN73ce/c3Nfnfsbl8/nEH2qAAQxgAAMYwAAGMIABDGAAAxjAAAYwgAEMYAADGMAABjCAAQxgAAMYqN2Ai+LUXhxqQ20wgAEMYAADGMAABjCAAQxgAAMYwAAGMIABDGAAAxjAAAYwgAEMYMBvgHCdnfvcuQADGMAABjCAAQxgAAMYwAAGMIABDGAAAxjAAAYwgAEMYAADGMAABmwMEK7bFIirULgKBQMYwAAGMIABDGAAAxjAAAYwgAEMYAADGMAABjCAAQxgAAMYwAAGCNcJ17kCBQMYwAAGMIABDGAAAxjAAAYwgAEMYAADGMAABjCAAQxgAAMYwAAGbAwQrtsUiCtQuAIFAxjAAAYwgAEMYAADGMAABjCAAQxgAAMYwAAGMIABDGAAAxjAAAYI1wnXuQIFAxjAAAYwgAEMYAADGMAABjCAAQxgAAMYwAAGMIABDGAAAxjAAAZsDBCu2xSIK1C4AgUDGMAABjCAAQxgAAMYwAAGMIABDGAAAxjAAAYwgAEMYAADGMAABgjXCde5AgUDGMAABjCAAQxgAAMYwAAGMIABDGAAAxjAAAYwgAEMYAADGMAABmwMEK7bFIgrULgCBQMYwAAGMIABDGAAAxjAAAYwgAEMYAADGMAABjCAAQxgAAMYwAAGCNcJ17kCBQMYwAAGMIABDGAAAxjAAAYwgAEMYAADGMAABjCAAQxgAAMYwAAGbAwQrtsUiCtQuAIFAxjAAAYwgAEMYAADGMAABjCAAQxgAAMYwAAGMIABDGAAAxjAAAYI1wnXuQIFAxjAAAYwgAEMYAADGMAABjCAAQxgAAMYwAAGMIABDGAAAxjAAAZsDBCu2xSIK1C4AgUDGMAABjCAAQxgAAMYwAAGMIABDGAAAxjAAAYwgAEMYAADGMAABgjXCde5AgUDGMAABjCAAQxgAAMYwAAGMIABDGAAAxjAAAYwgAEMYAADGMAABmwMEK7bFIgrULgCBQMYwAAGMIABDGAAAxjAAAYwgAEMYAADGMAABjCAAQxgAAMYwAAGCNcJ17kCBQMYwAAGMIABDGAAAxjAAAYwgAEMYAADGMAABjCAAQxgAAMYwAAGbAwQrtsUiCtQuAIFAxjAAAYwgAEMYAADGMAABjCAAQxgAAMYwAAGMIABDGAAAxjAAAYI1wnXuQIFAxjAAAYwgAEMYAADGMAABjCAAQxgAAMYwAAGMIABDGAAAxjAAAZsDBCu2xSIK1C4AgUDGMAABjCAAQxgAAMYwAAGMIABDGAAAxjAAAYwgAEMYAADGMAABgjXCde5AgUDGMAABjCAAQxgAAMYwAAGMIABDGAAAxjAAAYwgAEMYAADGMAABmwMEK7bFIgrULgCBQMYwAAGMIABDGAAAxjAAAYwgAEMYAADGMAABjCAAQxgAAMYwAAGCNcJ17kCBQMYwAAGMIABDGAAAxjAAAYwgAEMYAADGMAABjCAAQxgAAMYwAAGbAwQrtsUiCtQuAIFAxjAAAYwgAEMYAADGMAABjCAAQxgAAMYwAAGMIABDGAAAxjAAAYI1wnXuQIFAxjAAAYwgAEMYAADGMAABjCAAQxgAAMYwAAGMIABDGAAAxjAAAZsDBCu2xSIK1C4AgUDGMAABjCAAQxgAAMYwAAGMIABDGAAAxjAAAYwgAEMYAADGMAABgjXCde5AgUDGMAABjCAAQxgAAMYwAAGMIABDGAAAxjAAAYwgAEMYAADGMAABmwMpE24vnHjRvXv358/1AADGMAABjCAgZw3sHDhQiaxNpNYrhLmKmEMYAADGMAABjCAgXQ08P/+3//L+d9nWONljRsDGMAABjCAAb+BSZMmZeUaZ9qE6++++65cLhd/qAEGMIABDGAAAzlv4P7778/KiWc6Ln5yTCzKYwADGMAABjCAAQwk0oA/XGeNkzVeDGAAAxjAAAYw4NK5556blWucaRmuDxkyRNdddx1/qAEGMIABDGAAAzllIDDpJlxngTeRC7y8Fp4wgAEMYAADGMCAcwYiw3XWOFnjxQAGMIABDGAg1wwE1jgJ15N8a05z5/pnn32WlVcy8IuMc7/IUGtqjQEMYAADmWiguLi4epcL4Tp+M9Evx4xbDGAAAxjAAAYw4JMZrs+bN481ziSvKWOOcQcDGMAABjCQfgYuuuii6jVOwvUkT4QI19MPPwMSbYIBDGAAAxhw1gDhurP1xjf1xgAGMIABDGAAAxhItAHCdUwl2hSvhykMYAADGMg0A4TrSQ7VAyAI1xkcAhZ4xAIGMIABDOSqAcJ17Oeqfc4b+xjAAAYwgAEMZIsBwnUsZ4tlzgPLGMAABjAQrwHCdcJ1bt/kkIF4OynPY4DHAAYwgIFsMUC4juVsscx5YBkDGMAABjCAgVw1QLiO/Vy1z3ljHwMYwAAGAgYI1x0KVtm5TqcLdDoesYABDGAAA7lqgHAd+7lqn/PGPgYwgAEMYAAD2WKAcB3L2WKZ88AyBjCAAQzEa4BwnXCdnesOGYi3k/I8BngMYAADGMgWA4TrWM4Wy5wHljGAAQxgAAMYyFUDhOvYz1X7nDf2MYABDGAgYIBw3aFglZ3rdLpAp+MRCxjAAAYwkKsGCNexn6v2OW/sYwADGMAABjCQLQYI17GcLZY5DyxjAAMYwEC8BgjXCdfZue6QgXg7Kc9jgMcABjCAgWwxQLiO5WyxzHlgGQMYwAAGMICBXDVAuI79XLXPeWMfAxjAAAYCBgjXHQpW2blOpwt0Oh6xgAEMYAADuWqAcB37uWqf88Y+BjCAAQxgAAPZYoBwHcvZYpnzwDIGMIABDMRrgHCdcJ2d6w4ZiLeT8jwGeAxgAAMYyBYDhOtYzhbLnAeWMYABDGAAAxjIVQOE69jPVfucN/YxgAEMYCBggHDdoWCVnet0ukCn4xELGMAABjCQqwYI17Gfq/Y5b+xjAAMYwAAGMJAtBgjXsZwtljkPLGMAAxjAQLwGCNcJ19m57pCBeDspz2OAxwAGMICBbDFAuI7lbLHMeWAZAxjAAAYwgIFcNUC4jv1ctc95Yx8DGMAABgIGCNcdClbZuU6nC3Q6HrGAAQxgAAO5aoBwHfu5ap/zxj4GMIABDGAAA9ligHAdy9limfPAMgYwgAEMxGuAcJ1wnZ3rDhmIt5PyPAZ4DGAAAxjIFgOE61jOFsucB5YxgAEMYAADGMhVA4Tr2M9V+5w39jGAAQxgIGCAcN2hYJWd63S6QKfjEQsYwAAGMJCrBgjXsZ+r9jlv7GMAAxjAAAYwkC0GCNexnC2WOQ8sYwADGMBAvAYI1wnX2bnukIF4OynPY4DHAAYwgIFsMUC4juVsscx5YBkDGMAABjCAgVw1QLiO/Vy1z3ljHwMYwAAGAgYI1x0KVtm5TqcLdDoesYABDGAAA7lqgHAd+7lqn/PGPgYwgAEMYAAD2WKAcB3L2WKZ88AyBjCAAQzEa4BwnXCdnesOGYi3k/I8BngMYAADGMgWA4TrWM4Wy5wHljGAAQxgAAMYyFUDhOvYz1X7nDf2MYABDGAgYIBw3aFglZ3rdLpAp+MRCxjAAAYwkKsGCNexn6v2OW/sYwADGMAABjCQLQYI17GcLZY5DyxjAAMYwEC8BgjXCdfZue6QgXg7Kc9jgMcABjCAgWwxQLiO5WyxzHlgGQMYwAAGMICBXDVAuI79XLXPeWMfAxjAAAYCBgjXHQpW2blOpwt0Oh6xgAEMYAADuWqAcB37uWqf88Y+BjCAAQxgAAPZYoBwHcvZYpnzwDIGMIABDMRrgHCdcJ2d6w4ZiLeT8jwGeAxgAAMYyBYDhOtYzhbLnAeWMYABDGAAAxjIVQOE69jPVfucN/YxgAEMYCBggHDdoWCVnet0ukCn4zEHLXj3acvXO+V1aLyJbaxKX8+7WH26d1f36j+9dO6DG42Law7rnbvPVM/gv/fVhOf3GP+enu3m3bdFX+/0pv1xxm6T9Kwpx0q7JNMA4Tq+kumL18YXBjCAAQxgAAMYSL4BwvXk1xjH1BgD0QbSYg3w8Du6+8yeNWur3dW97wQ9vyf6WGk/aoKB7DdAuO5Q2EW4nv2diQGTNo42UKkf18/TDad31C9KV6ncofEm+jj8bVOpz+8rkcflkqv6T7663bLOCKXLtXJCe7mD/16gkfN2Gv+eZu1b+aPWz7tBp3f8hUpXlafvcaa0zdOszagFTn0+Ea7TL2N/RlEX6oIBDGAAAxjAAAYyxQDhOlYzxSrHmSVW02kNsHylJrR316ytuuQqGKl5bPphvYs1z5w0QLjuEHzC9Sz5MHfIC5O/zPdSuX21HrpigFrnW3K53OpAuJ6gD9lKbV/9kK4Y0Fr5lksudwfCdcalBNnK/HEnEz47CNdxlglOOUacYgADGMAABjCAgdoNEK7XXhvcUBsMJNJAGq4BEq6zBsc6LAZqDBCuO9QZCNcT+cHKazFRS3cDXm2fOUwFwV3gmRCuV2ht2XCd3L+/+lf/GaQbXvop/T4svds1c1hB6ApRwvX0ayOHPlcZB9N9HIx9fITrseuCZ+qCAQxgAAMYwAAGMJApBgjXsZopVjnODLeajmuAFWtVNvzkmrXT/uo/6Aa99FOG15l1PNZWMRCXAcJ1h+AQrvMhw4QulwxkYrieIe2TjhNrhz5HGEMyxCge6pyQEq7jmLEMAxjAAAYwgAEMYCCzDRCuZ3b70f9ov4wxwBpgnesrGdOOrJPRjllqgHDdoYYlXGfiwgdeagx4936iZTNu0RXnnalBfXuqZ7/BGjb2Wt274N/6rrzuY6ra87H++ffbdfWY4Trt5D7q0a27evUbpF+eP04Tyx7X6i0Hoz4cq7av0aI5s3X/uO7KN3auF595ox6ZPVuz5zyu17+uOvK8yi+1ct5szfb//9mzNefx1/V1VfQxVW1+TfPnBH5ujh5b9ZUqY45dFfp+7RO6t3S0hp7ST737naJhYyfqgSWfaJ/X7jvXq7T17Sc1p+ZYZs9+VMs/OxR1fn7H+79cqTl3lmrsyNM1sE8PdevWQ70HDNbQCy7XjZOf0rrth2M8r0rfvLkg9PqP/kufHPCf60F9/cajuv3K83VWSV/1HnCaRlz6B01d8rF+8pq1qNL2NYs0Z/b9Gtc939i5Xqwzb3ykjvp5tfeTZZpxyxU678xB6tuzp/oNHqax196rBf/+TuUx62i+L39n7MJAIg0QruMpkZ54LTxhAAMYwAAGMIAB5w0Qrjtfc5xT84QaqPpe7zw9N7ge+eiSjdrn88m/hrp06iSNHTZY/Xr1VsnQsZo0bYU2HwrVv/LHDXq67BpdeFaJ+vTqp8EjLtUf/75KXx8M/Uz0se7Xlyvn6M7SsRp5+kD16dFN3Xr01oDBQ3XB5Tdq8lPrtP2w+Xxn1wB//nCpHg2sh855Qm99VyXvng167MaLNGTAAJ028jLd8ugabfMfY9VWvf3knGDtZj+6XJ8Z9Qmde0PP2Tx//h6qI7WgFulrgHDdoWCFcD19OwEDVLa2TZV+eO1Ond2xQFYw5HaFQlmXpWbdLtHM/+6LEQR79eMbd+msdp5annvkdayik3TpY5/ooDGOHF49Ucfnme8T8XerhS57qSa0PrRYvy4M/bvV4jK9FGNCduj5i9Xc//3i1edhqenYf+iQ8Z7Vhiu/09IbS9Qqz/8d74GfrXm0CtXpVw9p8V9L5An+W7663bLOOPdyrZzQXu7gvxdo5Lydxr/7nezXxlm/VufCGO8RfJ4ld/EAXf/iNxEXAJRr2RWtQq9fMEwzN3+shVf11lHuiOP1v5ZVoE6/flSfBi+AOKzVE49XXvB9op8TVb+qH/TanWerY0Etx2s1U7dLZuq/+7K1D3BejO/pZ4BwPf3ahH5Cm2AAAxjAAAYwgAEMNMQA4TpeGuKFn01DL4ff1v91zguuH3pOm6IP1k3Xrzo3ibEO6lbxoL/ozd1V+vGNuzW0Q6y1UreKS27TG7u8EeuIPvn2b9SsX3dWYXBdM3o9z2W5VTzger34TWXN851cA6zSlmlnhNZL3e109Ytv697BLUNrmP61SE8/3fNhpXz1+c71uM45DZ1Erj3z39G+qUlO14Rw3aEOQLjOBwSTSScNeLVr5Y3q3bSWUNUIaN1tRuqRT8N3WldtnqtRrd3BSWZUWG083/J01Q2r9shbM5akJFz37tFrN/ZUE5uJamGTQmOS3NBw3avdr5Sqi8e+pv56WS1GaPaWmh361bWJCNc9PTR8eCd56jzmZjrjoU2qqn5+AyfW3l1aeWNvNa3r9avb0a02Ix/Rp2FXyDpplfdibMwtA4TrudXe9G/aGwMYwAAGMIABDGSfAcL17GtT+mmOtWlEuJ53XD/1bZNnrBlGBuB5OvaX56ukZR1rpVaeOk1Yob1m1uLdrVdKu9S99hdcY7XUYsRsbam+o6eTa4CR4XpL9ex3QtQx5/e+Q/+t9NmH63Gfc44ZNJ3w95wOqDP584dw3aHOS7jOB0QmDxQZd+w/vaIJncxJoVsteo3V7TPm6/GZd+u3A1opLxi6Wmp+1nR9Ebwde4XW/umk0C3drUIdf3ap7n34MT359FN6bPpfdXlJm7DnF57yN33qn2D5fKp4f4ouHFSifr9oYVzhaMlzTDcNLClRSckvdcfqmjA/QTvXy9fdqh5hobelos7DNfFvc7Xw8Yd1x7iT1TpqR3sDw/XKj1Q20LgLgFWkky64WVMfe0qLnnhUD91+ifoVG5Nsq1Aj5v4QvOjA54sI12smz1bTX2hYaZlmzn9M028drW7Nw8N7z8AyfVJd2wq9P+VCDSrpp1+0MN/Ho2O6DVSJv7a/vEOra0Lyn16ZoE7mObtbqNfY2zVj/uOaefdvNaCV4cNqrrOmf1ET4jNWZVx/d+hznLokpm8QriemjnikjhjAAAYwgAEMYAADqTJAuI69VNnjfRNkLyJcr95UZLnVsuevdfPUR/X4nDJd0T9i53b1Op6lol8M0/X3zTnyMwOKjbVPl9zFl+nF/aFjrPyoTAONu0n67wB6wc1T9dhTi/TEow/p9kv6qdi4m6VVOEJzf/DvfndyDTAiXA+G/eYFBvnqcft/VOFff7LZuR7/OYfqhnNqgYHMMEC47tCiPOF6ZnQIBq5saKcqbfn7UBUZ4XlB7z/prZ+MWxP9vE53DCwKXZGZ10V/WFMTeHu3a+bZBcFd61bLS/VC9XeDG7U5+J7+0tcjK69QLdt3Ue8hN+iF6slf4Ge82j5zmAqCEzK3OpSuiv5+74SE6wf08u/N27lb8nQt1fIdxvn6DumjB4eGTVhdroaF695tz6p0cE/9ou1R8rjdKj5nTs3VpIFzrtLXU4eEbqNU8/rVE8/qcTY6XLea9NWfVod2/ft8Xm1bcKFamRPrlpfpJfN7m/ztMyzUPi53B5WuKg+/wq9qi/4+1Ghfq0C9//RW2He4/7zuDg0sCgX5eV3+oDXsXg+vo0Ofj4y7gT6UG4+E67nRzvRr2hkDGMAABjCAAQxkrwHC9extW/ptjrRtVLhuqcnJf9X6n0PnX/XVVJ0e8bWQeZ2u1BJj/bPqm79rqLG25vKUaPKngVu7e7Xt2VIN7vkLtT3KI7e7WOfM2RK+saXqa00d4gmuwbryu+mWdRWhtSlH1gBjheuWPB2H689zX9LyJQs1ufQqTd1Qc1x1husJOGfW4kLtTy2oRZobIFx3qIEI10MfzkzUqEVSDXi3aeYw4/bnVgv96smdxg7qI/X/6bmL1ToY4uar6y3rjlyB6N2huSPM8LaF+o4r06LVm7S7ItR2h/b8qL3lZoAd+jd/SOxYuF7xjv7QJfQ9SS53scY8HX2+vvI1+sOJ+aEJawPDdbPNKg/s0s59gclyzXkf3Kp37h5i3Jo+T8eWrtLh4BgbGa5bavHrRdod/Pea19n9uM4zJ++F52r+bqO29ZhYe7fN1DDjNawWv9KTOyPb6ic9d3Hr0BW2+V3DJ/CRx8V/M6HDQEIMEK4b4xmmEmLK/Hzi7/jCAAYwgAEMYAADyTdAuJ78GuOYGifVQGS4bjXT+Qsi1hIP/1s3Gt/L7nJ51P/ej1Rp/h5b8Z5u626sNUaG48GfrdSBXTu1r+aun4FzO7j1Hd09xPie97xjVbrK+OpOR9YAY4TreSfo+td/jv37ap3huuk2znMO1sx8Lf4eMMMjFtLJAOG6QwMW4TodP506flYfS/kr+n1b47bh/qsmP4sIgn0+VX07Q2d6Qrf4KTj7EW3z+p1WauPd/aK+W8flsuRpcbxOHnGZJpXN0ZL132p/9c/Hsu1cuO7dNV+jzCC5cLjmGFeRhtq6XMvHtwmFyY0I1/2vWfnTZq1f/oSm3Xm9LhnWV8c2NW6zXr1j3612V68wdutHhuseDSiLmJT7x+Py5Rrfxmi/gmGatd0IxusxsS5/5fdqG7xwwiVPyWR9FjGB9/mq9O2MM42d9gU6+5FtsSfODn1OhNoqlin+H/XJDgOE69nRjvRH2hEDGMAABjCAAQzkrgHC9dxte/p9lrR9ZLie30O3/cfYMe5fB6v8QHf1MXaVu1vryn9G3jnySz0w2PgZ/51B34l4neCaWqV+2rxey5+Ypjuvv0TD+h6rpubXOfrXEt3tdPUK4z0cWQOMDtfzT/yj3jU2WIW5r3e47rcSxzkH65Ul1jgf1pqz2ADhukONS7jOB0LYB7FD7nLyPXc9plEFodDclXeshoy7WldfHfHnqqHqlB/6ufyT/qS1NRMn74//0oQTPaHbxgdv7x76eZeVp6NOOFulD6/WtqgJV4LD9ed+o2bGbe6bjv2HDtUYqtr0Nw0yLhJwHz1ey8tj9beaiwaC59Kw28IfsVSuLSunqnREd7UO+453oy7B13er/YSVdYTrBRo2a3vUHQV8h1/TtR2NnfgFwzSzgeH6rsdGGbfkdynv2CEaF9n+V1+tq4Z2Un7wePN10p/WMuFhbMJAkg0Qrscan/l/OTlfSXJfo6b0KwxgAAMYwAAGkmWAcB1bybLF6zpkKzJc95ymKV9Vha+HVH6ssgFGcJ5/ov4YGZxXbdG0M4yfMb92M/D7TvkWrZxaqhHdW8fYyBSxnuhurwkrGxauN34NMDpcLxw1P/pOm8HzWakJ7c1NQSM1L/JumY0558D78BjukXpQjzQ0QLjuUKMQrjs0OXCoPZnspW97+m8JfrYZrgfD04gJW8T/d7f9vV4xQumKb5brzvNP0lHu0PdyuyKeU/3fVr7anzdLn4Z9X3ec4fpRl+iFQ9G1Pbj418bt1i2Z4XrlJ2UaaIbrEecRslqlz+8bZOzUbmi4fkDvPzBUbSKvKq2pieUu0jHtipUXvAjAbXNb+EKNmr87emJw+A1df1xjwnWvts08Oyxcj9luUW3pVtvfvxJ9PIwp1AQDCTVAuB49xofGaf6NWmAAAxjAAAYwgAEMpL8BwvX0byP6EW1Up4GocP0szfg2Rrh+shGcx9rdbheuH3hfDwxtY6wVmmuzltxFx6hdsXEnTHdDbwufiDXAyHDdUvFvlwY3NUXV0W7nemPPmTWohK5BRbUf9aW+CTRAuJ7AYtbVWQnXmdTU5YN/S6CPnxbqfOM26f6d66eMHquxY23+/O4RvR+1A71Ke794XQsn36AxQ05Sq9p2a7uLdeHC741d2HGG60Vj9ezB6Frsnj9KhcEwODxcj7y9vdVsjBbvj34Nn69C/7mtR9hO7W63rDM+UMu1ckJ747bxBRo5b2fw3ys/mqySJsaFBla+WvUYqfF/fkDzl7ytT3Yc0sEXLtFRwXA9Tx2vfb2O71wv1HkL9gRfP9gHGh2u+/TTwvNVGDwO/871UzTarv3HjtXvHnk/+ngc+owInj/vRxtkuQHC9VjjM/+PMRADGMAABjCAAQxgIHMMEK5nTlvRr2irmAbiDNdv3xBxy/c6w/VKfTS5xNgs5JKV30o9Ro7Xnx+YryVvf6Idhw7qhUuOCt05NK+jrn29Yd+53vg1wMhw3a0OpauMO3FGGKozXE/AOWf5mlBMj5wza6EZaoBw3aGGI1yP+CByqO4M2DlY98Nv6objjZ3PntP10NcRV1/G6a9q/1Z98Npi/f2vV+rUDuZt4yOvavRq+6xhxu7pWiZmh57V2CIjsC4cpfm7I9usUp9NLjF2nIeH676DS3V5K+N2RJ4+uuuD6O+Y93l3asH5zUIT1gZ953qlPri7r3EMeep46bPaGvE95vsX/coItfN03PVvJCVcnzWsQMHd6O4OKl1l3DLK59PhN2/Q8Xmhq2E9pz+kr6si68p/Mz5iIBUGCNdxlwp3vCfuMIABDGAAAxjAQOIMEK4nrpa4pJYpMeBEuF75ge7ua+x8z+uoS5/dqsqwNdn9WvSrwtBaZd5xuv6N8HA9+WuAkeF6no674U1jPTPCaF3heiLOOaw+Ee/NvxFCYyCtDBCuOwSScJ0Pg5RMlhzynV7ntkfPjGkZmphZzTT04c2qCqtFlbbMPEft23dWz4FnaOTocZr0+MbqiVPlpsW65YoxOveXg9TnxGN1TMldMXa0+7R30eiw70EvvPBJ7Qu+h1c/zBkeFq63vXpF9FWP5ct0RUQwfuf/IoJx73eaO7J56HxcEeG6d6tmDWsS+nfLo163rtfB4LEc6XtVXz2soc2NIL9B4Xq5/nlla2NXe6xbupdr7c3djJ3xeep4XTJ2rv+gOcPNcL2trl4RHq779jyjMS1D52o1G6qHN0dcYFG1RTPPaa/2nXtq4BkjNXrcJD2+0ZjAR9QvvYwzntIemWuAcD1z245+R9thAAMYwAAGMIABDPgNEK7jgLEgww04Ea6X/1NXtjY2A8XaUFS+Vjd3yw9toMnrqOvCdq47sf30sJQAACAASURBVAYYHa53mvRWfOF6Is6Z9ci0Ck8Z6zJ8rEtyfyJcT3KBAx2QcJ2OGLDAY/It7HnhMh3jDu1cdhefpttXbgtOjA5+sUC/6ZgfCqTdrTV28c4jt3X/6QWNO8aY/Llb6tTbXtN285bxhzZr8RUnGEFyvrresk4Vxnjy04Lzw2/lft7j2un1n3ulKgM7viv/qzt6G5NIV56Ov/RpbQ5893v5Vq2665c62jgXV2S47vNq69xzjNuxu2QVdtfvntkUDNgrt6/SbacWG+G4vzYN+c71w3pr0i+UZ9ya/qjT7tG6vd4jE57KXXp//nj1bBoKtF0ut9qMX25cUFCuZVe0Mo4hztvC+37SgvMLQxNvq6nOe7ym7Sora66A3aMXLjvGeC+3ik+7XSu3BcLzg/piwW/UMT90vO7WY7V4Z835GO1If01+f6XGuVVjwvXcam/6N+2NAQxgAAMYwAAGss8A4Xr2tSn9NMfa1Ilw/fBbmvQL486i1lE67Z512lu9NupT5a73NX98TzU1vtbR5W6j8cvNDTROrAEmMFxPyDnnmEXWYLmYIIMNEK471HiE63wwMFF10EDFx3pgiLnb2yXLXaT2PU/VGaf2UnvzVuz+sPqUydp4OHB8Ffro/tPU3JzcuSwVHtNNg846W0OHDFDnYvOW8C5ZRafovo/Cd5yXr7hG7YxQ3HK30AmDTtfALh005sm9NR+ch7SqtKMRWvtDb0tFHXrr1NMHqVvbIzvSLU+BPMHjidi57h/DDvxbN/coCF0s4A/BLY+O7jpIpw/pq47N3NX/ZuV7lB98nYaE6z7tfXGc2hjn4z9Oz9HdNPiMU9Tr2ObKC75u4KIGS4XnLdCe4BibqHC9XCuuaWcE55bcLU7QoNMHqkuHMXpy75F2rPj4AQ0J26lvyV3UXj1PPUOn9mqvIvN4raY6ZfKROxfQTwP9gEcsJMcA4Xpy6opX6ooBDGAAAxjAAAYw4JQBwnWsOWWN90mSNSfCdd9evTiujbF+V7NW2W2wzjill45tnhe+jlm9lhm5EceJNcAEhusJOecktXlwfZbXZ1zBQKIMEK47NLAQrtNpE9VpeZ36Warc/JQu6Rwegge/p9vYge3peJHmfR7Y0Vzz2pWb9czlJxnfHx4IjKMfrfz2Onfmx8YO7SOv4d21WGPN2x8F39OjgWWfBK9Kq/xsun5ZbOyUD/7ckfeyPJ009uG7NLIw8N4xwnWfTwf+N00j2saYmNa8nlXUS6VlE9Q9P/A6DQvXfYc/1JTTW4ZPis1jtQrUefQ1OvfY0FWpecdfrzcCu/B9iQrXvdq1eKxahwX9NefkGaiyTwIXOVRq81OXqLMntDs9uv2PTOw7XjRPnwcvrqifL/ohdcJAfAYI1+OrG96oGwYwgAEMYAADGMBAuhggXMdiuljkOOK06Ei47tPhD6fo9JZ1rHkWdNboa87VsXmBtco8HX/9G8YaqxNrgIkM1xNxznG2qUMZF32O9sFAyADhukMDD+F6CB0dkFo4ZaDy+9V68PKBalsQHbBaeS3U7cK7tHxLRLAeGBOqftTaWaU68/imcpu7nAOBsuVRq16jddc/NxuTPrNtK7Tpid+qW7PI987T8Te8GQzXfT6vdr59n0Z3axG++9v/+r3HavKqrarYs0Dn2YTr/poe+PQZTTq9vbHL/Uh43KrPpZq6ZqfKN9yuHvGG6z6fqn54Q/eO6hS+69tlyd38JF1UtlJbK/Zr2RXG7djzjlPpq/trzjVR4bpPvopNeuK33YzvvK+ZhOcdrxveNNuzUt+vflCXD2yrgqg2tJTXopsuvGu5thCsGx5Nw/zdqbEql96HcJ1+lUveOVe8YwADGMAABjCQjQYI13Gdja5z6pwcCtd9vir98Ma9GtWpKHyXuuVW85MuUtnKrarYv0xXGF/PmXdcqV7db/SxpK8BJjZcT8g5B9ameWS9EgNpbYBw3SGghOvGh6JDNc+pSRE1rXOgPbzzU7215AnNnv6gpkx9WI8+/bLe++bnI9+xble7qn36ZsMqPb9gth6e+oAemPqw5j61VG99sqOWUD3c+uEfP9KrT8/R9Acf1PQ5T2nZmk3abX5/e+D9vfv0xVsvauHsGZoxd5GWrd2i/TXfQ9Qwy+X6/v2XtWjuDE2fuVBL3on3dcLPI3QMh7Xjw5Va/OjDemjaTD3+wlv6Ym9VnfUPPbe214zn/x/Wjx+9qqfnTNeDD07XnKeWac2m3WHfex9638Pa+elbWvLEbE1/cIqmPvyonn75PX3zM9+xHqpRPG3Ac6hfww0Qrje8ZjijZhjAAAYwgAEMYAAD6WSAcB2P6eSRY8kAj4d36MOVi/Xoww9p2szH9cJbX2hvVUOOOwPXABt9zg2pDz/LOICBVBggXA8EW0l+JFyng6eig/OeuMMABjCAgXQyQLiOx3TyyLHgEQMYwAAGMIABDDTcAOF6w2uGM2qGAQxgAAMYyC4DhOtJDtUDHYZwPbs6TqBdeaRdMYABDGAAA/U3QLhe/1rhilphAAMYwAAGMIABDKSjAcJ1XKajS44JlxjAAAYw4KQBwnXC9RTczplO7mQn573whgEMYAAD6WKAcB2L6WKR48AiBjCAAQxgAAMYiM8A4Xp8dcMbdcMABjCAAQxkjwHCdcJ1wnWHDDBwZs/ASVvSlhjAAAbiM0C4Hl/d8EbdMIABDGAAAxjAAAbSxQDhOhbTxSLHgUUMYAADGEiVAcJ1h4JVbgtPJ09VJ+d9sYcBDGAAA+ligHAdi+likePAIgYwgAEMYAADGIjPAOF6fHXDG3XDAAYwgAEMZI8BwnXCdXauO2SAgTN7Bk7akrbEAAYwEJ8BwvX46oY36oYBDGAAAxjAAAYwkC4GCNexmC4WOQ4sYgADGMBAqgwQrjsUrLJznU6eqk7O+2IPAxjAAAbSxQDhOhbTxSLHgUUMYAADGMAABjAQnwHC9fjqhjfqhgEMYAADGMgeA4TrhOvsXHfIAANn9gyctCVtiQEMYCA+A4Tr8dUNb9QNAxjAAAYwgAEMYCBdDBCuYzFdLHIcWMQABjCAgVQZIFx3KFhl5zqdPFWdnPfFHgYwgAEMpIsBwnUspotFjgOLGMAABjCAAQxgID4DhOvx1Q1v1A0DGMAABjCQPQYI1wnX2bnukAEGzuwZOGlL2hIDGMBAfAYI1+OrG96oGwYwgAEMYAADGMBAuhggXMdiuljkOLCIAQxgAAOpMkC47lCwys51OnmqOjnviz0MYAADGEgXA4TrWEwXixwHFjGAAQxgAAMYwEB8BgjX46sb3qgbBjCAAQxgIHsMEK4TrrNz3SEDDJzZM3DSlrQlBjCAgfgMEK7HVze8UTcMYAADGMAABjCAgXQxQLiOxXSxyHFgEQMYwAAGUmWAcN2hYJWd63TyVHVy3hd7GMAABjCQLgYI17GYLhY5DixiAAMYwAAGMICB+AwQrsdXN7xRNwxgAAMYwED2GCBcJ1xn57pDBhg4s2fgpC1pSwxgAAPxGSBcj69ueKNuGMAABjCAAQxgAAPpYoBwHYvpYpHjwCIGMIABDKTKAOG6Q8EqO9fp5Knq5Lwv9jCAAQxgIF0MEK5jMV0schxYxAAGMIABDGAAA/EZIFyPr254o24YwAAGMICB7DFAuE64zs51hwwwcGbPwElb0pYYwAAG4jNAuB5f3fBG3TCAAQxgAAMYwAAG0sUA4ToW08Uix4FFDGAAAxhIlQHCdYeCVXau08lT1cl5X+xhAAMYwEC6GCBcx2K6WOQ4sIgBDGAAAxjAAAbiM0C4Hl/d8EbdMIABDGAAA9ljgHCdcJ2d6w4ZYODMnoGTtqQtMYABDMRngHA9vrrhjbphAAMYwAAGMIABDKSLAcJ1LKaLRY4DixjAAAYwkCoDhOsOBavsXKeTp6qT877YwwAGMICBdDFAuI7FdLHIcWARAxjAAAYwgAEMxGeAcD2+uuGNumEAAxjAAAayxwDhOuE6O9cdMsDAmT0DJ21JW2IAAxiIzwDhenx1wxt1wwAGMIABDGAAAxhIFwOE61hMF4scBxYxgAEMYCBVBgjXHQpW2blOJ09VJ+d9sYcBDGAAA+ligHAdi+likePAIgYwgAEMYAADGIjPAOF6fHXDG3XDAAYwgAEMZI8BwnXCdXauO2SAgTN7Bk7akrbEAAYwEJ8BwvX46oY36oYBDGAAAxjAAAYwkC4GCNexmC4WOQ4sYgADGMBAqgwQrjsUrLJznU6eqk7O+2IPAxjAAAbSxQDhOhbTxSLHgUUMYAADGMAABjAQnwHC9fjqhjfqhgEMYAADGMgeA4TrhOvsXHfIAANn9gyctCVtiQEMYCA+A4Tr8dUNb9QNAxjAAAYwgAEMYCBdDBCuYzFdLHIcWMQABjCAgVQZIFx3KFhl5zqdPFWdnPfFHgYwgAEMpIsBwnUspotFjgOLGMAABjCAAQxgID4DhOvx1Q1v1A0DGMAABjCQPQYI11MQrk+ePFlPPvkkf6gBBjCAAQxgAAM5ZaCoqEgul0v3338/d85xaA7KL27Z84sbbUlbYgADGMAABjCQDgbMcP2qq67Kqd9nWM9lPRsDGMAABjCAAb+B/v37V69xnnvuuVm5xulKh0mn/xjWrl2rLl26VBfbv6jMH2qAAQxgAAMYwEAuGjj22GM1ffr0rJx4psu8k+Ng4R0DGMAABjCAAQxgIFkGvF6vTjrpJBUWFrK+yRovBjCAAQxgAAM5a6BVq1a6/PLLs3KNM23CdfO28Lm4kM45EyBhAAMYwAAGMBAwwM51FnuTtdjL62ILAxjAAAYwgAEMJNeAuXM9ML/nkd/1MIABDGAAAxjIRQPsXE/yrTnNcH3jxo0qLy/nT0QNevbsWX2Fy3XXXUdtImqDF/oLBjCAAQxkg4GWLVtWf9YTrid3wZMFZeqLAQxgAAMYwAAGMJAsA2a4PmvWLNbwYqzhXXvttdW/9/Tq1Yv6xKhPNvxuyzmwRoMBDGAgtw1ccMEF1Z/1hOsOhuufffZZVt4moLGT9t69e1djnDRpEvVJssfGthXP55d0DGAAAxiIx0BxcTHhOp/xzPMwgAEMYAADGMAABjLYgBmuz5s3j7aM0ZYTJ06s/r2nT58+1CdGfeL5XZLnsAaBAQxgAAPpZOCiiy4iXHeiQcyd64TrsQcBwvXYdXHCJ+9B7TGAAQxgwAkDhOs4c8IZ74EzDGAAAxjAAAYwkDwDhOv2tSVct68RfZQaYQADGMBAJhsgXHfo6jnCdfuBgnDdvkaZPNhw7LQvBjCAAQwQrmOAcQADGMAABjCAAQxgILMNEK7btx/hun2NGAeoEQYwgAEMZLIBwnXC9bS5PRHhOoNpJg+mHDt+MYABDNgbIFy3rxGOqBEGMIABDGAAAxjAQDobIFy390m4bl+jdDbOsdF+GMAABjBgZ4BwnXCdcN0hA3adkX9nwMYABjCAgWw3QLiO8Ww3zvlhHAMYwAAGMICBbDdAuG5vnHDdvkbZ3k84PwxgAAMYyG4DhOsOBavcFt6+I7Fz3b5GDMjUCAMYwAAGMtkA4Tp+M9kvx45fDGAAAxjAAAYw4BPhun0/IFy3rxF9iRphAAMYwEAmGyBcJ1xn57pDBjJ5oODY+aDDAAYwgIFEGCBcx1EiHPEaOMIABjCAAQxgAAOpM0C4bl97wnX7GtGHqREGMIABDGSyAcJ1h4JVdq7bDxTsXLevUSYPNhw77YsBDGAAA4TrGGAcwAAGMIABDGAAAxjIbAOE6/btR7huXyPGAWqEAQxgAAOZbIBwnXCdnesOGcjkgYJj54MOAxjAAAYSYYBwHUeJcMRr4AgDGMAABjCAAQykzgDhun3tCdfta0QfpkYYwAAGMJDJBgjXHQpW2bluP1Cwc92+Rpk82HDstC8GMIABDBCuY4BxAAMYwAAGMIABDGAgsw0Qrtu3H+G6fY0YB6gRBjCAAQxksgHCdcJ1dq47ZCCTBwqOnQ86DGAAAxhIhAHCdRwlwhGvgSMMYAADGMAABjCQOgOE6/a1J1y3rxF9mBphAAMYwEAmGyBcdyhYZee6/UDBznX7GmXyYMOx074YwAAGMEC4jgHGAQxgAAMYwAAGMICBzDZAuG7ffoTr9jViHKBGGMAABjCQyQYI1wnX2bnukIFMHig4dj7oMIABDGAgEQYI13GUCEe8Bo4wgAEMYAADGMBA6gwQrtvXnnDdvkb0YWqEAQxgAAOZbIBw3aFglZ3r9gMFO9fta5TJgw3HTvtiAAMYwADhOgYYBzCAAQxgAAMYwAAGMtsA4bp9+xGu29eIcYAaYQADGMBAJhsgXCdcZ+e6QwYyeaDg2PmgwwAGMICBRBggXMdRIhzxGjjCAAYwgAEMYAADqTNAuG5fe8J1+xrRh6kRBjCAAQxksgHCdYeCVXau2w8U7Fy3r1EmDzYcO+2LAQxgAAOE6xhgHMAABjCAAQxgAAMYyGwDhOv27Ue4bl8jxgFqhAEMYAADmWyAcJ1wnZ3rDhnI5IGCY+eDDgMYwAAGEmGAcB1HiXDEa+AIAxjAAAYwgAEMpM4A4bp97QnX7WtEH6ZGGMAABjCQyQYI1x0KVtm5bj9QsHPdvkaZPNhw7LQvBjCAAQwQrmOAcQADGMAABjCAAQxgILMNEK7btx/hun2NGAeoEQYwgAEMZLIBwnXCdXauO2QgkwcKjp0POgxgAAMYSIQBwnUcJcIRr4EjDGAAAxjAAAYwkDoDhOv2tSdct68RfZgaYQADGMBAJhsgXHcoWGXnuv1Awc51+xpl8mDDsdO+GMAABjBAuI4BxgEMYAADGMAABjCAgcw2QLhu336E6/Y1YhygRhjAAAYwkMkGCNcJ19m57pCBZA4UFXu36tMNa/TGqhV6ddVqvfvBl9pxwJs2bRt+7hXau/UzbXhntV57dYVefe1trf/wa+06lK7Hy4dcePtRD+qBAQzEb4BwPf7a4Y7aYQADGMAABjCAAQykgwHCdXuHhOv2NarVcsVebf10g9a8sUorXl2l1e9+oC93HJA3Tddv/Wuyn214R6tfe1UrXn1Nb6//UF/vOpS2x1tr3dO0vhxvI/oSbZqm2Qhtmi39mnDdoUEmUTvXK/4zWcN6dVf37pF/eqhHj57q1buP+p1cosFnDNO5Y67U/5Ut0OotB2MPJJUfa9oFvY3X6qeJ/6rlZ/118u7WW/ecq749zPfuoZ5n3KAXvq2M/R4NqG/id64f1jt3n6mewVr11YTn9zT8OKu+1ryL+4Tq1OtcPbixAedb9Y3mX2o8v3tfjX9mR+MnWYe+1srpE3XhyR3VPM+Sy+Uy/liyClqp65nj9NcF6/R9RV2DdqU+nnaBegfr1EP9xs7Wpso6nnP4df15UI9gTXqecZfWHK7j530+HfjyFU2beIEGdGymPMs8Vv/f/cd7tLqffZXuffYD7a6q+7WyZQDmPGhnDGAg1wwQrmM+18xzvpjHAAYwgAEMYCDbDCQsXK/4jyYP6xVcWzLXOnv06KGevXqrT7+TVTL4DA07d4yu/L8yLVi9RQdjrjVGrm11V7+J/6rlZ/0mvdr91j06t29obcv//j16nqEbXvi24WuHEceUjHD98Dt368yeoTXZvhOej+M4q/T1vIvVJ7gG2EvnPrixAa9TpW/mX2o8v7v6jn9GO7yN7eeH9PXK6Zp44cnq2DxPVtgap0uWVaBWXc/UuL8u0LrvK+o43kgHyVnj9B34Uq9Mm6gLBnRUs6g12SPHe3T3s3XVvc/qg91VdRxvY+vG87NtfOV8MI2BzDFAuB4x+UkW3kSF64ffmqROeZHBZN3/bRV10ZiHN2hv5ESnYoNu75FvBLKFumjR/tgf+N6f9M49Q1TsDn8vd6szVLZ2b+ODYp9PiQ/Xy7VyQnu5gxOyAo2ctzP2+dXloPJz3VfiCdUpv5tuWVfXRC5iAKj6QvcPNp7vKtDQR7Y1omZe7Vk3VaO7NI2abIYH7DVtZeWpuN/v9NjGn2s59wptuL2H8oN1csnlbqVz521RVW11ObRE44pDgb673TVaUR5x3oHnVu3Q6skXqkvT0M/HPM7A+1sedRh2r978kZ3syRqPeN1arAbM8ljLWEHd6DuNN0C43vga4pAaYgADGMAABjCAAQyk0kDCwvXDb2lSp7zQeltgXaiuR6tIXcY8rA17I9eMote2Ci9apP0xf7/36qd37tGQYnf4e7tb6YyytdHrpzFfo26DyQjXy1dOUHtjXbZg5Lw4fnev1Of3lcgTrHG+ut2yrgGvU6Uv7h9sPN+lgqGPaFvkmnMDaubds05TR3dR06iNOOFr0EfWEi3lFffT7x7bqJ9jvke0g4SucfqqtGP1ZF1Y3zVZlyVPh2G6980fG7EOXLe1VI4FvDdtgwEM5LIBwvWYH8SJ7xSpDNerJx/utrrgsa9UaZ5vvcP1fVo/+Sy1NiZw/td0F5+mu9bsSdjkgHC9Pu682rHiJvU/KuIXgOCkONbE88j/cxefqrvejtVeMSae/vZt9xs9sz3yl5WaY6xvuF75jf5xVVc1qdcE2Tx2S0eV3Kl39tWnJvxMLn+Ice74x0BmGSBcz6z2on/RXhjAAAYwgAEMYAADkQZSGq5Xr3+51faCx/RV2B0Xo9e2agvX962frLNaR6yruYt12l1rtKcRIbFZJ8L1+vUb744Vuqn/UcbGKHNtsI6/u4t16l1vx2ivaAfVa9iJWOP0Veqbf1ylrk3quXnIWKu1jirRne/sa8BFDPWrn2mOv1MzDGAAA84aIFw3w+Yk/j1Z4bqV30on9Ouv/v37q3+/vurds5u6dGytJjFuSeNuc7Ge3WmEpfUK13/WhinD1Cbi9dwtB+kvq3cnLFj3d/zEh+sVWls2XCf7a1P9Z5BueOmnhk9k0mjnesXnj2hE5C8ALktNjx+iS24q07Q58zV/9jSV3XSJhnSK3tnubjdaT3wTeTui2BNPlytPx41fpl2xfrGoV7h+UO/dXaLmEcG632z3EVfq5snTNWf+43p0+r2aOLqf2ngiJqeWR91vXlPHLbycHSz5cKLeGMAABhpvgHC98TXEITXEAAYwgAEMYAADGEilgaSF61a+Wp3Qr2YNr5/69u6pbl06qnWT6NuEu9xtdPGzO411yei1rVjh+s8bpmhYm4jXc7fUoL+s1u5Y619xrhUnI1yvWFum4ScH1jj7a9ANLzV8jdOXRjvXKz7XIyNaRwXrVtPjNeSSm1Q2bY7mz5+taWU36ZIhnaJ3trvbafQT30TcdTPawZEd741d4/Tp4Ht3q6R55Nplvlp1H6Erb56s6XPm6/FHp+veiaPVr40n4m6jljzdb9aag4xdqRy7eG/8YQADiTRAuB7nJKmhjZC0cL14nJYciu4UB799Xfed11EeM9i0mun8BT+GJl624foBfTD9HLWLDNaPGqhbXjcnsNHv39D6+H8+8eF6Yo7Lly7hetW3mndecfik012skpuWaHOsydnBzVpyU0nErfzdanvxsxHfhVTbxNMlK/9E3fB6jCsr6xGuV2wsU0mROem0VNjlN/r7ezsjJr7+dqrSj2+XaWib8CuHrZYXauEPxgUhDvXXePzynAT1N9o4NEZTC2qRhQYI1xkr+bzEAAYwgAEMYAADGMhsA8kL14s1bsmh6N8DD36r1+87Tx3DNmVYanb+Av0YDMSj17Yiw/UDH0zXOe0ig/WjNPCW17Uz+DqJaZtkhOuJ6TfpEq5X6dt550WtWRaX3KQlmw9GG/Ad1OYlN6kk4lb+7rYX69kd5rphtIMj4Xrj1jh9FRtVVlIUFphbhV30m7+/p51V0WaqfnxbZUPbhK/hWi114cIfjAtCop+XmDbmdakjBjCAAScMEK47tHDtdLhejWfvcv2+o/ndRXk6fuLq0ASlznD9oD6aeb465JvhqEtW8/76w8odSZkIJD5cr9LWt5/UnNmzNbv6z6Na/lmMSbrfQMX3WvvEvSodPVSn9OutfqcM09iJD2jJJ/vkTZNwveK9W9U937glkuVRtxtW1n1lrXe3Vl7XNewiC8szUGUfV4Yc+GqfeLpclgp636q1ByIGZNtw/SctucL8vnv/beZHa8HX5vtGvKbPqx0vXq6OeeY5NtMFC3clxZsTAyzvEdnG/DcmMJDrBgjX6QO53gc4f/oABjCAAQxgAAOZbsDxcL167Xavlv++o/KMW23nHT9Rqw8HPEWvbZnh+sGPZur8Dvlh4ajLaq7+f1gZsQEl8HqNe0xGuF619W09OSewxjlbjy7/zFjbM4+3Qt+vfUL3lo7W0FP6qXe/UzRs7EQ9sOQT7fOmSbhe8Z5u7Z5vfOe9JU+3G7RytxmUm+fk/7tXu1dep67mRRaWRwPLPja+BjXaQSBcj3+N06efllwR9n33Lv+u+QVfG+8beaw+eXe8qMvD1uUtNbtgYew7hDqUT2T62MPxRzujJtQEA6kzQLju0IdXSsJ13z49cUFh2ESl5WXGLYNqDdfL9dm80eoYGaw37aOJL38fY9dxYgAnPlwv18oJZsBboJHzdkZNPCu/W6obS1opz9zlXzNZtwo76VcPLdZfSzyhOuZ30y3rKqJep9aBrOoL3T/YeL6rQEMf2dbAwLhCa2/uqnzjlwj/bf7/sauuSeeRdvH+uEhjWpk7wj3qd8+HxgSwromnSy6rSCVl/1O52VfswvU9z2hMS+PCDKtIZzz0pb2dyg81eehJOnn4xbrujof0xL/W6qs9Dai1eYz8vf5GqRW1wgAGHDJAuJ6YOVOtcw6H2pH3px0xgAEMYAADGMBA7hpITbju074nLlChsS5mtbxMLwXv5hm9thUI18s/m6fRHSOD9abqM/FlfR9j13EibCcjXC9fOSEs4C0YOS/699jK77T0xhK1irgLaXXAbBWq068e0uK/lsgTrGO+ut2yLvp1av29okpf3D/YeL5LBUMf0bYG7vyvWHuzupobiPy3+f9HPTbXeH/UojGtwnaEe/rdsiLCZQAAIABJREFUow8rA/0x2kEoXI9zjdO3R8+MaWlcmGGp6IyH9KWtnUp9OHmoTjp5uC6+7g499MS/tParPaqotbaBc+AxEX2Q18ARBjCQbAOE6w59oKUkXK/6UlNONUNdt4753cuhCVPMcH23vlj4G3UyrwJ0uWQV9VTpsm324Wgj6pmKcN275zXd2LOJMUEydk0HAnZ3oZoUGkFxKsL1qs168LTwtmxz+VLtr1e99+m5i4uNc7RUcPZMY+IbOfF0q7hV+O3nraPO1NTPjF3nNuH6oeXjdYw7VEuryXDN3m5/IUCyBzxenw9VDGAAA6k1QLie2vrjn/pjAAMYwAAGMIABDDTWQGrC9Sp9OeXUsFDXfczv9HJ5oD0j17Zc8ofru79YqN90ivj+a6tIPUuXaZttOBp47YY/piRc9+7Razf2VJMYm4eCAbPlVmGTQmONMBXhepU2P3haeFu2uVxL99evzvueu1jFxjlaBWdr5rbAmmOkg8avcfoOLdf4Y4xNS1YTDZ+9vYGbpup3bo3tmzyfOmMAAxhwzgDher3CycY3iPPhepW2LxmvE8J2n3t0yv2b6gjXPRp40UXqHBGs+2+bk9/9T1oTeWvwBNfO+XC9XOtu7RF2y3T/Lu3Owyfqb3MX6vGH79C4k1tH72hPRbhe/qquaWdM5FwFOrveu9+r9FXEpDXvuOv1Rq23zirUqLJpuuBo8/3cajXqUX0d+MWjznC9Spv+Nihskpzf83ZtqGh8P+LDgRpiAAMYyGwDhOuZ3X70P9oPAxjAAAYwgAEMYCAV4XrV9iUaf0L47nPPKfdrU2CdKsZXHnoGXqSLOkcE6/4NRPnd9ac1B0Lrowle3/T3kVSE6+XrblWPsDVdS0Wdh2vi3+Zq4eMP645xJ6t11I72VITr5Xr1mnZhu88Lzq7/7veqrx7UaZ7Qhh5X3nG6/o3DNe0ZGa43do3Tp6pNf9Mg8/3ye+r2Ddxlk88CPgswgIFcN0C4noQJVCxUSQvXm52pWxc/r+ef9/95Ts8+vVCPzijTHy8dpHZhEyqXLM/JKvvI2H0ctXPdmJgEbw9U8/+sJhpw5390KIn1cjxcP/Cyft/eCJAtj7qWLg//rqVDH+nBoeG7uF2pCNf3PaELCo32cbfSFcvK6/2LwIFnx6qpeVVn0RgtPhj4AIieeJ63YKe++PswtTR2n7vcbTX26ZorM+sM1w/rrUmdwr4Hy79TfnuMW0R5d/xXy18I+I39+OKbm+q5Qz9wPjzGGoP4f7jAAAbSwQDhOg7TwSHHgEMMYAADGMAABjAQv4HkhevNdOati2vWOJ/Xc88+rYWPzlDZHy/VoHYRIbnl0cllH9X/Kw/D1jktNRlwp/4TvKV8/LWozZHz4foBvfx786sxLXm6lmr5jsCObv85HtJHDw5VsbnW50pFuB75NaZutbpiWfjXUda1/nzgWY1tatxh1CrSmMUHaw3XG7fG6dPhtyapU56xJuvfKR/r7pzeHfrv8heCfo+s1Uesdb74pjbVc4d+bbb4/4nvr9SUmmIAA/EYIFyv68M6gf+WrHA9eFufsEmi8YEf+P9Wvjr97p/aZQacDQnX/Vd2Nh2ksg/qH+g2FKTT4XrFO39QF2Ny5C4eo6d3mpPOI4NK+Zo/6ETze4BSEK57d8zR8AKjXd0dVLqy/m1xaOlvw26Z5Co8Twv2BAbNWOH6HvkqPtLfTm1m3CrKpbzjrtRSf43qDNfLteLqtuFXoJ7zWLi9mr5VvqpUHcIm9cY51tj1DL5fXwSvRA4cM48N7V/8PGYwgIF0MEC4jsN0cMgx4BADGMAABjCAAQzEbyBp4XpgDdP20VJ+p9/pn7vMNbzIta3o9aWwNVSrqQaVfVD/QLeBa8SOh+sV7+gPXfIUPEd3scY8vTP61uXla/SHE/NDP5eKcN27Q3OGFxjH4FaH0pX1b4tDS/XbYiNcdxXqvAV76gjXG7PG6VP5iqvV1ly7LDhHj4XZq+lL5atU2sHYxBXLsWew7v+iqt6bpRin4h+nqB21wwAGkm2AcL2Bk6N4GySl4bqVp2OGTta6vREdqo5w3cprr1F/uVnDis1JgaXmQx7Qx0m6vbez4bpXu+aPUmFwN7elwuFz9IN58UHARvlyjW9j1CEF4bpv12MaFRaut9ZV/6p/uH4wcud6k4u0KHilZOQvIKFJ6aH37lA/8/vmrXydeP1r2ntwicYZE1l3u2u0Ivg9V4e1OmLnuuesGfo2RkBOuB7RJwPmeOQXDQxgIEsNEK4z7sc7l+Z52MEABjCAAQxgAAPpYSC14bqlvGOGavK6vRG/M0aubRnhupWn9qP+opuHhd+Z0mo+RA98nJzbezsdrnt3zdcoY/3OKhyuOT+YFx8E7JRr+fg2xoaYVOxc36XHRoWH662v+lf9w/WDkTvXm+iiRftrPEQ6aOwap0+HV0fsXPecpRnfxgjICdcj+mTAHI98dmEAA9lpgHDdocXrlITrlkfFXYepdMZqbQt+v7YBuZZw3cprq5HT/qcDvsPaWFaiomAA7ZLL3UJDZ2wybrtkvF4ja+lsuB75veBuHT1+eeyJXOVG3d3PE7qiMhXhesROcZerQMPn7Ii+AjVmG1Rp89QhYd+B7g/DXw2G4bVPPH2+n/XWTd3CvpfeKuilW954uo5wPbK2LuWf+Ee9G+OiDML1xPUfPqSpJQYwkAkGCNdxmglOOUacYgADGMAABjCAgdoNpCZct+Qp7qphpTO0elvg+7XNY4xc26oJ1608tR05Tf874NPhjWUqKTJ3PLvVYugMbao0Xycxf3c6XI/8XnD30eO1PLjuZ55TpTbe3c9YI0xFuH5IS8YVh90ps2D4nPCv6Yy5vnnkPKo2T9UQ8zvQ3e10zauBDUiRDkLhenxrnLG+c/1E/fHdGBdlEK4Trtfhls8Ucxzi73jIDgOE6w4NeskK161mZ+kvzy3RkiVLtGTpUi3757/0yqo3teY/H+qrH/bXHYLHCNetvDYaNmWDfg7U5efV+r+T8sMmPO5WIzV7c4wr9ALPifPR2XC9Up+UDTQmk261/f0rscP1qs9136AUh+uVH+oeM+B3udX+6ld0sF61/lkvXtbKuCrVJc+pU/RlcCd5XRNPn7x7XtGEzqYBS0W9T1G/ZqFfSMJ3rvt0aPl4HWPcMskqOFPTv4k24/3xA726tMav3/CSFzX7qm7KN26dxG3hs+PDhkkD7YgBDPgNEK7jgLEAAxjAAAYwgAEMYCCzDSQtXLea6ay/PHdkjXPJUi1d9k/965VVenPNf/ThVz9of50heOTalksuK09thk3Rhp8D9f5Zq//vJOWHbSJqpZGzN6uqXutrgdexf3Q6XK/8pEwDjcDZ3fb3eiVmuF6lz+8bZKyHpiJcr9SH95gBv0vu9lfrlYP2dfWPHT+/eJlaGWuOLs+pmvJlYM0x0oEZrse3xuk7tFzjjzHuaGoV6Mzp30Sb8f6oD15dWuP3yFrni7OvUjfzq0a5LTwBfILHGj5P6zduUCfqlAwDhOsODWhJC9eLx2nJoTg7R1S47lHfP6/VvrCaeLXjuUvV3py0uNw6+oL5+iYYzsb5/mHv45Oz4XqVvp1xpjGZtNRszGLtjzim6k5X8R/d1sP4PqJU7Fz3HdKrE44NC8jdHa7Ssshb/cc4fu/u53SJeVt7V55OuGmNDgd/tu6Jp8/n1Y7nx+lY4/vpg9/hVBOCR4brvt2LNLpFKHx3WYU6bcqm6Iln8BgChqJ3vROuB2rDYzI+BHlNXGHAWQOE687WG9/UGwMYwAAGMIABDGAg0QaSF64Xa9ySQ3GGb5FrWy55+v5Za/eFt793x3O6tL0RlLpcch99gebH2BDSmLo5Ha5XfTtDZxrhutVsjBYHvw7SrEGF/nNbD2NTSyrCdZ8OvTpBx5prze4OumpZ5K3+zeOu+bt3t567xLytvUt5J9ykNcE7tkY6CA/X41rj9O3WotEtjI1nlgpPm6JN9VgXj7yjgItwPc7+HcNC1JoyP9OYMYvn4gcDDTdAuO7QQJwZ4Xqh8R01Bqaqr/TIMHMS4b89fDuNXbStnrclN16rjno7G677dHDp5WFXOnr63KUPYlwF6925QOcbu7RdKQnXfdq/4hp1NANuq4n6/2Vt7AsCgnX+WWtu6a0C86rcvC666d+B2yX528Zu4umTr+o7LfxV+OTVDNijwnXfHj13ydFhFwPkdRirp7cGriStzQThOh9ktdng/2MDA9lggHAdx9ngmHPAMQYwgAEMYAADuWwgU8L1wosWxVgzq9JXjwxTC3OdzOVWu7GLtM2bONdOh+u+g0t1eSvjogFPH931QWV0kOndqQXnNzOC4tSE6779K3RNx7zQV3C6LDXp/xetjXlBQKhdfl5zi3oXGJt5XHnqctO/jTuRJmON06c9z12io82LAfI6aOzTW203ERGuh9oul8dMzh0HGMhOA4TrwRAyuQ2c0eG6z6fy9+9S/0Jz8uJS3rGX6bkfvNETtThr6nS47t06S8OahM7J8vTSresPRpxPlb56eKiam5PuFIXrvor/6Z4BBcYE2CUrv4POmbJee2L9AuDdrbX3j1C7vNA5ulyWmp7+oD4Pu4igHhNPn0+VXz6iYcXGRN24dXt0uO7TofW3qZcn/L2b971OL3xtBvtmv/tZm5bcoXOODz9Hdq6bNeLvTEYwgIHMNkC4ntntR/+j/TCAAQxgAAMYwAAGMjtc98lX/r7u6l8Ytr7myjtWlz33Q8I2ETkernu3atawJqFzsjzqdev6qK+TrPrqYQ1tbq7VpShc91Xof/cMCN8MZOWrwzlTtH5PrLVmr3avvV8j2uWFztHlktX0dD34uXkRQXLWOH2H1uu2Xp7w927eV9e98LUR7IePDT9vWqI7zjk+/BzZuR6x7h5eMz5fqAcGMJBJBgjX4wyCG9rImR6u+3x7tbK0s/KMQNXlytNxVy3TzljBbhx1dTpc93m3au45RxkTI0uF3X+nZzYFAvZKbV91m06NDJQbHa7nqf2gMfrtb39r++fKO5boO+M2Q3vfvFHdw67Q9H+HlEftT71Sd899Ua+9857eW/OaXpx7t64c3F4e86IA/6SzaIDuWH8gYiJTv4mnf4f7x/efpmYRr+nfwR4rXPd592jl9V2jjsHdvKtG3fA3LVz2ht59b73WrHpR88qu04X92kT9rP+1Cdf5UG3oeMvPYwYD6WuAcD1924Z+Q9tgAAMYwAAGMIABDNTHQMaH6z6f9q4sVWfz7pAul/KOu0rLdsYKdhvuwvFw3efV1rnn6Chjzc4q7K7fPbMpGLBXbl+l204tDrvLpMvV+HA9r/0gjanHGudvr7xDS74z7mi5903d2D18g41/U5Cn/am68u65evG1d/Tee2v02otzdfeVg9U+bAOPfz20SAPuWK8DYWvQSVrj9Hm1Z+X16hp5DO7m6jrqBv1t4TK98e57Wr9mlV6cV6brLuynNpE/619TJ1yPWJNueN+qzxjFz1BXDGDACQOE62EfwMlDl/nhuk/e7U/p12Hf3e3fOd1ZpSv2JOTKTsfDdZ9PB/59s3pEhNWW52h1HXS6hvTtqGZu/9WclvI9+aEQvtHhusu47VHdf/f0v1cfhe0yP6QPZ4xU27Dd6HW/RuD27Zano0Y/tsn4rvWA9/pOPH3yHdqgOwdEXN1bW7ju71sH/6dpI9opz5jcB46nPo/+Yx417f0Yt/EKHDuPTnxQ8B44wwAGEmWAcB1LibLE62AJAxjAAAYwgAEMpMZANoTrPu92PfXriK8/tPLVuXRF7LtDNnD92Plw3SffgX/r5h4RYbXl0dFdB+n0IX3VsZm7em3TyvcoP7hO1/hwvT7re9U/4+mvez8yd5n7dOjDGRrZNnw3er1ez/Ko4+jHtCn4XeuBvpDENU7fQf1vWuQdQuu3Jlt9Tv5jHjVN79vc+p5xLdCWPGIBAxhIbwOE6w2cHMULOhvCdZ+vUp9PPSP8Fun+Kwq7TtTrexsPPRXhus93oHpiVHtYbamoV6nKJnRXfmDXfkrDdX+dD+jjBePV66jYt2iPnoRachefrOue/aKWWxU1YOLp82n/239U94irL2PuXA/0rYOfatG1JWrVkAsCLI/aDb5aj7z7o+33F8XbJ3le4/ssNaSGGMBAQw0QrmOmoWb4ecxgAAMYwAAGMICB9DKQFeG6/+sPP5+qM8Juke6S5emqia/vbfTu2pSE6/5NRP+bphF1hNVWUS+Vlk1Q9/xAKJzacN3ftw98vEDjex0VsaM+cHzRj5a7WCdf96y+KI/VL5K8xuk7qE8XXauSVg25IMCSp91gXf3Iu/rRuDsp41qs9uP/4QIDGMgcA4TrgQAwyY/ZEa77dyKv1a0R3zHjvy15jz++3eiJZ2rCdX9nPaBPn5mk09tHfHeOp5X6XDpVa3aWa8PtPdIoXD8ywBza8pqmXztC3YrDjzsUrlvytO6pcyfN0tvbDtfRPg2bePq8P2lFaWfjKtdabgsf1qcq9P3ax3Xr2BJ1bHrkStnQcdZMlC23itr10Ygrb9fc1zdH3NYpcwZVPgBpKwxgAAO1GyBcr702uKE2GMAABjCAAQxgAAOZYCBbwnWf76DW3tor4isKLXl6/LGONbT6GU1VuO73c+DTZzTp9IivirQ8atXnUk1ds1PlG25XjzQK16vNH9qi16ZfqxHdiiPaIxSuW57W6nnuJM16e1uMu3IG2sWJNU6fKr5fq8dvHauSjk3lDt4FIHSs/ruguovaqc+IK3X73Ne1+UDg+HjMhDGOY8QpBjBQHwOE62EBYPLQJCpcr0+jZurPJD5cb2B7ln+v919epLkzpmvmwiV6Z8v+hNzuPuntcXi3vly3Qs8tmKXpU6doytTpmrXgeb26/ivtqWhgDRzoD94D2/XRmuVaPH+WHn5oqqbNmq9nXnpFb33wnfZ70+94k95+DtScc8AVBjCQLgYI17GYLhY5DixiAAMYwAAGMICB+AwkLFzP4vWQZITrDfNaru/ff1mL5s7Q9JkLteSdLRmy5nZYu79cpxXPLdCs6VM1ZcpUTZ+1QM+/ul5f7alo9EUPDathPfqH94C2f7RGyxfP16yHH9LUabM0/5mX9MpbH+i7/d70O94s7nMJb1tqhV8MYMDGAOG6TYESNTATrttPSFIerjtkIVGmeB17U9SIGmEAAxhILwOE6+nVHvQP2gMDGMAABjCAAQxgoKEGCNftzaQ+XLc/xoa2Oz9PTTGAAQxgAAMhA4TrDgWqhOshdLV1QMJ1+xrVVjv+P7XDAAYwgIFMMEC4jtNMcMox4hQDGMAABjCAAQzUboBwvfbaBNwQrtvXKFArHqkVBjCAAQxkogHCdcL1tLm9QyLD9ajv83aZ33vD3zO1Ppk4yHLMTA4wgAEMhAwQrodqgQtqgQEMYAADGMAABjCQiQYI1+3dJjJcz9Q1PI677vXnTOz7HLN936dG1AgDuWOAcJ1wnXCd4F2ZMuHlwyl3Ppxoa9oaA9lpgHA9O9uV/kq7YgADGMAABjCAgdwxQLhu39aE63UHy5myDpnM42TMtO9H1IgaYQAD6WyAcJ1wnXCdcJ1w3aFxIJ0/DDg2JisYwIATBgjXceaEM94DZxjAAAYwgAEMYCB5BgjX7WtLuE64bhfMM0bZ9yNqRI0wgIF0NkC47lCoxneu2w8EibwtfDp3Oo7N3gI1okYYwAAGstMA4Xp2tiv9lXbFAAYwgAEMYAADuWOAcN2+rRMZrtO37OtNjagRBjCAAQw4bYBwnXA9K3euO92ReD8GbwxgAAMYwIC9AcJ1+xrhiBphAAMYwAAGMIABDKSzAcJ1e5+E6/Y1SmfjHBvthwEMYAADdgYI1wnXCdcdMmDXGfl3BmwMYAADGMh2A4TrGM9245wfxjGAAQxgAAMYyHYDhOv2xgnX7WuU7f2E88MABjCAgew2QLjuULDKbeHtOxK3hbevEQMyNcIABjCAgUw2QLiO30z2y7HjFwMYwAAGMIABDPhEuG7fDwjX7WtEX6JGGMAABjCQyQYI1wnX2bnukIFMHig4dj7oMIABDGAgEQYI13GUCEe8Bo4wgAEMYAADGMBA6gwQrtvXnnDdvkb0YWqEAQxgAAOZbIBw3aFglZ3r9gMFO9fta5TJgw3HTvtiAAMYwADhOgYYBzCAAQxgAAMYwAAGMtsA4bp9+xGu29eIcYAaYQADGMBAJhsgXCdcZ+e6QwYyeaDg2PmgwwAGMICBRBggXMdRIhzxGjjCAAYwgAEMYAADqTNAuG5fe8J1+xrRh6kRBjCAAQxksgHCdYeCVXau2w8U7Fy3r1EmDzYcO+2LAQxgAAOE6xhgHMAABjCAAQxgAAMYyGwDhOv27Ue4bl8jxgFqhAEMYAADmWyAcJ1wnZ3rDhnI5IGCY+eDDgMYwAAGEmGAcB1HiXDEa+AIAxjAAAYwgAEMpM4A4bp97QnX7WtEH6ZGGMAABjCQyQYI1x0KVtm5bj9QsHPdvkaZPNhw7LQvBjCAAQwQrmOAcQADGMAABjCAAQxgILMNEK7btx/hun2NGAeoEQYwgAEMZLIBwnXCdXauO2QgkwcKjp0POgxgAAMYSIQBwnUcJcIRr4EjDGAAAxjAAAYwkDoDhOv2tSdct68RfZgaYQADGMBAJhsgXHcoWGXnuv1Awc51+xpl8mDDsdO+GMAABjBAuI4BxgEMYAADGMAABjCAgcw2QLhu336E6/Y1YhygRhjAAAYwkMkGCNcJ19m57pCBTB4oOHY+6DCAAQxgIBEGCNdxlAhHvAaOMIABDGAAAxjAQOoMEK7b155w3b5G9GFqhAEMYAADmWyAcN2hYJWd6/YDBTvX7WuUyYMNx077YgADGMAA4ToGGAcwgAEMYAADGMAABjLbAOG6ffsRrtvXiHGAGmEAAxjAQCYbIFwnXGfnukMGMnmg4Nj5oMMABjCAgUQYIFzHUSIc8Ro4wgAGMIABDGAAA6kzQLhuX3vCdfsa0YepEQYwgAEMZLIBwnWHglV2rtsPFOxct69RJg82HDvtiwEMYAADhOsYYBzAAAYwgAEMYAADGMhsA4Tr9u1HuG5fI8YBaoQBDGAAA5lsgHCdcJ2d6w4ZyOSBgmPngw4DGMAABhJhgHAdR4lwxGvgCAMYwAAGMIABDKTOAOG6fe0J1+1rRB+mRhjAAAYwkMkGCNcdClbZuW4/ULBz3b5GmTzYcOy0LwYwgAEMEK5jgHEAAxjAAAYwgAEMYCCzDRCu27cf4bp9jRgHqBEGMIABDGSyAcJ1wnV2rjtkIJMHCo6dDzoMYAADGEiEAcJ1HCXCEa+BIwxgAAMYwAAGMJA6A4Tr9rUnXLevEX2YGmEAAxjAQCYbIFx3KFhl57r9QMHOdfsaZfJgw7HTvhjAAAYwQLiOAcYBDGAAAxjAAAYwgIHMNkC4bt9+hOv2NWIcoEYYwAAGMJDJBgjXCdfZue6QgUweKDh2PugwgAEMYCARBgjXcZQIR7wGjjCAAQxgAAMYwEDqDBCu29eecN2+RvRhaoQBDGAAA5lsgHDdoWB1zpw5crlc1X+KiorUrFkz/kTUwLKs6vrk5+dTm4ja4IX+ggEMYAAD2WAgMBcaNWpU2lzcl8kTeY49Mb+IPvPMM8w9mXtiAAMYwEBWGLjvvvuYYzm0zpfL8zCv1xtc4ywoKMiKvpPo37X8a5v+3338a52Jfm1ej7UBDGAAAxjAQOoN5OXlVX/WH3PMMVk5/3aly2R39uzZwYlnYGGZxyMXG1AH6oABDGAAAxjILQMjR47Myolnusw7OY6Ghe5PPvkk8/Sai4AZi3NrLKa9aW8MZJ+Be+65hzkW4XrSDZjhOuNI9o0jtCltigEMYAADGKi/gaOPPjrpc69UrPOlTbi+dOnS4KLdLbfcooceeog/ETVo165ddY1OO+00ahNRG7zQXzCAAQxgIBsMNGnSpPqz/vrrr8/KiWcqJru8Z8OC9Fj1MsP1yZMnMw9lHooBDGAAAxlnILAASrje+HlBrLkC/y+8rma4PmbMmIzrL078XnXqqadW/97jX+t04v14D9YLMIABDGAAA84a6NmzZ/Vnff/+/bNyjTNtwvV33323utD+X3g+++yzrCx2Y3/Z6N27d3WNJk2aRH240hoDGMAABjCQhQb4zvXwhcnGzp14fmLqaYbr5eXljD1ZOPbQVxLTV6gjdcRA+hpo37599XoK4Xr6tlE29R++c93eGd+5bl+jbOoTnAvtjQEMYCD3DPCd6w4tHhGu23cuwnX7GjFIUyMMYAADGMhkA4Tr+E1Hv4TruExHlxwTLjGAgYYYIFzHS0O8NPZnCdftvRGu29eosQ55PjXGAAYwgIFUGiBcJ1xPm905hOsMhqkcDHlv/GEAAxhIvgHC9eTXGMcNrzHhesNrhjNqhgEMYCC9DBCup1d7ZHv/IFy390a4bl+jbO8nnB8GMIABDGS3AcJ1wnXCdYcMMJhm92BK+9K+GMAABuwNEK7b1whHzteIcN35muOcmmMAAxhIrAHC9cTWE59115Nwve76+P0QrtvXiH5GjTCAAQxgIJMNEK47FKxyW3j7gYKd6/Y1yuTBhmOnfTGAAQxggHAdA+k4DhCu4zIdXXJMuMQABhpigHAdLw3x0tifJVy390a4bl+jxjrk+dQYAxjAAAZSaYBwnXCdnesOGUhlR+e9+aDBAAYwgIF0MEC4jsN0cBh5DITruIw0wX9jAgMYyDQDhOuYddIs4bq9N8J1+xo5aZb3oj0wgAEMYCDRBgjXHQpW2blu33nZuW5fo0QPALweNccABjCAAScNEK7jzUlv9X0vwnVc1tcKP4cVDGAgXQ0QrmPTSZuE6/beCNfta+SkWd6L9sAABjCAgUQbIFwnXGfnukMGEt15eT0+EDCAAQxgINMMEK5jNh3NEq7jMh1dcky4xAAGGmKAcB0vDfHS2J8lXLf3RrhuX6PGOuT51Bi1yt/9AAAgAElEQVQDGMAABlJpgHDdoWCVnev2HZ2d6/Y1SuVgwXvTPhjAAAYw0FgDhOsYaqyhZDyfcB2XyXDFa+IKAxhw0gDhOt6c9Ea4bu+NcN2+Rk6a5b1oDwxgAAMYSLQBwnXCdXauO2Qg0Z2X1+MDAQMYwAAGMs0A4Tpm09Es4Tou09Elx4RLDGCgIQYI1/HSEC+N/VnCdXtvhOv2NWqsQ55Pjf8/e2ce3VT1xfvcm6YtQwdmSqGMlrZQKJRBRi2TVFEooiiKgEVQcUb0h0BXReZRRkGgUJB5nheDIGUUFgUFgQdI8TGVVYZV6Gu7kqx837pTcpPc5KZtkk77j660aXKHfb7n3H325+x9SAOkAdIAaaA4NUBw3UtglTLX1Ts6Za6r26g4Bws6N7UPaYA0QBogDRRVAwTXSUNF1ZAnvk9wnXTpCV3RMUlXpAHSgDc1QHCd9OZNvRFcV9cbwXV1G3lTs3Quag/SAGmANEAacLcGCK4TXKfMdS9pwN2dl45HDwTSAGmANEAaKG0aILhOmi2JmiW4TrosibqkayJdkgZIAwXRAMF10ktB9FLUzxJcV9cbwXV1GxVVh/R9sjFpgDRAGiANFKcGCK57CaxS5rp6R6fMdXUbFedgQeem9iENkAZIA6SBomqA4DppqKga8sT3Ca6TLj2hKzom6Yo0QBrwpgYIrpPevKk3guvqeiO4rm4jb2qWzkXtQRogDZAGSAPu1gDBdYLrlLnuJQ24u/PS8eiBQBogDZAGSAOlTQME10mzJVGzBNdJlyVRl3RNpEvSAGmgIBoguE56KYheivpZguvqeiO4rm6jouqQvk82Jg2QBkgDpIHi1ADBdS+BVcpcV+/olLmubqPiHCzo3NQ+pAHSAGmANFBUDRBcJw0VVUOe+D7BddKlJ3RFxyRdkQZIA97UAMF10ps39UZwXV1vBNfVbeRNzdK5qD1IA6QB0gBpwN0aILhOcJ0y172kAXd3XjoePRBIA6QB0gBpoLRpgOA6abYkapbgOumyJOqSrol0SRogDRREAwTXSS8F0UtRP0twXV1vBNfVbVRUHdL3ycakAdIAaYA0UJwaILjuJbBKmevqHZ0y19VtVJyDBZ2b2oc0QBogDZAGiqoBguukoaJqyBPfJ7hOuvSEruiYpCvSAGnAmxoguE5686beCK6r643gurqNvKlZOhe1B2mANEAaIA24WwME1wmuU+a6lzTg7s5Lx6MHAmmANEAaIA2UNg0QXCfNlkTNElwnXZZEXdI1kS5JA6SBgmiA4DrppSB6KepnCa6r643gurqNiqpD+j7ZmDRAGiANkAaKUwME170EVilzXb2jU+a6uo2Kc7Cgc1P7kAZIA6QB0kBRNUBwnTRUVA154vsE10mXntAVHZN0RRogDXhTAwTXSW/e1BvBdXW9EVxXt5E3NUvnovYgDZAGSAOkAXdrgOA6wXXKXPeSBtzdeel49EAgDZAGSAOkgdKmAYLrpNmSqFmC66TLkqhLuibSJWmANFAQDRBcJ70URC9F/SzBdXW9EVxXt1FRdUjfJxuTBkgDpAHSQHFqgOC6l8AqZa6rd3TKXFe3UXEOFnRuah/SAGmANEAaKKoGCK6ThoqqIU98n+A66dITuqJjkq5IA6QBb2qA4DrpzZt6I7iurjeC6+o28qZm6VzUHqQB0gBpgDTgbg0QXCe4TpnrXtKAuzsvHY8eCKSBsq0BY24mrp09hkN7d2HPwT9w+vI9PDeW7Xt2n6YNuHNmF7ZtP4S/HxtLxnPO+BiXDm/Htp2ncFtfftuR4Hr5bXv39W/325DguvttWpLbm66N2ps0QBooixoguE669qauCa6r643gurqNvKlZOldh28OI3MxrOHvsEPbu2oODf5zG5XvPYaRYumtxJsMdnNm1DdsP/Y3HJSWeR7Ep19qONE52ckEDBNddMJI7HsCUua7+EKfMdXUbWWvRgH+XvI3mTZuiafOBWHrLQIOel/qzdTsUtN3c+HnDFcxLaIamTZsievAq3POIo2bEk5s3kOmRYyvYwngfaz9shQhO15EvIyktr2C61p/H1N5RvE0iu4zF7zkK58g7jqQ44TNNI1ohcd0DlyYGxoe/YVh0U/7YnM0VfyIiENksGjFtOiLutbcx/PtZWH/mPvJd1abxMf7a+BMSezZDDT8GjEYDjfTDMPCtFomeI2Zg781cx3bJ3owRLYTrix6yGg9cajs9Ls15A814u3fFhGP5jo8v3UsJtmNe+mR0CmTh1/IHnM6z0UDuJexcsgiLFqn8LF6GAzccjav5uHsiBUnDExDXvhWio1vhxe4D8MmkdTif5eg7eTib1Br+bGW0Tz6LXMmO5eyV4LqNHstZ+5eY56eN3Qmuky5LqjZLzHUZn+DGddf8JcfXnIej4zoj0uxDRePDtVnq/oZNf3V8fDfpOO8oxnWOtPh50R9ibZabju3te6HzlTx9ebBNCK5TP/X4+CjTL8F1db2VP7iuR/q0eCGm0GIktjyT2ch4Fyvfj+afrc0S5uOqQfY/ma68qWHVc3khNpV3PAlxUULsJqJVItY9cCUxwIiHvw1DtNmfUo5NRUREoll0DNp0jMNrbw/H97PW48x9F+I8YnsYH/+FjT8lomezGvBjGEtcSqMBw/iiWmRPjJixFzdzHbdl9uYRaMFfZzSGrHbRj9Rfwpw3hDhnZNcJOJbv+PhSG5ZcO+YhfXInBLJ+aPnDaeS5oHVDxkp80DoCzfsvxDVX+kn+XZxIScLwhDi0bxWN6FYvovuATzBp3XlkOfw+xaYk7dCrev8iGzm3EcF1FwY2d4iI4LpzIXI2JriubiNrLRpwZXJ76DjwpnsRU646AjoFPS593trOJdge+gtIaqXjnVzfl+bgtksQ1fX7MTw4gcUfd0Jow4+wzxZQemzsNOLukngEMhxU1iJs5AHkFOBceWlfI9xH+G69j/bhucJ3n+1ORKhWgtYMKnSdiesOnU6LvYz3FqC7r/Q9118ZNggtEtfgmsqkIPfqBnzVuTZ0/L07Oz4DNigaiauvKjvnT5bhVT/h+75x83DHJV3ocXZctDCeaEMxfK/6ooaSakdT/gVM6lAZjLYuhm5/ZBdUzT81BpG8RpzZWAMNE4i3N+TYfd9kuINdo19EdR/rCaawCIKBLiQOSYcylRdsPN6FxPpaMJXaIvmcuo1LzVik0M8cXTvBdcuY4shG9L73bURw3fs2J52XFpvrcf/4IozsGIr6iXuKuDAsF7s/rA1WWjSo8UWPRQ/sn7MFeKZ4REe5u/FhbdYSRPbtgUUuBbtLS5vSdXpEN8WtW5MJBNdJ297UNsF1db2VP7iejxPfNoUP95z364MVT2U2Mt7C7K6+/LNV1zoJF0tFJTdPx6aeYXdiKLSSX8RUQNeZ12FQfZ4YcW9Bd/hK33P5lYsjtUDimmsqyR+5uLrhK3SurbNO9lA6D8MiKDoRq68qxzaeLHsVfvz3fBE3745yjMT2fvVnMS5aiHNqQ4djr2ossqTa0YT8C5PQoTIDbd2h2P5I1h9s71n6W38Dv75Rm9eELjYZf6n0E8OdXRj9YnX4KMUQGR1C4pJwKNPBgg2KTZW8OYikA3otVW1DcN1LgiW4rv4QIbiubiPryRLBdWt7FNR+ZeDzHoXrudgyqAofANWGehOum2B6tBZvVROCmtrQROx+7mpb5eDAyPrC5MSnKUYfV3LwH2P9wOpgNSwCQuogkNWA0UVj3Fm96sNbDtd9GvXCiFGjMErh59ORiRjcvydi61YCKzm5jD+ixxzDMwfPnJz0uYiv4yNOXhhUatwdH/34K7YdPYfL12/i+qUzOLB2Jr6IfwGVWQEKM7owvLMmw37y5RW4XjLtaDIZcO3n7ghmGQTEzVFYNGFE5pLeqCC1i9IEUXpPEa4/x6mkdqjMfZ+bSEa+ji8nLcTSX2Zj/NBOCPUVgDtbJQ6z/1ZaFW7Azfk9EMQwCHx5Fq64sKijrI1zBNddHc/oc97UPsF10ps39VZazqX/7yCmDYpBVX4xGYsQguuqvmJpaVu6zrI55hFcL5vtWlL7K8F1db0RXJfZyPgfliSEISQkBPV6zcQ/pWUe7MnY1OP1GFidhYYNQEidQLAaBrrocTirAlRNJjlc90GjXiMU41KjRn2KkYmD0b9nLOpWYs2gnPGPxphjzxz4NDlInxuPOlIiAVMJjbt/hB9/3Yaj5y7j+s3ruHTmANbO/ALxL1QWF0wy0IW9gzUZ9glfXoHrJdKOJpgM1/Bz92CwTADi5riwaMJ4H3u/iEElMValCtefn0JSu8p8u3IJPZGvf4lJC5fil9njMbRTKHz547CoEjcbfysm+lBsqqQ+X+m6ZM8OBzH0kmQjguteaiSC6+odg+C6uo2sBw+C69b2KKj9ysDnPQrXc7Dp3WDeUfM6XDc9w85h4gpethYGb8124PjbtGH2dgwJ4aA8A0eOqPHeMvQJYqBh/NFt0mz0r8J9XosGH6tnyMvhul+fFXiq9vwwPEDatFcRKk5MmMrdMV9h+wbjo734JNxXmOywQWj18TpcVSpnz5/vOS4uTkCYToK48Vj8r80kxgtwvSTakRsPjA834b06Wmi0DTByv9KEMQ+HPhUWYLA1h2CHkxJmSuOL/u8p6FCRsz2LqnFTcVZe6s5kwL3dn6GF+P8qry1Vribx/DBGNfaBhq2NgS5uSaB0LaX1PYLrNuOW2jhC/3dt/C+inQiuky5L65jques24r+5cbKsKHfA9XwcS+qGVi1boiX/0wYjN9hXmPHcPbmoc8pc98q4W+ztXMTnRkm8foLrLvbxMtj2xaFHguvqeiO4rm6j4tBuwc7pqdiUEfeW9UEQowHj3w2TZvdHFS6JQtsAHx9QqJ5nNW7J4bof+qx4qvrcNjxIw7RXQ8UMZwaVu8/HLbsFDkY82vsJwqWEgaBW+HjdVceVJJ9fxOKEMLHyIosq8Yvxr80xPQ/XS6IdOd0b8XDTe6ij1UDbYCT2W8WNFPpF7jX8lhgtJHGIyR6OYpqCfvX4e0oHVOQAOlsVcVPPWifyGO5h92ctxP9XwWtLbytXDSjnsamCjQUK7WbVL+n/5dWeBNe91BEIrqsPMgTX1W1kPVARXLe2R0HtVwY+X2bhugm5R79AE750N4vqAzfgsQtj9aN1b6M6NyFhKuDlOTftM7pNBvw7N05wMHWtkXwxE2vfqsavtmVrDMR6lTJNBYbr3DUbs7DpvTpCNj1TAb0W37dxanOQ9m2UMCFhfNBoyBbcVS3j/hS/fxkpTmK0aDDygHX5e4/D9ZJoR64/63ExOZbfD4wrNXdBacW3uRwdA9+4n/Gfqq3l40QODn3akG9Lxr8Nki8oVTvIxfFvhbZhdK2QpPgZAy791I6/Tt+YCTinuIpYft6y9TvB9bLVnmXlOUxwnXRZVrTsvvvwBFwvJTojuK4apHefzkqJJlyYh5QEmxBcJz15U4cE19X1RnBd3Ube1Gxhz+WR2JThX8yNq8gnWOhaJ+NiplS9kUWNgevxyOlzp+Bwnbt3Y5aYiMDtmV6hFxbftykXnpOGb6OEUvCMTyMM2XLXJnal0J5Pf8eXkWL5eC7B4cBzKx/C43C9JNqRazv9RSTH+oFhdGiddAF6h+1pxJPzK/Bx22rQ8tURfeErLm5wCtdzDuHThlo+sci/TbJy7Cv3OL7l24aBrpWD+JipfMemCjsm0PcUxgKHGi/7nyW47qXGJ7iu3pncD9ef4vymhZg3bwFSj0lOQT6y/vkD21b/il+WrsT63Sfxb7aNQ+FIE8Yc3L1wCFvXrMCSpSuwdushpN/LtXIcbAfYp+c3YeG8eViwOg33RYiTn/kXDm9dg2VLliJ1y1FceWQPaPLupePA5lT8unQF1u0+jYxnSteoDNdz75zF3vUp+HXZamw5eAH3HO5PY8SjPzdgAXd9a07ggdEE49OrOLxhBZalbsGhi/cd7MMj2HDH+pX4dclyrNlyAOfuqK2sVG9/W9s5+zvv/t84tnczUn9dgmWrt+BQ+h08dwGSGXPu4sKhrVizYgmWrliLrYfScc9p5qpFQ6vTJCiaj8y/DmPrmmVYsjQVW45ewSM7iJeHe+kHsDn1VyxdsQ67T2fgmeL1Scefj5QjtwUYbHiC62nbsHrpL1iyYh32nL6FbMXvcg5bAfZcz8/CP3/swPqVv2LJ8jXYcuAc7ihmRxvx8NRaLJg3GyPaCs4+G9wFn8+Zx/el9WeyFB3sgttWRRPiPkuMRgO2Sn+szlL5vPEBVrwhZNozQa9jue1EgevXhkuY2FbIENe1nIB0vQlPN7+HmjyQD0DPhQ5Wc4pjQqHgusmEpyvfEMuQ+yDq+9NW/cqYuRr9xRL4bM23sNbFPT2N91agL591r4Fd6XxPw/USaEd+vHi2B4n1tHxVgi4zbygsrjDBlLsDQ2py1Qp88MLXaVZt4WzM4f+XdwSfiRMYv66z7FZlS983XPoRbXRc6X4dWiVdVJxIGW7NRVwFBhptKIZuV19pLh27LLwSXFcZyxz5IPS+U3+rqH2D4Drpsqgacv37Btw5upL3v+fNm4d5Czfi3BNuMd5jXNw0FZ8kxKFdiyg0i30JCZ9Mx85rMh9bfx+nViZh2GtdENs8Ci3adcdbX8zGnuvWgUzba8m+shvzxyYioUdHtG4egfDwCDSLaYeXXn0Xo5JXIO0/6210DP8dQcr8efhpoLhvKp9BwyK48yjM4a55/hLsuy5WzXl6HpsWcj4i9zMfyw7dgsGYhVOLR+H1DjGIebEH3v56IY7c5s5hQMbh5ZjPf5b7/EJs+1t2f1bjnAFZFzZj5jeD0eelNoiOjEBUyzbo+uogfD55DU7dU9p6RY8ruxeJ12JznfJjG65h7y/zzZ+bv3gPrsp9eZfhejau7J6PsYkJ6NGxNZpHhCM8ohli2r2EV98dheQVafjP4TyM+pytTunvomuC4HrRbUg6dN2GBNfVbeUNuO692Jj8fo14evMkdq1djiW/rsKmgxfxgF8w7mTPdVM2Lmzh4rPzsGD9GWQ5inEZs3Hr9B6s42J2Keux+9QtMdZnxIMTa8zxS8d91YicuxdwaOsarFiyFCvWbsWh9HvIlfsBBf3dA7Epw6WJaMtDVB1aTkiH3vQUm9+rySd+MAE9sfC2UgxYaoPCwXWT6SlWvlFBqJjoE4XvT8t9KSMyV/dHNX4LQhY131rLx4gd21l2LSv6Cln3Gi1CE3dbJX54Gq6XPDsKdnm2JxH1tFxVgi6YecOm0qSkP+Md7Pi2C0L9hKqUTIXGSJi+AUmdhf3mncH1vCOfoaGWSyzyQ9dZ/yrHvjhw/mMb6Dg/nkv8uGjPHrj2Lc+xKXV9SzqnV7KVYw0QXJcGNQ+/Elx3LEKpg7odrhtuYHon7qHkg8ZfHMWTy7/hy7h6NnvtMmArNUD30RtxzRFkNT7G2eVfoNcLgcJKMmk/Xm61nzYATXp9hZRzjxWAowE3pnfiH2Q+4d8gLSsdy0Z0QigHVMzHYMAGhKP/rJN4zDmX2RewfHh71BIfrsLnGOhqtMFHqf/YOITWcH1yejpSPmqHGmK5aPN3qzRD3wnbcdMuuKPHpR9jheuL/A4Hj05GjzriikPu+pgKaDH2hCyYnYsbO5IxoGV1MWNW2PeZOw9nh8Y9v8LKdE9CIiMen0/B6L4xNvbhrlWHKpF9MWHHTeQp9GXj47NY/kUvvBCoFRxJmf21AU3Q66sUnHus4LzKNBT+TRqy0pdhRKdQaw0xLALC+2PWSUED2ReWY3j7WvAT98nh24HRoUabj5D6j81iDPPxtag7Yh8yz/+CD1oEW+uM0SIovA/Gbbthf2+uwPXcG9iRPAAtq8valr9/BtqAxuj51UqkP5X3Tz3Oj28hOGBmO0ltza26tIaFhbatQjtJY4HwasCVKR0EOzJBeH35A4U+Zrlu438L0bOSUK675qBNipnu+jP/QzMuG57RIYafwJhger4Hw+sKKz59207E3/Lgqs01Fg6uG3FnXpy43xEHW61XrT5MeQMBvFa0CBupXpreYqNnOPPbPKTuPYvbtotvPAzXS6IdObtk/TaAnwwyfp0xw8EExgy+mUAkrH4iG98sWrLY2Po9w9XJeFGE5s3H/qkIzfnv5v2OUQ3EVcQ9F5sXVlkd13gLc172B6NhEdw3xcWJq/X1WB3PRqsl+X8E18tGO5ZkjRXm2giuky4Lo5vCfScPhz9tIFS04fws3YuYfDYNM/o0gL/cdxR9MDa4Db478BCG+/sx7qUQOx+c8zPZ4Fh8uz9TwU/Kxrmf+6KB1bxC8umkVwZscAxGrL9pfq7lHfyYDwgKcwnpc7JXJhBvbxCguOHGdHTin43c/1nUGroehye0QxAfnJW+o0OL8eehN+Vi94e1xf05uf/5oseiB/bP4rxrWDeqHWpI+33a+aMMtMExGL76qo1vnIPUvn6WeZbsOq3aKmct3qxsmY8xFROwRr7g1BW4nn0OP/dtYO3v214nwyI4ZgTW31QOZlpdUyl6jtN1l9zxkuB6yW2bsthvCK6r681zcL0YYmPicyrn6kZ817sJArSW5yi3LZ9/aFd8se5vHBktLszz64MV8jiTuYKcBlyVuYt2cZc8XN8yFq/axl0ZHwQ3H4gZf9zBye8i4aPRwCfyO3vfwWTE47PL8UWvFxBodW1c/EeLgCa98FXKOSHuWuBnrrtjU3qc+V8z/l4YXQwmpAt+wvM9w1GXB6a+aDvxb7NfZj9+FBKuG+9gXpy4HaFdlb2HSHkjQIiXasMwUrU0vUz/z87gt3mp2Hv2tl1SkWfhekm0I2eXLPw2gKuQycCv8wzcsCmVb27P/FMYE+HDJ4fUi/sCK9OfwGj4FzO7qMF1A65OflGE5s0x9k/Hfmbe76PQgNeUP3raVdEU27Acx6bMbVHgMUGmf/quwnhcvuxDcN1LnYDgunrH8hxc16L+Gx/ilRAfMBoGPoGhiGgZg6j6VUTgJcC2JiN245Ht6kn9daQODhfKSHMBE8YXVepHISYmCmHBFljJBrTAiE23bFaLyeB6w9cwqKtQfprxq4oGUTFo0bg6XxaYD1xp6+Cdlfsw+eWq/APYJyAUETExiKhT2QxaGb/mGJMmz+6QwXWfMMTG1uL3z+FAd2hES7RsWsfi8DI6hPZdgitW5YctcF0bEoNWoT5gGD9Ua9QczZvUQAVdOL5OkzJZnuD4pG6oLQW5GB2CwyIR06oFXqhdyXyNbFBrfL5DqhKg3uauP8iMuLv9U0SbA2EMdEF1ERHTCs0bVjW3I6Orh/7Lr1s5ofrrqRgcLmRgc7ZmfKugflQMYqLCEGxeiMAioMUIbLLdD9sMv33Q8LVB6MpnGDPwq9oAUTEt0Lg6V+ZHCBxq67yDlfsm4+WqLDSMDwJCIxATE4E6lSWgz8Cv+RikyYN35uNrUav7W4jjMmoZFpXqxaJ7nz7o2bYhAqX9un1C8friy9aZtmpw/clxTOpWW9xXSQNGF4ywyBi0avECaleSrotFUOvPseOutLjAgH/XfYuBA/qjc33B8WYqNsHL/QdgwIB38N1GMcPeZEKRbOvC2Gu8vQA9+DZnUPmVX3DHtn+aj2HA9ZldhKA0NxHYr5TBlYvfP2sklPT2bY/J/0irR/Nw9Ism/MRG4xOOb8yat9dvoeB67jkktxVXB7MhGLZTfm252DlUWJ2sYavj/a3y/9mf3+X+4lG4XhLtyNnqMX57M5gP2DsueWVC9toB/L5mGl0bTLz0HHf/3IYlU8fh61Gf4PNvJ2D68r3466Hy5CR3xxCxykEFvLb8sWMH0ngLs7r68sF9nyZf4pjVuCu1q2X8ZQLfQMpD6f2y/0pwvey3sctjlXkML36bEFwv/jYojbop3DXbwHVtXbSIrm72pZWAtrZOV8THBsmgtAStpVcG2rAPsfOxvB2NeLgjEY3Mvq70WeVXJrA75okL04oC14MiW6Ch7Tl9muF/Z7hnqwtw3XALa95poLiIwNY2jG84Rux6KFtU4CW4bnyIHYmNXLpGDjgEdp/nOLBagsbBwulZrjn6vbhtSHCdNOhNDRJcV9ebZ+B6McXGTCY8Pzsd3WpIcSQGuuD6aBbTAuG1KoLl9g7XhaJldE1hAWGB4Hou/pr3KkJk8cagelGIaRmOEDGexlSORs8udflj28N1Pa6nDkZ4RQn4M/CtUh9RMTGICgu2PK/ZALQYsUlhr3H1tnRrbCr3d3zWSEzwaD8Z/0jwNe8ovmjiI8QRuAQtuwQp6ToLB9dzzyWjrZjsxYYMw87n0vG4Cn87MZSv8KcBW/19bJX/rwi+ikfhekm0I2erx7/hzWCuWqJ9co3VGK2/iAUjR2L6zquW/dJdguu52DFErHJQ4TUst/L/ZW3KbQVwaxa6+nK+vw+afHnMOp5sbtfyG5uyag+zPaxtSJ8he6hpgOC6lzoPwXX1zug5uC4EkRi/hnhj0j78a4abObi1NwlxNbiHHrfnzEuYZZXtmIs/k9uiEg9PWQS1SsTS0w8s4Db/Pk4sGoLoAPH7AR0wKV1eVscC1/lgEFMBEYMW4Phd6TN5uLnuAzThA1AMtDodtNrq6PLdVlyTHBnDQ5ycEY8QbqWZhkW1dzfJgI4MrvPgn0W1jt9g4z/PxCCTEdmX1+OL9lWEYBwTgK4zLssWAFgeoPz9+4Xjg9R/xIe6Hg+vXcdDHmYacW/9u6jLO7osgmNH4Fe5HUzPcX1XMuLrCSCWrfoKFkqlIt3Uv4y3V6Cv1E4VI/Du3D9wx+xo5iFjfxK61xacfDb4NSyVSijl/onktpWE1ZdsEFolLsXpBxZwln//BBYNiUYAn13DIKDDJKTLQZgZfosaqhCBQQuO4670mbybWPdBE8FZZ7TQ6bTQVu+C77ZeM5dCMjw8iRnxIcIEg62GdzdlW9rQ9vjaWohLOog75lW8Bjw4NgXxocJCDqZyR0z+y3L9TsvCG6CkT60AACAASURBVO9h/bt1BbDOBiN2xK9W9256fh27kuNRjy9FxaLqKwtxXXLq+XbLwaZ3hTLr2tCPsM9sb7EvF9W2rmjDmIlVCQIwZSp2w7wMaQGAzXii/xs/thH05xMxBiel9pGfI3snhtURJjAV4+ZalfTW/zkWzfisKy1Ch+5Atvx7st8LBtfz8fDiJiTF1xcXfzDwbzUeZ+R2NFzHtI7CqlSNrjNm/isBf5v7k12D2kOd/78Mrutiv8aW34/gyBG1n8NYNkRcZKANxfC90sIam2spiXbk7PN8GwbzY4QWocP32WSySfeQjzPfRwkrxP0aoU1siHlhjiVgz0AbFIn+U47YZZNnLekNP26s1dbFiP0O7MO3VQ7WvxXIjztM0EBsND9zpOsQXjl4EcaN7WxVvLNRNi4UtL1L2ecJrlvrwKU+XcrauDTeE8F10qX3dGsD1/lsZwZsUCT6fjUVC5fMR9KgljaZ35IfWh9xI37EfP4zMQiWZ4ezwXh7vexZok9HUmsxO4mfJ1RAk1e/wtTFK5CybCGmjRmAFnzgTzg2V1ay+wJhgWz+6cl4rU0sWtQPlAF9rpJWOFrHxiI2tiv+d1B4DlpnrovH4u/J8rvFN1OD60bcXt4X1WX3xbBBiOr3DaYuXoalc8bhvdjq5kWjHLjWRXyDY+bnrHfguj49Ca3F/TCFOWQTvPrVVCxekYJlC6dhzIAWVm3D+HXHAvMiVupr3utr5c/WBNfLX5sXZ38iuK6uN0/A9WKLjeWewtiWXOU1AaK/8uN+ZEixDeMTXEz9GLFyv6IAcD3/XBLa8GCcgU9Id0zYdRM54vzHmH0ZG77piGqybHRbuJ77ZzLa8lUMNWCDWiFx6Wk8MMfU8nH/xCIMiQ4wx0U7TEp3ABmdtKkbY1PZO4ehDp9NXBFxc+UlvfX4c2wzISOZ2z5uh8yvs5oPFhCu5z/ExU1JiBeTZzSMP1qNP2MVMzFcn4aOYiUiXeeZVvGyoowzFriuQ+zXW/C7alzqCI4cXoYh4iIDbehw7JV0ZmUDE0qiHTlbPd82GDU4X5aLq+1zFjdS0JtLcD0LS3oLlZq0dUdgvwP78O2Wsx5vBXKLThgEDdxo7le2bVpeY1O2dqC/FTRp0+/IRvY2IrjuJZEQXLcXn22H9ChcZ/zRNjndynkQzm/AjRmdBcDCVEZCqqWsufF+irinMQNd40TszFQCe0bc3zpUzNBgUbXfSlkJYDlcZ1Ch/URctIV+xtv4OU5wUDUaLeq8s94O6PAANUYAcNZOpByuM/CN+AwHFVasGTO3YVgDLmtfA23YR9gngXuTHK6zqP3+FjxR6g95xzE6goO7DHThH2PvQyU7mJB3cRI68g6tFvWG77WsvFM6ZoHey8fJMZECwGZrod9y2woBnLaMeLj1A3MJpQ5TrvLv3U8R9/5hdGicuBOZSpnPxvvYOrShePyq6LdS2lud26Nb2lqAq1pQAe0nXrRzwo23f0acv7hClqtAsN6+fLn+QhJieEfVB5HfnVKG64wOTT8/qNgG2Ue+QiS/CEOLOsN2WuCvk8z1vOOjEcF9h9Eh/OO94kIJ236Yh4uTOgoLSLT1MHzvM8u1mZzBdSOKbFsXNfB0y2DU5hxTxh9dZynvo60/+wOac/ZlfNHmR+XyWVLJcA0TiFeX3pNlOXF711vgPBvcFylK+7Vzqz7vLUB3ftUntw98E7Rp1w7t7H7aIjYmCg1rVbaskOb6Tp14/HxBXnnCBFP+CYxuKqxMZgLewnpzcNi2nQr4twyuW6CxJcit+p4TuF4i7WgyIf/094jiS/77ovsCm/Y1a+0hfn3VUsWCqxJRsW4sXhkwGMOGvoPXXmyIIGnSzlRE5PAtsmoJBtyY1lGY6HIVDo5Li6SU2saykljj9yqWKYzL/PMncwl682OHD5qOPmE3ttg+I8vK3wTXlTRD7xW3vgmukwa9p0F7uM74t8L3xy1zEJPhKqZ29BMWh0qgWhuG9zbKqkMZbmL2S2JlHP4zOsQm/2X244y3VyOxXSTq1wyAjmUR3HO+Tfa0AdendpBtA+SD8K/TZM8iI/6bGwdf6fwaFiGJe2y2qDJBCa5zmWvdvlmADds24tfkRLw/9ZR4XBW4LtvTlPdVmAqI/V8anpqf49xiulMYGyOzDVsL72+RbOcNuG7E7dWJaBdZHzUDdGDZYPScb+OfGq5jagdx8SRnPx+uGpgzv4H6n/f6X9m2NcH1st2+Ja2fEFxX15v74Xrxxcay1ryJqmJcJuZ/J8zJJBZdGvFg6xDUl7LPXYbrWVj3dnUefDMVWmHsCXlMSrLxExz+Msq8MN4qLmq8j5S+QkIRo2uMxJ1K2+SYYLy/FUMbCkkrbNV+WOkg5mO5H+ncllf3xKakkuEaMIGvYuk96/iq/u8f0UZMgOG2j7uvFMM0yeE6iypN2ijEpdqhXdtYxEQ1RK3KlqqrXHywTvzPuGATe8o/MRpNuXiKhkHAW+sdQlhn9lH6nwWuFyAeZfY9NXAM10umHU2mfJyWEjp8u2OBTfsq2cjqPVfguuGGOUmH24L2uC1nkPvNuTswRKxI4PfqMsXtM/nzl9PYlJXt5Xaj381zSrKR5RngyBYE173UYQiuq4vRk3Cd8XecMZCf9jXCeSdChy6zbokDiBGZy/ugMpe1zgSg16Lb1jBOrhtjBhb0qCys4KwUj6UPJOdIBtcZP3Sbf0fhGHn4/bOGQlYzv6rNZk9u/jw5WPumcHw2JFE2wMngOhOEPsscASUD/pncXnBEeWgmnUMG153sP2zZo6UC4uZlKNyD1LZZWNlXyNbU1knEHkd72Mtt58rv+SeFfWjEvZVOOXIc9BexasI4TFmQit0XHsJkzMTyPmK7BPTCIimbXeGcxgxL+fFK8UstCxxkcJ3x64b5d6S2le7ZBFPe7/isIZcRLTh++5Tu27y3oxCYNA/I8uMHxmOJo6wWYwbmdROgIFtrKHZIjrBDuJ6H30cJ+3kyFeIcZ3xztshaib78SkYt6lgFTZ3AdXfYVqEdzHaR/y/nID4R96/26zAFV6yy67l2yMOxr8OFbOSKcZirlP1tvIul8YI22apvYk2WrP34cxlwY1ZXoaw8UwFdZ12XVXiwfFYO11UBNT8hYKCtXB9dhs3AwdsKQdW8w+Le3FzprcHYpqQduS1c/d1TcL2k2tFkwuMVfVCBG6+1ofjI0epgWV9l/F/AW3OPy1a0c+1swIO0mehbX5x8sjXQd7k09htweWIbcV+raIw7K6sgYdcuedg/QihZp/HtiUXmZ4JFS7zWze3PwL/3UmTZHcfm82Xk/wTXy2a7Ko7fpUizBNdJl97TsC1cZ2Dle/L9xuLHSf6GruUEpJuzsLj2yseJb8V9TXmfQ4DjSvehf5aJB09snlvPM3B0XAfZPu+CH5hn7reFhetaNByxzxqIm4/pHK7rLyahlZg1xd03W2UAfrNboGbA7R2TMPqHHzFz0Ups3H0UF+9KcxtvwHV5X9HjWeYDPLFqFxOeZxzFuA7S4mnON6mDxD0FzFwy20x+PvpdSd/0nkUXBNcttiBdeN4WBNfVbex2uF5ssbEnWPOmUNWQCeyDZY7AtOEqpkmLA12F649XIyGIS1ZhUW3Abw7nxMYHK9FPzIyXw3Vj5nL0EbcSDOi1CLcVYTTXVkZkLOghxngrIX7pA1lsVb0t+THFDbEp492liOfjbyyqvrnG/n4NNzCrq1ghoEJXzFKsCiqH6y5Ca0aLyvW7YNiMg7itEFPNOyzuza1hUX3wNrvFlIUdUz0F10uqHbntClf0ERa/KlYAVfPvXILrlzGxjbgve/Q4nLXxQ63aKm8/RtQV4tW+PRdZYt2211FOY1NWtrK1Cf1d8DGynNqM4LqXGp7gurqz4km47njfWxMMlyeiDR/I0eFFPuOZu9Y8HPwkTIDeuk6YblUu3vZeDLg5o5O5dI8F7MjgurYhPjuiFFTJx+nvIoX9nnVdHJSFzsX2D2rwKznZmkNkg5sFrjO+L2OOE3hsWYWoQ+yPl8RjyOC6eS9E+3u7Mqm9cG9sDcR9PQfz5s1z8DMX/4sPFW3WFhMvu6fEtfHufHTjV27aBv1sr9Xm77yD+CRMcCJ0nabbZOvYfNZwEzM6Cc6JlQMkg9/ahp/hiFK5nfzT+C5SyD7WdXFQPil3Oz7gS1azqDlkh6UNzcdn4Nt1NjIcTgT0uJDUSgR7MUhKFwOkjuC64QomtRfuh60Rh6/nOGqzeZg393+IDxXt1HYiLpvhtRO47g7bujz25uOU2EcYXSyS/7YJDuccwMj63PWz4Fb2PlCwoeHGLHTl95ZiUXvwVsWAr/HOYrwiTsp0DhxUOVzX1uuMd95/H++LP++9+ybiY0PNQWpun/qE6Ydw21wpwkZz3P3nn8S3EZ7NXNe1H4fD6Rdw4YLazzlsGCEsUuDLVymUhS+xdjTJ+0drJF200YikNWMmLu7biJQF0zF3+zVZdp512zw/PQ6t/YTSWbpm/8MZfrJiwD8/tRX6ID9eKiyWkM5jysPexDrCWOjXG0vsFnOI5+P6aTtxUtRiPM47mxSZj219raVxMiDB9UaNGqFbt27048AGo0aNsjwrylD7l1TNElwv/WNLSdWW/XXZwnUfRHx70uaZpMfZH5oLzxwenLOo+t4Wm0CnAVcmtZN9RotGnx91OG7oH13D8W3LMH3sCAyIi0aditKeqVJQlkWtoTtl5ygkXPdpjC/+cPSMdA7Xn6b2E7fjEq5J12UWbin4dfY2lfTrbbjOnVePR9eOY9uy6Rg7YgDiouugolQFR8q8Ymth6E5pAYB0rfTquB3JNoW1DcF192pn//795Kc68FM5Hz4uLo5PMOAWQy1atMjh86ewei4L33M3XC+22Fj+MXwllunWdZiKa+aYkW2f4/yXaME3cRGu5x36BPX5Eun+6LlYVkXSdv5jvIsF3YXKNXK4nnfwE2GrNY0OnabbVJKxOYbh5gx04mO/WoR+tK8Qmi1qbEpI6uCTAtjaGLxVqrwjt6MRdxa/Ii4C0CF63FnL1qTm+5HDdS3qdX7HHJd6//338O6b8YgNlRb5MajYJAHTD91WqDZgOW/+yW8R4dHMdR3ajzuMdNW41AVcOLcBI8KFOJly5nrJtaN8605d6yRcLGiMxyW4/g9+aivEkXy4eJXCYgnz+Jm3F4n89pga+PVeYr+YQ9JUOY1Nme0k2YFeCzEuWsaR8mpPgute6jgE19U7myfhOvdQ+8vBQ81wdQpeFOF6+8lXxIHkGVL7CavNmOB3sUnKFHagl9xN7yKYz3L3xxsrpX1xZHBd5wj4yOC6b08sViw9bykx7Aius9WcZ70a//sZcXw5ay3qfXxQvEcZXNd1wFTFFZF5OPhxPQESSQEiV161DTHqd6XFBOo6sB2M88+I5Z41XLlL5ZLftt/h/36Win48UGUQ/O4mlbJGueb9xRn/N7AyW7xOM/zWwKFjJIPrvj0XK5eeN5ficQTXWdT4YLssoGlvp0e/xgv7PbMhSNwtBugcwfW8g/i4ngDMpYwnV161DUfhd/MCAidw3R22ddCXlNrSUhpLh5bjz1tNLrK3D0EIV56MrYX3Nj9RcAT0+Cs5VijRzvgg7KX3MHToUPufIW+ibS3RZtoG+PiATQl3m7Lwfn1WKED6XGTsS0bPOsI2DIxvGPouuOhYe8YMzO7qKwQlfF9yukBGyS4O35NlrvvGzZOVNrfXleUYepwdJ06EFcvCl2A7mvJw5PNGwjjl+zLmOlloZLlfJ7YwPsCy14SqFxqdtFDIiFuzuwrlcX2a4KtjjsABd9xcbH2/mljari9WPXNwLuMDLOoptL+2wac4bO57Dj5fgD7j0n0W0/EkuO7KmFSeP1OzZk2F8axsa6M4dUtwnbTlPf3ZwnUdXpx81aZiDrdoLEYGzn3Q+IujNgBeNs/gfXMOrh+xGTdycWP3VCR2b4qq/PZCEkhXemVR+8PdMl+0kHDdrxd+eehIT87gum2ZegYVE9Y49qEUn2GuwvXf0F/cm5V7zjAVE7BGPtfL3Y0Pa7NmaKTx7WFfhSb3BnZPTUT3plVl2wAp2ZXzUWvjQ8l3V7xuR/ai973XL8uGrQmuu7cd58+fbxkHXImBlOPPEFxX1p674XqxxcZy1mFAgLD4vFL/35w+m58sf02IW7kI17nP+3OxVDZE5VmZiz2JIfwcWw7Xn6X2EyrYMcF4d5N9DMfqOZK7Ce8GC/fh/8ZKG59JuQ2tvm8yoUixKf1fSI4VquQxPmF46T2FuNTQoRjyZlvU4hYccNUxG3yMA3Ifhfcj5HDdD31WKED63AzsS+6JOnyZfga+YX2x4KJj+xgzZqOruAWi70tznFQAcM1Okt0smeu+iJunVM1V4XjiNkH8/SvtuV6C7WjKO4LPGwlxRd+X5xbcjq7AdeMtcxzRp8lXOOYMruduxfvVOJ+WQYW+qxxv31pOY1OSTulVoR/SnMXlZwTBdS+JheC6ekf1KFxvI8/Itb4WZbj+BMte9eOdGa4M906Vcs25O4aiJgf4NHLHRhb00rVxkMkth+u9Cg3X+TLszsDMw1/Qy4+7PvkKTTlc74wZN5UyzXOxc2gt3oHVsFUR3r4jOnZ04adzAqafcQafrNvA2YMs/9iXaCKW7e84Tblct+L3zYDRNhNH6dy52DG0pnCf8kmAHK470pAcrvcqLFzXou7IA7CU4rS/xuyU18VJRw18sF0FrufuxNBaQlCQrRqO9q60WceO6JwwXbbq0Qlcd4dtCzL2Gv7FnDihLL5P1Pc4bXYeH2HdWwLE1Db4BAftJh1cdvgpc2UB10EdixoD1+ORzTXKM9eV4brQbs9OJaNjkGB/RlcfA1P/tQmaS+2bh33DxWoPXMlQhWxxRW2L12XIvInrWQr9zNw+GrgNrpcWO/r2wEJHZeps2tOxbfVIl6CGbJKfvaovKvIT/1oY5jQD7SlSXhcWZ7EhH2K3w+fHY8tzJiTRyeckvZSNVwmuR0VFoX///vRjYwP5OPXkidKCobKhA8f9r3juj+B68di9pOnAO9djD9e7zLT1E2QVWXhYo5TdLptnKML1Zzg96SVUt82iFuEPw1ZAjVrB0HLPNf49lt8eyOKLFg6uM8HvOFmU7Byum7df4a+HQeU31zoN4Nu3ly1cD8CAdQqB5Oep6OvPBdeFey8wXH92GpNeqi6znWRD7pUBW6EGagXLKgOwVBbevq1ozPGETQiuu1dXkyZNMo8T5LPa++wJCQlm+xBcV9ae2+F6ccXGnq0Sn5vqiSs56wYIWdfyuBo3D5cBQUviigwSa+th5AFnCToW/0kO183w1pUqMbk7MFTaf7rPCpfBidV4XYTYVP6p7xDJxzblfoPK72wNDFz/yOZaZXazikHb6vAZTiV3RBAfq2agqz8QqUrbKHLtk7cPw8WKllx8ea+z+LJdXMWAzJvXkWWO01muw9w+GvfB9dJiR98eC3G/QBWYTDC5AtdN2VjVV9o2dJhzXvE0Ba+LVTxDrBbRWtpI0Hf5jE1Z9W07XdvaiP4meylrgOC6lzoPwXVlAco7ZsmC6znY8HaQuI96AlZLmcwO9PJUgi5WqyVlQS8Pw3UmeCA2KoFF8XoN16TsfB9EfndadMxcgeuyPR917TH5ihKAV29beTsX9Hf9+fFoIVYWaDHunFXWstNj5WzA2/zeTQwqJaxGtoO2E47x1OycWFUq8BpcZ1Fl0GZZtpCtTY24NUsha9Zh5vrv5r28de0nK+xTbnt8pb+dwHV32NZpe9hejxH3lvVBEBcA9gnH12kCUDbeX4E3+JXHPoj6/rRNRpdwjJyDn6ABv+pXixox8eCCAA5/+vVE86oiFA/ohUU2GdCuwnVu7+7ri+NRnZ/EaMAGd8PsywoQ3GTCo9QE4b40Pogcc0rxHpR1no9TYyKg0wUiLLYPJh55bplweQCul2w7chPt+mLmelfMzjBabFEgnUm6M+Dq5BeFjEG2BobsEBaz5B35HI14Lfmi56IHMDo6tv4SfowVy707qZpiMt7Dgu5i5nq9j3GwQBNY6VpL36sE13/66acitlPpu3flvmx9H2lpaeZA5ZkzZ8hGjvqZm98nuG6tQ1e0Sp8prM0swWEB7urgEly38xFk8wweEltnruvTkxErA8gaxgdVInpg8DeT8MvGw7h4LwfP1w1AgBmuaxE6fJ9soWfh4Dobkog9DheVOYPrRtye87JQIUaE3r6OFq067P+2cL0CElbL/CPpe+ZFx0JAu2BwXY/05FjzNkBcGzI+VRDRYzC+mfQLNh6+iHs5z7FuQAA/j+TbmKsItM8ZMCisluh7NA5Za4DgurU9iqqP7777jvfJ6tWrR/6YNH7KXmnPdXW9uRuuF1tsLHcbBovZr/6vLsNjmQ5s+9ljqeKiS3DdhOzUfsICdiYY7zjNPLdUh5PD9ZwNbwvxFKYSElZLVUQdtM3TVehbUchc56pb2l67a38XNjaVg4OfNBBiFtoaiIl3EpdKSEC/ns1RVYTi9nvJuwrXOVh7HYvjqwuJRNxWit1m47ICBDeZHiE1QYiBa3wiMeaUcvxK0Ub5pzAmQgddYBhi+0zEEdnWiO6H6yXcjnmH8Sm/baVGZetPBxp1Ca7LKzf2tK+uJOuf+ks/IlaMp7dO+stxPL2cxqYU9SyzH/3fgU7JRlbPD4LrXhIEwXX1Dlmy4LpsryCfphh9wpljkY+0r18Q902Pxriz0n6/sqCXh+G6RtcOk/5xDL6fbR4kgD6mEvoszxIHAVfguhEZXClkLvDGBKP/msdWA4hXHjSPlqOP6AAHvfmbQiluUVvGB1g1uCViu7yCAd9vhkl/Fj9Ei/vQNB2NE4oOpPjd/DR8/YK4b7p8v22vwXUNdI4y4/kxKgc7h9bmHWKmYm8seSDCQ0dwXSw3znABv+D+WPNYvf/Zt6UTuO4O2xZ07H28Ae/w+9Zr0eiz35FnMuK/Rb34VdGMbzv8dElJ/0+x7QOhdBg3QfjutLN+zNkoD8e+Evsy44u2Ey9ZOZ+uw3VhxenSPjXESQyDwC7T8LfC1hTGzFXoFywAfW3DT3BQNhGxbxNZO+YexReiZvn7vyy7f7fD9ZJuRz3SJ7QUYLjDLTiMeHxiGZK+/Rwjho3AAqeVNfLw+2cNhYkvv7+6OKY/XIp4fizSosGnh2UAQtYunK6zN2BgFa5NWVQdtNnx3mbyfa2ix+Gcgj6caqCgfaiEfJ7guo1ebNrl4cOHZri+evVq7z9zba6nLGpQ6Z4IrjvXpZLN6L3C2swbcF221YsI3kPfWo0Mm+dMdkof+Mnget0R+2XPNiP++zlOBrtZhCTusVsIargxXdy/VADV2rojccDhYjFncN2E3O0foIa4MJGD0j6Nv8AfCv674eYBrFj2G7YdOI70a3fx1PyZHKxOECrHCAsX/NDrl4d246j+72Qx0FgIuC4rVSqB87dWZ1j5iyZTNlL6CPvCCp+pixH7Ca7TmFHYMcP17xFcd91WrujR3WDUlXOWps8QXFfXm9s1VFyxMcNlyx7PTb5UfDYL2s3HidFNhdioi3A9/7SUzc1tA+kE/smvIfI787Ndf/YHRPPw0AdNR59wmqyQn/Y1XhCrYnJ7mRe6vxUmNvV0Gz4IEeI+3OIASzVGBzrKO4avzPGetph4SYozc58vAFw3mWD4dyn68LE0Lq4biC7TlLbbNCJzVT8E836YFg0/Oeg4jmEzX8w9+oVoVwa+7X7CZYPlntwO10u6HfXpmNDSkmjhkT3XTSY8XBovLErRNsCnhx37mNkbBqIK16ZsVQzarLDgVGrLchqbKvQYINmNXgs/jpYh2xFc91JjEly3PFwdDV4lC66bkHtgJML4LEUfNBl1yPHeJNn7MbKhsKeKNjQRe8wZ5F6E60wFdJ5uu1+jaHNjJtYMEFYqMv5dMeuGBOFcgesmWFbHMgjssQD/yhwlq7Y0ZuCX10NRMywCrePGYFehgK6CTgxXMbWDL5/9wdZ4G+uyFD7D7Yf9cDX6i0CrGr8KNRcHRoaJgKwJRh165nDQz94/Eg3F7ObQxD2WEpRehOuMb1v8+LfcYZbd56PNeD+E0xgD/64zcUNqA0dw3aTH+fEtBNjIBKLHAttyo5ZjGzN+weuhNREW0RpxY3bJViHnYvOgKjwc1trtc+QG2xZ47H2OvcPr8e3J7U996HkG5nfjSiExqNR9Hm4plFuyaEIDXcvxOG8TVLbSr3g9+nNcpQShVKhP+DdIkwWICwTXuUnMjUXoLWbCa9hg9Jh/TaE8/FPsGS7qlKmE9slnLfpzaCM9Ls962VzeK6DHAtySNMF9x81wvTTYMWvZq8Jea05Kr2avHYBgHiLo0HzsnzaBcEufMOWfwf+aCRMitvYQbJcWPBiuYPKLwh5puugfcNYczJd912TC873DUY8bT5jKiF9633GGe95BfBIm9uveS/HQYXtbH19Jt6XpPYLrztuTC1RKNho/frzD51ZpavPScK0E153rsjS0Yem5Rm/A9Vxsea+quMCPA8hKkDkXx74KFwLgEoD/yDpz/e78blZwvebQnepwPewTHJL5Ttbt4hyuG+8tQW/ZXuhctaKv/rAt6267H70WYR8fFK/L4rsKcF3peW/ErQU9hJK1YoZ8gTLXc7fgPcm3476vtMd87jF8FS4s2pUA/EeUuU7PMy/4eQTX3fssGzRoEL/gkdsWz3osc+95SuuxCa6r68DtcL3YYmOy7Sx9GuNTR7G1vJMYEyk+/1yE66bcg/iYz/RloItNhiMYadnrXAN55rop9wBG8nNqDXyajMKhZ47aJRv7R4oL6LWhSNxj6184+p7S+wWNTRnxcHV/AXJqdGg5/rzjWIT5WaHHOS6mx8cvfBD+TZrVAsh7C7qLPpp8a1Kla+XeM+DGot5iJjxXWbEH5l+T4sKy7zzdg+GiLZlK7ZF81gUb6S9j1stB+l/ncQAAIABJREFUgs/JBKDHgltWMS/3wvXSYMcsLHtV3CKwTiL2OPSJZXY3t7mrZeFNMFyZjBf5uKUO0T+cdbCoxKJTpnI8ljrbPrGcxqZK6/OXrttB/5H3JS/+TnDdS8YmuK4u/JIG1035f2JcSwHqMn5RGLH9jpWTwA9mhtvYkthUzOzWIWrMCZnD40W4rtGArdYDsy7YOj/5uJH6Nur7cLCQRfWEVbhnhpCuwXWT4RrmxImlDdlqiJtyRiF7PA9Xf+2HOjygZhEc/wsyzOdRb3vnDwYjMhb3FlZQMjqEf7gVd+QgkevDxiwc/KKZ0A7aekjcI5SDyv9zHFr6CmWf/KJGYPsdewfScHsLEpuK7ayLwpgTslV/XoTrfJZr3DSct50MGG5j05AXBKearY6EVfcssM4hXDfBcG0O4gIESMxWi8OUM0/tgwJ5V/FrvzrCAgQ2GPG/ZFiObcrFzqG1eCeZ23ZggwQYxTGzyLYtxNibl/Y1wrmVxtqGGLVuDnpwWcRsMPqtypRdt6Q3S2a7huFWQSutzpU+K3s1XMGUDmK2kTYUQ3dYSosVFK6bTHr8Y4bgGrA1XseyWwoalEF4RtcAby5Od7KNQT5ubRqB5nwGtQaMbxRG/2GzAtWtcL102DH/5BhEcNpgfPHy3NsKejDBeG8Z+vBbRWigDR2EjVIFCCst6nFl/iuoxq3uZXzQ5PPfZYsdDLg2vbMA8bUhePu3u/bn0V/Dz92FySVbNQGpmY5L1BvvL0IPP66P+iBcZZW98zFSpl+reymZ70vgmMrCO26f9u3b88Hct99+237cLgVtXBr1SnDdsR5LY3uW7Gv2BlzPw6FPxO1SeIDMIODF8Uh7LFU+ysTpXwYjUvQlBBDNovrgbVbw/NHSePiJAJpb4Fmx9xI84P17PfTigkW7zPUiwHWT8QFSE6rJFgUwqNj8I2y4IWzPwmVqPTkzFd2rC5lfArhuiE8PSfMfPc78r5lswYAG2npvYeU16fu5yNjzA7rypW2FrHXuGAWC63mH8IlY7pM/PxOAF8en4bE479FnnsYvgyOFbCLJdmx1DN4mXQP1tZLdP0t3+xBcd2/79enTh/fHevfuTf6Ygv9JcF1db26H66bii40ZrsxAl8pCbM2/+SjssQV1xsdIG9fOst2Mq3DdlI9zSa2ESjpsFcRNOWef2JR9FpNfFhI/uGevFVw35ePPcS3FmKwfokZst48Xmgy4vSURTcXYoC5qDE4UFHra9IECxaaM/2FRr8rCtqO6WCQ7SqqxOYfhyhR04OMFXPxiKHaYtystWOY6/9zV/2OB4BoWNV5fZp2gwZ9bDuEZ6Bq8icXplniY3fM7/xY2jWgu+jwMfKNG4w+buKFb4XqpsGM+To6J4H1RxvdlzLXZatLOhjZt7tqe6xyEv4bpnQWIrw15G7/dtY876a/9jO5BYkXFhFRkOonRl9fYlGp72LYP/U3+kIIGCK4rGMUTnYvgurrjWeLgusmEJ7+PRgszxApFl4+mYvXeNJw5k4Y9qVMwvHMdwYnTMKjQ/CscfCR/oHkPrjM6P/j5MNBWjcXgn1Zhb9ppnDy0HjNHdEaImIXL1nwVv1itTnQRrptMyD0/BV3E0tUaNgBN3xiN+RsP4eTZP5G2ZxUmDWuPmjzA51ZBdsGUdBmgdkcfy7uAaV2DxdWQ/gjr9ilmrd2PE3+ewbGdv2Jc/0gE8DBMi9oJKcgww/cn+H10C4uzF9oFH01djb1pZ3AmbQ9SpwxH5zoCWNcwFdD8q4N4JHc4vArXOZinRZVW7yF51V4cP3MKhzfOwai4umLJThbVX1mIK/Lsaydw3WTKxfkpXcSyThqwAU3xxuj52HjoJM7+mYY9qyZhWPua8OFXwrII7jIF6VYTDG5P70ghQMkGosWgJMxZ+AvWn5ZAdhFtWxhd6NORFMNlDvug7guNeMjJ1h6MrU8Vxhfe2fQXJjB+HTDlij3UVh7rjciY3x2VJLv0TcF9URMFh+smmPLOI7kdl2HPBXG1qPP2b7gr1xhvBwP+TX0LYWJf1TAVUf+lREzecBLXM58Li3oMT3Dz+DpM+qANaoh9TcMGot2E4/Yg3p1wvbTY8dkWvM+XOmNRSyGzTmjr5zj6daQ4ZrOo2vFbbLkmW5iQfxdHZySgET+BZaANfQfrbCcpj7ZjWD2tUEmjSnt8ve2mBUQ8u4TUD5sL2mH8ETPutGyxlb1G8/Z9hFBuQRJbHYM2O66soaxT++OVls8RXFdvu8GDB/PB3JYtW9LkpTDPikJ8h+C6ui5LyxhT8q/TG3DdhMfrBwpbQkmAV8NAVy0c7Tq1RVSdytDyfo4FMHPw3K/3UmTJ+k/uzmGoxZcHFT7HsIFo2KYjWjcKQb/lwlZRboXrJhPy0yehg7g4lIfXHPz2q4mm7bqgc2xjBEu+En9fLKr0WoDrZr/fhJw9icKz1XzfGjAVQtCsfUe0Ca8p7JXO6OArO06B4LrpMdYPlPYuFe3H6FAtvB06tY1CncqCjyBduwDg/dB7qbQtF/W1kt9HS28bEVx3b9t16dKFFjvKngm2fZfgurre3A/XufhCMcXGTDk4nSTBcwYVGvbGNwu34uhpS0wuUOYzaFyG6yaYHh/AZ1LCizYYLd9Jwopdx3DmzDHsWp6EgS2CrfwWn6jvredIT37H6BZizIXxRWiXjzB19V6knTmDtD2pmDK8M+rwYJ3zCZrjq4OP7BfJO9G6rfb5vwsQmzJcm47O/mLST4cpuCLzWxSPLV2LMQPzu1cSYklsMPqmSFXxCgHXTSbknU9GO2lhpbaOcrKA4V+kvhUmZsxzCxDr46XEydhw8joynwsxNcOTmzi+bhI+aFNDjCdqwAa2w4Tj9iDenXC9tNjx2Zb3hW2O2FoYurOAiytd2nNdGHsebR+GelpOVyyqtP8a225azvXsUio+bC5oh/GPwbjTzmP05TU25bT/Sf2QXq3HW7KHnT0IrntJFATX1R3PkgjXuczT/3aNQafqPiIckwehLAGVWp1GY3uGbUlv78F1NuQ9TPupG2rwD1bba2TgG/Y6Zv9pm7nsOlznMkUyDyehe6hQEtkqYGQOXjHwqdEZ3++TZVa7sX8ZHx5FcvcQs5Nndw2MDqE9JyHNthy9/j/sGtMJ1SUgab5ei50YXS10Gr3dbi9Kkxfhui6yHz7oUM1q0mC+R/7efsIxq8UbJpicwnUuoz8Th5O6I1QWQDQfU7ID44Manb/HvnvyhSFCf31+4GM0tLIbi5pDdlhgYlFsWyhtCJnD/uaAsBYNRx22XI/smPoLSWjF3zdXSn8Wbro6geG2GHiQgr7iYhKmQlfMui5MIgoF100m5Bz/HtHiimNGG4ah2x4qTOae4+KSdxAuTXbM7cPCt1IAKuhYqzGI02zXsftklShkY6wb4XrpsWMWUhOCeRv5RIzBSQcl203P/sS0bjXN/YzRVUGT2K6I69oW4TWk/VEZsFU7IekPARxYO9xGZO79Ei35Vfvcghg/1GzaHl27tEHjKtL4yKLay9Nw1rxFiKxtzBrV4+wP0fzWDUxwP6x8qPSZsvkewXX1dp04cSIfzK1YsSKMRvux2VqT6sejz6vbiOC6uo1IR+6ykXfgOre4b3JHsUyn5FPIXxlfNHhjGF6pI2xtxfmH2nojsD/Xcp/GzFQkyEugm7+vQ+uki3xgwd1wnZt73Vz/IaLk5eHN57X47vxWSS8Mxtp/bRZP6v/GDGlBrtL3GB3CEmbhhx5+/DjL3XfB4DoXnJ6MjnwmkPx6LL8zvg3wxrBXxIpe3Pta1BuxX9FfpX5l0RvZoui2ILhedBvKdcgtcuTGiOHDh9sFUuWfK6+/E1xX15tH4Dq/JWIxxMa4eazhDnZ+3Q5VFeOOGjD+4XjrzTbC9oQFgetcQs9fi5HQUJqPW56pfPyK0aHOK99gWKy4l3X0OLs+qf9vF8Z0qm6Gvfz3rPwABrpanTB6e4YLJdnV25Yrtc5VtVOPTXHb2bQS4piMP7rOumlfEdUcI7A9rxEPUvqKCTMMKnSdJS4oLBxcN5lycPz7aDF5h4E2bCi2PVSYaz6/iCXvhFtX4eH8JdYXlQIqQMdyQFdqI86uXTHWQRzYfXC9FNkxKxUJwZyNfBAx5qSDku22bS3+XQC4zsV7937Z0rzVEb8YtX1XdGnTGFWkGDBbDS9PU9t6svzGpsrr85vu20H/czgWO/88wfVCGq6gQiS47lyInD1LJlwXrtuQeQYrJwxF79hGqBVcATq/QNRsEIUO/T7HzC0XkKUI7rwJ1xOxJzcPN3f+hCFxkQgJ8odvxWCENovDe+NScd4WyvK6LwhcF+xgfJSOdROHo0+7cNQO8oMP6wP/wFpoHNsLQ8an4NQD2wUG6u1eoL5kyML5NUkY2jsWjWoFo4JOhwrBoWj20jv4fvlJPFBsB+4aDMg8sxIThvZGbKNaCK6gg19gTTSI6oB+n8/ElgtZyg6uN+F6m4m49Ow6dvw0FHGRIQjy90dgSBO07pWIyZsu4pHSvanBdb6djXiUvg4Th/dBu/DaCPLzAevjj8BajRHbawjGp5zCA3k2vNWYmI3zv45Et4haqCzCXV2XmfjX6loKaVur87iuE+OdX9BbymjSNcPYP5U0l4fjo8V9RJmK6D5fuUy4Y+09waZBNcVKCTq0GHeWn4AVFq6bTE9xcFS4uDCEga7Jx9j3ROmejXjy1zqMHxCL0IrWMF2avDBsABrFfYS5R+46nhS6Da6XLjtmrXlT2EdMF4sfLynpQrR57nVsGdsHTYPts8sYtjIa9/oGay85yyQ34v6R6RjY3HoFPddGjK4G2ny4BOeUqinINW+4iikvclUzWFTpvxoP7aoZKOmjbLxHcF29HTdu3GgOWPzf//t/7YJHjscu9WPTd5VtRHBd2S6kF0/YxUtw3WSC4e5+TOgVJmxnIguCspWb4PWk3cjIz8bmQTUsZdi1dZG4S551lI/Ly95BuB3o1qLeyAMeguuczY3IPLEAH3UKFQPAUgBXeGX8aqPN+zNw5J4NWBefs8YHh/HjG+EItAr+M9BVaYaE5D3IyM/C0t6Fh+vcvOLu/gnoFSaU45R8NA3DonKT15G0OwP52ZsxiK+oI1yztm4idpnLuXpCV3RMGq9MILju3n7QsGFD3h8bPXo0+WLyeYz4O8F1db15Cq7z4523Y2NmDeTj7onl+N9bnRFVvzoq+vojqHY4Or75LZb/mYWnKa8LW8oUEK5z92TMOotVP7yLl6Lq8HErXcWqCGv1Kj79+Qju5nHzZxGux/6o3CcNmTizcoIsXuiHwJoNENWhHz6fuQUXspT9hsI+P1yKTeUdx+hwYR96pmJ3zC9omfAnmzCoprAdDqNrgXFnuThHYeG6CaanBzEqXEwKYHRo8vE+PDG3rUzTxif4a914DIgNRUUrmC75ZAzYgEaI+2gujtx1HHtxG1wvVXbMwpo3q/L+tS72R1xyGG+V2Vtqg4LAde47xvs4Mn0gmtvFthjoarTBh0vOKWzranPechybKmzfp+/ZaEjSbzl9JbjupYYnuK7e8dwO173UtjSoqrct2ciBjVyB96Rj5YlTGbeLITsD5w5tRsqiuZg5dTKmzl6AZev34/yd5wpZ7w70VcZtZDeuPNuD4WFaaBgdYpP/drz4QLSLIfsWTu9KxeI50zB5ygzMT9mGtOtPlBfaKNnS+BwZJ7YhZdFsTJs6EwtW7sDp27Iy80rfkc79z2S050rTcSBjtxxklP22JLiu3sYXLlwww/VDhw6VyzHQrn876U/u+CzBdXVdusPOdIzisHMe7p3fjdSFszBt+lwsWXcI/zwuWHA57346dq2cjxlTpmDG/BXYfOQyHjqqEOPWvqrH42t/YEvKYsyZPgXTZi9EypYjuJTpvLSloDMjnvxzCOt/nYeZMxcgZfMx3MhWyM4qyvXm3cP53alYOGsaps9dgnWH/sFjqwWoxdHedM7yPM4QXHev/qtVq8b7Y8nJyeSLKYyVBNfV9eZRuK7QJmV6/NOfw/gWAlz37bmI+qTX2t+A7IxzOLQ5BYvmzsTUyVMxe8EyrN9/Hneeu9mv8to9qffdovalZ3uGI0zLJV/EIvlvx4sPinoe6fvG5xk4sS0Fi2ZPw9SZC7Byx2ncfu7afRrKcWxKsh+9uqYVspOynQiue2nwJriuLEB5xyS4rm4jub3o9zJgL4LrNCny0jOofIwXeqQntYYvw0DXfCz+9ErgvzDjkB7nJ8RAxzDwjUnC+YKsZC4DeiG4rq6ZnJwcM1xftIiCR94Yvwiuq+vSG+1A56B2IA2QBkgDhdcAwfXC285Wdxw41ukEkDdnzhyasyrMQQiuq+uN4Lq6jUz6S0j94RtMmLYY60852WLyyVq8VYXL4NYi9KN91CcV+qTtOEZ/u6A/T9lRn46k1r5gGB2aj/2zYKXhPXVNisct37Ep6iPF2EcU9Vg6r4fgupcak+C6egchuK5uIxr4y5iNCK7TpMhLz6DyMnYYH6zF27VYaLT1kLjHWWn3YhxLnu/HyPpaaNiaGLDmfrmrREBw3TXt1atXjwfsX375JY2TXhgnCa67psvy8iyh+yQ9kAZIA6VRAwTX3afb//f//p95oSPnI5RGPXj6mgmuq+uN4Lq6jUz6i0hqxS1kYaCLTcZfigvP9bgyKw6BjAYaNhgJqx5Sn/TC/MjTY0jZPr4RD9a+jVqsBtp6idjzzIW+UBxtWs5jU2VbgyVUc8Whcw+fk+C6hw0sdVSC6+qdmuC6uo0kPdFrGbEVwXWaFHnpGVR+xgw9/prcAZUYBoE9F+DfElee1YiMX3ojmGVQsd1EXFAMHpSR8c2Btgmuu9a+3bt354O68fHxNE460JI7xzWC667p0p02p2ORzUkDpAHSgHs1QHDdffZ88OCBGa5v2rSJfDEFX4zgurreCK6r28hkysPx0U3hI4LzNp+m4nyWrIx2zm38PvcdNK3ICAD+hVE4mO3Kcekz9IwtZg3o/8LkDpXAMIHoueBf17cfVBhvPdOWFJvyjF2LWXde0w/dp6QfguteEh3BdfVOR3Bd3UZSxy0Vr4YbmNurFqpUqVL4n1q9MPdGwfaFLBW2kcYdgusUqJC0QK/u00LOCXzfwg+Mzwv47HAJy15/fhRfhvuA8W2G0cdc25+9VI1pLuiY4Lprz/pPP/2UD+o2btzYfX3DhfYpa3pz9X4IrrumS1ftSZ8je5IGSAOkAe9rgOC6+2z+f/7P/zHD9QMHDpAvpuBDElxX1xvBdXUbcc8K44MdGBlRAYxGwwN0RheE0CYRiAgPQ/UKWvP72hov46eT2dQfFfojPXNd05q37ZRz4nu08GPg88JnOFzSstcpNkVjCY0lbtEAwXUvCYnguvqDjuC6uo287QgU6XyGm/g5vg5q1KhR+J868fj5ZlmG67ew8I0whISEoF78XFwrcVm2ZUyTXhrvi9Rv6Brd4tw8Oz4WrSqyqPjiJAel5YpD23pcmtoJlVl/tPj2KLLLaVsTXHdNe3PnzuWDuizLIi8vzy39gsYmx7YnuO7YNqQbsg1pgDRAGigdGiC47r52OnfunBmunz59mvwwhXkLwXV1vRFcV7eR9HwxZJ7AghEvo2GABNM50C7Cdv8QtBmYjJ03cqkvKvRFyYb06rrevGerZzg+thUqshXx4qS/oC8x7UexKe9poCTqkq7Jne1PcN1LAxvBdfWOS3Bd3Ubu7Px0LLI3aYA0UHY1kIfrh1YjZeU2nMsyloxJuPERzm9fiZTUA7iaW361R3Ddtbbfu3evOaj7zz//lAwNe8lnLo5xieC6a7osjrahc1LbkAZIA6QB1zRAcN01O7mip8OHD5MfpuL3EVxX1xvBdXUb2fZHY849/H1sDzavW43U3zZix+FzuPW0DCfcqPQzW/vQ3wXXVLHbLO86Dq1Owcpt55BlLCHXT7Epiq/Q2OM2DRBc95KYCK6rP0AIrqvbqNidAi/1F7pP0gJpgDRAGiibGiC47lq73rx50xzU3bZtm9scf+pXyvYnuK5sF9IL2YU0QBogDZQeDRBcd19bcb6XkDWrwZ07d8gPU4gDEVxX1xvBdXUb0TOGbEQaIA2QBkgDpVkDBNcVnERPNCjBdfWBguC6uo08oU06JtmdNEAaIA2QBrylAYLrrmnNYDDA19eXD+xOmzaNgroe9tcJrrumS2+NE3Qeag/SAGmANFBwDRBcL7jNHOls1apVZrj+7Nkz8sMU/DCC6+p6I7iubiNHfZDeJ9uRBkgDpAHSQGnQAMF1BSfREw1HcF19QCC4rm4jT2iTjkl2Jw2QBkgDpAFvaYDguutai4qK4gO7iYmJFNT1sL9OcN11XXprrKDzUJuQBkgDpIGCaYDgesHs5Uxf8+fP530whmHAQWRnny2v/yO4rq43guvqNiqv/Yfum7RBGiANkAbKhgYIrns4WCd1FILr6h2G4Lq6jSQ90SvZijRAGiANkAZKowYIrruu2379+vGB3c6dO1NQ18P+OsF113VZGscdumZqX9IAaaA8aIDguvt0PmnSJN4HCwoKIh/MgQ9GcF1dbwTX1W1UHsZmukfSAWmANEAaKLsaILjuwFF0t+gJrqt3IoLr6jZyty7peGRz0gBpgDRAGvCmBgiuu6637777jg/s1qxZkwK7HvbXCa67rktvjhd0LmoX0gBpgDTgugYIrrtuKzVdST5YvXr1yAdz4IMRXFfXG8F1dRup9UX6P9mQNEAaIA2QBkqyBgiuO3AU3d1oBNfVBwKC6+o2crcu6Xhkc9IAaYA0QBrwpgYIrruuNznwffLkCQV3Peizy22dm5tLtvagrb053tC5XB9vyFZkK9JA6dcAwXX3taEERbkYFfUNZbsSXFe2i1wvko6aN29OOiLfkjRAGiANkAZIA2VQAwTXvdSoBNfVHU+C6+o2kjvq9DvZizRAGiANkAZKmwYIrruu2bS0ND5zXaPR4MyZMzQR86DPTnDddV2WtjGHrpfaljRAGigvGiC47j6tDxo0iPfBOnbsSP6XA/+L4Lq63giuq9uovIzPdJ+kBdIAaYA0UDY1QHDdgaPobsETXFfvQATX1W3kbl3S8cjmpAHSAGmANOBNDRBcd11vDx8+NMP11atXU3DXgz47wXXXdenN8YLORe1CGiANkAZc1wDBdddtpaarPn368D5Y7969yf9y4H8RXFfXG8F1dRup9UX6P9mQNEAaIA2QBkqyBgiuO3AU3d1oBNfVBwKC6+o2crcu6Xhkc9IAaYA0QBrwpgYIrruuNy5oKdlr/PjxFNz1oM9OcN11Xf5/9s47uqny/+O5SdOyKSCzDNmUjSyRoRVRQBwool8EAYsCin5xAA7oqQwFWQKCAoqAyBIZalFZCijzMBQQZH9F1kHKKeXX9jQ5ef/OvRm9SW/yZNykDX3/0ZO0Te69eT+v53M/+byfEcl4wXOxXcgAGSAD/jNAc91/rURcdenSRTHX+/bty/zLS/5Fc13MG811sUaivsj/U0MyQAbIABkozAzQXPeSKOrdaDTXxYGA5rpYI7255PGoORkgA2SADESSAadZPGHCBBYr/chB27Vrx+KuHzqFyjDNdcbBUBni+8kQGSADBc0AzXX9GGzRooWSfw0ZMoT5qpc8jOa6mDea62KNCjpu8vxsIzJABsgAGQiFAZrrXhLFUETVei/NdXFHpbku1kiLLf6NupEBMkAGyEC0MEBzPTBWBwwYoBR3W7ZsyeJuGHN2muuBcRkt8YbXyXYlA2SgKDFAc10/3mvXrq3kX6+//jrzLy/5F811MW8018UaFaUYzc9KHsgAGSADtx8DNNe9JIp6w05zXdx5aK6LNdKbSx6PmpMBMkAGyEAkGaC5Hhhv48ePV4q7JUqUgNVqZYE3THk7zfXAuIxkzOC52DZkgAyQAf8YoLnun07+8FShQgUl/0pNTWXu5SX3orku5o3mulgjf/ojX0MdyQAZIANkoLAyQHPdS6Kod4PRXBcHAZrrYo305pLHo+ZkgAyQATIQSQZorgfG26pVq5TirsFgwN9//80Cb5jydprrgXEZyZjBc7FtyAAZIAP+MUBz3T+dRDzJprHZbFbyrxkzZjD38pJ70VwX80ZzXayRqD/y/9SQDJABMkAGCjMDNNe9JIp6NxrNdXEgoLku1khvLnk8ak4GyAAZIAORZIDmemC8HTp0yGWub968mQXeMOXtNNcD4zKSMYPnYtuQATJABvxjgOa6fzqJePq///s/V+4l5wei1xfV/9NcF/NGc12sUVHtP/zcZIMMkAEycHswQHM9TEU6zw5Cc13cYWiuizXy5Iq/UzMyQAbIABmIJgZorgfGa2ZmpqvAO3fuXBZ4w5S301wPjMtoijm8VrYtGSADRYUBmuv6sH758mVX7rV69WrmXl5yL5rrYt5oros1KirxmZ+TLJABMkAGbk8GaK57SRT1Bp7murgD0VwXa6Q3lzweNScDZIAMkIFIMkBzPXDeatSooRR5R44cyQJvmPJ2muuBcxnJuMFzsX3IABkgA2IGaK6LNfKHo7/++stlrv/000/MvbzkXjTXxbzRXBdr5E+f5GuoIxkgA2SADBRWBmiue0kU9W4wmuviIEBzXayR3lzyeNScDJABMkAGIskAzfXAeevatatS5O3RowcLvGHK22muB85lJOMGz8X2IQNkgAyIGaC5LtbIH47279/vMtd3797N3MtL7kVzXcwbzXWxRv70Sb6GOpIBMkAGyEBhZYDmupdEUe8Go7kuDgI018Ua6c0lj0fNyQAZIANkIJIM0FwPnLeXXnpJKfLWrVuXBd4w5e001wPnMpJxg+di+5ABMkAGxAzQXBdr5A9HW7dudZnrx44dY+7lJfeiuS7mjea6WCN/+iRfQx3JABkgA2SgsDJAc91Loqh3g9FcFwcBmutijfTmksej5mSADJABMhBJBmiuB87bzJkzlSKv0WhMQcGwAAAgAElEQVREdnY2i7xhyN1prgfOZSTjBs/F9iEDZIAMiBmguS7WyB+O1q5d6zLXL1y4wLzLS95Fc13MG811sUb+9Em+hjqSATJABshAYWWA5rqXRFHvBqO5Lg4CNNfFGunNJY9HzckAGSADZCCSDNBcD5y3tLQ0V5GXM6gC188fvtXm+qhRo/D222/zhxqQATJABshAVDFQsmRJJV8YO3YsDeEQ6nyLFy925V0ZGRnU0ouWNNfFOSnNdbFG/uTpfA11JANkgAyQgcLKAM11L4mi3g1Gc10cBGiuizXSm0sej5qTATJABshAJBmguR44b6dPn3YVedetW8cibxhy9y+//BJNmzZ16WwwGPicGpABMkAGyEDUMVC/fn1MnjyZuUIIucLs2bOVdpckCbKBHMk8OZrORXNdnNPTXBdrFE3M81rZnmSADJABMuDJAM31EJJuTzF9/U5zXdz5aK6LNfLFGP9H/cgAGSADZKCwM0BzPXBGLRYLYmNjlUIvC+aB6+dPn1DPXK9WrRoSEhL446GBc8BBmTJlqI2HNuSF/YUMkIHCwIC8fYwcqzlzPbRcYeLEiYqOZcuWpbHuo15Kc13MGc11sUb+5Ol8DXUkA2SADJCBwsoAzXUfyaKejUZzXRwEaK6LNdKTSR6LepMBMkAGyECkGaC5HhxzjRs3Vgq9ycnJLPSGIXdXm+tZWVnUWEPjuLg4hcFp06ZRHw19Ih1Leb7gYil1o263MwPcc10fvkePHq3c72rUqMH7nY/7Hc11MW8018Ua3c4xmZ+N7U8GyAAZuP0ZoLnuI1nUswPQXBd3JprrYo30ZJLHot5kgAyQATIQaQZorgfH3OOPP64Uejt16sRCbxhyd5rrYi5pros1inQ85fnYJmSADKgZoLmuDw9OQ1SuT6n15XN3fWmuu+uhxYeTJXnrIa3/829iDakRNSIDZIAMkIHCzADN9TAU6LQanOa6OBDQXBdrpMUW/0bdyAAZIANkIFoYoLkeHKvOWVSVKlVicS4MuTvNdTGXNNfFGkVLHOZ1si3JwO3JAM11fdq1X79+yoDGDh06MOfykXPRXBfzRnNdrBHvR9SIDJABMkAGopkBmus+kkU9G5bmujhQ0FwXa6QnkzwW9SYDZIAMkIFIM0BzPTjm1OZveno6i7065+9qfbksvDajNNe1dYl0DOX52A5kgAx4Y4Dmuj5s9OrVSzHXu3fvznzLR75Fc13MG811sUbe4hn/Tu3IABkgA2QgGhigue4jWdSzAWmuiwMCzXWxRnoyyWNRbzJABsgAGYg0AzTXg2Nux44dSqHXYDBgz549LPbqnL/TXBdzSXNdrFGk4ynPxzYhA2RAzQDNdX146NKli5Jz9e3bl/mWj3yL5rqYN5rrYo3UMYzPqRcZIANkgAxEGwM0130ki3o2Js11cXCguS7WSE8meSzqTQbIABkgA5FmgOZ6cMxduXLFZa4vXbqUxV6d83ea62Iuaa6LNYp0POX52CZkgAyoGaC5rg8PLVq0UHKuIUOGMN/ykW/RXBfzRnNdrJE6hvE59SIDZIAMkIFoY4Dmuo9kUc/GpLkuDg4018Ua6ckkj0W9yQAZIANkINIM0FwPjjm5gOnUbuzYsSz26py/01wXc0lzXaxRpOMpz8c2IQNkQM0AzXV9eKhdu7Zirr/++uvMt3zkWzTXxbzRXBdrpI5hfE69yAAZIANkINoYoLnuI1nUszFprouDA811sUZ6MsljUW8yQAbIABmINANOg3jChAksWAaYg7Zr147LlAaomb9801wXx0Ka62KN/OWNr6OWZIAMhIMBmuv6cFWhQgUl30pNTWWu6iPvorku5o3mulijcMRCHpO6kwEyQAbIQKQYoLnuI1nUsxForos7Nc11sUZ6MsljUW8yQAbIABmINAM014NnbsCAAUqxt2XLliz26py/01wXc0lzXaxRpOMpz8c2IQNkQM0AzfXQeZANY7PZrORbM2bMYL7lI9+iuS7mjea6WCN1DONz6kUGyAAZIAPRxgDNdR/Jop6NSXNdHBxoros10pNJHot6kwEyQAbIQKQZoLkePHPjx49Xir0lSpSA1WplwVfHHJ7muphLmutijSIdT3k+tgkZIANqBmiuh87D//3f/ym5lsFggJwbqPXlc3d9aa6766HFB811sUZauvFv1I0MkAEyQAaihQGa6zoW5nw1Os11cVCguS7WyBdj/B/1IwNkgAyQgcLOAM314BlduXKlq+D7999/s+CrYw5Pc13MJc11sUaFPf7y+tiGZOD2ZoDmeujte/nyZVeutXr1auZaPnItmuti3miuizXifYkakQEyQAbIQDQzQHPdR7KoZ8PSXBcHCprrYo30ZJLHot5kgAyQATIQaQZorgfP3KFDh1wF3y1btrDgq2MOT3NdzCXNdbFGkY6nPB/bhAyQATUDNNdD5+Gvv/5y5Vo//vgjcy0fuRbNdTFvNNfFGqljGJ9TLzJABsgAGYg2Bmiu+0gW9WxMmuvi4EBzXayRnkzyWNSbDJABMkAGIs0AzfXgmcvMzHQVfOfOncuCr445PM11MZc018UaRTqe8nxsEzJABtQM0FwPnYf9+/e7cq3du3cz1/KRa9FcF/NGc12skTqG8Tn1IgNkgAyQgWhjgOa6j2RRz8akuS4ODjTXxRrpySSPRb3JABkgA2Qg0gzQXA+NuRo1aihF35EjR7Lgq2MOT3NdzCXNdbFGkY6nPB/bhAyQATUDNNdD52Hr1q0uc/3YsWPMtXzkWjTXxbzRXBdrpI5hfE69yAAZIANkINoYoLnuI1nUszFprouDA811sUZ6MsljUW8yQAbIABmINAM010NjrmvXrkrRt0ePHiz46pjD01wXc0lzXaxRpOMpz8c2IQNkQM0AzfXQeVi7dq3LXL9w4QJzLR+5Fs11MW8018UaqWMYn1MvMkAGyAAZiDYGaK77SBb1bEya6+LgQHNdrJGeTPJY1JsMkAEyQAYizQDN9dCYGz58uFL0rVu3Lgu+OubwNNfFXNJcF2sU6XjK87FNyAAZUDNAcz10HhYvXuwy1zMyMphr+ci1aK6LeaO5LtZIHcP4nHqRATJABshAtDFAc91HsqhnY9JcFwcHmutijfRkksei3mSADJABMhBpBmiuh8bczJkzlaKv0WhETk4Oi7465fE018Vc0lwXaxTpeMrzsU3IABlQM0BzPXQeZs+ereRZkiRBNo/V+vK5u74019310OKD5rpYIy3d+DfqRgbIABkgA9HCAM11nYpyoganuS4OCjTXxRqJOOP/qSEZIANkgAwUZgZorofGZ1pammtGFfcCDU1LdT+huS7Wkua6WCM1U3xOvcgAGYg0AzTXQ2du4sSJSp5VtmxZGuuCWinNdTFvNNfFGkU6TvJ8bBMyQAbIABnQkwGa64KEUS+xaa6LOy7NdbFGevHI41BrMkAGyAAZKAgGaK6Hxt3p06dd5vq6detY+NUpj6e5LuaS5rpYo4KIqTwn24UMkAEnAzTXQ2dh9OjRSp5Vo0YN5liCHIvmupg3mutijZzxi4/UigyQATJABqKRAZrrgoRRr0aluS4OEDTXxRrpxSOPQ63JABkgA2SgIBiguR4adxaLBWazWSn8Tp48mYVfnfJ4mutiLmmuizUqiJjKc7JdyAAZcDJAcz10FpxmqFybcurKR21daa5r66LmxclT06ZNyZNOObtaXz4XM0iNqBEZIANkILwM0FyP0A2e5roYZJrrYo0YEKkRGSADZIAMRDMDNNdD5zcxMVEx15OTk1mo0ymPp7ku5pLmulijaI7NvHa2LxmIfgZorofehv369VNyrA4dOjDHEuRYNNfFvNFcF2vEew81IgNkgAyQgWhmgOa6IGHUq3FprosDBc11sUZ68Vj4j2NF1pUT2Ld9M9K+/R6bftmNoxczYY1Qfy38+ghYsVzAnm/XYt3mP3DdKnhtpDS1XseRLeuwdsMunM8tJNcUqc/O87A4RQZcDNBcDz3+Pf7440rht3Pnzi5do/6+VcB9hOa6mEua62KNvPXDnOvn8Puubfjh+w349vtN+GXfn7h401pI+28Orp/7A7t+3oS0bzfg27Qt2HngJK7cKqzXG3y7eGsv/p2aRisDNNdDZ7dXr15KjtW9e/dCGqND/4x68U1zXdwWNNfFGunFI49TeLS2Zl3BiX3bsTntW3y/6RfsPnoRmYWlLlnA3znFnFpwYc+3WLtuM/64Xkhyb9ZymQ8U+n5TsPGP5nqEAKG5Lga9oMz13IOT0aNJQzRs2BxD19zUMWha8c8X/dGsYUM0bNIbs49bxMe2XsJXz7dCI/k9ifchZUe2+D1qhnMP4IPujdGwYUMkdn4bW29p6J69EylJ9tc0bNQKycsv+2FaW3F12WD7Z5GvzctPo0aJaNKsJdrck4SH+w7BmGkrsOdSjt+fwXr9d6yakIxuTSoiTpKUL7YGg0F5lKRYVEjshhc/TMPpLI3P5dAh4+sX0Vy5vmYYuNSfz2aDLfcIZjzaxK5bl3HYnuP9+K5kKCgdbbBeXYbBzbxrqGjbqBESmzRDyzb3IOnhvhgyZhpW7LmEHHVbe32ejYOTOqKMMQ4t3tmNbK+vy/uMlnNf4Lm7GqHpEx/jhCXv767P6nmM3CvYt2IyXnvuESTd3RrNm7VE284Poe9Lqfjs5/PI8ny98ns29qXchWLGUmifus/La/w4t+ax+T6vbUW9/I4/1DAy/Yjmeug6O/cDrVSpEvnWKcbpZa7n/JaKpMZa9/hGkHOkxk2aonmr1mjXMQkPPf4sXkqZj02nMjXbMffQFPRU8lPH8ZoPwzeZ3vmxXt2MsQ81s+eQzjytUSI6Dl2OMzoMatPfXM/Gz+92QqLzWhs2w/NfXdPUwmd8tpzE3Ceb5uWmjR/C+/tz/T+O5TQ+eUr1/obNMGDxRT9yY+9toVzvrZP47sNheLhVAkqZ3HNag0GCFFsO9Ts9jTHzd+CCr7wz9xCm9LTnqPYcsTl6zzqKXB/sZ298HW0aOTlMRMd3tgnzwZt/rseUYT3RMqEkTJI993bm4PbrrYCG9/XHuKX7cNWfXNHH9flsT77Pf3apFbXyYIDmuiAue+ilFYu6dOmi1B769u1LvgR60VwX81akzXVrOk6fuhJ6PiXgUKsf22xB1GKDOo+KgUJby41EDdIGm/U6fl81AcndmqBinATJUcdVcklJQmyFRHR78UOknc7yGltZy7Uh++AkdCxjRFyLd7A7W8WXzGfWEWz4dC7mzhX8zFuIn0558x9y8M+vi5AypDeS2rdCs2atcHfXPhg+cTkOXPP2HtZyteOMR/uEGkP4fq+xobDrT3M9QvDSXBcHnYIy13N+fRMNY+QiUhx6fX5Dx85sxdnpXRArJxXmu5By2J9CnxX/fNoDZZSilgk1h/6EWwEwmr3jNTRQPosJNV7YiEyN9978LhkJJmfRTELxLlNxUlgks+LinK72z6JOkoTPJRjLNkfylycExnAWjq8ciU5VzO5JmNbxJSPKNkvG0uPaAw/SF/ZEnPK+WCTNuuBfMp+7D+82s+9ha0oYgjTPJEY3HW2wXpyDrrFO/f1/lIxl0Tz5S5zwVYC12ZBzaCI6lJJgqj4I6/4V9ztb7ikseLQKTAYDzK1T8bugAJ/5xyIkt4qHMV/h1fFZpBJo0GcW9qRrjLK8/i2Sa5kglWyL1P3a7VfYb5q8Pj+Y0ugv1I26ORmguR46C2ojOD09Xce8JfRrc7ZztD2qNc3K8l70EX2u7M3DUdOVY/l3j5eK18Hj03blW2kmZ9coNFJyOsdx4h7BogztNrL++zPGdoiH0S1vMqJcxxRs12nWg/7meha+e76K6ppj8cDcy4HznHsE77W253BKAS+mAV7b4f/ATpvlGCa0U73fEIt7Z5z3L3/UvN9ZcW3HB3i0TglxTiu3l2RCfPPnMG+/l+8gObswqlGM24BTY7mHMNdr0cyGW6ueRrwrTzOi8uAN3gc1Wi5iU+rDqFPCcwCAF34lM6omjcNPlzTyPE09tJkV9SX+n7qRgcAZoLkeuGaenLVo0UKJt0OGDAn8flTEYiDNdTFvRdNct+Dyr/MwrGMCar+wUTi4z7MP6vN7MLVYcXv6vrbCWssNfw0y6/hKjOxUBWZX7uklhzTI9eFmSF56XJOLol7LteUcwsQOpSCZqmPQun/z3YPk74aJ6u+Gbt/7VJpLZdB35a1877dZLuDbN+7GHTFaOb8Ec9UkpGz2MiCGtdz8ehaxe77v+Bdq/Izu99Ncj1BnoLku7ii3o7n+v097o2bVqqha40FMPeZtFJiHNv9+hacqGJUvdaaEZHznY5aSe3C7hZ+G1lJMUkNMQ7yxU8u8vI4VT98Bo8GI0lWroYzRAMncDO/uExn/anM9BnUefBEvv/yyxs9LGJo8AE90a43qJY2uoqJUrBlGbfe2KsAtHJzZA9WcN3ipJOp2fQHvLViLn/cfxcnTJ3Fkz0/4auqr6FG/lKMIK8Fc8xl8eS6/ppFJyILV0T2xjanzIF7U1PFlvDQ0GQOe6IbW1UvmGdlSMTQbtR03vcUtywl81FU2vksjacZJWLy9zvl36yWkvdoSJR1JsMhct5z/En2rx9jbVSqJ2kmD8c6H87Bw4SeYOjYZXeuUdLS5ERUfmo1j+Yx6C07PfgBlJQll7puGP4WDOjz6hvO6+cjEjgxELQM010OPazt27HAZbXv27IlaFtxzmNB1CeV4BWmuK4awsRJ6zjvuNhvZb3M9fSdSO5dXmdRyccWI+LvfwbZr+hmgNNf9YdSKixtGoEVpex6fN/NbVfDyUggzxrfHO1uu5Tf1Ncx1uX0rP7EY//OyxKbf5nruaXzZvz6KCYuhntcvoXTrt/Fzuj+a8DWhxCa+l/wEwgDN9dB5qV27tpJjvf7668yvBN+3aK6LeSuS5nrWGvQrJ+dBJiQUoLkeVC1WwLwwHhfKWm54a5C3Ds5Ej2qOGqFBQsm6XfHCewuw9uf9OHryNE4e2YOfvpqKV3vURymjPZ+UzDXxzJfn8tUri3Qt12bBiY+6It4ooXTSDI0JcFZc+bQ7ivuTs2ua65nYldIOpeT3yxPWEh/Bfyd+jPmfTMfYQR2REGs33I3lkjD9D61ByqzlCvt/qPGD74/avIvmeoTgpbkuTjxvP3Nd/Jm1g/NNbBicYDfJjZUx4JsM/wJMxjoMrConsZLXGcjWiwvRq6wEg1QM90+cjiccSe+dw0Qz5NXmun8z/C2Xd2ByzwTEKDd/CaW6zsbZfGaqFf+mDUcD5428bCsMW37c+2z9zMOY17umY0SkEeV6zMMZj2NGIiELXkf3xDau1+e4IYpBlsvYMbknEhyDD6RSXTH7bP5BBfLSV1dXP4tqJgNMdw7FDzcF/GWdwLLkZvbkylHo9W2u38C3z1d3cFkJD07djwzPa8/Yj+ndKzteUx6PLdJYVjVzC16uGwODsQqe9mtLAsHn8LwG/u5fvKBO1KmAGKC5HnpMu3LlistcX7p0KVnWgeVwmetSTDnUbt4C8ky4Fs2boUliA9RJKI9i+ZYJN8B4x5NYejnPDPfLXL+xC5OS7vBYxtuIsm1GY9PVvGNp55uBsai/uZ6D7Sn3o5WsjfLTBkNX5p+lIbz2QjRzPefIDHQt72msSyhRowP6jEjBlNmf4JNZU5Ayog861Mw/s91Y+VEsPO2R42ma6wYYTNUx4Gvt2SX+meuZ+PXd1m55oDwYQGa2YddnMTL1Q8z+5FN8/OE4DHu0Oe4we8xykcxoOHKb5ipZwjbToc/yHIH1X+pVNPSiuR56O1eoUEHJsVJTU5lfCWI1zXUxb0XSXL+1Gv+Jl3OGgjTXxW0TnvtiYazlhq8Gaf03DcMbxNon2BjLotWw5TiutTWpEksycXheb9R05JPGcj0w74x7zlt0a7ny0v2r8Ww1EwymOzH0B62JadnY/JJ9Mp2x0kCs97FVqhbbuX+8jw7KKlVGlE/6APvc6sUWXPxuBJo7/l/u4fk4rzWAl7Vc5gWCvECLvaLwN5rrEQKD5ro4uaG5nqdR1s+vop6y3IsRdzy9Etf94PTf5X1xhzwSUCqO+2aczjcK0Gaz4MzMJJSQzW7zXUg9fAVfPVVBmelkrPg0VvhcQjxwc10OoNZrjgRBLtYVfxDzPJeQvLUDbza2LwUvxdTBwDX/5J+x4/nZb2zFfxMdy8fLicdP7nuVhj8hC0XHIBJb+fNbr2H1s9XsprVUHA/Ou5Rfp9zDSG0dB0ky466UQ26z39xvZlakH/gcw9pWsBfjpVjEOgY3+DTX05fjKWUwhoTSXWfnG9TgPIf13Md4sLT8ZUpCyR7zcTlfUmbBkQntECfvu9RyHPYLlrl3HpePefGBWlCLaGaA5nro/MrFTKeO48aN45c8zzwhiN/DZq7HP41VGkWmzDMb8V73BPflE6WS6DH/kqs9heb6zX34sFvlfMZ66btew0aVSa9XvNDfXA+9LyifrbCY65YzmNvdY2l+Yzxaj1iFE1qrUGWewKoRrRHvmMVjn+VuRKUnl+KiOnfyZq4bJMTUHYqNGrPH/THXc/anoHVxtWEuIa7OE5j+62XN7xCXtqTg3jvcBw5IZR/Ggn/0HcShF688jk79K4h4Su0LTnua66FpL+dXZrN9m5AZM2a47sdkWltXmuvauqh5obleUMvCi9tG3U56Pi98tdxw1SBvYcebje3fZaQY1Bm4Bv+o81fN/OEGtv430fH9x4Q7h/7kNkizyNZybbk4nNpaqZGa70rBoXwrgMo14bOY3iVWqbPGJn3kdfUqbZZvYfNLtZV6slSsDVIPaa1cm4Wdb9rbRjK3Qorma1jL1da34OINr6dwaE9zXTPg6984NNfFmobbXLfeOI3fvv0Kn326AItXb8Lhy/alTrzvuX4DB1Z/jFmz5mDJdqfpm4Nrx37B2qUL8Mn8L7Diu99wJsN7USnj0Bp8PGsWZs1ZgT2BLM3p2ANcMhhgLPcEll4T6Ge9jM8fjVdGDEplH8Fnnia2zLnlCMa3tY8qNLcYh4O5Ntz4+llUUgz50uj2sa/9JYMz1222G/ji0eL2kYwxjTFmt3p5GSuuLH0CFZSiohGVnvpKw4jV+txWXPz8MZRT3mdCQvJ3kU3IQtIxyMTWZsONLx51LAEUg8Zjdufbw/7m98moYTJAKtYZU73tw2m9gPVvdkZCnL2YKhWvi95TViKlk72I4Mtcz/nlVdRVBnzEosu0s/nNfWcstRzHpLvtx4tp8AZ+1TDPLWdnIkku6JoSMGidlz1GncfjIws7ZOC2YsBpCk+YMOG2+lyR/mLTrl07ZWZV3759qaMOMSLS5rrCy/W1GJhgcq1CIM/wqTFsk6s9fZrrmQcxs0dVx+pAziW7JZRq8Qq+u+g9Lw2FU/3NdQvObfkMs+U8Wfn5GGv/0NgfUG7fnAvYvnAckh+9F22bN0HztknoPWwiVh1Oh7WQmOs5v76Bhup9ECUzGgz9Dld9FRqtV/HdC/XdBllI5rvcC1pezXV5QG0smryRf7sgsbn+L1b1U+93b4A8a37+Sa1imzMXt+Liiv8gweTkTT5/SfRcoD17PhTW+F6n5nwkC4ExQHM9ML08+crKynLdk+W8wPP//N1dX5rr7npo8REOc/3GgdVKjXHO0h245Mgxcq78ji3ffImFn87HkjU/489/89/Psy8exE9fL8GC+Z9j+Xe7ce6mP/liDq4d/w1pq5Zg4SdzMffTz/Dlmk3Ydy4jfz3IehW7vpqDWdNfRFvHDNj4zq9ghqAemnPtGH5ZvwJfLPgUn325Bj/tv+B9JUt5As+/e7Fyjlxj/RK/yoNJrTdwfMtKfL5wCdZsPoxLjvqTv7XYnGvH8VvaKixZ+AnmzrVfw6Z955DhK3/z9d2j0NVyw1ODtF5Ziicc25kaKz2Fr/wc2Gu9+DkeUybtGOC5DWrYzfVCWsu13fweyTVMygqznaee0hjkaoMtaz0GVpIHucag/ms78tWDteKP62/Z2zCitvydU0Jcl2leJ0pZjryHNmY5zzejVcphzQlbrOWK475Ld19xgv+7rXIsmusRAprmujgAhc1cv3Ucq0Z3R73SJsd+0I59XooloMury/HHNmcxzGO5c8spTOkom4QxqPvqz0g/ugz/TarhsceJBGPJO9H1jVU4kW9ZFivOTu+CWHnJbblQdjh/gus96Frw5/sdEKfsh1IWj3x2OX/yqmLX+r+P0a2kbJgaUanfas2Z7rl73kITuegnmdFy3EH7jTLzewypbr/JxrYdjz+0Rsgp5wnSXLdewKwkxzJB+Ua/XcWiR0vb28RUE0N/8lJQVX1Ol14392DZrCVI23ceNz2S3nAnZKHpGGxia8WFWUmIVZbYlxMdz5np17Csj7wKgYS4Th/ilMdS+S7dnAVaqRhqJL2KLw6mw2o5g6mdxea69eJefLP4E8x8fwKWHfTBcu7vSG3tMNcTR2GXhrkuj7qccV8xSPKesI8t8nNQhTiGuD6nFjP8222VvLCto7c/0FzXp+0GDBigFIBbtmzJvq1DfC8Qc92WjoU941yFfLngUbbvSld7ejXXs/7A3Eed2+44jU4JJZoOw7oL7ssr6hkr9TfXs/Dd82qDNxYPzL3s+vzOa889uxovty7nMUPfkcvH1USvyUswxpF3KLO/YxrgtR3qwZyCPmc5hgnt7HmLffZ4LO6d4WvAqdbxcrB9ZH3EqPZTl5f5//KKuHBtvbQIjzuKjPbzm9F87IG8gpYzd1Md2/46hwbFWyNlb5abbkJz/dpiPC5vE+U8plQcHSf/qV3MU/ev3ANIvbceWt3/JF54azIWfrMdx68FoLX6WHzu1mZO3vmo1b/4N3+5oLkeGiuXL192xcXVq1ezjwriNM11MW/6m+sWnJrSEWaDATENXseOawex8MWOSPBYicZYugGemPYbrsu1soxD+GxIe1R2TLCw3/slmDx5kkcAACAASURBVCu2wQtLjiFLq52t17D70xF4sEG82wBAZ94gGUui5r3DsGC/aqJE7gGMba7Op5w5qnY9NOvUeqT2aaGx7YwJpet2w8gvDmpuoZh75D20lg3AmESM3vQzJj1QTXWNEoo3fxu/ZotqsVZc2/0pRjzYAPGe297IuZFkRMma92LYgv2a1+A7Jhe2Wm54apBXFz2K0kp90oSaQ0XbjKr7yk3sWTYLS9L24bzHAI+iWcu14dqyPsqkMymuEz70MlHKZXxLZdB7aXpA9yfL8Um422GaN317b953DM++n70VL99p9weKdZvnGrzjxjtruQFp76adp978/bbRkuZ6hGCmua6+mWo/D4u5nrkPU+6v6CrISeZ41GrSEs0bVEYJo7z3uBkJLZqhkjILw5u5bkKtR5/HQ1VjIMlLMJZJQKMWLdG4VjmH2Wk3rOu9+B3+dTN6RQmdtg7O4Gs9PwcPlJILXxJKPfQJLrgdW/1eC05O7YxicmIjm9Q/uC+Tbj9eFraOqGNfBia2PSYdcxZfs/Hzq/XsxcCYBnh9R7aX4BacuZ61PxVtHYm+sepgbFAvi5m1AYOUkXfyPqP98Y36fyH0y/AmZKHqGGRim7UfqW0dKwAYq2LwBo82vr4MT8bLoxi1jHcVK7mHMWfoUEzZcBw3nRr7aa47uRQ9Wk5NQxelzSWUeewLXHOex+0xF0fea618KZTKPIpFV1XX6PY6/l2kN/9PRqKNAZrr+jA7fvx4pQBcokQJWK1iAy/aOIn09RaIuW75E5Paq4uQRlR8bp0rD9M0168ew4InaqqKiHLhUkLxxGR8fd6Z2+nDmGcbFIS5br2WhpcT5cF4qgKtx3PJGIdi6oJxQZjrlhN437Fqj73wbMQd/1mNDL9ymnQse9K++pSz4B1738y8vQ49zXVjPMopOZ9TEwmlO33gNkBWZK7fWjsAFVXL0UvF7ses/zGOeDLP38MTS6hr+HSluR6atn/99ZfLXP/xxx9d92Myq60rzXVtXdS8hNVcr/0w+nWxb/MoxZXHnY1bonndO5SlpZV8wlQNz3yxEZPuK69MwogpnYBGLVuiUbVSefXRuKYYtcNjkov1EtYPa2zfTlLe3tFUEpXrNcNdre9Cs3qVUTImb3CesdJj+OysI/+0nMHyN59Gnyc6oZay7aCEEvXuwxN9+qDPM6OxSpWnpu+ciPuryPVVex5rjq+JxJat0Lx+FZQ0OY5vLIu7Xlmfb6lxl7luqoqWreTBphLiKtRB06b1ULG4GQ1e24Fsm69arBWX1g9DY2V2vVzLNaFk5Xpodldr3NWsHiqXdF6XAQZjJTz22Vnx4EOPfK9w1XLDUYPMwoZBlZQtRg3GO9D/G4/6pIce6j7h63mRrOXarivfA4wGA8ytvCwJb7Mh46s+KCvX/M1tMP5IJv7ZuxaffvAuXnt5OF55cxymfJaG369qT4LKWj/QsWJtcTz82XXv9zbrWUxTlp43IKbef7Fda6KUjbVcXwzzf+L74u2oEc31IIN+oDDQXBd3MP3N9SzseruF3XSWTfSH3sMP55zmsRXph5dgWGv13ojezHV78UqKq41HJ27EGdfembdwNi0FSRXt+w9Kxe/FNLdRZr4SOrEeNusVLO5tvz6pxP2Ydc5L0Sv3D7zXxj47PKbRKPymdQPM2IDB1ewj0EokzXRbBiZ379toooxiMyFh0HovhcAAzfWcqzi8OgU9ajlmrUvF0GrsHmSr+pvl5GTco5zXAHOnqW7XFGj/Ur8+LyEzo/Vra7B12zZsE/1sWYiB9WKUL9OmhCFIy/bSPiHrGGhim4Orh1cjpUctx0AOCcVajcUej+vLdBZJTQkYstHJuJfPoGoDRTc9zXXrNax//k773vDGCnhiqfelQrM3DUNNeVCLsTyeWZXhPcHzvF7+Tq3IQFQzQHPdz9gs4HzlypWuAvDff/8d1Uyo7+EF9Tzy5roF/1s1ALVVBUp5gFzbCUddbZnPXDffhUceudPDWJeLgjFo+N9teYPmBOwEq3HkzfUs7HijkfvnlYrjzvuHYfycBfh02lt4ulV5V4HYOZvKUBDmeta3GFxZvR95LO7ze/a7Bcffv1sZcOj8DKbqL+IHZ67naa7HPYiUKT0d2yo5DHZjOTz48UlX8de3uW7B0fFt3M4X422loTCxFCyDfJ8+9w/qePvqSHM9tLbdv3+/K7favXu3637MPqOtK811bV3UvITTXFdyBqk4GvWbg53/OFeRycbp5c+hnjIbW4LJbIbJdAc6j/4GJ5yTWSxX8duHPVBVmWBkRIX/uK/SkJH2Amo5/9f5Law/5W6cZp7ZiAk9qjvyMzNapjhWxXTmDLdW4z/xskFuQsIL+fdct15cgf9UtxvYxvjWeHHBblxWraCZefJbpPaoYa9/GcvjIVV+I2vrMteVGeZxaPDcEhy7aW+L3KsncPKqXDf1UYvNSMMLteTaqAHGCp3x1vpTbttM2jLPYOOEHqjumNFubpmibKmpblfh80JVyw1DDdJyEpPvcQwQNnfC1DP6DPAtirVcW+ZaDFA8BRMShuTvL3bWcrBnTGNlUpwUVwdtWlfNm+jnGnQswVQ2EU+8vy3fyqDXPu2OOPl1pup48Qdf9eJbWPFUGWXQi1T2aaxyeR/usY61XHc9hPHAGRv5eNvmVTTXIwQ3zXVx8NHdXL/2JZ4sLxe6JBRr+RZ+dSaTqja3Xv4GA2s5Ryb6MNelYmibetDNHLYHUAtOfdjJfmOTSqH3EtWySL4SOtU1+ArEN9YMQBVlT/Ri6DJNe++V3H3voKlsUkuxaPPeH5pLvDiXmTFIZdBz/kX3JeZV5rwx/jEs0tqv3aY2140oV68N5P1e8/20bY2WjWujcilz3iwjyYxqPT7CIY8bc97elBJKP7XC575KvjTy/F9eQuac0RPYoy9zPXQd3RNbY7l6aKOlY7u2aN2yMWpXLqUqKkswV+uBjw55jCy25WC3M9GK7Yo5ge61qpu5novTi/ughmIUSCjZfjwOag30cLJ/5VN0LyZ/6YpBwzd+DWzPIOcx+HjbJiee/Zq/i++h0aIRzXV92vLQoUOuAvCWLVsYC0K8H4TNXC/ZCW8s+QpffSX/LMPSLxbg46kpePWpNqjssQylJG+fo9p2JZ+57iqe5M9rpGIt8fZvnvmBPqw5Y0vEzfWb6zCwisqwlsyon7wWF9UrOd06iPfvVQ+UlZcJLYBl4dMXomecql2M5dDva/el2p06aj3eXNrbNUNMLvZKxR/HEuf3lnzmenfMv3wM05PK2mcMObgwVuqNLxyzz32b69nYPLymfSCk473yTPn/qXV19CfrxT1Yu9zJr/bjip+OehmYqy9/Wrrxb9SYDLgzQHPdXY9A+di6dasrtzp27BhzK0FuRXNdzFt4zXUJxduPx2HPmov1PD5Kcq76Y0K1Z1bkM9tsuYeQ0tJujsYkjlaxno7lT8kz3Q2QyjyA2V5MU+ul+ehZWq7lSCj+yCL3pdN9muvZ2OkYOCmZG2BY2lX32qSTuezDmHhPSaWmaKoxBGkO81zu02pz3VilP9aka7WDd3M9fflTKK/UWMvggdlnXAMT3eKF9RLm97RvYSkVfwSLbmidw/ffCk8tNww1yJxf8UZD++QkqfRTWOFR63XT0tmmfjwWvVquDTm7x6Cxsn1rLLrO8ajVuzS7igU9S6hq7EaUqN4aD/UZgMGDnsHDd9dGWeeKD1IJJA5Zo1r51oJTk++xD6qVV6vd6RyIo8VvFtYPdKxIENcTC69rvcYGG2u5qpjpRSNX2/H/wcaDaHofzfUIAU9zXRxQ9DbX0798EvHysilSGfRaeEk7abNZcHzyPfa9zQ3ezXWpWFfM+Ud75njOjtfQQL4ZGszoPO2sKsh6T+j8DhK3NmG4Y8+TuA7v4898e2lnY/trDewj2EokYaZW8mv9B/N72EefGcs/iS+vebaFBaemdXHM8C+OLtPyZr7kXafaXFcVD30UeuXllUrV6ozBH27Cec+E32ZD9paXcadjROwdA9Zq7/UURP8MW0Kmi47uia1zhpLvRwmmUrXQefCH2HReKxG6js972ZeMNyW8gI3OmU7+aqeLuW7B+TUvoIljaS3jHQ9gxu++RkTaYMvekrefT/f5XpaP92SVv+f1SWpBLaKTAZrr+rRbZmamqwA8d+5cVe6hz/GLWv8Kl7nu+/6uyqekGNR8bg2uqAzOQMx1ubhZok0K9mWFr/0jba7n/PwK6ih5ol0nY/zj+OJy/lw8a9srqKvk4Q49C8Bct16cjftjVe1prIrk7/w312+tfsb+ncWZV8d1x3xnvq5lrl+zIefgeLQv6Vg6VXmfCdWfXa0U0H2b66qlPJ3merd5buw5+3/W98moqlo+Xotnc7sJOJbv+0n4OHReGx+pMRnIzwDN9fyaBMLJ2rVrXbnVhQsXmFsJ6gk018W8hdVcl+Jw/+wLGnXObGwdUds+iE5Z2VArH7mFr54spZh1xqrJKtZv4EjaIsyaNBZvztyC694YyNmN0Yl2czU26SOVkWeDzZe5rtrTuXjSLJxT5b2effXaF4+hjLL1ZTUkf5/3GfLMdQllei9FuuY1eq/F3jiShkWzJmHsmzOxxZt5KE9gGZ1o3z4zNgkfXciff3peb77fC00tNww1SFctT97icwDW6vT9o+jVcm24/nkvFFc4T8AL3lYhzd6KEbXtqy1IxerjqZk73VZ7sNksuLxjKh6r5ZjkZqyIxz4774gNqhWrzM3w7j7tpePt/Gbjhxer22NHbDfM1fjepbzO1f4SirGWq4qf4ntCvjihGb94nGjTieZ6hECmuS4ODvqa6znYPtKxl7i5Az444X2ZGnnmdzNleXLv5rr3/UZssBwdjzbK+824+/3jqsDqPaHzP1DkYJcjqZPMrZH6h8eN8NZPGKosaWRE/GOL8o9ItdmQtwe2EVUGfOM+qtTBv/XCPDzk2N/d3Oxd7FMty2S/VrW5bkKNTs+gf//+jp9n8Z8ne6B1gnN0rLy3Um9M2XzefXklj76W89ubaKQUQ8M1c92M9u9uwcFDhyDP8PP5s38lXmzge1l4fXR0T2xNNTrhGZeO/fHsf55Ej9YJ9oEO8mjhEvXQe8pmnHfOXvLQUGkbedRxK/uoY/NdKTicr+0EfS9kcz0bJ5Y+h4bKPusGGMu0xqhNXkYgq6/f8icmtnNcd/OxOBDodauPxeequCNob2pFrQqYAZrr+vXR6tWrK0XgkSNHkusQuS5Qc10yoeK9qdjhUeDzbq5LMFV5EKNHJiFebXxKpdBh4qGwrQQTWXPdiiufPOgY/Cqb1hLi7p+db99NJQ/KWosBd6hmuBeAuW67Mg8Pupnr5dH/m7xCsCjvz/ScuV7sESzKcMQKL+a6zXYLv77VXKWRAVJMXbyYdh2Zq55WmfVGVB68QTWINRubPGaumztrb89Ec12/eC1igP+n1nowQHM9NI4WL17sMtczMrhtmYhJmuti3sJqrptqY8Q2rQkNKmPY3NnLkt1ZWPdcRWWGurHSwIC+R2Rf/RPbV6bgoSp2sy+2y3R3k9yHuW75cyLaK7VTIyomvYYZs2ZhlpefmW/1QIIyyNKMtuPztk3KM9dj0OStPZord/pcFl70nSH7Kv7cvhIpD1VxmIxdMN3bFp0+j1VYarlhqEHm/IY3G4Vz5noRqeXacnEopZV9Vrn5LqQc9qj3O/myXsHhjauwaM4UzFx3wut3vczd7+KuOPuKEuYmb2GPUmO14NiEto6Z603w1h6tCVvOWJaNtORqdu7juuNT50Bf53U4H1nLDShmiu6l/L+Tv+h9pLnuDA5hfqS5Lu4k+prrt7C8j2MZn5JPYJmvZWrSP8PDylKO3s112bT83Yv5Zzn+Pu52mOvtJ/2pCrJ6mOs25P7xHtrEyjdIM1qMPeCWPGasG2ifUWKsjGe/Tled26l3Ln5PbW1fWlyeFXXvsxg0aFD+n4FPom1le3JsMN2JYT95Li2qNtc9dHL2naxz2JjaDdUcy4LH1nwMcw57Hsd5XTZYz01HF0chMvbeGTjvY9RqIDebvNGOsUiapTWSN+8aXMfN3Yd3m9mNXu1l4fXS0T2xjev1ucZghyyc25iKbtXs2xVIsTXx2JzD3pfNz96GV+o4vtjcNzNwHUMx163/Yuf7DyHBsbStsVwHvL3Z+z7rLr1lZqyXMbdbrFLAMN35ErYEOuPeyR0fNfq9BuPUiToVEgZoruvXP7t27arE0B49epDvEPkuEHNdMiO+fhKSp27CeY17oLa5LsFU6QFM2XsTtuz9SGltX7nGOaPYWOZeTD3qpTATokaRNddVsyyU2dVGVPC2ylHufrzb3J7DKToUhLl+axWeVvYXdc5ej8X9s70t7egZAyw48UEHtz3QjZUH41vnLCCv5roNthubMaKBaismg4TYxq/hhy98meue2hoQU/dV/KKxyhTNdc+24u9uuXyIMYXH0p8nmuuhaTp79mwlr5IkCVZrEDNVi1ifoLku5i2s5rpXM05lrsd2w7wrWiznLf/s1VzPuYxDaUvw0XtjMGJwX/RKaovE6vGINapXzTFANtfPqmt5Psx1ea/mGqpViZz5q+9HE2q/vNX1XSfPXDejwwdaq27K7eJPLTYHlw+lYclH72HMiMHo2ysJbROrIz7WmLf8tpyDxnbB9LNaGorbv3DUcsNQg7Sew/Qu9lqeIfZezDgfnD6eeUCRq+XasrHtlTqOQRz3YWaoOlovY+HD9hUpDOa2GH9UnmSo6gsx9TByuy9zPQvf9K9g3xai+GNYrNqOwa2tWMt1xSM3XYpYDsDPnncPoLkeIfhprudB560D6muu38Tix+wzqaX4/2C1L3P91nL0UWZte5jGllOY0tExs7bNeBz1suRhuM11m+UMZiTZ91eJaTwGu13Fr3+x/Cn7jc9053Bs0vqMObtcyzX5TlidxUD50YiKT6/Av259ww9zXXn9TexKvQdllZlUEsy1nsYSraXq5ddmb8SQBLspbKqWjDSNwrI3VuRlb66cPolrLi3y+ApLQqabjv4ktvbPcnNXKu4pa5+JJZlr4eklXvaDUukY+8DHuKT+YuPWhnkauekarLmedRxfJjdFaWdb1+iF6XtvBJBkXMfCnnFKAUNeiuw7ZxHZn2vmawLQ2Uu7U0NqWEAM0FzXr08OHz5ciaF169YlzyHyHC5zXSrZGaOXrcKqVauwavVqfL3mG6z//ids++0Ajv+T4TZg0u3ebLMhv7kuwXRHEibtyrvX3tj0EuopgxqdeZwR5R6YhRNeclbPcwTye2TN9VwcTrlLZTgbUWngetXsa1U/shzBe20K2FzPPYCxaoPfYESVQet9ruCUp/0NrOhbzm3/dHP7SXlbQfky121WXFv/PO5UMyAVR5O2zVFSXmLSMTDBfea6DbfWDkBF1aoHUmwnfHg6/ypf1kv78O1qB78yw6tWYFZ/+3ZUzu8VXBZexWKIcSiPCR6TWgTHAM314HRz8jZx4kQlbpYtW5Z5lR/xjOa6mLfwmuttHOaZ53WozfUHAzfXrdexe85gtKsS624yO7aSkczxqNO+M5qUt9eqAjHXszYMQmUl/zCifIP2uOeee/z46YTeU/a4+qTaXO/04WntPdPVhmK+QQhWXN89B4PbVUGsK1dy5kzytqJmxNdpj85N7HvPh2KuF45abhhqkLZsbBySYDeFTdWQnKa1goInl3m/W66cxslr+U3eIlfLVesY+wA+vhTqIIVcHExpaf/+ZKyK5x1bVGUsfgwlZNaNlTF4g6+VtW5g0SP2gdvGqs/7qNGyluvMG/iY16+LshY01/1IGvUAhOa6uMPpa65nYe0Ax4irYj2x0GOpTbc2vb4APUQz1wvSXLdZcXFhL5SVb4aq2TjWS5/jUWWWTAwaj9mtuTTMrU3DHfuam1CxZQ/07t3b+8/j3dDUkSBLpR/EXLdRc/6a6zbYLCcxr8cdjiKhEfH3T8dRDRPcZvsXS3qXtSfsMYkYtSt/cuXWTuq+qhQazTCXqYnWvcZjm2rZ9HAkZPrp6H9iKw8gODmvB+5wFD+N8fdj+lENjbK34CVlawD7qGFf+1Zp6hmEuW69th3j76+CGOXLiBFlWw3H6jMa16ZuM8/n1ouY09Uxc73GMGwKaHCFOJ5oflbPa+Dvri+p1ItMRYoBmuv6sTZz5kz7ACWjETk5AcZgxj+3+Bc2cz3+aazSGvzoh/75zHVzM7y+3WOVIutFLHuqipsxazBWQM9PvBUbg+cvsua6BWemdlKZ6xJKPr4EGVq6qZamVAxfVa7sV1yzHMMExzY1dsM4FvfOcO5T6K9et/Dt89Xc2sFYtT++9vX9w/FZrFeXoY96WXuDCbVHbEO287P6NNfllYAu4qunHUs4OgrfTuPb/ui5LLwNtquL8GgZ1cwzKQ53TzrqpUCt1iD/rHea62p9+NyvPudkm49u9yE9tKO5HlofHDNmjJJX1ahRQ/e20aN9C9sxaK6LeYs+c/0W9k3o6JgsY4AUVxGJ9/bGwBFvY8JHi7Bmy0Gcz7DApt5zPZCZ61tfdtQnzZBX/bQEcR8I1Vy/tW8COjomsRikOFRMvBe9B47A2xM+wqI1W3DwfAYsbnuuBz9zXZ41XPC13DDUIG02/Lukt71GbYhB4qhdmvVo7ZiVg12jGsFsLoOarXth/LZMV7wtcrVcWza2vFQrxO0H1HHIguOT7naY6xUxcL3dSM/e9grqKCtGxKLb3MuOvdjV73M8zz2C91o7Jhj6WL1X/u7BWq6GfkHEM+0+wmNHmy401yMEP811cXDQ11y34KhrX5F6+O8v3ovOOb++gYbK3t+FdOa6zOj1lXimojwy1IQ6I7Yi22bF/+Y+iFKSAVJsO0w4kn+2ic12A2ufq2ov9MUkYvRu7xrYA1c2to+sjxi5MCfFou34I6oZVQGY6/I+72fmo5dyvfKxyqDz5D9Ux3KyYMWVxY879gs1ofbwTX7O8LEh6+dXUd+xX3tsuwluqwron5DpqWMgia08UOEM5vey74Ul7zdapvNk/OG5PUHuQYxrkZcAhXvPdevlH/BGm7J2riQzqj88FbvTgxhhqd6np9m72O/5uSIUm6Ptps3rdcYPPkYrCzTX9WM3LS3NMTPVgGPHjrkKE9HKRkFed1SY63GqfbhV90jL8RlIUhulBgOMlXtjkdsgydC5i6y5bkPm6v+gnGp2tbnpO9inkStYL89Hj5Iqo7hAzHUbMjYMduwN6pj9JBVDi9HbtQcEuNrvBra91sR95pSpDkZsVc0qEZnrct59dgF6uRn0qhlYBg1z3XYNy/rYByE7jXhT1d744pzW9wk1OzTXCzJO8dxqFvlciwea66Fx4TRC5bqUlr78m7u+NNfd9dDiw8lU06ZNdWLKglNTOtrNM7P+M9etFxfgYSWnlBBT6yksPHJT+7qzN+IFxyqU5s7T/F4W3r41pJyzSYh/4ktcd+VDYi2d+oZkrlsvYsHDZZQJPlJMLTy18Ahual5DNja+4JiZbe6MaUEuC69cc4HXcsNQg7TZYL2yGI/H21cvMNUejk2qCU/OttJ8zPoZr9Z37Ncu17KVpcvt7V/karm2XBwc18LRn73tuW7F9V8XIuXNV/Di4BcxR7Bn+tYRte1mfYy8v7pjq7Cr89GjhNzvTLjzpS15A3g92c9YiafLyW1qRPl+X3uvz7OWqx0XPfXk70VGJ5rrEYKd5ro4WdLXXLchZ/doJCoGbAzqvrTZa9L026hEu6FsKMTmui0TaUNqKDdJeX/qzZnnMPt+eal4CSW7znJPZh1MW68uxRPKjdEAc4uxOKBRkPRMdnL3j0Vzx/7ZMQ1exw7XbOLAzHV51vWpud1R3jXr+gHMPqFRsLvxPYbUtC8NL5Vsj9R93vdod11r7lFMu89p7pbGA3POuo141Tsh01fHABNbuWB6ai66O1YUMBjj8cDsE26f12a7hoU9HUv3VEvG9642E/c5RdNAZq7f3IX3OsY7jPUSaPz8cpzSXJXAj3Nnb8Jwpe0lFOs+H1cjFItdHPF8RSbRYZv70R8j2B9oruvXHqdOnXKZ6+vWrWOfDoHjaDbXbbYs7H6nBeLclrY0oVrfZfgn0K1ifGgYaXPdeu4jJBXLM80lc2O8sTNvdos9tltwfNq9ymBTp0msXuXJr/ivy8x1G2w5ezG2pfsSqlJMVXSbtBPXtNrBehXbJ3RFZVPeZ5SLzSXueR9H1Dm7H+a6zZaLP2ckOQasqo11+bmWuW7DrZ1vorEj57drJ6FUsxew/KTK2Hfj4QaOrnoL3Wq4f0bOXNcvpvvFq1ub8NzUzJ0BmuvuegTKR79+/ZS8qkOHDsyp/Ig1NNfFvEWbuZ71XTKqKjU8M1qMO6gxQcb+mXP2vYNmZnu+Ye44BafU2xFlfY1+Sh3ShIQhae5GnmobHanMA5jjbQtJmxXnPnkECZVqotFdSRj17XVXnwzJXM/6DslV7YawucU4HFTnW2rmc/bhnWaOLYfMHTHllEYtU/16n88LupYbjhqkzMENfD+kpt3IlUqifeo+3PKpg/yeXByddp9rG9HSD8zBWRU7Ra+Wa8O1hT1RXFmyvRqSv9deXj/jqz6IV77nmdH07b1e+6UtZw/eamLn1lhlINY5BzxY/sSku83KoBJzs3ewz0sNNzNtCGrIM9ylUugx/5L3Ge6s5briUaB5Bl8vvm9Go0Y014XBX5+Gp7ku1lFvc91m+RMfdi5lH5VYrCle/t7z5mDF9R3vol1pZ1GrMJvrNmTveA0N5MECptp4efkMPCCPPDPG4/HFVzRuenkz2+U9g1qnas0c12gTy594v0Ocfal2UwIGrc9w3DQCNddtsOUeyzPB5X3cH1noljjZA6bahJdgvvNJzDvoPKfG9eWcxeoXm9r3izFIiG38Bn5xJgyOvqxvQqa3joEntnICesyVgBpgrPgIFp5VlcUR6AAAIABJREFUJ/c5+G1UI2WAiBR7H2YGOlPNb3P9On54qQHMclInmVH3uVX4nyoRDvQGaL00Fw/EyX0vBg3e+DWAZaQ0uIhQHA/0M/L1bCsykJ8Bmuv5NQmWE4vFArPZ/gV6ypQp/JIXwr0gus11eYWj75B8p32wostkNlVH/699LP0XoF6RNtdt1nOY0620PSdVljuXENfwOSw+6jTYc/G/799Ee8esGdfnDnnmuglV2jyOZ555Rvjz7Fur3HLb6z+9jIaxzu8VDpNbMqNK+2fx7pwVSPv5V/y6LQ0r5ryLZ9tVsedUqqXcpeIt8dZOj1lifpnrsrl/CBPuLqnSy2mya5vrNus1fPdi/XzXYCxVHw8OHY8FX/+AX37diW3fr8DclBfwcPM78r1W1pzmun4xPdh7Ad/HNnAyQHM9NBZ69eqlmOsPPfQQcyo/cgSa62Leos1cz978Emopy0ebkDB4PW5ocGD9dzvG3eOYcCHnAW0n4Ji6LpS1AYMqywa2hPinV3rMfrXgxIwklFaMQiMqJL2PPTfy65h9fAEer2bPa43xPfDJubyVEkMy17M3u7ZUNCUMxnqNc9us/2L7uHvyBiya22LCMXX9Lf/1OmOwt8eCreWGowZp10A9EUgy34kn5x30sWJTDs6ufhFNlRnU8gqsjfHGL86c3n68olfLtSHnt1FoJNf5pVjcN1N7WyrrxYXoVdb+/cKU0A+rLuf1hzzmcvHn7IdQQR4cI8Wg3itbVYMdLDgxpZPdxDdVRd9l/+T3EHJP4KOu9klsxvK9seSK1jns7cRabuAxIK+d+N7bUQua6xrJQjgamua6OIDobq7bbLi1O8VlnkvFa6P76x/jm593Y8/2DVjw7hNILGMftWgvyBVuc92WexApLeXRZjGoXr+OcmM0VhmAb7QSQssJTOlUzD6wIK4D3v/T32TQinOzu6KkI9mNf2wRLimzbYIw1202ZB9IRTtH8mQwVdO+iVvOYMlTNV0FO6lELdybPAkrfzuJK5n267akn8bO5RPxXJuKjn2+DTCWaYdxO/Mb8bomZLrrGExia4Mt+wBS28krFciF0vyz0W6u6Y+KchJlrIxBG7zNOPLSB/0013P2jUNLR8HYWLY9hk6bi7lzff/MW/wzzqu/aKnibfbGF+zLpxrvQL+vPQrJqteFIx7zmF5YoO4spEWAAZrr+va/xMREpRCcnJxMfkPgN+rNdXm7oM8fwx2OFYPsea2EmDuTseGa9+JIIPfDiJvrNhtubh2JRh5mtWSugPpt7kGHZgkoaZQLTRJizDF5pnLI5rrTlBY/5p/1dAsHpj6ASm6z0cXHkdtLMifg0XlH3Wd4yUz7a67L33t2vY2WysBF9Tm9mOvysTP3YkrXyjApeb/6Pf49l6/5wSm7fRRS9Y13gfDK11L7osgAzfXQuO/SpYuSU/Xt25c5lR85Fc11MW/RZq7bbqzHIMdy75K5Oh58Zxl2HL+E9Ix0XDzxG9bNfg3d65aEJEn2H4MBMU3ewh71TFg5b0m0L/ttLNMc/VJm4ONPVmC306zLOoD3OzvNeSNKN3wUb8xehc2/7cPeHd9j8cTBaF/JkdcZ49H5/YNuuVFI5rrtBtYPciz3Lm9x+OA7WLbjOC6lZyD94gn8tm42XuteFyWdn0/Oj5TltUVbbApYKNBabnhqkPZ7rAVnljyFms6VkKQSqHVvMiat/A0nr2TaV9y0pOP0zuWY+FwbVIxxDEA1lkG7cTvz5Y9FsZZru7kG/ZUtVY2oPGgDsjRjbyZ+fi3RsY2UEeXveRNrTqgGJuT8g58/7I06yncACaaEZ7D8H4/vf/+uw+AaJuX7krFce7y29nTeuW4ewZLnm9p9AKkYWr67263PeeZTrOUK+rtmG/I9nhzdTr/TXI8Q9DTXxYEkHOa6vDz5hQ2voV15+03EXmxUFYykYmjw1JNooyxpVMjNdZt9tFkxVwHMhNovb8m7IapYzj2UglZKgiOhWJdpOO3F4NQKZtbLi/CYYxaQVLwLpp2UDe7gzHWb7RZ2jmnmWKpUgqnmIKy96nGTl6878zA+faaBY0Z6XvtIxliULF0cZqV46vy7BHPlLnh748X8o+1sNuiZkOmvY5CJrVww3TkGzRwFU8lUE4PWXs37/NeWoHe8nKjGoNGo3wKbBe6XuZ6FH160b0uQrw+pZlx5/s+UMARpmsvU52LfO82UvYWk+MfxxVVxfNBilX+jbmQg+higua5vmz3++ONKIbhz584sBKvyoEBjQ/Sb6/KKQUfwQUf7ik2u+7FkRv1hG4Pa09JTw4Iw1222m9g7pasPs1pC8cbJSHm+oWOLJ7kI2gCv7QigCJpvWXhnvil+zG+uy/37Jg7NH4DGpdUDeH0dS4IxvhVeWHpMM6cPxFy32TKw5dWGrgGrdg58mOtKDv47Fg1pjXKBDAiQzKjcbhBm/HLJY6sifeObJ4P8nfqSAd8M0Fz3rY+InxYtWig51ZAhQ5hT+ZFT0VwX8xZ15rrNgvMrB6GBalseV07pqPtI5sro+N+lWDSsnn31xPg++Mptwk8mfhpW2zUpRnm/sRIGrs+bBGK9sgUpXRM88hX3XEmKqYhOYzbiosfWOqGZ6zZYzq/EoAb2iUien035Xc5xOv4XSxcNQz1lRnE8+nx1I8SYUJC13DDVIF0xIhOHP30GDZyTqpz1QcmI2JKlUdxszBsAqwwmrYwub+dvVzk+F8laru0alvSOVzSKaTQKv6kHqrg0tsF2cy8m31/JNSBWMpdDvdZdkNSlLRpUdKw+a5BgLN8RKb/kbaOQd9+z4kraf9GilGOAgxSHSg3bo0vnNqhbzr5kvLyVVIX7JmPfLV+xjbXcPE196cT/FSWdaK6rg1UYn9NcFweW8Jjr9vPm/PMrPnvrKXRqXAt3lIhFsbJV0OCeJ/HmZ3tx7cYiPBInJ3KF3Vy3wXrhE3R3LmNvboK39+ZqJHnZ2PlGA3uRUSqBrrO1l5bxHujSsbpfJce+2mY0f3cfcoM2122w3diElxs4btaSGfWGbUS6Vl+zpuP35WPRp3UCSriZ6c4kW4KxdB0kvTAT2/7R+tz2ttYvIQuHjsEntvKeRptedizLbpBgrjcMG9Od/eoavnyyvNJm5tbvue/VqaW1+m/+mOuWE/igg2PPKWey7MejV3Pdchzv3y3v2WlEuSeW4qrHFybvbDo/Lx+pERmIVgZoruvL7ujRo5VCcKVKlTTyAX3PFa3M+XPdt4W5brMhc/sbHvtoyzOiG+HVLaEWBW0oGHNdZvgmfl88HPdUcRZ+7HmhXFRq+tQH2HY5C7sc2+MoRdECN9ft/e7WqTR8OKQrGsS7X3deIVeCuXwiHhr+Ebac195jUWE3gJnr8uut/25A8p2qmfxe9lx37xc5uLD9U7zRuzUSSrgXQV3XKxlRvHJTdH12FOZsPIGb6lySzxl/yUChYIDmemh5T+3atZWc6vXXXy8U7ekep0P7bOE4Fs11cZtEn7kufyYrru35HKP7dkHjhHgUN8cgtlR5JCR2Qu/hH2DNkXRlkkfGmv6opKyeWBF9ll1x7zMZB7Bg6P1oVLmUY6KMGZ2nnnF/jfVfHFw+HkN6tUODKmURF2NETLEyqFy3NR4cOBaLdl3W3Fs6VHNdyZWu7cHno/uiS+MExBc3Iya2FMonJKJT7+H4YM0RpMv1qYw16F9JHihpRMU+y3AlxJpVwdVyw1WDVPNvRfrvyzG2j/c8UjKWRp2kFzBz2z+a7Sq3S9Gs5dpw7csnUV7uS+bWeO+I91q3Lesk1rzdCw3j808elIylUPfB1/HVEV+rglpxadsUPN003mXSO/N8yVwRbZ7/FPvdBsqo29jxnLVc9zjG/Jd62GyguR6hjkBzXSMoe2gfTnM9HF8meExxmwankQUZ5/Zj89eLMHfmVHww6QNMn7MQK344gAuZGrPePTgK7pzh+iyRO+7N74egpkkuordG6h8+ErJCoJfl2CS0l5d5NVVH8nf5l/Yvqm3Izx25/kKtC05rmuv6ar9w4UKlECx/MU5PT+eXmyDvcXqZ67dzbNHfXA+wL2RdwO51izBn6oeYuWAVfj6VkbeCT5DtHpH2yr6KP3dswLL5H+HDDyZh0gcf4qP5X+HbncdxzdvslAL8PNab/8PBbWux5JOPMG3yB5jy0SdYvHI9Nu87i4wQC8sR0bsAtePnC7BPs610v2fTXA+NwQoVKig5VWpqqu5tczvGB5rrYt70N9fF57wdWeNnip52t2Scw/7NX2PR3JmY+sEkfDB9Dhau+AEHLmRGR95eELnJze8xpKYJBsmM1ql/eB184OwHloyz2P3tEsybMRmT3v8QsxetxY6T6f6vJmXNxLlf12LR3OmY/MFUzPliPXafVy0z70MD1nKjpy86eeFj+NuM5rqPoKEngDTXxTDTXBdrpCeTPNZtpre8j9NdsZAkM5q+vTewpeEjFAftzOXiwLiWMEsSYlum4EDubdYOEdWS2jGORR8DNNf1bbMdO3a4zPW9e/eyGBxkDKa5LuaywM31INuW9wlx21IjakQGbg8GaK4H346yUWw221dqmzFjBvMpP+65NNfFvNFcF2vE+w81IgO5OJhyF2IlCeamb2NvIRx8a28j1nLJKuOVFgM01/1IGrWEC/RvNNfFHZDmulijQLnj64uSplZc/qovKhsNMNVIxvc3C+lnz/wBQ2uZYDBWQp8vL3H0aoTuQYwFhbQ/FMH2p7muL4tXrlxxmetLly5lMTjIPkVzXcylnua6cwlCPjq3Pro9HplriPsRNaJG4WSA5nrwfGVlZbnyKTknCGc73S7Hprku5o3mulij26U/8HOwrUNhwHr5K/StbITBVAPJ3/ta2r0AdWYtl7lBkLWWUPpGNLyX5nqEwKC5Lr4B0FwXaxQNQYXXWIDtmPs7JnUoCUkqg25zzvi/LFCE4qC8f9e5T7oj3iihRLvxOMRZ60zOIsZeAfZLfkY3zmmu68uiXNh0ajpu3Dg3rXk/9l9rmutirWiu3x4GeDgHNDDmiPsRNaJG4WSA5nrwfF2+fNllrq9evZr5lB/fX2iui3mjuS7WKJwxkcem/tHDQC5+n9QBJSUJZbrNwRlLYWs71nKjh6XCxs7tfz001/1IGvXoQDTXxZ2J5rpYIz1Y5DFub51v/ToGzeMkxNQfgS2FbfZ65s/4b4MYSLFN8MZ2//b0Ia+3N69s36LXvk4jeMKECSxc6pSDtmvXTikI9+3bl5oGqSnNdXEsorlOc11kzPOeLu5H1IgahZMBmuvB8/XXX3+5zPUff/yR+ZQf+RTNdTFvNNfFGoUzJvLY1D+qGLj1K8Y0j4MUUx8jthSy2eus5TIv8CMviKr+puPnobmuo5i+IKK5Lr6p01wXa+SLMf6P+tkZuImdb7dCCWMJ3D3xd+RGKMaJ+cvFkQ86opSxGJq/+TMyCs11kRtx21EjaqQfAzTX9dPSyWX//v2VgnDLli35pS/IewvNdTGXeprrTnb5KNadGlEjMkAG/GWA5nrwrOzfv99lru/atYv5lB/5FM11MW8018Ua+Rvf+DpqWRQYuLnzbbQqYUSJuyfi90Kz0idruUWBPX7G4GMszXU/kkY9AKO5LoaU5rpYIz1Y5DGKgM7ZJ7F56SJ8sXY/rlkLyee1/osD677AoiU/4XhWIbmmCMV/9jm2NxnIY4Dmep4WenExfvx4pSBcokQJyIVOvY5blI5Dc13MJc11sUZFqc/ws5IHMlD4GKC5HnybbN261WWuHzt2jLmUH9+Taa6LeaO5LtaI9xJqRAbUDGTj5OalWPTFWuy/Zi0c9yLWcgtHO/hxX2ZfUvelyD2nuR4hOGmui6GmuS7WiIGSGpEBMkAGyEA0M0BzXX9+V65c6SoI//333/zyF0RuT3NdzCXNdbFG0Rybee1sXzIQ/QzQXA++DdeuXevKpS5cuMBcyo9ciua6mDea62KNeO+hRmSADJABMhDNDNBc9yNp1KOBaa6LAwXNdbFGerDIY1BnMkAGyAAZKCgGaK7rz96hQ4dcBeEtW7awIBxEbk9zXcwlzXWxRgUVV3letg0ZIAMyAzTXg+dg8eLFrlwqIyODuZQfuRTNdTFvNNfFGvH+RY3IABkgA2Qgmhmgue5H0qhHA9NcFwcKmutijfRgkcegzmSADJABMlBQDNBc15+9zMxMV0F47ty5LAgHkdvTXBdzSXNdrFFBxVWel21DBsiAzADN9eA5mD17tpJLSZIEq7WQLMUbRD4TyVhAc13MG811sUaRZJbnYnuQATJABsiA3gzQXI9QwkpzXdx5aa6LNdI7APB41JwMkAEyQAYiyQDN9fDwVr16daUoPHLkSJrrQeT2NNfFXNJcF2sUyVjKc7E9yAAZ8GSA5nrwTEycOFHJo8qUKcM8ys88iua6mDea62KNPOMYf6dmZIAMkAEyEE0M0Fz3M3EMtVFprosDA811sUahcsj3U2MyQAbIABkoSAZoroeHv65duypF4Z49e7IoHERuT3NdzCXNdbFGBRlbeW62DxkgAzTXg2dgzJgxSh5Vo0YN5lF+5lE018W80VwXa8R7FzUiA2SADJCBaGaA5rqfiWOojUxzXRwoaK6LNQqVQ76fGpMBMkAGyEBBMkBzPTz8DR8+XCkK161bl0XhIHJ7mutiLmmuizUqyNjKc7N9yAAZoLkePANOE1SuSbEv+acjzXWxTk6umjZtSq6CyM/ZF8WMUSNqRAbIABkoWAZorkfoBk9zXQw6zXWxRgyY1IgMkAEyQAaimQGa6+Hhd+bMmYq5bjQakZOTwwJegPk9zXUxlzTXxRpFc2zmtbN9yUD0M0BzPfg27Nevn5JHdejQgTmUnzkUzXUxbzTXxRrx3kONyAAZIANkIJoZoLnuZ+IYaiPTXBcHCprrYo1C5ZDvp8ZkgAyQATJQkAzQXA8Pf2lpaUpR2GAw4NixYywMB5jf01wXc0lzXaxRQcZWnpvtQwbIAM314Bno1auXkkc99NBDzKH8zKForot5o7ku1oj3LmpEBsgAGSAD0cwAzXU/E8dQG5nmujhQ0FwXaxQqh3w/NSYDZIAMkIGCZIDmenj4O3XqlMtcX7duHQvDAeb3NNfFXNJcF2tUkLGV52b7kAEyQHM9eAa6dOmi5FF9+/ZlDuVnDkVzXcwbzXWxRrx3USMyQAbIABmIZgZorvuZOIbayDTXxYGC5rpYo1A55PupMRkgA2SADBQkAzTXw8OfxWKB2WxWCsNTpkxhYTjA/J7muphLmutijQoytvLcbB8yQAZorgfPQIsWLZQcasiQIcyh/MyhaK6LeaO5LtaI9y5qRAbIABkgA9HMAM11PxPHUBuZ5ro4UNBcF2sUKod8PzUmA2SADJCBgmSA5nr4+EtMTFQKw8nJySwMB5jf01wXc0lzXaxRQcZWnpvtQwbIAM314BmoXbu2kkO9/vrrzKH8zKForot5o7ku1oj3LmpEBsgAGSAD0cwAzXU/E8dQG5nmujhQ0FwXaxQqh3w/NSYDZIAMkIGCZIDmevj4e+yxx5TCcOfOnVkYDjC/p7ku5pLmulijgoytPDfbhwyQAZrrwTNQoUIFJYdKTU1lDuVnDkVzXcwbzXWxRrx3USMyQAbIABmIZgZorvuZOIbayDTXxYGC5rpYo1A55PupMRkgA2SADBQkAzTXw8ff6NGjlcJwpUqVWBgOML+nuS7mkua6WKOCjK08N9uHDJABmuvBMSCbxM6tdaZPn84cys8ciua6mDea62KNeO+iRmSADJABMhDNDNBc9zNxDLWRaa6LAwXNdbFGoXLI91NjMkAGyAAZKEgGaK6Hj7+FCxcq5rrBYEB6ejqLwwHk+DTXxVzSXBdrVJCxledm+5ABMkBzPTgGsrKyXPmTnA+wL/mnI811sU4018Uasb9RIzJABsgAGYhmBmiuB1B4C6Whaa6LAwXNdbFGoTDI91JfMkAGyAAZKGgGaK6Hj8EdO3a4isN79+5lcTiAHJ/muphLmutijQo6vvL8bCMyULQZoLkeXPtfvnzZlT+tXr2a+ZOf+RPNdTFvNNfFGvG+RY3IABkgA2Qgmhmgue5n4hhqI9NcFwcKmutijULlkO+nxmSADJABMlCQDNBcDx9/V65ccRWHly5dyuJwADk+zXUxlzTXxRoVZGzludk+ZIAM0FwPjoG//vrLlT/9+OOPzJ/8zJ9orot5o7ku1oj3LmpEBsgAGSAD0cwAzXU/E8dQG5nmujhQ0FwXaxQqh3w/NSYDZIAMkIGCZIDmevj4k4ucZcuWVQrE48aNY3E4gByf5rqYS5rrYo0KMrby3GwfMkAGaK4Hx8D+/ftd5vquXbuYP/mZP9FcF/NGc12sEe9d1IgMkAEyQAaimQGa634mjqE2Ms11caCguS7WKFQO+X5qTAbIABkgAwXJAM318PLXrl07pUD89NNPszgcQI5Pc13MJc11sUYFGVt5brYPGSADNNeDY2Dr1q0uc/3o0aPMn/zMn2iui3mjuS7WiPcuakQGyAAZIAPRzADNdT8Tx1Abmea6OFDQXBdrFCqHfD81JgNkgAyQgYJkgOZ6ePnr37+/UiBu2bIli8MB5Pg018Vc0lwXa1SQsZXnZvuQATJAcz04BtauXesy1y9cuMD8yc/8iea6mDea62KNeO+iRmSADJABMhDNDNBc9zNxDLWRaa6LAwXNdbFGoXLI91NjMkAGyAAZKEgGaK6Hl7/x48crBeISJUpALnoWZFtH07nnzp3rKqyfPXsWly5d4o+HBrGxsYpGKSkp1MZDG/LC/kIGyEBhYKBixYpKnB41ahTv/wHU+RYvXuzKATIyMqidn9rRXBfn9DTXxRpF0/cFXivbkwyQATJABjwZoLnuZ+LoKVygv9NcF3c+mutijQLljq+npmSADJABMlCYGKC5Hl4eV65c6SoQ//333ywQ+5nnDxo0yKWbwWDgc2pABsgAGSADUctAp06deP/38/4v58izZ89W2lqSJFitVmrnp3Y018U5Pc11sUaF6Xsqr4XtRQbIABkgA4EyQHPdz8QxUGE9X09zXdw5aa6LNfLkir9TMzJABsgAGYgmBmiuh5fXgwcPusyALVu2sEDsZ55Pc50DCjioggyQATJwuzBAcz2wXGvixIlK7lSmTBnmTX7mTfJ3D5rrYs5oros1iqbvsbxWticZIANkgAx4MkBzPYDk0VO8QH6nuS7ufDTXxRoFwhxfSz3JABkgA2SgsDFAcz28TGZmZrrM9Xnz5rFI7GeeP3nyZJduy5cvx5o1a/jjoUFMTIyi0cCBA6mNhzbkhf2FDJCBwsCAM8caOnQo7/9+3v/lPHnMmDHK/a1GjRrULQDdaK6Lc3qa62KNCtt3VV4P24wMkAEyQAYCYYDmegDJYyDCer6W5rq4Y9JcF2vkyRV/p2ZkgAyQATIQTQw4C78TJkxgATNMOWj16tWVIvHIkSOpsZ8af/bZZy5zPSsri7pp6BYXF6doNG3aNOqjoU80xWFeK/MGMnB7MlClShUlTo8dO5ZxOoA47TRA5XoU+4b/fYPmulgrJ1tNmzYlWwH0SfZDMVvUiBqRATJABgoHA//P3pdHx3SG/8+dySSxJIJaYwsaYg2xlJKKnapdF6WWqKXaqiraqpwoVWqrtXaCoorYwrfWxhocS0vxRdGvLfkFOREnycncM5/fudvMnZl7585kJhvPHzkzmZl773uf9/O+7+c+n+d5XhLX82mBJ3FdG/AkrmvbiCZOshFhgDBAGCAMFGUMkLie9/jt0KED71zv3r07OfJc5PkkrmvjksR1bRsV5bmZ2k79Sxgo+hggcT13fThw4ECeN7Vq1Yp4k4u8iZsvSFzXxhuJ69o2orWHbEQYIAwQBggDRRkDJK67QR496WgS17UnChLXtW3kCQbpWLIvYYAwQBggDBQ0Bkhcz3sMjhkzhncS16pVi5zELvJ8Ete1cUniuraNCnp+petTHxEGXm0MkLieu/7v0aMHz5u6dOlCvMlF3sTNNSSua+ONxHVtG9G6RTYiDBAGCAOEgaKMARLX3SCPnnQ0ievaEwWJ69o28gSDdCzZlzBAGCAMEAYKGgMkruc9BufPn887ifV6PbKzs8lR7ALXJ3FdG5ckrmvbqKDnV7o+9RFh4NXGAInruev/yMhInjcNGDCAOJMLnEmaZ0hc18YbievaNpLwRK9kK8IAYYAwQBgoihggcd0N8uhJB5O4rj1BkLiubSNPMEjHkn0JA4QBwgBhoKAxQOJ63mMwISGBdxLrdDpcu3aNHMUucH0S17VxSeK6to0Ken6l61MfEQZebQyQuJ67/g8PD+d504gRI4gzucCZpHmGxHVtvJG4rm0jCU/0SrYiDBAGCAOEgaKIARLX3SCPnnQwievaEwSJ69o28gSDdCzZlzBAGCAMEAYKGgMkruc9Bm/dumUR1+Pj48lR7ALXJ3FdG5ckrmvbqKDnV7o+9RFh4NXGAInruev/kJAQnjd9+eWXxJlc4EzSPEPiujbeSFzXtpGEJ3olWxEGCAOEAcJAUcQAietukEdPOpjEde0JgsR1bRt5gkE6luxLGCAMEAYIAwWNARLX8x6DJpMJRqORdxTPnj2bHMUucH0S17VxSeK6to0Ken6l61MfEQZebQyQuJ67/i9btizPmWJjY4kzucCZpHmGxHVtvJG4rm0jCU/0SrYiDBAGCAOEgaKIARLX3SCPnnQwievaEwSJ69o28gSDdCzZlzBAGCAMEAYKGgMkrucPBsPCwnhHcXR0NDmKXeD6JK5r45LEdW0bFfT8StenPiIMvNoYIHHd/f7nBGIpIHHevHnEmVzgTNI8Q+K6Nt5IXNe2kYQneiVbEQYIA4QBwkBRxACJ626QR086mMR17QmCxHVtG3mCQTqW7EsYIAwQBggDBY0BEtfzB4O9evXixfW2bduSo9gFrk/iujYuSVzXtlFBz690feoPBG3eAAAgAElEQVQjwsCrjQES193v/8zMTJ4v6XQ6rFq1ijiTC5xJmmdIXNfGG4nr2jaS8ESvZCvCAGGAMEAYKIoYIHHdDfLoSQeTuK49QZC4rm0jTzBIx5J9CQOEAcIAYaCgMUDiev5gcNKkSbyzuEKFCuQodoHrk7iujUsS17VtVNDzK12f+ogw8GpjgMR19/v/8ePHFnF927ZtxJlc4EzSPEPiujbeSFzXtpGEJ3olWxEGCAOEAcJAUcQAietukEdPOpjEde0JgsR1bRt5gkE6luxLGCAMEAYIAwWNARLX8weDXPYVl4XF/aWlpZGzWIPvk7iujUsS17VtVNDzK12f+ogw8GpjgMR19/v/f//3fy186X/+53+IL2nwJfkcQ+K6Nt5IXNe2kRxT9J7sRRggDBAGCANFDQMkrrtBHj3pXBLXtScHEte1beQJBulYsi9hgDBAGCAMFDQGSFzPHwweP37c4iw+e/YsOYs1+D6J69q4JHFd20YFPb/S9amPCAOvNgZIXHe//8+fP2/hS6dPnya+pMGX5HMMievaeCNxXdtGckzRe7IXYYAwQBggDBQ1DJC47gZ59KRzSVzXnhxIXNe2kScYpGPJvoQBwgBhgDBQ0BggcT1/MJicnGxxFm/YsIGcxRp8n8R1bVySuK5to4KeX+n61EeEgVcbAySuu9//R44csfClq1evEl/S4EvyOYbEdW28kbiubSM5pug92YswQBggDBAGihoGSFx3gzx60rkkrmtPDiSua9vIEwzSsWRfwgBhgDBAGChoDJC4nj8Y5ByepUqV4h3GU6dOJWexBt8ncV0blySua9uooOdXuj71EWHg1cYAievu9398fLxFXL9//z7xJQ2+JJ9jSFzXxhuJ69o2kmOK3pO9CAOEAcIAYaCoYYDEdTfIoyedS+K69uRA4rq2jTzBIB1L9iUMEAYIA4SBgsYAiev5h8EWLVrwDuP33nuPnMUafJ/EdW1ckriubaOCnl/p+tRHhIFXGwMkrrvf/+vXr7eI6+np6cSXNPiSfI4hcV0bbySua9tIjil6T/YiDBAGCAOEgaKGARLX3SCPnnQuievakwOJ69o28gSDdCzZlzBAGCAMEAYKGgMkrucfBgcNGsQ7jMPDw8lZrMH3SVzXxiWJ69o2Kuj5la5PfUQYeLUxQOK6+/2/aNEinisxDAOWZYkvafAl+RxD4ro23khc17aRHFP0nuxFGCAMEAYIA0UNAySuu0EePelcEte1JwcS17Vt5AkG6ViyL2GAMEAYIAwUNAZIXM8/DE6bNo13GBcvXhycA7Sg+74wX5/EdW1ckriubaPCjHFqG/UfYeDlxwCJ6+738YwZM3iuFBgYSDzJTd8oievaeCNxXdtGtDaRjQgDhAHCAGGgKGOAxHU3CWRuO5vEde2JgsR1bRvlFn90HNmWMEAYIAwQBgoDBkhczz8cbt26lXcY63Q6/N///R85jZ1wfhLXtXFJ4rq2jQrDHEttoH4iDLy6GCBx3f2+nzx5Ms+VqlSpQjzJCU9SmldIXNfGG4nr2jZSwhZ9RnYjDBAGCAOEgaKCARLX3SSQue1YEte1JwUS17VtlFv80XFkW8IAYYAwQBgoDBggcT3/cHjx4kWLuH748GFyGjvh/CSua+OSxHVtGxWGOZbaQP1EGHh1MUDiuvt9L4mfnC+Kxo579iNxXdteEr4aNGhA+HLCw2nsaWOJbEQ2IgwQBggDhRMDJK7n0wJP4rr2ACBxXdtGNJGSjQgDhAHCAGGgKGOAxPX8w29GRoZFXF+2bBk59ZxwfhLXtXFJ4rq2jYry3Extp/4lDBR9DJC47n4fDhw4kOdKrVq1Ip7khCcpzQ8krmvjjcR1bRspYYs+I7sRBggDhAHCQFHBAInrbhLI3HYsievakwKJ69o2yi3+6DiyLWGAMEAYIAwUBgyQuJ6/OOTKnHJl4b/44gtyGjvh/CSua+OSxHVtGxWGOZbaQP1EGHh1MUDiuvt936NHD54ndenShXiSE56kNK+QuK6NNxLXtW2khC36jOxGGCAMEAYIA0UFAySuu0kgc9uxJK5rTwokrmvbKLf4o+Py2LZsJpJvnEPioQTs2XcQf565iocZLD2guzi/mu4nYc/OeBz6+ylYF4/JW0yzeHrlMOJ37sbpeznUj4WiT/J4DNM95hvOSVzPXyy3b9+edxp379493/o4b+fnvLEfievadiVxXdtGRRH71Oai0a/si8e4cS4Rf+zbg70HjuDkpTt4llN4256Tdg9/nz6Gg/v2YE/CIRy/cBPJmYW3vS/LOCBx3X2MRUZG8jxpwIABxJPcfB4icV0bbySua9voZZl/6T5etr5mkZl8A+cSDyFhzz4c/PMMrj7MKCT+yqJgaxPuJ+3BzvhD+PvpS+IbZ5/iyuF47Nx9GvcKMQenuSj/xweJ624SyNyClMR1bXCTuK5to9ziL2+OY/Ho1+FoUrcO6tQJQ7uY48hyazzl4MKPXVGvTh3UCWuLb468UHigzcKJmCjhN3Xqokn0ZjxmXbATm4JNwxqiDndu1b+6qBtWHw3Dm6F11Nt4d8RkzN2ShEfZLpyfv08WT//6DdOjO6F+OT8wjI5/MOcyBHU6BoxvWYR1GomfEm4jU80u6b9jZCOhjQ2HbHDt3sw5uDK/J+rzdovE1MRsBbvZ30MhtmPWRfzwZiD0fo3x7Zksu3vJxJXdy7F06VKNv2VY9cctmFTsnP3gJNbGjECfqJZo0rAhmrzRAf3HzMDmC6mqx2Sdi0FTfz1KtozFOXIG2vWLPb7o/7yZY19Ou5K4nr/9OmbMGH5tql27No1jlTWCG78krmvj8qUU19lnuH0ruYAcZTm4OKubwOcajcL259Y+YB+sw6CGHD+sjz6LrqtylQJdewrUdlZb2dvAU9vlXJyFbvU52zfCqO3P3Zg3s5E0vaPwzFKvC2ae90JwJpuGK9tnILpjfZTz14PhnzGk5w0GhhJV0Kz3OCw6dEf9WYOb90w3sKRvA+GZKCwSX+1/4tJ9sfdW4YMGnC3qocP3Z5DtZA7l+sGUcgFbvo9G18aVUVzPyJ6LhGcjvX951O84HNO2XMITV57nNK5n3/f0vxkkrqvPDWr4CA8P57E6YsQIl8aF2nlexc9JXNfGW4GJ6zkXMatbfX7ebzRq+6uBbfYB1g0SfID1+yzCdZN2/+T5uC2MbdJaW9lH+HV4E9Tl/Y3tEHPc3kenYdecC/ixaz0ee2Ftv8GRFwq/zzqBmCjhN3XqNkH05scucXE2ZROG8fxY8KEq+nrr1kVY/YYIb9YaUW+/ixGT52JL0iNNDiNhgX36F36bHo1O9cvBj7HlMgzji7JhnTDypwTcduIjTP99JBrxfuiGGLLBtXsz51zB/J7CmA2LnIpEV/zShdiOWRd/wJuBevg1/hZnshwxkJN8DltmjcdH70ThjYhGaBjeHG27vItPYlfj2L1MF+asbDw4uRYxI/ogqmUTNGzYBG906I8xMzbjQqopj47PwrmYpvDXl0TL2HPOubfWOKPvXegjR9xI47SwvZK4nk+AJnFde1CQuK5to8I2gbAPlqNboEA4DNVG4Q8l4qQ2xrKOY3yoD/8wa6j6MfZnKNz/872IDjZYnDNMsUjMuenCQsk+xOIOvpbjBMFbckY5eWX0KNUoGhtvaAjWmdex9Ys2qGi0JVtK12H0pdAwegOuKxAK87NV6O4ntMc3aiHuu+RoysG5KQ1h5BxshmCMSHCB7BZWO5qzcWlGK5RkDKgyNB5P7LGSfRoTwwSMKNnW+hmDwHe34oX98WYT7u+ZgDde87FzSAo2Z4yVEBVzCMmKdn+KPdHVYWBKoHnseTcDRxSw7NA2+k1hm8+oPfmDSRLX88fOEp7nz58vrLMGA7KzNda2V3ie+vnnny2cITPTlQf6/O1HqT8L8vXlEtdNeHxyGUa/GYyQj/cX0BqfjZNf1YEPx+f8emBNmhVT7J15iPTluIoRTWMuI6dQjc3CYDurrezHhKe2yz75Fer4cLb3Q481aW44frJw9LOaMHD96ROK8cc9m29N9/cjplNV+NkE7wr81cp/xf+ZEgjtOxuJySqZQTl/ITbCKM5xDIyvj0bCE3UbSjY13ZqNN43cNQwI+fSIk3GSjktrPkazssp827G9RlSO+gYJ9114pitU2Ne2mWS7gnolcd39PgoJCeHHxpdffunGeHf/OgWFiby8Lonr2jgoMHE9+yS+qiP4Ufx6rHk1sM3ewbxIwQdobBqDy4Uhs7QwtklzXWXxYHk3BPL8w4Bqo/5Q8LOpYz/r+HiE8jzKgKof70eGwvWe741GsEHiNAyKRc7BTReCIdiHi9GB58fSsa69cj7ZRtEbccOpYJ2J61u/QJuKRkXfoQ2X4fzGDaOx4bqyL/bZqu7w4wMifRG18L5LgQPmnHOY0lDgaobgEUhQ8h/b2bJw2tEMc/YlzGhVEoyhCobG2wd0ZuDvtdFoEmQfNGrtS6Z4KPovTMIzRT8tFzR6H3smvIHXfJT88QyMlaIQc8hJ8LQnxz/dg+jqBjAlmiP2vHL/5+W6S+dWn3sK0jYkrttNTnnVGSSuaw8AEte1bZRX+Mz9eZ/g1wFloReF3ui9GS4T9xd/jEJ1nlD5oM6EE4oOm6db3sNreh30AZVQOVAPHWNEwynntJ2McnHdpyY6jxyLsWMV/j4ZhejBfdEpogpKWDIsGPg3nIhEWQaRjX1eXMSCbpXhIzq7mBK10OHjaVi58xjOX72J2zevIOmPXzHn8254vaRecGQxRlR7fyPu2hPGfBLXC6UduQyXGz+jA0eqAqIwXyFogk1ejq7FlAiTlXgJJFdZXM84HYMWJbnjGehLheGdcTOwZMUvmPfdULwZ7CuQZn1pRM37WzGS1XR7ETqWYsAEtsPca+QAtBkH+bR20jWL4rrgvM0krju3j7cxn5CQYBGNr1275vIa7e125MX5Tpw4gW3btiExMTHX9/XkyRNMmTIF/v7+FjuRuK6M0ZdKXM/cjoGlOY5mQHBhFNf/W44+1SqhUqWq6Dznn8KVuV4obKeMUW6eYT20XWEQ13Nub8Sg1/1F5y4DfWAouo2ZjtW7E3Huyk3cun4Jx/eswfRRnVA7QHJOMijRYBS231Pgqzbiuo5/nnp9dIJjUKsdt3NNXH+GxNi2KCs9RzG+qBjRH1/OicPe4xfxz63buPH3WfwZvxLTRr+N+qUlAZ5BiSaTcFQWVJIX68Srdk4S19XnBjUslC1bll//Y2Njc80l1M79sn9O4ro23khc17aR18YJ+x+W96mGSpUqoWrnOfjH3vdmt8Z57brOzlsY2+SsvdJ3T37FgLKCL9MQHI29SolQ0m9tXl/gj1HVxUDDOphwQkl8fIot770GvU6PgEqVEajXgTE2xJRz2hV/5OK6T83OGKnk4x07Fp+Misbgvp0QUaUE9FKQIuOPhhMT8dymvRI+X+Digm6oLIm1TAnU6vAxpq3ciWPnr+Lm7Zu4kvQHfp3zObq9XlLwf+sYGKu9j413HXlX/ojrhdGOnD1NuPFzBwTpGQREzbcLmjDh3sZ3UUW0M1MiBFHDvsVPy1Zh1S9z8F10B9QsIfp/9eXQZdE/Cr7/DJyOaYGSXL9yQQ5h72DcjCVY8cs8fDf0TQT7CsfrS0dh3t9Kga6eHm/C7UUdUYphENhuLq4VhnlGEdMStuk1P+Z6EtfzCYQkrmsPaBLXtW2UH5OCu9d4vnuYGHWoR4XBO5Du0phKR/yQSjwpYYwRiP1LgUixD7GqRykwOgb+7WdgXt/S/O8NNUZrZ8jLxXW7bCDl+zPh8fFZ6B4sOnyYkuiw6I6jM5N9goQxofDlCZoepZqMxubrSuXshb7MuLwMfaqJkY/60ui27F/bc+aHuF4Y7chhhE3Btg8rw6AzoMaoA4okN+vQJ0IAhr48huxyM5Mw52/MbFWcd0zqy0Thx3O2pT1ND/fi00bi96Xfxop7Stk+GTg8thZ8dHpUfM/FLQlcwn/RHOvKY4fuheziHgZIXHfPXp7i69atWxbROD4+/qVyHPfs2ZO/t86dO7t9X5KoHhAQYLGPlJFA4royRl8qcf3FNnwQxDlfCqe47um4z9PjC4XtlDHqjfsucHE94xS+iygpCOuMEcGdY3HwvpJzULBB1r/xmNSmHAzis0lQ25m4aF+q1F5c13GO7NcxOsE+m8jWrtriOov/Nn+AqqKTVB/YCNGrL6lnGpnNyHlwEFPfKic4phkjGkw6SWU1vfjsQOK6LYa15gROHDYahUzBefPmuc0ltM7/sn9P4ro23khc17bRyz5Oiub9PcfuYcGCSK6vgME70l2bH9PjMaQSJ8ozMEbE4i+F6gHsw1XoUYqBjvFH+xnz0FcMdq0xWjtDXi6ucxUZ0rTWT9NjHJ/VHcGSmFuyAxbdsRfDWTxJGINQSZQt1QSjN19Xz9bPuIxlfarBKPKu0t2W4V87gTU/xPXCZ0dhrLMp2/BhZQN0hhoYdcDWB2tO24PhVYTKtPrynTHnvCOu0s/PQ9cK4m/K9MLah7Z+2py/Z6JVce4ZTo8yUT/inE1SnAkP936KRuL3pd9egXt22e+eHs+P54zDGFvLBzp9Rbzn4pYGRXMeoPnb1X4jcV1rMvbS9ySuaw9KEte1beTqwM7X32Uew+e1hZJT+tfew9anLtzHk8149zWBdBVrNx+37cgI137TvwsQxS+KRjSNvYzkXwegrF4Hnb4c3tvi3Blkdltc59rMInXbh6jMZ9MzKNZ5GR7ZLcQvjn+FenwpeAY+NYdg+wPbhV7J7mlHxiFMLB9vqDEKf8ijPvNBXC+MduTslHM5FhF+DBhjU8RcUgiuMLO4My8SvpwD0DcKP/+nbWu5/V8c+gQhXF8y/mgWe0kh4tGMzBNfCX3DGNEkRvk3pivT0YJrp284pp5Xd27Kr03vXZgDvLS2kq2Lnq1JXM/fPsvJybE4jmfPnu2aY6SIjM/ciOtqonqTJk0sIjuJ68oYJXFd2S65X4fUy8Ln/pzebqPC+UhcV5lHvVEWPhsXYiNQjM/GMSC4z2qNEqZi/6SdxNSWAaIgH4h2867ZBvPKxHXGvziK8VnmQnn4/U6e2zTFdbE0JheYxBhDMWLXI5dKn7KPtuADcdsvfbn3sMWFEvWFekwUojWTxHWFOctJ/3DrvRRYt2rVKpWx7d45XyWskriujQ0S17Vt9CqNmaJ0r5nHPkdtvry7Hq+9txVPncyl0n092fwuX3lUxxRDu/m3bbkIf7wJ/y6IQnGO5xibIvZysqUSqit8wG1xnbsmmyom9XC+wWLovMyOq7w4jq/qCQlRjE9NDNn+QJvLpB3BuDAxiYoTkf+wreCa9+J6IbQj3785uBwbwe9Vz23NcMkuuOLZ5gEozfn0mQB0WGSXeGbBF4u7SzojgOfCJdBthXzP+hc49EkIH/TB+DdDrKIfORMnvgrjgx8YYxM7X7Onx0vzmQlXprfg79M3fCrOO91uQDqGXqV54mV8JXHdMoDzFugkrmvbN+/F9Sw8+jsRCb/HYeXyVdiw/RAu3s/QXjjNLF48uIRDOzZizfIVWPPrDhy6+NBplD375Cy2Ll6IhYs34uRjFmY2DdcPb8WaVXHYfugyHvGTL4snZ7di8cKFWLzxJB6zZrBp13F46xqsituOQ5cfKZaqNpuzkfrPn9i1ZR1WLl+Njdv/wPn76tnTDhMX+wIPLh3Cjo1rsHzFGvy64xAuPnQzK9hm3Ih7gHOLn740+m5I1XgwZfF4TU8E8YtlKbyz2o7c8Oc24cr3zYUMcWNjTL2YA3Pa7/iwvCDIB3Ra4hCBZnOfuRLXzTCnrUNPsQy5T73JOCNfJNlkbOgrlsDXl8eAX+WLvBN8sw+xppeQdc/tkW5TOj/PxfVCaEe+f59jX3RVGLiqBG3n4JZCcIXZnIldQ8rzmS0+r4/HcXlf2OBPyfZZOPqpSLr8IjH3X/voVPEY0xVMayZkKxibqOzLZbqDBVHFwHDZbUPjtaNjNdum1F76zGb8kg015tCijRcS1/O//8LCwnjn8YgRI14qbLkjrquJ6n369MHFixexevVqi4OdxHVljOa9uO4Bv81OxY2Te7F57XIsW7YScdsOIOnfNEenHpuC078uxsJ5I9FczGoIavsZ5i/kOPsWJKVygXwsUs9s5vn5wiXbcckmI0JmG/YRTmxYjIULF2LJritOxhaLtNunsOfX1Vi+cj22HbyMxzyncSKup1/C9iULsXDhYmxJSlV/VslOxfVTCfgtbhV+WboUy1dvxPaD53A3XT0gMe3CNizhnj3iEvFADCLNTv0Hf+7cgJW/rMC6LXtx6t90x2u6ZDuZfcS1nD/3ri1Yt3I5Vm/cjj/O31fPBvLG+u+i7di02zi151esXr4S67cdxOXHQgBlgWauP/0dH1YQyrDqy/VFnF22jjOulH1pGpqLzzB8lS95MK9MXPep8zFih9YUtrdijHh99H5Vh7lzcd2E2/PbCQ5ynQ9qjT7gBkc24er0FvxzHuMTjOg9tk5pZ/dJ3zmOMblNSFx3bh+5rbj3jx8/tqz93DYz9t/T/87tSeK6c/tw+MlzcZ1Nw+1Te/Dr6uVYuX4bDl5+LPgQ3dhzPffrdDZSb5zE3s1rsXzZMqyM24YDSf8iTdG3o2QrV/2zrvpN03Fp+xKely3ekoRUWaKMxH0WrT2Ke3z7THh28zh2bliBX5avweZ9Z3DHCXdymAuyHuHvxAT8HrcSy1dtwPZDF3E/Q4l7qbfJ9pzu+5zNaRewjeOKi+OQKCX9ZKfinz93YsPKX7Bi3RbsPfUv0mV2sL2mUp/IPhP3AGd0OuhL98WGVNl3SnyNfYw1PYP4QD+m1DtY/UjBHqYr+L65sD2jsfFUXMwxI+33D1FeFFw7LbnnyD9l18qVuG42I21dTyFwUeeDepPPyPzsLJI39BWSuHR6lB/wK++X17YTi4dreglCMecnjN5rs7d8novrhc6OIjae70N0VQOf4NR2zi2757Bs/Pk5VxVUB51vJObeUcCH2Nem6z/gDSO3FagPQiectPZX1lF8GsJltTPwi5zrUDFA6jfTlWloxh/PJVFdtiZaeXq8DIumOwsQxfFuQzCGxqcRf5DZRuqHV+mVxPV8AgCJ6xoLsdmMPBPX2ae4sHYCeoVXgB8n6HKTufjHGEsjrNdU7LqttBcMi6fnVuPzzq8j0CDs2yEdp2MMCKjdGV+sPY+nCmQl58o0RHCTuU8YJh08hh86VhbLxnDXZlCs0Tc4mZWDK9MiYNTp4BM2CQeP/YCOlcXoN659TDE0+uakbJLOxK1dsejf+DXZuYR7YQwBqNXpC6y76GRSZ5/i3OrP0fn1QLF0oMwOhgDU7vwF1p5/6pTMqE2Opmsz0cqPsxGDUu+sdk5I2P+wpFMJoVx3+YHYppQxkZOEr+tz2fAMjOEC6TKbM7BvRBUhSs23Ob7/WynbWcRZLsV19v5CRInlgDix1SbSLmUtegYIODBUG6Vdml42tzxP2oSFcQk4d++5rX3zWlwvjHbk7JK6Cf25PZwYP7T5yZ50iX1oEb4ZBPbZgGcye6rh0PK56Tp+eEMUzRt8g7N2EZOW35mzcGRsDTHysROWKT0AcBn089vBn9FBH9QLa7lgGXfaQr8lexEGbDBA4ro2H/L2HNOrVy+e97Rt29amL7x9nfw+nyviupaoLrWZxHVtXOaduO4Bv2WT8edPHyCivOCos/B0LpNWXwzBLQfhx4P3rU6VnAv4rpHAD+S/5d9zlXQuc9wyB5dimvD8XOf7FuYrbhtjhlnuuO66QnFsvbj+GyZ1rY0Am+cIBv7Bkfh88984OqGO4GSy28KIvTMPkb4cTzeiqdwpJK4nbOoZLP+0M0KDZM8NlucbBvoS1fDW6JU477CftQm3Zr8pPHvU+hzHnl3FpnFRqCqKspJNGH0J1OgwAb/dkAXfumQ7K44yb+1CbP/GeE2s3iSdm3+GqtUJX6y76IYYaz2vNGbVXrVsZ35xHb9N6oraAQYh01t6JvQPRuTnm/H30Qmow2dq+aHHGifPVQ5ru+eZ60839UMQ52DWGVDz0yNOA7kd7z8Vm/pbg4AH75SV4pSL63Un4uTD3YiuKWyFxZeH3/9UEb9OxXXesStmevm1xo/XVQJZHewk9CV7/zDWrt6Ns/+RsO7Yl67j3f5YEtfds93//u//WvxC//M//6M4DuxtTP9bbUziutUWarjIO3H9Ba7/NgldawfY+vYYfwRHfo7Nfx/FhDpCdUmufLZS+3K/TrNI/vMnfBBRXtwu0epX5PZALhbcEoN+PIj7aj4Yt/2zLvpN2TuYF+nLj2kua/ay5fpW7mOoMhL7ky/gl48aIciOmxlKhaLHlJ24laXer+zTC1g7oRfCK/jZcAjeb1k6DL2m7sJt+fGqbZKukXufs2WN9qmFz489w9VN4xBVlUsKse2PEjU6YMJvN9zkFFz7TLg2s5XgQ2e4pCjnyUXsf0vQid8vW4/yA7cpBu7lJH2N+hzHYowIn3pR4OcZ+zCCLxXOwLf59/jb0m+SjayvuRPXWdxfGCVi1b5iZQrW9hQr/xiqYdQfbiStPU/CpoVxSDh3D8/tNIG8FtcLnx2FPkrd1J8PVGD82uCnW/a8kMXDszuw/pcFmDl9Ex9YoTQvcZ/l/BUr6Ck6H4RNPG0R162iuxENvjlrfb6z55pZRzC2hiDC+3eyVqT19Hib9rJ3ML+dPxidHkG91jrXQOzbR/8rrkk29i1iNiJxPZ86jMR164KoNmDyRFxnHyD+k4YoKYnqjBGlqtRFeJMGCCkjOeIYGKv2xeqbcrE2BzfjBiOUz2rhyAkD39LVUS88HPWqBVnFbX0AGo3chjt20ZkWcd1QCeFNguHDMPArWxMNGtRGuWJGhI4/jiyzlSQaKoWjCbffN+OHsjUboEHtcihmDMX445Lo/wwnZrRHRWf7TwkAACAASURBVHGvGI6MBFULQ3iTRni9YgkLodaXaorPdimUscm5ibjBoWJ2AUdmfFG6ej2Eh9dDNZljTh/QCCO3Kew1rjVO2HtY3FHYH5Ap2QW/3FcXIE0356CtPydSG1Bt1AGbCD8JG5lHPkVNvqS3L1r+8I8l4i3LUprIB6FfcjZUwVWuxPVMnI9tLkY06lFp2G6btmXuHipEVOr0eG3QDpvvpHa7/ZrH4nphtCNnI4vz0KFMj6w/039Ff24vJp0Rzb6/gowHZ7Fz+Y+YMn4sxnz2FabOXo2Ev1KUCVXmLgwRqxwUe3u1IrEX+orFnblC6XmdT22MS1Qu+24Zz0wgeq5NeemIgNu4VRt39DlhwwUMkLgum+dcsJc3xuekSZN4R1OFChVeKow6E9fVRPXevXvjwoULDnYgcV0bl3kjrnvCb9Nx/NsIkeMzYPzKoHpYOCIiGiO0kpUbM36hGL1XzP42/YvNX72H/n3boDofTMmgeO126Nu/P/q/Pwm/3eMcQd4R1zPOzUb7cpKAy8AYVB31wxshtEJx6BmujHYwGjcsL+xn6Ya4zj7ahdH1iovOUwaGEhVQu2FTRDRtiNoVSggZybxjVY/yvVbbPaPIHMzVe2J4l0r87xmfQATXbYzwetVRWgwy5R3FtUdi7xOR07tkOwFHz07MQPuKgnjLnyeoGsLCm6DR6xVRQnJm60uh6We7LNnz3pjruHM4FdczzmF2e2l/cq4PglC9fjgahVZAca5UOrfHeeOGKM9vEZXf4noWEqIrC3jQV8LwPbLABhfXimecOM8/8xpQY+xh6zxnJ66fzmaRsisaIfxzpXp5eIvjXmdAyKdHbJ672LsLEMUHVutgbDkD1+yehb3Vn3Qe7blZbiMS192z1/nz5y3i+unTp61jxsUxJ7f9q/iexHVtvOWNuJ6Bc7Pbo5y0nnK+wer1Ed4oFBWK68FwCSrBjdGwvLBvsZK47sk6nX78W0SUFJJOOP9lmephCI+IQOPQStY1nvFD6Oi9Ntnj/BjJlX/WRb+pqpAt4z4VOmBAFFcdkQtErIqIDj3Qo1NzhASKnIXxQfA7y3BVoWoi+yAenzQUfJ5cwCBjLIUqdcPRpEEIykjciTGiat/VuCkJxKpt4rDjmc/ZskYbqqPn8C6oxK3pjA8Cg+uicXg9VC8t+bu5ttbGyL1PbBN9XJjn2HuL0ZHvawYlu/yC+3YisnXeM+HmnLZ8QoqOE6kPKAXOZeLIpzXFZKmW+OEfSXzNwrHPawvBpj6h+NLiA3ccX7kS1zPPI7a5GHSgr4Rhu2Vty9yNobzfUAf9a4OwQ171xwX7WO/ftq15K64XQjvytnqKTf2C+MqjDolqbtnShFtzI8UtkgLRa521Mm7mriFilYNieHu1cmCoMM/cwVwx0Man9jgkiuPZ0+Nt+9s6LzGBPbE2xRYDtr+l7152e5C47tYgz/2AIHFd23beF9dZ3FvTC+X4DAAGxet+gAV/3rc6BrLu4kBMB1TkSakeQW+vsJQazzwbi+Z81J0O+lJNEL3iDB5LBMmcjUcnl2JIwwB+4eD2C2k146IlmoqbNCxiHOfc4ojlR3H4RywrmZNyAzdTOEeVdTLmyZlfKD6K+wfPeUzmIOXGTaTw5IXFwy0foArvANEjKGIkVp55LBMVM3BzTyy6VRXIk75MFyy5KREVzu6ZOBvbHCV4Z4sepZpEY4X8+OxHOLl0CBoGCGUImYBWmHFRWWRUnxBZJK/vI2RbMMXRfuFdFeKWg7+nNROiBn3qYuIppeukY/cwwbnEFI/CAnlJ75yz+Ka+kHFkCB6KXekquHJTXM9OuYxtMd1ER6sOjH8TfJckBTZw1zDh5qzWQhaTzog2c9T2h1Fpj9o8IxPXjRHjsf3IURw9qvV3GKuGiOTTEIwRCfJ2yq9fGO3ItS8DOweX48eOIXgE9ssje2V2yk6ajHp8VKsfajaLQCXpgUUWicsYSiGs70wctc8mT12Orn5C5k+VkQesY152fgnLL7YMQCA3NphSeO83lUjVrIMYXY17ONWjzPu/IV3hPNL56FWOQXpPeHDEAInrjjbJa5xw+4hKWaNpae5kYuZ/W92xhZK47q6oLl2PxHXtvva+uO4ZvzXdmIO2XMY144MqPefjdIosSJZNx5WN0WjAB8ky8GsxHVfk4p/TfcO9IK5nnsY3jblsBkFE7zLtAO5KfId9hstxoxERJPBufmy6LK6nI+Hj6qIAWxZtv96FWzaOwAz8u386ulURM9qN4Yjhtlay8Barg5m/LuOHkJ4zsP9fK/95cScBMVECT+OqaL0195bseDPMTm1nBvtwCz6oIjip9UERGLlS/gxlRsbNPYjtVlV4FtCXQZclNy1BtNZ2auNR7bfq4nomTn/TWHD8ciJ6l2k4cFfi0CyeXY7D6AjBKSjMl/ksrptuYfabYlUF3ygs+E89UFnt3k03ZoplNHXwjfrZ2m8O4jq3B2kKdkWHOC0Pb3HcK4jr1qBjA6qNOeSUa6u1lz7PPc7VbEfiuns2PXLkiIUfXb161TpmLHOme+dT65eX9XMS17XxkRfieubpb9CYT1bhRPQumHbgrmUOZp9dRtzoCLEKipDBbC+ue7ROm25gTltOqGTgU6Un5p+WJzuwSL+yEdENhABAxq8Fpl+R+yVz65910W+qKmTbcx8DKkTF4OB9Kz8yPU7EzG7BQhIVUxKtf/hL5m/l1sx7WNNL4kbFUfeDBfjzvsQhzMi6ewAxHSoKSU/6ILy9QixvrtomMzz1OVvXaCEZzC+kJ2bs/9e69c6LO0iIibL4w4u9NVdlO0YnOGaTsb6PwI2Y4u2x8K4KN8n5G9OaCf5on7oTcUohOMGcvhvDKgvZxMWjFtiU9M45+w3q82W8ua0Yd6n629wT17ORcnkbYrpVF7PWGfg3+Q5JEh83m2G6OQut+evqYGwzx6ZNnszbVnHdiIjx23FE08d7FEcPr8KQ2kK1Cc5PmiBrp01bCqEd+fZl7MTgctyzjQHBI/Zb5iSbtruwtrKpuzCczzrXQV+2LzYkWzGXurwr/Dh/sKEKRh6wjj/Ha7zAlgGBwnNYqffw2wsB454eb3+drIOjUY0LyNWXwfu/pROHcKF/7W34svxP4no+dT6J604WbLEPvC6uZ5/CxDDBuaSv0Bur78iJndgeNgU7PpJKjbfCTK6kHfsIa8U9shljLUTvTlYUitlHOzA0RDx/md5YJyspLRfX9RUHYfszpfuXk0Q9Kg7arlz6OusEJtTlrsPAGDoaCbww73i+rMsz0JoPCDCg6ogEUaQ3g320Fr1Kc4scA2OtaOyWLU7WiYzFox1DEcKXbtSjTO91eKQaleh4bf48adsxuKJwHf9IFeKWcw7fNuAcRwx8m01TLvkjlQzXMQjsvgIPbdohE+f1Qei1Vmm/do78PsTiDkJJKG4f+NrNWqBFC8e/5hHhqBdSASVlJSsZY2V0+/mSlZTy+MzGSal0JxOAAVusTkirDVXs4myOkYnrkvDh1qszcb1Q2pEro3oGk+sJJf99Oyy261+rDVNWdrdWWuAii4tXQUSX/hg8bCjef/sNhJSyZoMVDxuB7bJqCaZbEknmKhycsAl8se8vS/Sizg/dV6lFPyZjeVfBSe5TZwJOKj0sOOtn+o6IJmHAggES163znP18lFf/JyYmWpzHZ8+etfRFXl0vv84rF9dzK6pLbSVxXRuXXhfXPeS3GZv6Clnrxgb45qzVQSr1KRdceuTTWvAx+CGoxiBskvNnpwKx5+J66sZ+KMPvH+mP8K9PKlQ7YvF4xxBUlypSuSquP9uMAWUErh3YcZGKE5DFoxXdEcAHDhbDO2vlATVyBzMD/+axuKjgvDPd+gltxMz+kn3ibOcMp7bLwokJdXnnNGMMxeiEFMVnKHPWZcxoLWwRZag6Aglq+9rnYu1UFddTN6KfaDv/8K9x0iYoQcA/+3gHhlSXMu7zWVzP/hPjRKcqE/QBtomOQCuetceoOeNX9BOzCX3CJlr7TUlc57L8U3YhOkS4X66/xtiVh7c67u0z11k8XNQevnzAqxGtZ3k3QMKte84FRl7m85O47sI4kWEmPj7ewo/+7//+zzpmZL95mfHi6b2RuK6NN++L66nY2K8Mn6jA+Ifj65OyLFwJt+xj7BhS3VLJxlZc93CdztiEvvw6o16WmaueWMvHAL+gGhi0ScYDcuuftUlKcuI3VRWybbmPsc5nOKjkn00/ii9E/7Gh8jDsliXyZJ+aiDDRV1qht31VIJFDpOzAR1J581YzcZ0L6lRrkxd8ztY1mksOao7Yiwpio+kWfmojiN5MyT6Ic9guSBvDadsHo6LIaSPnKm/pmHPuWzTgRGrGF82m/W0bmCDiUioZrmMC0X3FQ1t+KBPn+a0YZb51+TwlF9f1pWujmYKPt0WL5ogIr4eQCiWtFWc5X3jlbvj5kq0fN/uktBUQg4ABW+x8wNq2kbdN/t4qrgsBLm75eHU6OBPXC6MduXvPPiMlR/miw2K7/pXmJq3XnNtY37+qGPhZAi2/lycxmnBLSnjjKhycUErUk/osE7uGcBUqdND5dccqfitaT4+Xzi17TV6Ornygkw/qyPeG17pP+v6l41skrucTqElcl01AKjb3trjOEaC6/J55PgibZN2nQ77oce9zLq/H1CkzsThuLy6lsGCTV6OHWPomoPNSSza7/XFmM4u7izsKjj2mBLqteGyZIKziurP9omXiOhOIPhueWY6XXyvryFjU4EukF0OUakY4Z99UrOslRGcZKkdjXyb3GYvk1T3ENgag81IxglKpD9i71tLuJbphhX02sNIxNp+9wMEx4v7Vfq0w85pjMENW4niE8tnIxRG1QCn7m8WDFd2ETGJ9GfTbaC0BI9nEdGsuIsVI3WKRc3FTnokktUcurssynZ2RGsZQEtXbDsNPB+8piLFZOCzuza3Tv4bBO90v1Si13+Y1z8T1wmpHM8xP16AHv7enAcEfq0U0ZuHIpyFCZhbjj9cHLMCJx7aOc9Pj45jTq7pImPUo12u1Zayarn6PZnwEqhENp5xTJPdSP2QdGIkqfPlPX3Raah3D0vfCq7X/Gf+uWJGqPZ/ZHk+/J3sQBiQMkLie/1hITk62OI83btyoyDWk/ilKr5K4zq3tAQEBlnvk/lcr/652fySua+PS2+K6Z/zWjBfbPrBUTGo2+Zhj6VEuIyU9BSkZjnzUefa1p+L6M2zsFyRkSwT2wCoVB6HZdB2zWot7droqrqddQcLahfjhu6+w4LBaQCDn4JqEMP4ZyBdRP9+XOTBlDmbGHx0WK2wlxXHp7OMYHypkzxjbzrWdM5yJ67I9DotFLcRdmwBZW4ylrusl8H1DZUTv8xKvdlIW/tlGsWQ6E4geq1SCc80mXJ/VWthfVJfP4nrWPkTzGV3Onapqcxj/eWY8PuKzhnQwVP/E2m8q4jr3nGhTHj50DPbzDkihr6yOe3tx3YTrM98QK3ppOFEzLmHbz/Mwb57wN3fuXHB/c+bMEf5++gnzfrukEIBiixen9y09/9ErSFx3Dzfr16+3cIf0dMo6c3eckbiujTevi+vPNqJfEFeSnUFgj1WqCTGm67PQWty6w0Zc93Sd5jmAEORXvNlkHEu1ZpVa8GNKR0pKhkNVmtz6Z20qfjrxm6oK2WY59wlEt+Uq3Ifz7y5sLyR46Ctg6C5JiM3GqYl1xbLlYZh0Wk3Uy8Hl9VMxZeZixO29JFQhVRHXveFztq7RDPw7LFbZZicbx8eHCm03tsXcOwr9pbV2vjiIMeL+1X6tZipsA5OFRPEaDpVHpXOzD7Cim+Cr1pfph40O/jShFLi/GBgaOVc5aE8urjvz7Vq/Y2AoWR1th/2Eg/cc+y3rsOhr57b+HLwzF/vSK88BeSauF1I7cmP/6ZoeQil3QzA+3q8Q6CFhQe3VdA/bP64vJljp8VrH+fjLJgDYhKvfNxO4p7Ehppyz9Q9b5h/+/Fk4MFJIotT5dsJSXtvw9HiFvs46bN3bvesKpKrdG31ufSZ5SW1B4no+dSyJ6woTkZ3tvSuus3jARdRzizPvtHF9cs86OEYo7aEz4s3ZypF50sRtuv0T3pTK13y83zJhWMV1H9T/OklF3JOJ6z718XWS0uJgwrUZLYUFRF8OUePnY+HChSp/C/B1t2BBkDQ2x/dXOWdiFg6OqSZ+9iZm31JwMFr6wYTbP70pXCuXC2L2adGZxxgREWsfsfgCf4wSSlny0YhK4r3pFuZGCvvh6CsOxg6lyEr2PpZ1Efd3V1tU5eK6oSravD8IgwaJfx9+gH7dIhDMC/RcdGVx1O4zG4fuKUT9WmyTjVNfiYQ6jzLXjS2n4PDFS7h0SevvPLaOFAmyWuZ6obWjGTmXYtBEFL6bxlxWGRsski/vx29rF2P2gnjcUMsUzziDKU0FxzRjtI4h0z/T0Zy/hjD+si396DgPZSVEo7K4t2bX5Y7BHMJY58ZhC5HINcJ3F5TGquO5pXmCXsk2hAErBkhct9oiv3DBOT9LlSplcSBXq1YNRf0vODjYcj9WB4oOxYoV48UFd++vTJkylvNlZnpP6MuvPs6P63hXXPeU35rBJm9Cf1FI1DFGlKkThffHzcDK3Um4+1zDeehMIPZ0z/XsRHwhZiAbW/2IG0pBoDwvycG5bxsK3MJVcd0JnxEwkIWUa4nYGtMFFcXAwch58q2aZA5mn9oYl+joaOTPY7qK75sJJcqNb8y0PN/w3zmxnenaDLTk+Zce5aLGY77qM8tCLPi6G4L5NhrR/HvvlWNWzlzPRuIX4pZKxlb48Yb68xCXfdWQv4f8FtelLYh00Fcajr18kLSb68WLbXifF1108An90tpvquK6Y3n40DH78VTEmdVxby+us7gzL1LMXPdF5Nw7sgAO2zaz9xciytd55pazSlb5Mbe9TNcgcd0Wf1p9u2jRIn7tZxgGLKuxbmjOv+5dW6ttReF7Ete1+9zb4np24heozQfPGdHqxxsOArYFN1zFyIbCOi4X1z1ep9lkbOovlkfnsoHL1EHU++MwY+VuJN19rroWcMFcufXP2ojrqn5TJ1niMnGd8Y3EPLXS5lzilcxXFR5zUVhH2QdY1F7I/uaTmGwEPw0MqIjr3vA5W9doH9Qel6iQIMS1TS4oviFUanV7LsvG6UlhvEDPGCMQ+7edL+zFHxhVXdhCMajXWjxWCKzkE6T4BBs9Kg7egTSFNrD3l6GLmORmbDgF5yzbslptLBfXDVXb4H3JxztoED78oB+6RQQL2/9w2zIVr40+sw/hnkKlImmcZJ/6SkzIy6vMdSNaTjmMi5o+3ku4dH4rRoqBrWqZ64XVjtwYvRTTRPSXNkXMZTuMKPS31Af8a9YNbPiojiDO6/QIjJiIg/KKY/zxJvwzvblwDX4eUHmG4X+bhYRoYatZnV9XLOeDOTw93opDS9tN1zCjhfi81Og7XFDArOW3Wjag763PLUXQFiSu51OnkbiuMBHZ2d674no2kibXEyP0FAiA3bXlE97zuN7CpM4E4YNtUrSiSvszt+EDMXLUv+c6y2RgFdc50qscdWdDEjlHj80+6dL1snBwdFVBHHcxA5t3MhtCMPYIF1DwHHG9BbHalRKDmVwWEB8t6I+e63IRvS0r52NsbLe4pMdjSCUuylWPCh/+rlgCP+evWETw5ZYY+FR7Cx8OHYqhDn9D0K95BdEmBtQY/Ydj+R65uG7nsJT6OvPufsR2qiyWnPFFtV6LcVm1BCOLuzIn0lvznVQAcIIt6dqWV1nmum/UQtxXIKKW31rOm4NzU0RnrIq4XnjtaEbW0c9QU3T4tlvgqR1ZPF71tlCZQWd1zlodqz6o/YXag4YwxjJ3DEJZvsxVMfRa/9wyhm3tzuLx0k6CE9FQA58cdj1Yx/Y80rimV7LLq4sBEtcLpu+5rVHkIjS9Vxd7SFxXxqh3xXVP+S3XRhPubBmOMH5LJHl/MtD7V0D9qIGYMG8bzj1ScL44EYhtHES+b2H+PRXBJfskvqojZHf7dV1h5Q8vNqN/gJBVVqLvJkeOauFzZjxb/bawd6AdV7XyGCPUAhGzH19CQtzPmDb5Uwx7tweimoehSpAv9ByPtzwz+CJynlz4lInrxqaI+UvF+WW6jplviM6ilj9Y741ruxPbcXsPVuU5nrwNWu8NCBl7xPYaMhu5yxeUbfcCm/sHCNUESvTFJlW+b4b52Wq87ce1OZ/F9ZzLiGkq2Jwp3hPrlAKMNezCPrAK2Vxgh8V2zsR1J+XhrY57e3HdjPSNfYWtB3Q+qPPVKRWnvhnsgyXoHOALX1/7P6OwN61OBxLXledcS/9p9Lv8dySuu2fLGTNm8PNlYGCgdby4YW+57V/F9ySua+PN2+L6i839xW1fSqDvJme+ymdY/bYfj2+5uO6Nddp0ZwuGhwlbu1j5hg6M3h8V6kdh4IR52Hbukd26kHv/rGt+U9fEdX25jxDvLHjtyUp04zmAHpWi9wrzQnaSuK2hDsaIWOWtLdXmDRVx3Rs+Z+sazXFFuz3iLe2RVZoxtsQPCtVFXZm7cv6ehmb8dkFGNP7ugk2CTHr8EFTi/Gn6Cvjwd6VqrDn4KzZC3M/eB9Xe+lDBxzsUQ4f0Q/MKnEjPJcjVwOg/HPEtF9c5XDuK9Jm4uz8WnSqLW974VkOvxZdVuTh7dx4ixQBA37fmWyphumITZ7+xZq77ImqhvIKUkzkj5xymiAExyuJ64bUjl9R39LOago/etx0WqD07WXBptQP75ARmdgm2VCQt3eobHFLZytYS2OlTG1+oBQjz18jEjkFlhe0zivXCen77KVlgaK6Ot7bZ0vfsYyztJGxHa6jxCQ67E3ijYAvLeem7IsfJSFzPJ9CSuK4wEdnZ3tvieuI4KUOhNWYpCtfKbbIshFwpoN0a2UuZuzC0PCcY6yAnrXJxvc1Pt1UiSmWZ68Y2+Om2UhZFJnYPrSDsFaIvg9CWrdG6tQt/bfpgdhLnTHyGVd0FUq2vMBS7nRFJsxmZu4aiPEeM3HYoSbY04d/5UUIpF596mHzG6tB8snmAIGIaamDMQUeiZDZbIyLlJF3rvb7ce9jyRLq++OqCuM4vXM9PI7Z1KcG+jBHV34tT2b/SjKz9I8QMGwMqRycgyw6/ThdCUzJu30y1e8DgHHir0J0n7zp4T1wvKnb0RcclamU57frTia1zLsYgXMySqjRcfABKX49exTnHth4Vhu12Wt4pbe07QjCNvhKG71Uf709XdRcc4PpKiHbyO6c4cHIfdJzrfU62Ktq2InG9YPpvw4YNmDRp0kv1xznD7TmC0WhEy5Yt8emnn7p1r127drWci8R1ZYx6V1z3lN9a25j+TzxmjX4b4ZWK2QnLHJ9loA+og3cXn0e6fA12IhC7I65PUBLXn69HL3H7oqAPtqk69Li1jHOSl+TEcDfEdfbpGSwe1gIVeSenvXDNwBhUEy3b1hf2fNc5E9ebiVWurLa0rK+5FNczdw9FBf45Qo8yoS1de2Zp3QZ9Zid5zYmiLK4/x/pe/oK4rrWfORccwWdO5bO4bs7AtvdLC88kmntJKvQZ9xyXEC0+q+hRfsguq001xHWhPPxwhPgIQSFGsTy81XHvKK7nXPgOjXn+zaB41+WKmWoWPMnHnvT+xVa8G8hdj8R1p3aS7OXiK4nrymNDzcaTJ0/mMVilShXreHHR1mrnfJU+J3FdG2/eFtefr+8lZOZqJgJxQWVCtUe5n9Jr63T6P4ifNRpvh1dCMb0wl8s5OaMPQJ13F+O8Zd/ybOTWP2srrqv5TV0T1w1VRuEPZwJY+lq8w3M4Pcp9FC/MC9mJGCdVJGo9S3lbSrV5Q0Vc94bP2bpGG9Hs+6sqPmfviOtm07+YH1Wc51E+9SbjjKWy5BNsHiCImIYaY3BQKXgx+zQmhQnBqHKMOH+vR7n3tuCJnV21xXVhTD4/HYvWpQQ/PWOsjvfilLYkNcOctR8jggVBn6tKkOAMG3Zt4YJ8k2/fRKrFFtb5wNK/Oi+K64XZjuYs7B8hVtH17Yglalti2dkw8/pGRDcIsPjjq/aYh7NOgkvT1/eybNswzKlWk4a174gVcWXVoDw93nF9f2rVWypF567qlJ1NHK9hxRV9V3htQeJ6PgGZxHXtQeBdcT0HF75rZCnjPOW8SmaGQv+/2PouSvHZ2yXQZ4NG9naaJOIx4Bxo0mTnPXE9C0ekvb5zFWn4AlvfLSVmavTBBgu5Ve6PNGmx0iTrysdz988+XIUepTiC7YPQ8ccFQZl9hDU9hf0nbcmY7DyWvXx0MJQLR7c+fdBH9a83OjUoIy7CCnvJuyquc/tx3lyGbq8JxEunD0L7eVcdRXAOJ0/i0Ie/Lx18wibitAKJkvrf/jX79ETUNRoRWC0CPb4/at1XMC/E9UJux6zDn6C6YqlSGRYUxqW9TaX/Tdd/wBtSCVLJkZh1FJ/VFEiyb6elThx+8gAXJxlcZhYPF3cQM9erYvRBylyX7E+vucPtq2w3EtcJM97Cv7TnOicm9OvXzyKOc86aEiVK4Ouvv8b/+3//z8LNnF2X9lzXxqV3xXVP+a1Ce9nnuHtmF1bO+AKDujRFlZIGnv9yeGCMtTDmgIzTuyyuOykfKuMaNpnrmTsxuCzHKxn4d19lKbGthL+nK7u5l7n+4hymvykGheoY+JULw1t9huDTb6bj57XbcfjiPaSbbPdcV89c9764nnVE2rvSiJY/XFNx9Cr0nRu8T8mO8s+UxfVM7BwsZrD4d8cq2b7i8mP590+lrLX8FtdZPF7Z3VKNqdF3520ywxza6WCzTBz9rJZQtY0JRK91sq2ONMV1sTz88BCxopcRXHn4lJuzLdufhXx6xDaw2LLPpA760n0Qp5hl5KSvSVx3aW3S7ndbG5O4bmsPLftJwifnh9L6LX3vaFsS1x1tYo8TCWMNGjTwCsYydw4Wq+75o/uqFBHXbQAAIABJREFUp07O+RQruylkrnt9nWbx/O4Z7Fo5A18M6oKmVUpaqpJwW/bUGnNADG7MvX/Wm+K6vvRA/O4k4Yi9M1fMZBYqIPL9mXMB3zWSSj9PwXl3Sj+riOve8Dnnq7jO+cNW9RD85D6hGH9cSKJiH61BT76Sqw/qTT6j6Ed9cXAMavD+PwPKhXdz4uPtgz69O6FBGVEUD+iMpXYZ0K6K65zwfXNZN7zGB3zqoA9qj3lXrYlf1nH6BHF9BH+5zicME08r/UZlnGefxsS6RhgDqyGix/c4Kis/nxfieuG2YxYOfyJsAavT2HpBsD2L1MTv0b6iUGFApy+FJmO24V8NH7u8CmqnpY/Vt6HIuYJpEeKYbRqDv8Qx6+nxVtyImJDpDoaqo3HQreAMFVw58Hv6nYPdC6GNSFzPp04hcV17QvCuuG7Gk9U9hKgmphT6bUpTJZ7s4/UY3DgCbbv0x+Tf78K6154P6kw4qUgQpMGdfXw8Xhf3PGo45ZzlGt4T18Vy5LzYH4S+G50RaCUby/Zz9KmDCSedkYVsHB//ulhKvyGmnHM9IEGyh/D6FFvfF/ZhMtT8FEeyzGD/W4rOXBYI44sW068oOtvSdn4klBPS+SBskjIxk18nK/EL0fYMfJt/jytykitb5OyzgeTnEN6b8O+KHignEi8msC1m2e8jxM0TbDLW9w4SBH1DCMYcdLZHu7wvMnHsc9Gu/P3LokrzQFwv7HbMuThVzHRRL3XKPj2JVTFf4bORwzBycZLTMZh15FOE8GRd2F9d6NMUrOgmRNY6L8+Tjq3vCVlC+jID8buMENviRL7nekO4E6xjex45Lug92ebVxACJ669mv+fFeJfE9c6dO/P86/Lly7kW2Ulc18ald8V1T/mtdnvZ57ew59u2Yga3HuWHyirZaIjrV6ZFiAG6b2Cm2v7czzejvxh0aSOum65ienPBoeNTexz+VHUUZePkhDoC73Ypc53Fw5VvI5B/JvBB9QGrcIUvc+hoi6z9H1v2M29rsx+2vCy898V1obymkP0c1Hej08CCvJgTuHMqi+smXLXs01gb4/5Ufx7KPjkBdfhnu/wW181gk+PQR3QqG6oMwU77ylxO/Bbswzj0LSc4pPVl+2GjXOx2RVzny8PHY3gNsZSqMRQjl09Faz6A1TFznSsBevzLUFHML45WP/ztXjAAiesWv4E3xwKJ647zoTP7Dhw4kA/Ma9WqVZ70h7NrvwzfkbiujTdvi+umq9PRnJ+XuX22/1T3k2SfhKW6To81Fnzn+TrNPsetPd+irbiW6ctbq2fm1j/rTXFdZ3TCfbiKQruHoiLnF2SKo+vyx6LdnmB1D8G3xJTqh02qmbUsHq8fjMYRbdGl/2T8ftcEs4q47g2fc/6K62aYn27F+zzPMKAmH3DH4r+lnfmgQMa3BaZfUarEmoadH1USq/KEYZKssqnyHJiFxC+svtPm31+x4Raui+tmcNn2K3oIfmku4DWw7SyFkv4sktf3RhDvCzYgZMxBayKUE87FtT3z2OdWf3SL6bhqss4H3hfXC7sdc3BxamMX91xn8fjABDSzVBaogrfnnMEzV7ZITVmBbnyFUgNqfHLYNuhT3l/pW/FeaY4T61Fm4O/WPvX0ePk1uPfyPdcbuhl4Y38u+t+yTinPDdbxVRi/J3E9nwBM4rr2QPC2uG66/iNa8SUT9Sj37makKvY1i5QNfVGaW0z1ZfHBtnSYM//AqGpC1qtP7bE4pOK4MpvTcWBUiLCviCEY0fuspc69J66bwZXdaySW3QvsuFi1bLmZvYtf3glG+Wp10TRqIvaIWRmZf4xCNVF8rD32EJ4r2sEMc/oBjAoRS+IER2OfUkkftWPtPs9IGCHsucjtT30oA3cXtecDHZgSHbDwjsLelWwKNvQVSyEaG+O7Cy4I+znn+QhShtuThyufeFyWTeyWuM4tirewtKuYCa/TI6jjItyQkSNp8k7bN0K0JYMSLWNxzgUb5Vydi3YScQjoiMV3ZKTT2+J6UbBj6ip0L8Y5XvWoHL1PmRCl/4r+fASsDsYG3+CsPHDCBmvZSPq6vkDi9BUxJF4KeDDh2g9vCPv2GBvi23MqTtSMBIyoymGeQcluK/BIldBl4eCYavxYZ/y7YkWK9nwmYYZeyVaEAVsMkLhuaw/CR+7tYS+uS7bMjchO4rp2P3hXXPeU36bj8Pd90C4iFFWaTkSiWqbAi98xkHfwMvDvuc5aGj7zdwzknS4GBI+w3+pHFP55fvm66p5+1gwSHWzEdXM2zkwKE0RHn1r45NBzZWdB1ilMlMpkuiSuZ2JvtOigNDbG1ItqXDkb575tKHAjnRFvzr4lC2r1grjuzHay7C4msCMW/yvjvDb8jcXdX95BcPlqqNs0ChP3uBs8rI5XZXFdns3vg1qfqD0PZeHURLHv3N4iS7bfpCyrS5qXXHt9gcQJYeK+pEbUGrYdD1S5qcwGprvY9F5VIVuQMaLul4m22xG4KK7z5eHjh6GGWB7ep2w54RlZpySum2G6tQgdg0RBP+gt/HjB+iyseb8vtmAAlYVXnhtsxoqsn134nMR19+zVo0cPXlzv0qWL1/tCcwy40J+F/Rwkrmvjzdviujn7jKXEtk+tT1R9lVmnJiKMDxSz3b7S7OE6nX74e/RpF4HQKk0xMVHmf7PB8wv8PlDwrTH+PbFOrJ6Za/+sWV5t0LOy8FyyT/NpasFgT/D7oEqizycSc25JHMaE6z+2gi8X3Kgvh3c3yyrDyO9b5ovTl/0A27j7VhHXveFzzndx3ZyBhBFVeftwCSyHMu5iUXsu6IBBiQ4LcUeBr7ApG9CX59s6GBt/hwuqfj3rWMo5z/m/ha0GfEK/xHEZx3dLXOeqlN5aiq5ioAdXpbTjohsyTixeM20fRoj+f6ZES8Sec4HL5FzF3HbS9qIB6Lj4js15vS2uFwU7pq7qLm63WRnR+9TmBjOen56GN0XuyBSvh+Gbb6kHCcnHF/fedA0/vGHkK5MZG36LcyoBzBY9gimJbitkW5F6erx9e7IOYgyPHQb+XVcgxf57+v+V4VYkrucT2Elcty6Wag8J3hbXObF5WVch05gxhmL4jvs2Cx7XDjb1ID6v78tPzoaq0djHE79snJ3SWCBPjB/qjYzHfQeh1YR726NRhxfvGRjrTcRJ2aLvTXHdbLqB+VEBQmlLfVlEzUxCmgNus3B9ZW9U5kV0PYK6/YK7ErnJPospjYV7ZPzqYWS8ox3MpnvYHl1HvGcj6k08qSx6OlxXpV+zjmN8KLevjgEhYzdjfkeOdOkR1Hs9kqV2yc5lyWzXMTBGxCpEFCpdx4RrM1vBjyO5OgOCh+6yOk3dFdfNZuT8YxXBOdL8zipbgsTjVi7CM0bU6LcMF52U2s++sw0jGwhRrhyRrzfhT2vUHHf/XhbXi4Qds09hYl0OGwx82y3APQU8mNmHWNVDLM9kCMbA35RL/uRcW4QuYulVn9qf4Ygs2MF0Yzba8CK+AZXe3aTgnMzBjZ87oBQfWFMGfeKS1csKsY+wtKMfPwZ9QifgpAqJU5vb6HOl8Uufvaq4IHGdsO8t7KuJ69L53RHZSVzXxqW3xXXP+G0OLsU0FURIfQX0XHHLJrNFwkDa0XGoyzvo7MpVZu7G0AqcKMgg6L2tttyMy0bZNRTl+SwWH9QefcAxAzvtJGJaBQqZODp7cd0M07Wf0Jbft5uBf4Ox2Ge/9yD7FMentEAAz2Fd3XM9C4ekkouGYAzbpVSVi8WTxKloLTqtdDojmk//R/b84w1x3ZntTLgxP0q8Lz3KRs1EkkKGV9b1lehdWQjo1Qd1wy93FQJvZc8JUn+68qomrnMOuZ/aCvvPMv4NMHafzNnGX4vF0+NT0CJAcOjqCkRcN4NN2YORrwuOQx1TEg2iN+GGkxK25hdXsXZwHcGhyT1H1RqB3al29nRZXBfKw8cPqyGUh+cCTPg/ZXHdbM7G5dlviRlfDIzBXTDt8APFsSjvu4ybuxH7Tk1h32Dac92rjkcS17XXMjkWIyMjeYwPGDDAq/0gv8bL/J7EdW28eV1cN5tw7ae2whYijD8ajN3nkCDAPj2OKS1E/yHHUWSZ61y5bE/W6ZxLMWjK8yo9KvRcgVtKYmnaUYyrK6xjNltC5to/60VxXaeDvkwUZl2wD3w04d62IXhdvLfX+qzHQ5mfir27DF15bsXAGDocO+5LwruEARapBz9Hfd4/bEDV6H2Cb1JNXDd77nPOf3HdjKzj4xHKBW0YQjB283x05LKI9UHovV7Jl2bNbOe2CIiIVQtqkGwovpquYWYrwfemMwRj6C7rtk7uiutc1YN/5rYTfH5c35d7B6vkyU48/zPh1tKuYqUrBsYa/bDsovWaDnN49h1sG9lAqJLL+TTrTcCfdhUwvSuuFw07Zp+aiLocNhhftFtwT9m3+vQAPgkV5gZuy66PfvtP9oxihwPF5wATbsxuI3BeQyW8u+mB43VybuDnDkLgg76M/bZFnh5v20b20VJ09OOeG3wQqlH12AFHivdne346pujYg8T1fAI0ievag8Lr4rrZjKxLsxApRUX5V0P7T+bi1wMncTYpEbtXTkHfsADeMcYYKqLP2rvWif3ZEUxoZBVFg9t+jB83JOB4UhKO74vDzBFtUJknTjowxRrgi4NPbCZ1r4rrnJPvwky0lRxl+gDU6TkBi347hFPnzuL4vvWYMawlyvNZBtx+Mm0x86JtpNizIxPQiC+fogPjG4y2H/+IDQnHkZR0HPviZmJEm8qCsK5jUKzBFzj4xM4p4/Y4ycHFmHDe6elT5XXU5EROfUUM3qHkCBQWOH++zKUfWs10fY9G9u4idCghOMH0Qb2wVnJe5kJc58obXohtIZIkHQyV38WmB452MP0bhwHVRKeXjkHx6m8h+oetOHUzGRl8EIYJz26fwOYZH6FZOXEPGZ0egS2m4oS9EO9Vcb2o2PE5tg8SyjPpK1jLhNkTh4xj4xEmjjF9mdb4avsNmfM7Gw+O/YQ+NQXSzRiC8f5me2L1BPHDxCwefWm0HL8Tty3Oyee4EjccDXjsMPAPn4IzsuAY+7aYs/bj42DOCazHawN/V6/+4PY40Z4XHdpC1yDnVxHHAInrNO69Na9pievSdVwR2Ulc18al18V1D/ktez8OfXmBXOC2kSN/xPq9fyLpwnmcObYba6YNRkQZYd91fVBHLJSXd+f2SRSzxvWBjTAwZj6W/LIFZ6RS2mnxGMqv+zowhrJoHj0HWw+fwdkTf2DzvHHoHhoAvT4IlSoKzwq2meucLV/gTIwknjMoFtIVXy7ZgWNnkpC4eyWm9A1DIC/ei+KlS5nrZqTtGiqWe2dgrNIZ3246juuPniH92UPcOBWPReO7olYJBgwj/HHOnvpfy7fX8YK4rmW7zAuY2VbcRkmnR0Cdnpiw6DccOnUOZ4/vw/oZw9CyvLTHYhDazrzoWUCv3ZqoKq5z5V7PxFjEc6ZYCLp+uQQ7jp1BUuJurJzSF2GBQha2ICh7UBbeUBGdJy/G0qVLNf6WI/6yvYPfjOdnZ6F9eQG7OkaPgNCemLhsNy7czxCfVXOQfi8JOxd+gW61SggB2DoG+rJvYcYZx/OZ3RHXueDz5J0YJpaHdy6uc2L8fewY1QAlxEARxhCEul0/xvQNR3Hlv6fI4sWJHDx/dBVHN/2E8f2bozLviBSwz5QIRb8lF5Bp14/S/E2v2nOz3EYkrrtnr/DwcF5cj46OpueLXIxBEte18eZ9cd0M84sziJHEc6YYQrp+iSU7juGMxcdpDf7j5nBbcd0MsyfrNHsfcX0rCMGFjC+CI0fix/V78WfSBZw/cwy710zD4IgyQiUVLlN4oW2mcO78s94V17nASkPpJvgwdj0STiTh9OHfMH9sFKqIa5P+tS5Ycs2+OlAWLs2KtAST+Vdrj0/m/ooDJ89aOUSAELRpqNgHa7mS8NyYUhXXuUQbz3zOBSGum3MuIiac84X6oMrrNXmRU19xMHYoBFJyQbSz2/jzHIXxa4WZ1+wDEtTGD4u7izqIvEKPoF5rLQEk7ovrZpizLiC2hejb1xlQWSnxxvQv4gZUE4J2dTowxavjregfsPXUTSRnCO02PbuNE5tn4KNm5SwBiPrAFph6wlGI96q4XlTs+Hw7BvHbBuhRQb4Vl2Vtyca5qeGi7qBHqZajMFeTJy/D+mP3rDoNd64n8RhWVXy+K90S43fetnLI51cQN1zkpIw/wqeccXzG8PR4y/2YYdmGS/8aBv6uwL9lv5VzNXqvNvaL7uckrucT2Elc1x4keSGu8+XtjsWiQyVJDJUi8K2vjDEYnWYcd8hKyflvDya++Zpl4RScC9bjOFJmrPAmJsTfdYjQ97a4zt1H8uEYdAhWvw+uPT7l2mDy/oc2Qr8wcefgvz0T8eZrktgrvw/xPWNEhTcnIP6uPZHU7julxYHPHPaXsj90MISMxWGLuCk7Z84lxDQR7ovxj8Tc266SLo6sPsbaXqIDjymGyLk3hYU3V+I696ByApMbilGSjAHVhu5EiixiVbrPjMvL8X6oRNAkWzLQ+5ZAQDEj9FImEpftwdk18hvsf+go1Hs1c70I2TE1rg+COBv51MXEUyol283PcXZWe5Q3iBhijChdOwKRUZFoHlpOrFigA6Mvgzdj/nQYv1xfsckJGNdYyFLixodf+TpoGdkWzWqVthBnfdl2mKVR+smyJxYThN7rUsj5kk/rpjTe6FU2X74Etidx/eXqz4Icn66K61IbnYnsCxYsEDM0dcjMzKR5XmGuyQtx3TN+y+JRwldoEaQXxUWJj8lfGRiCIvDZTvvMiAz8MTrEluPry2PILqnvTbj323DU4SvgyM8nvGcMZdBy0m5sHC6UaXcU17nShfexe3wLlJF4jCULWDyHfygG9GsmlG93UVznKk1tHRpqyfhVezYZt2EtRtcWqgQF9f9VVvHKC+K6Wct2HP86jJgOwRau5dhOHRifcmgzeb9NZpg0Vj15dSaucxl793ePRwsx6MKhXYw/Qgf0QzN+Oy4PxHW7vna4juV7X0TOu6M436RfXIGPGtgKJDqGgY9/SZT0E4V36TyMHqUaDMIvDpl44nrjprjOj8udUnl4Dq9qmevi+dlk/Dm7L+qUlAcncMcJz0Yl7NvLtZsphqrtPkPcX45OaU/6/1U/lsR19zhWSEgIv/Z/+eWXiuPwVceT1v2TuK6NtzwR17ly1/d3Y3wLUcSW1gLLKwP/0AHo18zI49tBXOf9JLlfp9lHCfiqRZCtz8tybYknBSHis534z6ECKIsUt/2zXhTXjWHo/VErlFXkZlwFlk6YnmibOGUZB2wKjsV2QCWxZLnj2i4cP+O4bKsbZ+I6Vz3TA59zgYjrXOWD2W1kPJSrVHrYKm7Knh+4KgdNeFsx8I+ci9sOWFAfP+zjteglJckVi8Tcm4KPOFfiOhdceWIyGorBE4yhGobuTHH0mWdcxvL3Qy3JVlL/MnpflAgoBqPe6tsWtIBIfKPoezfDm+J60bFjKuL6BAnVPutOxCn7ap+ZBzCS35JTmCMk+zp/Vd6+KzlhHBrzFcI4PumH8nVaIrJtM9QqLeklepRtN0tlG1cWnh0v4TbHsg0XE9Qb62jr0FeaR5G4Lpv8LYtmHnxG4ro0Aam/5o24LlzPlHoBG2OGomtETVQIKgajsRiCguvjrfcnY/Wpx7aRUPL+NyUjad1UDO0agZoVglDM6IfA8jVQr1VvfDZnOy6lKgvB3hfXhftgn1zE5u9HoEeLUFQs5QcfvQ/8AyugVkRnDPluLU4/di6Mm5KTsG6qzA5+gShfox5a9f4Mc7ZfQqobhEdzvLD38UtXqRyVEfW/OesQhMCdI+vEBKG00P9n78yjm6jaP55JmrZQKAVkLTtYoCyyKSKL1oVFUWRze/UVLSq86qu8qOgr9qCyiIgIiIJg2RQEERBZfrIp+3bYBAXZla2csrwFTtvT5uT7OzOTSZM0yU3SNJk03z96Uuhk5s7zfO6dO/cz9448C/y+Ke6XCXfMicvvVxc/ZVu6U4K59bvYLS9NFahct1pxbe3LSLF1mCVzEwxZfdXtRcJy9SAWjByA9snl3d9YyDNNGqXhhUkbcc7dclnyeQRx5npExTF7Pvor7z4yo/37h9xyofKVi2NL3kHvpknq08+ON22SERUad8d/vj3kdSa55cJGjH+8JZJcb6AkM6p1eB7T97hbTcGxnSrEkbF3Kk9YGiv3w7xLbh6ScGFSWDe4vds6xbg5cld2f6dcL7u5DXUd9leua+VzJ9ljY2Mp1wXXptKR62p9KEn/Nvfkz5g87DGk3dYA1SrEwiQZYS5fFfVbp+GJN6Zhw2lNmLvUvZy9+Oqle9GsRgXbgJkZXSecdLg+WXBl/zfIGPQAbqtbBQmxcahYrQHaPfgSxq88gTxrLlba3oHuVq4r8czHua2z8PbALkitfwvKx8ajUs0U3NX/DczalY1rmQ8jTu7b+CrX5X1asrHz67fwWLdUJMv3NDGxqFAlGc279MXQcUtw6KrcT8nBkqerKzPLjNUG4BttRr41GHLdCqswdnI5L2Pfgg8wuPcdSKlZCXExRsTEJ6JG4/bo/uxIZG6/6KX/55IrAZta3ZY/vct1db/557Zi1tsD0SW1Pm4pH4v4SjWRcld/vDFrF7KvZeLhOHngL7xyXTmnm8exanw60pokOT8IovWHJTOqNOuOIZN+xkl3DzBrcfNbrsv5y8JS+/LwArluO87Nk2sx5dWH0aZWOff3RvKD6UmN0an/cEz/9a/is4m08vLToR3yry5QrvsXr6pVqyrX/lGjRgUcc8f2J9p+p1wX81Zacl1hLf8cts56GwO7pKL+LeURG18JNVPuQv83ZmFX9jVkPhznUa4r3y/JdTr3JH6ePAyPpd2GBtUqINYkwWguj6r1WyPtiTcwbcNpt8JVqyP+jc8GU653wAeHruPY8g8xKK05alWKR3xiLTRp1x3pYxbjwGX347taueWH9LL3zkfGoJ5o36gGksqZYS6XhOQWd+OJEbOw7aLL9wVyXdlvgGPO4ZHrVljOfome2it0zC3wzi53Y9B52DI8BTFyf0Uqj/umeFgm3OP1/ioWP6X2Y+XJSq3f3a30GQOV61brNax9OcX20KcEc5MhWH3VTf21XMXBBSMxoH0yyjvJdE0ISzBWbIS0FyZh4zl3563uM3hyPbLimD2/v7q8vrk93j/kHJ/Co+PQSXl4VYulL5/u5LocYwsubByPx1sWHyeWzNXQ4fnp2ONuNQU7byX9vvwQ9RGMvVN+/a4RlfvNczspr6jdcMOavSz8W1mIE+V6iICmXBc3GKUp18tCZeU5iBkKS4wKc3B6zzp8nzkNkyaMw5hxEzF15kKs2XsWN9zMeg9LGUPUzvl+btexcnA9mORBtvaj8Junhw+0chfm4NSOFZj7xaf4aMxYfDwlE0s3H8NVnx8GseDG6a1YmjkNEz8ahwlTZ2P5jjMOy8x7Yavwd4zpKHeaTKiT/pP67iytXPzkQBQZ8JsBynUv7Q158ounRx99FEajET179vTre9q1yp1kl5+e58x194yWplzXcsJP97FnXKI9Ljdx/uBGLMmchk/Hj8XYjyfhi7nLsOn3S8jX43XDkoMze9djyewvlHujcR9Pxow532HFliO4LOrz6/F8IqhMlOu+txWyGDab1Zm9EydODKgfEe1tM+W6mLdSlesR1DaFt674+GAh48l20M5AIXJO78G67zMxbdIEjBszDhOnzsTCNXtx9gYn23isz9dXYnA9k7J6a/tRv5XKQ7ROx7bcwOmtS5E5bSI+GjcBU2cvx44zN3znuATfL/x9DDrKrzE11UH6T1yFySkv9nokvkaWle9Rroco6ZTr4kpFuS6OUVlpeHgezHXBvgy0i5UgmVvinV2eloYPf5wK9r6HNmYJUmwbZOx1fvqSHIc/P8xB5OWAcj3yclbW65ks2du3b8+Z64J7Isp11t2y3hbw/Mh4pDNAue47w/KDdNpytDNnzvR9MF5wrYx0hvwpP+W6mDfKdXGM/GEusG0p1wOLmx5yxzJEVu4KsC+jHWIlCeaW72CX69LwZeb6WYC977WBWZIQ2yYDe/ngaNT3oSjXQ1S5KdfFF0XKdXGMIuvCyvNhvrwwYLmIbx+rAaPBhLrpK70u7R6+ON7Ampfqw2QwovqA+bjAlQiivtMUPha91KUQ9WOCde6U62Unl8FiQg/7mTVrln2QnTPX3TNKue4+Lnrgl2VgbsgAGZAZoFz3nYOsrCz7dX/RokW8xwngfoJyXcwb5bo4RqV//aJcL/0Y6yHPLIMe8my5+C0eq2GEwVQX6Suvl81r6401eKm+CQZjdQyYfwGWAK6fesgVyxC8NoNyPUSVgHJdDC3lujhGbPwYo7LEQMHBMeiUIEFKfABTT7q8nypEbbO3eFpOf4meSUZI5e/AB/s5a91brPg3tk2+MkC5TlZ8ZSWU21Gui7mkXBfHKJTM8ljMBxkgA64MUK77zsSff/5pl+v/93//VzYFQCnfT1Oui3mjXBfHyLUdC/6/KdeDH1M95JVl0GdeC3BwTCckSBISH5iKkz6/yjNS8mnB6S97IskoofwdH2A/Z62z/2S1gnK9lDucWmNHuS5uKCnXxTHSeOInY1U2GLiJrSNaI06Kwa2vrNfZ7PUb+OW1FMRIsWgxfJNv72cP0fWkbOSedTha80i5Tvb1yD7luphLynVxjPTIdkSUqfA4JnWvgcqVKwf+U6M7Jh3X34OaERF/9l/LzMAg5brv7fSePXvscn379u1lhoFQtjmU62LeKNfFMSp9ZinXSz/Gesgzy6CbPN/cihGt4yDF3IpX1pex2es3fsFrKTGQYltg+CY/3u/OvnaZ7mdRrocIcMp18YWOcl0cI91cLENUb3i+UcDE9S14p215GMvfidEH9TM7vODQOHT+aXAIAAAgAElEQVSuYER86zfwS04U5IF1ukx39vTUllKusz3RE49aWSjXxVxSrotjpPHETz9jVXgCn/WqjWrVqgX+U7sXPjtBuU72/GSvjPV/Kdd9z/+GDRvscv3w4cO8DwigLlCui3mjXBfHqPSvW4U49fkjqFerFmrV7YVJR9lXKP2Y6yHvLEM483x9yztoW96I8neOxsEyM7u7AIfGdUYFYzxav/ELcgK4boYzJzx26bUJlOshqgyU62KIKdfFMWJjyBiVRQbyjq3DvMzZWLonWyfvq7Hg8t5lmJ05Fz8fyeVgS4iuk2WRbZ5T8Tabcr14TMhJ+GNCuS7OAeW6OEasy4wRGSAD4WSAct13/pYtW2aX63///Tfv9wK436NcF/NGuS6OUTjbTB6b+SEDpcVAHo6tm4fM2UuxJ9tSNq6xlsvYu2w2Muf+jCO5pRU37jcS6yTlegCdyEASTbkubiAo18UxCoQ9fodxJQNkgAyQAb0wQLlOFvXComM5KNfFXFKui2PkyBR/Z7zIABkINQOU674zN2fOHLtcz8nJKRsD/yEa29S4plwX80a5Lo6RxhM/GSsyQAbIABmIRAYo10PUAaVcFzcQlOviGEViI8MyM69kgAyQATKgMUC5ThY0FvT0Sbku5pJyXRwjPTHNsjBfZCD6GKBc9z3nU6ZMUeS6JEmwWMrIrLoQjW1qbQvlupg3ynVxjDSe+MlYkQEyQAbIQCQyQLkeog4o5bq4gaBcF8coEhsZlpl5JQNkgAyQAY0BynWyoLGgp0/KdTGXlOviGOmJaZaF+SID0ccA5brvOR89erQi1xMTEzlrPcAxUcp1MW+U6+IY8VrFGJEBMkAGyEAkM0C5HmBH0t+kU66LGwrKdXGM/OWO2zOmZIAMkAEyoCcGKNfJo5541MpCuS7mknJdHCONJ34yVmSADISDAcp137kbMWKEItfr1KlDuR7gmCjlupg3ynVxjMLRVvKYzAsZIANkgAwEiwHK9QA7kv4mgHJdXGkp18Ux8pc7bs+YkgEyQAbIgJ4YoFwnj3riUSsL5bqYS8p1cYw0nvjJWJEBMhAOBijXfedu6NChilxPTU2lXA9wTJRyXcwb5bo4RuFoK3lM5oUMkAEyQAaCxQDleoAdSX8TQLkurrSU6+IY+csdt2dMyQAZIANkQE8MUK6TRz3xqJWFcl3MJeW6OEYaT/xkrMgAGQgHA5TrvnP31FNPKXK9U6dOlOsBjolSrot5o1wXxygcbSWPybyQATJABshAsBigXA+wI+lvAijXxZWWcl0cI3+54/aMKRkgA2SADOiJAcp18qgnHrWyUK6LuaRcF8dI44mfjBUZIAPhYIBy3Xfuevfurcj1Hj16UK4HOCZKuS7mjXJdHKNwtJU8JvNCBsgAGSADwWKAcj3AjqS/CaBcF1daynVxjPzljtszpmSADJABMqAnBijXyaOeeNTKQrku5pJyXRwjjSd+MlZkgAyEgwHKdd+569atmyLXBw4cSLke4Jgo5bqYN8p1cYzC0VbymMwLGSADZIAMBIsByvUAO5L+JoByXVxpKdfFMfKXO27PmJIBMkAGyICeGKBcJ4964lErC+W6mEvKdXGMNJ74yViRATIQDgYo133nrk2bNopcT09Pp1wPcEyUcl3MG+W6OEbhaCt5TOaFDJABMkAGgsUA5XqAHUl/E0C5Lq60lOviGPnLHbdnTMkAGSADZEBPDFCuk0c98aiVhXJdzCXlujhGGk/8ZKzIABkIBwOU675z17BhQ0WuDxs2jHI9wDFRynUxb5Tr4hiFo63kMZkXMkAGyAAZCBYDlOsBdiT9TQDlurjSUq6LY+Qvd9yeMSUDZIAMkAE9MUC5Th71xKNWFsp1MZeU6+IYaTzxk7EiA2QgHAxQrvvOXdWqVRW5PmrUKMr1AMdEKdfFvFGui2MUjraSx2ReyAAZIANkIFgMUK4H2JH0NwGU6+JKS7kujpG/3HF7xpQMkAEyQAb0xADlOnnUE49aWSjXxVxSrotjpPHET8aKDJCBcDBAue4bd7IUNpvNilyfOHEi5XqAY6KU62LeKNfFMQpHW8ljMi9kgAyQATIQLAYo1wPsSPqbAMp1caWlXBfHyF/uuD1jSgbIABkgA3pigHKdPOqJR60slOtiLinXxTHSeOInY0UGyEA4GKBc94273NxcRawbDAbMnDmTcj3AMVHKdTFvlOviGIWjreQxmRcyQAbIABkIFgOU6wF2JP1NAOW6uNJSrotj5C933J4xJQNkgAyQAT0xQLlOHvXEo1YWynUxl5Tr4hhpPPGTsSIDZCAcDFCu+8ZdVlaWXa4vWrSIcj3AMVHKdTFvlOviGIWjreQxmRcyQAbIABkIFgOU6wF2JP1NAOW6uNJSrotj5C933J4xJQNkgAyQAT0xQLlOHvXEo1YWynUxl5Tr4hhpPPGTsSIDZCAcDFCu+8bdn3/+aZfr//d//0e5HuCYKOW6mDfKdXGMwtFW8pjMCxkgA2SADASLAcr1ADuS/iaAcl1caSnXxTHylztuz5iSATJABsiAnhigXCePeuJRKwvluphLynVxjDSe+MlYkQEyEA4GKNd9427Pnj12ub59+3bK9QDHRCnXxbxRrotjFI62ksdkXsgAGSADZCBYDFCuB9iR9DcBlOviSku5Lo6Rv9xxe8aUDJABMkAG9MQA5Tp51BOPWlko18VcUq6LY6TxxE/GigyQgXAwQLnuG3cbNmywy/XDhw9Trgc4Jkq5LuaNcl0co3C0lTwm80IGyAAZIAPBYoByPcCOpL8JoFwXV1rKdXGM/OWO2zOmZIAMkAEyoCcGKNfJo5541MpCuS7mknJdHCONJ34yVmSADISDAcp137hbtmyZXa7//ffflOsBjolSrot5o1wXxygcbSWPybyQATJABshAsBigXA+wI+lvAijXxZWWcl0cI3+54/aMKRkgA2SADOiJAcp18qgnHrWyUK6LuaRcF8dI44mfjBUZIAPhYIBy3Tfu5syZY5fr//vf/yjXAxwTpVwX80a5Lo5RONpKHpN5IQNkgAyQgWAxQLkeYEfS3wRQrosrLeW6OEb+csftGVMyQAbIABnQEwOU6+RRTzxqZaFcF3NJuS6OkcYTPxkrMkAGwsEA5bpv3E2ZMkWR65IkwWKxUK4HOCZKuS7mjXJdHKNwtJU8JvNCBsgAGSADwWKAcj3AjqS/CaBcF1daynVxjPzljtszpmSADJABMqAnBijXyaOeeNTKQrku5pJyXRwjjSd+MlZkgAyEgwHKdd+4Gz16tCLXExMTKdZLMB5KuS7mjXJdHKNwtJU8JvNCBsgAGSADwWKAcr0EnUl/kkC5Lq60lOviGPnDHLdlPMkAGSADZEBvDFCuk0m9MSmXh3JdzCXlujhGemSbZWLeyED0MEC57luuR4wYocj1OnXqUK6XYDyUcl3MG+W6OEa8RjFGZIAMkAEyEMkMUK6XoDPpT+Ip18UNBeW6OEb+MMdtGU8yQAbIABnQGwOU62RSb0zK5aFcF3NJuS6OkR7ZZpmYNzIQPQxQrvuW66FDhypyPTU1lXK9BOOhlOti3ijXxTHiNYoxIgNkgAyQgUhmgHK9BJ1JfxJPuS5uKCjXxTHyhzluy3iSATJABsiA3higXCeTemNSLg/luphLynVxjPTINsvEvJGB6GGAct23XD/11FOKXL/zzjsp10swHkq5LuaNcl0cI16jGCMyQAbIABmIZAYo10vQmfQn8ZTr4oaCcl0cI3+Y47aMJxkgA2SADOiNAcp1Mqk3JuXyUK6LuaRcF8dIj2yzTMwbGYgeBijXfct17969Fbneo0cPyvUSjIdSrot5o1wXx4jXKMaIDJABMkAGIpkByvUSdCb9STzlurihoFwXx8gf5rgt40kGyAAZIAN6Y4BynUzqjUm5PJTrYi4p18Ux0iPbLBPzRgaihwHKdd9y3a1bN0WuDxw4kHK9BOOhlOti3ijXxTHiNYoxIgNkgAyQgUhmgHK9BJ1JfxJPuS5uKCjXxTHyhzluy3iSATJABsiA3higXCeTemNSLg/luphLynVxjPTINsvEvJGB6GGAct23XLdp00aR6+np6ZTrJRgPpVwX80a5Lo4Rr1GMERkgA2SADEQyA5TrJehM+pN4ynVxQ0G5Lo6RP8xxW8aTDJABMkAG9MYA5TqZ1BuTcnko18VcUq6LY6RHtlkm5o0MRA8DlOu+5bphw4aKXB82bBjlegnGQynXxbxRrotjxGsUY0QGyAAZIAORzADlegk6k/4knnJd3FBQrotj5A9z3JbxJANkgAyQAb0xQLlOJvXGpFweynUxl5Tr4hjpkW2WiXkjA9HDAOW6b7muWrWqItdHjRpFuV6C8VDKdTFvlOviGPEaxRiRATJABshAJDNAuV6CzqQ/iadcFzcUlOviGPnDHLdlPMkAGSADZEBvDFCuk0m9MSmXh3JdzCXlujhGemSbZWLeyED0MEC5Ls61LITNZrMi1ydOnEi5XoLxUMp1MW+U6+IY8RrFGJEBMkAGyEAkM0C5XoLOpD+Jp1wXNxSU6+IY+cMct2U8yQAZIANkQG8MUK6TSb0xKZeHcl3MJeW6OEZ6ZJtlYt7IQPQwQLkuznVubq4i1g0GA2bOnEm5XoLxUMp1MW+U6+IY8RrFGJEBMkAGyEAkM0C5XoLOpD+Jp1wXNxSU6+IY+cMct2U8yQAZIANkQG8MUK6TSb0xKZeHcl3MJeW6OEZ6ZJtlYt7IQPQwQLkuznVWVpZdri9atIhyvQTjoZTrYt4o18Ux4jWKMSIDZIAMkIFIZoByvQSdSX8ST7kubigo18Ux8oc5bst4kgEyQAbIgN4YoFwnk3pjUi4P5bqYS8p1cYz0yDbLxLyRgehhgHJdnOs///zTLtfXrFlDuV6C8VDKdTFvlOviGPEaxRiRATJABshAJDNAuV6CzqQ/iadcFzcUlOviGPnDHLdlPMkAGSADZEBvDFCuk0m9MSmXh3JdzCXlujhGemSbZWLeyED0MEC5Ls71nj177HJ9+/btlOslGA+lXBfzRrkujhGvUYwRGSADZIAMRDIDlOsl6Ez6k3jKdXFDQbkujpE/zHFbxpMMkAEyQAb0xgDlOpnUG5NyeSjXxVxSrotjpEe2WSbmjQxEDwOU6+Jcb9iwwS7XDx8+TLlegvFQynUxb5Tr4hjxGsUYkQEyQAbIQCQzQLlegs6kP4mnXBc3FJTr4hj5wxy3ZTzJABkgA2RAbwxQrpNJvTEpl4dyXcwl5bo4Rnpkm2Vi3shA9DBAuS7O9bJly+xy/e+//6ZcL8F4KOW6mDfKdXGMeI1ijMgAGSADZCCSGaBcL0Fn0p/EU66LGwrKdXGM/GGO2zKeZIAMkAEyoDcGKNfJpN6YlMtDuS7mknJdHCM9ss0yMW9kIHoYoFwX53ru3Ll2uf6///2Pcr0E46GU62LeKNfFMeI1ijEiA2SADJCBSGaAcr0EnUl/Ek+5Lm4oKNfFMfKHOW7LeJIBMkAGyIDeGKBcJ5N6Y1IuD+W6mEvKdXGM9Mg2y8S8kYHoYYByXZzrKVOmKHJdkiRYLBbK9RKMh1Kui3mjXBfHiNcoxogMkAEyQAYimQHK9RJ0Jv1JPOW6uKGgXBfHyB/muC3jSQbIABkgA3pjgHKdTOqNSbk8lOtiLinXxTHSI9ssE/NGBqKHAcp1ca5Hjx6tyPXExESK9RKOhVKui3mjXBfHiNcoxogMkAEyQAYimQHK9RJ2KH1NPuW6uKGgXBfHyFfeuB1jSQbIABkgA3pkgHKdXOqRS8p1MZeU6+IY6ZFtlol5IwPRwwDlujjXI0aMUOR6nTp1KNdLOBZKuS7mjXJdHCNeoxgjMkAGyAAZiGQGKNdL2KH0NfmU6+KGgnJdHCNfeeN2jCUZIANkgAzokQHKdXKpRy4p18VcUq6LY6RHtlkm5o0MRA8DlOviXA8dOlSR66mpqZTrJRwLpVwX80a5Lo4Rr1GMERkgA2SADEQyA5TrJexQ+pp8ynVxQ0G5Lo6Rr7xxO8aSDJABMkAG9MgA5Tq51COXlOtiLinXxTHSI9ssE/NGBqKHAcp1ca6feuopRa7feeedlOslHAulXBfzRrkujhGvUYwRGSADZIAMRDIDlOsl7FD6mnzKdXFDQbkujpGvvHE7xpIMkAEyQAb0yADlOrnUI5eU62IuKdfFMdIj2ywT80YGoocBynVxrnv37q3I9R49elCul3AslHJdzBvlujhGvEYxRmSADJABMhDJDFCul7BD6WvyKdfFDQXluocYFV7DqT2/YPWKFVi9fhsOnr6C/BBx6yvf3M5D7kqQJ0tuFo7u3oR1q1Zg5dpfsePwedywBP84ZTV3hWd3YsXSZVj32xVYSpCH4MXHgiuH1mPZ0h+x/UwBB3N0kRPWp+Dx7XssKdd9j1U48hOtx6RcF3NJuS6OUbTWn7J13hbcvHgUuzf9jJUrfsKaDVux/9RVFOi431Jw7Qx+2/4L1q5cgRWr1mHz3mPIyiWvZYtL3/JJuS6OU7du3RS5PnDgQN6PlbBdo1wX80a5Lo5RNLbVPGdyQQbIABkoOwxQrpewQ+lrZaBcF1ea0pTrlqsncDzLEtwbqMI/MLlvCzRt2hStnpmD80EXnxZcXDcKvRomwCgZlJtAg8EAY+UnsPiGOJ6+sqmv7Sy48O3zaNusKZo2bY57MjYjz686WoC943oitWlTNG3eFe9suOkm53nYkpGmbtO0GdqmL8BFX3JnuYRvnmul5FvOufufZmjWvAVatemAu9IewmODR+CThTtxId/HfFmu4OCiD5H+QAtUi5MgGYrybpAkxFZtjgde/BirTuS6OS/bMXK+x4ut1fK1enaeb+dmLcChTx9BCyVu3fDepnzP+7fnQ8dxzNuHMZ0TYYy7Df/dkVf8XAqysHvhRxj2z4eRdmd7tG7VBrd37YHH/jUKs345g1z7OXrOW/65rcjMGIy+aR3RtlUrtL3zPgwYOhoL9maj0MP383ZnoF28ERU6jsJuDnoWz4uHuOmrjfLMBMvpW2wo132LE3kKbZwo18Xxjma5Xir3Eb5e8yznMPtptf/Zou8UHCkU5yo07YcF52Y/jVZy37FFX0w5Uuj3db1g30fo1ULus7bGS0uu+/H9fOz88H61L5/aA2P3lPyhRcu1Q1gyOh33t6iGeKNkv++S770MkgkJdTrg0demYN0pL31wOaeFR/F5v5bqfULzbnhj9WWfzstyZiaebCnHIhX3fbBD+CB14aW9WPhBOnreVhvlXctrkGCMr44W9z+P9xfux2Vf7nN85ZHb+ZTP0NTB4m0B5XrxmLjmok2bNkr9Tk9P13UuXcutx39Trot5o1wXx0iPbLNMzBsZIANkgAz4ygDleohuECnXxZWyVOR64UVs/WIIOic3xAur3Ui2kuS/YD8y2pqVm7PYuz/FmSAPXFjOzMIjVY3OgzsGA8ztR+G3AnE8fW0E9Lad5dx09EpUB7VM9V7Czzf9ONe8zRiWEqPEzFT3Bax29xDC9Z+Qnmyyx1Uq1w0TjvkwIGg5j6n3xdq/pwy2OcpvT79LRlRqnY75R70L69wj3+H1LjVhdniQwv0xJBgrtUL6vCPuHzy4OhMPxqlSPjZtMs76xGUBdr/bCmb5HEzJGLzKh7qi0zharfnYP7oTKkgm1Bm0DJdd6viN3zKR3jbJ6YEVpzhL5ZEyYDJ2XvX0ME4hzq4YjjtviXF++MGWf8lcC2kZ65DlNu5XsCK9PkxSAm4ftcd9/lzKq7f6yfL40R4xl24HLSnXyZAe2xHKdTGXUSnXS/M+wtdrhOUUJnZT+5/mdhk4oJt7AAtOTeyGWLn/Y26HjAP+C+78rW+gaYzcZ41D76+vub1muG8v8rDx1UYwyceOScGwzd772O73oTFfiLOrM/BA3Ti3/TqnPqLBACkhBf3Gb/LQz7PCWnAQo9qr94cGgwTzrUOw6rJ2LM+fhcfHo7NZjoUJDV/Z4KWPmIP9X7+ADlXd90Ndy2uQzKid9g5WnfXhXsdXJrmdH6x6zrl3LgP7HuW6OG6NGjVS7ueHDRum2zyWBhulsU/KdTFvlOviGJUGm9wn404GyAAZIAOhYoByPUQ3h5Tr4kpdGnI9d8lTqGxUhWGkyfXsWQ8hQRatkhkN+03Eqr1HceL479j3x0WPM2ND1XCU7nEu49uBVWG0id70n274fON78+eXUN8kD0zFoOnwLW4Hpq4sfBy3GA0wVqyF2olGJb6t3t0tXu7RUa7HNEL3F1/Gyy+7+fnXS0h/ph8eaF8HCfaZJBLiW72JTdfd14Ob+yahV21tkExCQuP78ML7X2HpL3tw+NgJHDu0Ez9/OwH/7nUrKsg8y4N75np4Yv7p4iyESK7rMY4yl4VHP8N9SUZIFdPwqctDE4Vn5uOxOrY4SwlomPYc/vvxF5g580tMGJmO+xol2AZWjajWYwp+dzOAfWN7Bu6oID/8IT/k0BwPvzYan8/4EhNHDkLn5Fj1+8bKSJv4m9tZR4UnpuD+ShKkxHvwyR8c6CzdtsR9feMxwxsXyvXwxp/8u48/5br7uDjyEo1yvVTvI3y9B7X8hel966FWrVqo230CftfRzPW/pvdFvVq1UKtud0z43f8+TfjlegFOzH8at8bbZqpLRiSm9MLQD2fhx027cejYcRzZvxkrvv4QLz3QBBW1fr2UgJYvLcEZd7lwkuvqfdytQ1YVe9jTsW7Jv/sm169i06iuqGovRyxqth+A/0yYi58278Pvx0/g6G+78Ouyr/D+kIfQorLDvUXbt7Dxmrieu5aL/46smGlyPTU1FYcPH/b5Hjqa8ly1alXlXjojI4Px8fU65GE7ynVx+0C5Lo5RNLU/PFfyQAbIABkoewxQrnvoKAYbdsp1ceUpDbl+c/GTSJIFtSk5wmauF+LQ+x3UmcTm9hj1m/+zQYLNcCj3d/3H55CsSHIjajzzA3J8qqc5WPZsLUXKS3LMDrqJmeU8ZvauBMkgIf7e0ZjYr7KyvanBEPEMeUe5HtcbXwsHqApxcfNHeDBZk7kVcN+UU8VkuOXyKgxN0aRsJbQdsgBHPM7Wv4EDX/RFPbM6CGis3AtfnHQZzAyFXNdhHBU+LZew+B+1YTKY0OClNbjuxM01rHi+jjrLyVgd3SfsKc5Vzh5M7FnDtk0V9Mk87/y+9oLfMLZTeUWgG6ukYdxu5yVMC8//hFda2/5e+SHMOONu9vsNrH+5MWIMRtR83MdXEjidh7gtDWVd5bGYD38ZoFwnM/4yE4rtKdfFXEajXC/V+whe2xFuuX5j20i0Vx6YlB9aTUb3UWtx1uOrnPJwctlb6FLNZHuQMgldx+4r/iohV7muPBB7K4as8r48vFiuW/DXgidRN8Z2D5DYGumz9uOq25WS1PpccG4t3ru7mvrAsmRGy7e2Fi8vOSxTgrVGjRr2VdYkScITTzwRsGQfMWKE8lBPWlpamYmRLIPNZnVliYkTJ5aZ8wpFP8ndMSjXxX0nynVxjNyxxf9j3MgAGSADZCBSGKBcD9ENJeW6uFGgXHeMUQH2jrxNleux9+PzC+4kneP2Zez33F/w7ybq8u7GWx7Hd1d8OL/LC/DYLfIy+hLK3fMpTriZTVJ4chLSysuDUma0G3UAWd8ORFV5JrixGh5f6H3Qy+q3XJfLbEH24n+gtvKggIRy3b/ABadBsJvY/EaquhS8FINGzy7BOae/uzvva9jwWnPb8vGyRP4ZNxzbsRDIdf3FUY1TwYFRaC+/q15ennS/y8MVVxdgYGWVj4r3TcFJN3zIF27L6c/RvaLMiISEXjOc3ll/c92/0FDOpRSPDqP2u13tIHfLG2guP/wgmdE2w/02hYc+xB1yOWPb4L09JVnK1B0f/L9I6YBFazkp11lH9cg+5bqYS8p1H16Z49gf4+9CcRVWuZ6/F6Pal1NEuWRKRt9ZR92uOOTaXl3b+h46Kv1Eg7IK0UTXVYgc5LoUXx7llFnm6vLwq73czwjl+pUVSK+vvtZKMqdg8PILzg+AeuDNcmEhnrS9DstY7XEs9GGJetdz5r/F7aNeYlS9enVFrsfEqPfRympnAUr2sigFc3Nz7Q8fzJw5U9hG6SWvei0H5bq4bSiL9UivPLJcYh4ZI8aIDJABMhB8BijXPdyIBhs2ynUxvMGU65ZL2/Ht1MmY+OLtKC/PXDcmoeurn2Ly5MmYunAnst0KzHxk//4rli+cja+mz8L8JT9jz9mbnm+6/Hnnen42fv91ORbO/grTZ83Hkp/34Kzb2cnXceCHzzF58iT89yHbLFtzKp4aO1kp+5QvVuKoGylouXkO+9f9gPlfT8eMr7/FD+v24Xyul5hf24vFn0/G5KlzsemcTdwrZVyKeV99iRmzF+KnbSeR4zZObvZruYlz+9fhh/lfY/qMr/HtD+uw73yu59gJ653tHeBK7iqj37xswb4suPj1I+oqBVIlPDzL3YBTIQ59cDti5X2ab8N7+wpgvfY9/lHdJlwf+BxnvJ1vQHLdCuu12XiknDrLJCZ1BHY4zIixZM1Dv6ry8Q0wVh+Iby/69hCF5fzX6KOIYgNMyen4yfHd8qUu1/UXR7W9vo6V6XVhklcl6DoBx13qSf6v/0Zj5b2esej2ySnPA5KFRzDmTnVGQ0zKcGy15ysPG19pqMxql+K64RPXFQM0pgsP4f0O6vfNbT28G7XwFCalyQO6JiQPWoZr2nf5KajnbtoexiziYka5To6D3ccOxv4o18VcBl+uX8PexXKfdyrmbdb6bfnIOrgeP8yfiekz5mLJL3/gcrFXtOTh/L6f8f3crzDj6wX4acdpXPfWf9OuE/nZOLJtFRbNnYkvp01T++Nrd+N0TvG+V0juI6wWXN71HabK9ybztyoP81muHcH6777GzLlLsO7ABZvszcH+JXKcvN3DyPnLR/aRbVi1aC5mfjkN05R7mbXYfTrHc59Hi02An5SGF4EAACAASURBVDn7l+DzyfL9xELszC4eR61uWq6dwLYV32LW9K8wZ/FaHLioPlgYTrl+5ft/oIbyqiUjqvWbi/O+MKTEKR/7378d5eT7CXmlpCEuD7k6yPWYpi9g1KBGiJG3lcy4dchqXPEQa+9yvRAnPr1Hvac1xKDxkDV+9B0LcfjDO5T7HykmGekrfH/dlpY/forbR73ESFsW/vXXX8d//vMflCtXzi6T/Z3JXhalYFZWlj0eixYtirg+tF4408pBuS5uG8piPdLyz09x/hkjxogMkAEyUPYZoFz3cIMbbPgp18WVKZhyvWDvSLQ2q++mlsWl44+5navwysXx5aMw4LZbbLOBi7aXTBXR+IHXMXvfteI3X77I9dzjWD5qAG67xawuIWgviwRTxcZ44PXZ2Oe4vLjlL0xKi3Uqr2PZpYR++MZByluu7Masf3fHrYm2JQqd9t8E3V/PxJ4rxQe77AM4MY3x71+u4vA3ryGtrjp7w348yYiEBvdh+KKjnpcQtFzB7ln/RvdbE2FSBpmcY9ek++vI3HMloEG9wj/GolOcOoO40sOznGYQF6uflr/w+QPq+7KN1Z/CYnczQwp24u0W8lP8Esxt3sM+ZbD2BlYOVh9ikGJvxwfelt8PUK5bzk5GWqwq12XZut9hkPhS5iOoaBucq/fSz7jpc3t0HTu/mYy5q3bjzHWX/Ja2XNdhHBUesr/BAPlBBSkOXT4+Xnz5/fO78MOcLzFp7If4Rn6wwlOsHQdFm7+J7Zpcd5Du5pbvYJdDHp33lYcNLzdQJXz8A/jC7aoTFpz69B7ESwYYk/og08eHKpyPI25TuT1jpEcGKNfJpR65pFwXcxl0uV54HOM7yw+jxSDlP5uRvW8mXuycbJOWtv6kZETFlH74ZJval8zZPwuDO9ZAnGOfUzKjWocXMPd39w91WrJ3YPor3ZGS5NoXl48hwZhQD3cP+Qp7HPrjIbmPsBbg0PvtlVWqYpq/hbW/jMH9tR3KKJVD63e2wmo5hYnd1HuD4vcwVlgt2dgx/RV0T0kqdh8j9+klYwLq3T0EX+1xcy/jqS/k0/9bcGpiN8TK9x7yikEH3PStbh7Bord6oklF5/sUKT4Z3f69AL9tHI6myoOPcej9tT/ly8PGVxupr/GJScGwzf6uAnQF3/RPUpdLNzXCKxvcs+OxrdL6nMrDsc9g6XWH+uPYj2z2Jrae/xHpjdRXREnmWzFk9RW3fVD7vZnBhIavbECeYw4KD+GD21U2pLi7MO6IyyuhHLd187vl7HpkzvoRu/6iWPeYUzdxi8RtNbk+cuRIhbMLFy4ELNnLohT8888/7eMsa9ascVsXIzHv4Soz5bpD2++hDSmL9ShcvPG4Yt4YI8aIDJABMhB6BijXPXSCgg0j5boY7mDK9cKTC/DG4wPQr0t9daayVB5N7umHAQMG4Im3FuGMfVbrVWwZfS9q2t5fJ88qSKrXHG3atsatNRPswthYqR1eXX7OWRKL5PrVLRh9b011toLyvr0k1GveBm1b34qaCdogkxGV2r2K5drscUs2VmY8iQED+qN7S23QpxY69BmglH3g0xOw2Sb7Co7NxTMp6vudlcGz2Mqon9oGbVLrIcn2Tm6DwYiKrV/E4lPOgzD2ARxTfTzyfA/Uks9fikFicjPc1iYV9Svb3gGulLsJXvzpsvO5y/Wm4BjmPpNim0Uhz8iIReX6qWjTJhX1HAYwjRVb48XFxd81LqxjljOYen8FdbnGCj3w5VkXiexQdwuPTUDXeFlgm1DvpTXOy6Tbtsvd8AoaKUt6x6LjmN/t8jXvl3+jiTKwpw7uOg1mORwjsGXhc7FnlDa7xYhaz/3oULZc/DioujqwZ7wFT/8QpAGvUpbr+ouj2rZc+aY/kuQZSOa2xZeEd8yj4PfC45+gm7LSgITEPrORrW2fuxzP2lY5KPfQLI8zj+RXAZz6xDbYHNMEr21yP+BbcOh9tJcfAJIS8UjmJQ7uaHHmZ5lngXJd3B8SXh9ZT4JeTyjXxVyWplxv+NBT6Kas5CMhrkoDpLZpjca3xEGySXRT7Scwe/UY3FNFfoguBhWTm6FNm2aoXUHrT0uIa/kmNjs8gCrXI8uF5RiSqvWVJZgSaqBJq3Zo364VmtRIsPfR5f5y9T6zcMp2fxCS+wgHuW6q1QZtk2MgSXGo2qglWjaphnJmWRrneZfrlgtYPiTV3heXTAmo0aQV2rVvh1ZNaiBBu79RJHAfzHK5HyhZWyOQ6zd2Y/y91ez3UpI5CfVbtEHrlBooLy+VLpmRfFsrVFdenRRiuZ63Cum11SXWjbWexwpvq325bW+vKnJekh8sMDXAy+sdXhngIte351twaXk6Giq58Lw8vP3ezI1ct5yehDTlgWMDzB1H4w/7fay43pYsx9x/pMXPVa5r5Q9EspdFKbhnzx67XN+2bVvQ+xJavKPlk3Jd3EaWxXoULXzzPMV8M0aMERkgA2TACsp1tzfMwa8clOvimAZTrmuV++biJ9Wlwk3JeGG1w8CHkncLzi98EnWUwQ4jktq/iK92XHR4j/INHFsxCr3qqqLZWKUHPj/mIKm9yXXLeSx8so46aGdMQvsXv8KOiw4zOm4cw4pRvVBXmdFsRJUen+OY00CJ/M711vZ3rk9zndmauwujbldnahuMldA2fYbT/vMvbMW0Z1uhorLcoYSKnUZjnzYD12pF0QCOOmsnruEjGL36ZNHM6ZunsCojDdVs3y939ycuy2znYteo25GgDHoaUaltOmY4xi7/ArZOexatKqpLnksVO2H0PveSUctV8U8Lsub0VYWpVB73Tj5dXPAreSzAb+93UB+iiGmGN7e5O04OfnyutjqbuHwaJjku6V2wC++0UJfxNiUPwvIcD6z6OXM9/9IBLM7ohfq2WetSfFuM3OnAYOExfHSXelyDuQsmOJapJO2Sg1w3tx+GJRs2YuNG0c96zHy2CWKUQcJkDF7lUE6nsugwjkr5bmDpM9WUBxVMyYOxOs9DDp3Oxc02lmwsf16ddW4wVkW/eVlFzGVPR884ub6YUOfFNc4zilz2e3PhQCTKdUOqhMcXeXi1RN5aDKknD+waUeWJRchx2Ufx+uCmvPwOB8UikAHKddZlPbZvlOtiLktPrquz1KVyzfDU1C04p/VX805gwT+bqLOxJRPMZhNMt3TFWz8ctT+oWHhpGz7uVUudwWysiicX5zhcF3Kw6oX69r91fXs5jju+Rsd6AydXf4hedWyzxc1tkOGysk2p3kc4yHXlIdm4FPxz7u+4rrTrBbh09BguyUuVe5m5nrPqBdRX5LQRVbu+jeXHnR/UvHFyNT7sVcc2o92MNhn7HO5zxDn3Xle9yfVcbH/nNmWFHkWi93gfa05rfUsLrh6YiyHtbQ8RK6tuhVauO94HxaZNwl8+LwmvxawQR8feqd6nGWKR9tlfRdwVk+tyDi9heXpDr8vDF5Wp+Mz13B8HobpyT2ZCvaHrvPZBvedMKz8/y2qcPMl17Xz9kexlUQpu2LDBLtcPHz5cVG8jsD+t5TScn5Tr4ra0LNajcDLHY4uZY4wYIzJABshAaBmgXA9RR5pyXQx2yOV63hYMbyYPqEkwpwzBqkvuZ0bnHRiNuxLUWdF1B6+yDXrJM7f3I6OtKkdj7/4Uju/rztsyHM3k2eOSGSlDVqmDY8VYy8OB0XepgtpUF4NXXXe4wfMm1y24kNkHleVBFsmMxuk/IsvdoJDlAn4Y1FAdUDNWwaOztfdZOst1Kf52jNqnDXg55KnwOD7uoj5YIFXoi7kOy2VaLmTa3vktwdw4HT9muYudBRd+GISGyix6I6o8OhsX3JWzWFwcynBtCZ6pqb4TPb6bq+C3bVewG/9tKedBQmyH9/Gbu+W67cs3Skh8cIbLexUd5LwxCX0yi+LkdEFylOvGymjS4Q7ccUfxn9vbt0FqwxqoYF89wADJXBu9Pttf9PCCfM75WzG8qbxMvQFSxYFY6DLbyunY3mLk+jcHuS7v2+8fkxe5rsc4KrHcgRGp6pL/sfdNdcmvA0+usXL6dwFOzBmAuraZRQkdP3B5IOUj3KW8akJe4WCL7T2o7vedu/xZ2yBoHB6c6X75T6s1C9N7xisrM8Q0dXy3u/t9BsyD0zly34xj+BmgXA9/DlgPiueAcr14TFw5KVW5LpVDxw8OFLu2Ws58hjRlZSJ5hnBtPLHwYtFDb7brW8H+DLSxXZ+bv7W9qC99dQEGyjPdDRIS75+Ck04PsWrna8GFGQ+qr+iRyuHhTOelyb3K9ZLeRzjJdSNqPr0EV91dsz3K9atYMLCK8mChlHg/pnh4SNNyYQYerKi+Zqncw5l+vKtbi5GnTy9yPXs++ttiH9/mbWx1eqhB3Z/l4g94tr66XLrBEFq5nv/ra7ZVqyQkPbnYuX/uLgdu/u/Gt/1RQXnIOAbN33Tgzp1cl1dRuLQc6Q215eFTMNRleXjPct2C81PuVZffN5hx10fH7KtvudZR/tsTq9Hz/yK5rjHii2Qvi1Jw2bJl9nvjv//+u+h64aaOa7Hip+f6Q7nuOTYaN2WxHmnnxk9x/hkjxogMkAEyUPYZoFwPUUeacl1cmUIt1/M2vIwGyjLh5ZDmcVa0XO5szO6TqEgwU+10rNSWDvQo1x3euVwuDZNPuxPPtnhkz0afRFXc105f6fBucy9y3ZKFWb1ty6VX7I5pZzzv33J6Ku6voA6oJfSaYX9vedEAjoT4+6binFvpnY/Nw1LU2czmrvjklHYcC7Jm9VYHlKSK6D7tTLGBTvvFw3K6aGn3hF6Y4ToDX1j/bmLtUNv7q+M6YewfDisH2L6bt2kYUuRl3aXySJt00s2AkwXnZvRSZxIbq6D//OxiN9LKUuDK4K2Ect0+cVlFwJYrR7nuo7SWTBVQv+tz+HjtmWIDxta89Xi5gW1JyluewVKNK2FMBHWp1OS6TuMox+vK1+itLOVuQvILqwOY0VOIM0teQIvycl0xwHjL/fj0oPMDJ4WHP0AHZfDejFbv7vY68ytvzYuoo8wki8UD0y4W402tH3lYb383e0/MyBbktaRc8Pse8sC429vrEDFCuU7mQs2cL8ejXBdzWZpyXYq7F1Pcvf4nbwNeaaj2lZSVadz1lW5+i/5KX9eIWukri9r6a4ewKnMyxox8A5PWe3rQzYr8HW+hufJ6IHkG8lmnPq03uV7i+whHuS4lou+8q0Vld2yPPcr1azi0KhOTx4zEG5PWe35dTf4OvNVcfZgzNu0znHXb5xfnv3g98izXr87vr64cJiWi90wPD61aC3Hko7sQpwjq0Mr1vJXpqK3000xIHrwqgH6jFbnL/mlb4cuE+v9aX5Q7D3Jdfm2Q0/LwKUOx+kpR3IvuzVxnrhfiiMMs+fumnndi1CkvN/Zj8WcTMXGi+vPJJ59A/pkwYYL68/HHmLhov33lB6fvOjLH34vyGWGx8FWua7n3Jtm7deum3Be1bNkyYuOhnaf2OXfuXLtc/9///ldmzks7v1B/Uq4XteGeYk+5Lo6Rp9jx/xk7MkAGyAAZiAQGKNdDdMNEuS5uEEIr1wvxx+iO6nJ+xmpIG/YpJk+e7OFnEt7ulawuK2m+HR8ctgleT3K98A+M7qjOaDdWS8OwTz3tdzImT3obvZLVQUPz7R/gsH1WjRe5nrcWQ5XlpA0wdx7vsly7S5wLT+DjzmpZTMkv2JfLLhrAiUGT1zYVF79KvSjE4Q86qDEy34mxRzSxnYe1Q+vZ4tEZ449r/+9ybNs+TnzcWd2H26X53X3H+f/yt9sGPSUz2o/6zUVq3sTPL6lLfhqT+iDTnbwvPI5PupVTHo4w1nwGPzjMwLc30paz+KKH7YEFcyu8u9thCX+tjXCU66a66PLE03j6advPP55E/17tkazNrpLKo0nf8Vh3xnl5Tvvx5H3mb8MbzUp35rq547tYv28/9u8X/ezBdy/aHqTwNHNdr3G0WiHPWmtrE9/tMg64MOLMk1MOlNzm4ei8f6KpIucNMCa2x5trLxUbuCz8/UPcbpsZ1+LtnR7qjHqsvFXaoG0cek4v/jCHWga5DbrDVr9aY+ReN8xp7PGTg19liAHKdVGbxL8Xb6dLPyaU6+IYl6ZcNzV8BRvdvdLFQQybu05wP/s8dxn+WU2eoW5E9WeX+3G9yMOlPzbhu4weqGl7IK7bROdXEHmW60G4j3CU6zEt8PZOD/0Aj3JdnLO8S39g03cZ6FFTvdeI7TYRp0tdrudj0+u2Vw2ZO2HcUc/3CQW7/4tWSt8qxHJ97RDUU3JuRK3nf3J4uFkcU619urn4CfUBAoO6opH2/1aPcr348vApQ1fbH4ooujdzlesODzEYYtHtk1PF+qjasS1nJyMt1vuqVYGv8OR7bLTy8DP0MdPk+v3331/0UIX2cIWXz4yMDMgyPSZGvTd1XPlMkiS/9mV/mMPL8cK1TYMGDRS5Lp+TxaJNHAh9nspK3aBcF7NDuS6OUVmpDzwP5poMkAEyEJ0MUK6HaMCacl1cwUIr1/OwdkhdVRD7OAtZuck0NcTLG2wzWj3JdfldynXVQSzHG1PR76aGL2ODfWDRi1y/PhePKiLQl6UMc7H4ySRFLEvxj2C27X3iRQM4ZrTLOOhBRjrMlDB3xBj7rPHrmPuoKqulpCexWLCcea723nspHo/MdnwXppgJ5cJU8Bve76AuT2++bST2Oi77nrMMz9ZSB1Rr/ON7t8tpFhwchfbKEu0SYurdjX8MGoRBxX6eRf/ba9h4MKHBkJ+LLxHpKNfjeuNrN5I+9/RqjHqgtu2dirGo12cqDniKj+U0JnaLVZ+ej70bn3pZgcCvC7TDzPXYtMk+zlAqwO53W9kfgnD3znXdxtFqRd7GV9HINjB+zyQvKym4tveWy9gytgeSbUv4Gyt3wjvrHN6z7rC95dREdFMGLGPQ5HVPD6SoTOf+8DSqKq9tKIc+cxxf9+DIvAUXpz2gLvNpaoB/rXeeKe9Xzh3Kye85xpi/65EHynVyqUcuKdfFXJamXDe3y8ABx/6ddl1zkOuxD3zh/jVIucvxbHXvcj3/4n6smvsZ3h/xCp57rDfSbm+OOkmxMCqzpjUZGYtuE53FpWe5HoT7CEe5LkvoYx4ktC9yPf8i9q+ai8/eH4FXnnsMvdNuR/M6SYg1qivyaPcgslw/Vepy/SYWDKio3nsk9MM3nvrBco6vzsJDcXL8QyvXCw5koJ0i9SWUf2R2AEvlW3Bucpp9qfZO444WPdThTa57WR6+6N7MVa5bkTO/n/rqAkMMmr6xzeMDnpZzn6N7xVjExrr+mGGysU65Lm7r9HiN8rVMmlzX6jw/tfbd+TMxMbGozmrXG376HRPKdXF7QrkujpGv7Ru3YyzJABkgA2RAjwxQroeoE025Lm4AQivXc/HjoBrKewoNxipI6XgX7rrLh58ufTF+Z7564+FJruf+iEE15EE+A4xVUtDRl/3edRe69B2PnflanLzIdbs8NaLGoB8Fsy1ysXxQdfU8HYRw0QCOGR0+OOxmKXW5HJ7k+lXMfDBOPb8ag/CjuyU6HepV7vJB9vdP9/7a+V2WvjWKhTj5aRrKy4NCMakYscMWf6sVlxcMVCWmqQGGrr3p5oYwH9vfaq4ube/HQxTGao9j4WUtF7ZPH+S6cj7Xt2PUXZXUmEtm1H98rvuZVtY8rB5sWxHBVBvpq/yTq4VZJ3AsuygW9lja+TAgeHJdz3G0Im/1YCTb5Pr9n3taftQln7lHMD+9JSrKEtwgwVy3Nybu8sJnzhz0UZaNN6LGc97r3bXMh1FO5tVYC8//lOuGS7UsV2Y+iDiZS2MtpHvZzp5bh3rF/3PJJ2PjkTO9sUK5Tnb1xqRcHsp1MZelKtc7OK7e5FAWR7ne3X+5brmyA1OfuwM1Y50lsyqcJJiTGqFj1xaoovQF/JHrQbiPcJLrXfDxiQDkuuUKdkx9DnfUVB9CdRVpkjkJjTp2RQvl/ecGhEauX8ecPvGqXBc9hHtzAQYoS/qHVq5bbyzGE5XVe7WYlP9gi/3+y4E9r/2KXKxKt/XhjdXx7HKHvp5ArqvLwz+PhjHqa7vMtuXhi+7Nisv1gr0jcZv2MEDP6fbXfPnclt78Do8pryEzgHLd1xxH5naaXDeZTIiPj/frR27j5e+5tiPyv+UHNvzdn563b9y4ccT0m32u517brNLhmXJdHFfKdXGM9Mw4y8b8kQEyQAbIgIgByvUQdUIp18WVMbRyvei96AanWdnictorlSe5nrfB/i5tc8cx+MO+1Lsf+7Z6kevyAEkldUAmoe885Hhl+Brm9ClfbICraAAnELl+E989Vsk2I6Uv5tlmw9vj4lKea3P6qGJcSsKTi90JcHFcLOdnordyzjFIGbZZnbFhuYCvH1Fn5cekjsAOdwNjN9diqO295qZqbdCrb1/09fjzKB5oWcUmxd28S95XuW61ovDYF+h1izpoZzAm4d6Jh93OMrk8ty8qKTNJYtD8ze1ut3Ef13xsf7MZzOZE1GvfGx9sdFh+vjTkus7jmLf+X6jvYUlXd/GzZG/CB/fWVFcYMBhRqe1QLD7p5kEFR5bzNuLVRrZlVR+Y5mVgswCH3m9vW+69HTIOeljm1WrB+an32Wau18WQtf49XOHuvPh/4raEMQp/jCjXw58D1oPiOaBcLx4TV04iTq7f3I0PO9sedjRIiKvWHHf3fRavvPMhPstcgvX7ziCn0Pmd6/7MXN/wcgPbK5IcV3cSx7Eoro79hUDk+k3s/rAzKikPBhggxVVD87v74tlX3sGHn2Viyfp9OJNTCKvjAwohmbmei6XPVFX601L8g5jp8F7xonO3xenKV+gVhpnrVstFfPWg+joog7k1Ru7x1FfzkM/cjXi1se3VTol9MDvbYTuhXLctD/98Q9tKV2bIy8NfOjYenRWBXlyuW/PW2+8tjZX7Ym6Wn8tZU65HjUjV5PrIkSN9PudLly5hxIgRSEhIcCvWy9I714u1QY73evzdZ2a0OFKuO7T9HvihXBfHSOOJn4wVGSADZIAMRCIDlOseOkHBTibluriBCK1ct+D0xG6IlcWmlIR+86/4fTNh9STXbct9SwYDpKR+mO9tUMkjf17kesFu/LeV+h71mKbDsdWdVNb2m78Zw25VB3/Mrd7FbtuSmyWT6wXY/V/bEuIxTTF8qzcpmY/Nw25VZ457epe5Vlavn1fw3RPVlIE6U6NXlOXzLX9NQ3d5tosUizs+POR29v21pf9ELWXQMQbN39ohlNd5m17HrTHqTObY2z/AIcclSv2Q6/Ks/5MzeqOaNuCZ2BUf/VZ84M6SNQePJqkS3tRwKNbeENcTpW3K/QX/tuVVir0DHx52mO1UCnJd73Es2PeebUaP/JoD7+9ct1xcg+EdilYWqPPQBOy46ssg5SXM6KU+qGJq8C+st7/CwTVnOfju8coKq8YqT+F7jzl1fOd6K7zr78Cu1/riWib+O9jXdO4vcKYo1wOPHbkrvdhRrotjG1ly3YLzXz2ERKWfH4P6A2fi0HX355i3+gXb6jdmdHV5n7XnZeGDcB9RwpnrlvNf4SFlNrKEmPoDMfOQh9fQ5K3GC8nqw4Hmrp+EYFn4Qhz+8Hb1IcOYJnjtV8/3Cflbh6Op0u8O8cx1qwVZc/vaViwwoc6zS3HZ536VBefn9rP18Y2o2n++8+sKfJHryvLwy/B8gxj1YWVzCl6c/h7u8iTXrXnY/J8U9X5KKo9OY37z8Eov94xbKdf9v8/3mQcPMQ/T9/2R656k+sCBA3Hw4EFQCuort3rsA1KuixlhPRLHSI9ss0zMGxkgA2SADPjKAOV6iG58KNfFlbI05Hru90+hsiw4TclwfY+0vMRea9sSe4n3T/WwdLc8u+A0vnw4GdXrNUO7tDexQpPlnuS646xzKRH3Tz3pVvzKldRy+ks8nFwd9Zq1Q9qbK3DFzqMXuW7Nxc8v1VNny8Q0wcvrPAymWa3IWfMSGiozek1ITl9pf494yeS6Fbk/v4R6yn5j0OTldbhuL7dLnnPW4KWG6oCeKTkdK729d9HTPmz/f2PVYNSVjym/n3rdDZyecq8yI15KuA+TT7mRo5ZLmNdPlZwG820Yube43C7WUBbswcjWZmWgyxCTgv9sdphN7Jdct8JaeBzTetpmwhuMSLp/Co4WW8XgGlYOtuVSSkDHUbvtOSpWNnt8CnD4k3tsM5UkVLx/Kk457jfYcj0S4pg9Ew+Wk1dzMKJ2+krk2WPlwuP17Xi/c5JtdYLySH1+AY57ezjFaT+F+GPMnTDLA/XmVvjvbg+DxTdWYXBdmXkJFXrNwAWP7zbNw9qhau6l+J6YccmlrE7H5t881wfGJtJiQ7lOZvXILOW6mMvIkuu5+Cm9lnq9N9+G9/Z56gPmFz0wajCj8/jjTn32Ur2PKKFcz/0p3fYAqRm3vbfPo2zN3/1ftFLudwwwdx6P4459xhL1NSw4JT+oLL/extwOGQeKYpy/4y00V6R5DBr/y9N9Qh62vam9uinUct0K681NGN5c7fNL5sZ4bsk5WHyIR+Hpb/B4XZNNijfDfza5rMrlo1xXlodf9hwa2JaHj6laTb1nNbiZuS6vinV8Cu63PZBrTLob4/a6HNdb2W8uxEAuCx8Vgt0XuS6S6to1mlJQfF3UYhWtn5TrYkZYj8Qxitb6w/MmG2SADJCBssEA5bq3G9Eg/o1yXVxhSkWu/zgINWS5LiXh8e8cls6Wc1t4FJ+mVVRFqrEq0sbuxLViOc/Dka8eRW1FJBuR1OtLnNZkmUe5bkXh0U+RVlF9v6OxahrG7nTzLue8I/jq0dqqJDcmodeXpx0GdbzJdSvyd72L25T3R0qIS30Ry846zFy2nUPhmSVIb6q+g1Eyp+LNrUWiuKRy3Zq/C+/eZtt3XCpeXHbWaTBSuUAUnsGS9Ka21QHMSH1zq2fpWSzubnjJ24xhKfIsh/N6vQAAIABJREFUfBMavrwAn94vzyI2IunROc4zRmz7ss9sl9+n3X4UfnOche7xeIX4Y2wnxClLtZuQPGh50bL7/sp1qxUFv3+Ceyppy8NXw8MzTxWLU+HxaehpexemZG6A/l/sKzpmsXLm49TiF9FSefe3AVJsKob/6sJ1kOV6RMQxfxvebCazISH2nkk4o9VRp/hdwZp/pahyXDKj8T8X4S8/B5gLj45HF0Xim1DrsW9wrthxCnD0s/vUBx+MVdB3bpZDnXZh2nIB0+6PU9qfmBTBChRO5+GyH/4tKgZLy1Knm3KddViPPFOui7mMLLmeh3X/qq/2sU3JeG65m3641YLLm97DXTZhaTCYcfuHvzv103JL8z6ihHI9b532ShwTkp9b7uYexgrL5U147y7bQ4UGA8y3f4jf/ez7eK6vnuW6tfAPfNxVXXZdim+Jl1decOkPWXBl87u4w3avZDCEQa5bLbi04kXcalbv16QKLZH+zVHkeulX3TyciWeallPvHeW+5OAfke3aF/RZrqvLwy97roHtNUXyylnyj3u5brXm48D4u5GkrIolwZzcA++vP+fxoQotbzeO/YhRDzdCvHJvw3eua3Epq5/e5LqvUl2LDaWg+LqoxSpaPynXxYywHoljFK31h+dNNsgAGSADZYMBynUvN9DBhJxyXVxhSkOu529/0zZzwojE1k8h49PP8eXCHXYZm7t3LLpqg2rGimj6yHBMWbQO23bvwuaVczD6uY6orswoMMCY1BVj9xUJao/LwitM5WLv2K62ARADjBWb4pHhU7Bo3Tbs3rUZK+eMxnMdq9vf+ZzUdSz2OS0z7V2uW61XsWF4a/Vd5rJQTO6KF8bNw6rNO7Fz80rMHTsYXWqr8tsglUPL19fissPgT4nlutWKqxuGo7Vd8iaj6wvjMG/VZuzcuRkr547F4C61VbFukFCu5etYe9nN7HK/6l8B9mW0UeRoTJ1b0UiWnMaaeOYHdwOmhTg6vos6kCTFodPYP5wGS73VbcvpKbgvwfZgRFIfZF6wlTsAuW615mHvqDtseTLAVPsxfHPONQ6FODl3IOrZBvcMUnnUvzsdY77bhmNZN9RyF17FiS0LMPqfHVDNxqPBmIg73ttSXMQHVa5HShyvY8nT6msDjDUG4cfc4u1N/u730EZ5IMUAY6WOeOmTaZg2zfvPF3N+wRmnQejLWPZcXZjkAUpjZXQcthQn7Me6jkNzn0dLhR0J8W3exQ6nOu1SJvsyrUbc8tT3nld/8KuOuByD36V41yEDlOusp96uweH6G+W6mMvIkutWXFs+yLbcuwRzne747zebceTCVeRcPY+j25ZhyrCeaJwgQZLUH4MhBi3e3un0CqFSvY8ooVy3XluOQbbl3iVzHXT/7zfYfOQCruZcxfmj27BsyjD0bJxgPz/5dVUxLd7GTp9X7BEx4UWuW624uSPDLs+lcg3R8z+f44dfdmDnph/x1bv90DzR9vCpIpRLINdNNdF9xFRhn27atOlYdsB1ta/r2PXRvahusgl2Y0WkPPImvvhxL87esD24XJCDMzuXYvLrvRReFAEuGVH17tHY4e5VA/7IdXkVs6yleM62PLx3uS7L+LP44aWWSLCJcsmUhGY9X8CH8zbi0F9XkKfc6xXg+oXD2PjNxxg24HbUjlPPTd63lJCC/p/v9foAQbjaYB5XVN98+7s7ue6vVNdyQSnoW8y1eEXjJ+W6mBHWI3GMorHu8JzJBRkgA2Sg7DBAuR6igWfKdXGlKQ25br3xM4Y0VN9npw5YGGCs/iyW24WYBVnrM3Bfsm0pcGWAR5s5oH1KiKnWBSNWn3eedeFl5rrSSFqysD7jPiRr0tTdvqUYVOsyAqvPuwpXkVy3wlrwF1a82Rm3aLLVzf4lcw10Hr4Mp11mbQdDrlutBfhrxZvofItzfLU4K5+SGTU6D8ey00VLRZbkAqLMHI4vGiQyNXwZ6+25dGDMlhvlvffx3fDJieIz+z2Ww3IRmX20pcPLodsnx1TBHZBcl5ed3IIRrdQZygbJhHqDluKSw4MOajlu4MD0J5Bie1jBHkPJiNiEiihnNqqzZGw5lvPa7Z3VOF9sP1ZYgynXIyiO2XP7IkkebIxphje3uS7Znos1L9ZVZ7C5qSf2eLv8zZQ8GKtcBLklaxVeu02djSXPlI+r3hQdu3VFh8aV1VnxBgOMVe/BR7u9L9dZoC3TKiXh0dmXKIFDdC32WO95/JAxSLnucK0idyHjTlT3KdfFXEaaXLcWnsF3g1LsM3aLX+slmGt0xmvzMjGkibr6TdKAb51ngJfmfURJ5bq1EGe+G4QUh36x6zkq9wGvzUPmkCbK+7qlpAH49po416L6ov7du1y3Wgtx9sdhuKOKuoS6a9kMUjxSBvZHB2XJ+hLIdZe+W7Hj2P8ei24TT7lpc3Kwb8Y/0dJJ9hsgSTGIr1ABcTbxru1XMlZCy6e/xF53Yl1u0/2U6/Ly8FlLteXhvc1ct+XNkoVfx/dD0wqODyfI35NgjE1AQpybeEvlUPeeVzH3YI6b8w8WD9yPb/WmdOPkKNc9SfUBAwYo71QXlZdSsHRzJYp/JPydcl3MCOuROEaRwDrLyDySATJABsiAJwYo10M0sEm5Lq6EpSLX5feO7/0KL93bDDUqmGGU5Zu5KyacdJatlsv7sOCDweh9RwpqVopDjDEG8Yk10Lh9dzw7MhPbL7qRwyK5rrBlweV9C/DB4N64I6UmKsXFwBgTj8QajdG++7MYmbkdF13Et1pZfZDryv4LkbVzNt4b1BPtG9VAUjkz4hKro0FqJzz66gQs2Z/tdsZ2cOS6mtPCrJ2Y/d4g9GzfCDWSysEcl4jqDVLR6dFXMWHJfmQ7zfwVc+CpsVL+33IWX/a0LeVvMKPFO7vcLoeYt2U4UpR3PUoof98UD8uEey7L1cVPobq27GLrd7FbzlGgct1qxbW1LyNFW3bS3ARDVl91M7hlwdWDCzByQHskl3eW6UUDehXRKO0FTNroZRnIIMr1iIpj9nz0V5bXN6P9+4ecuSg8inGdzLblNrWHZsSf7uS6zKHlwkaMf7wlklwGXA2SGdU6PI/pe9ytpuDIWyGOjL1TWdnBWLkf5l1yfbjGcVv+7rVNCNE1nGUIHoeU68GLJbkMXiwp18WxjDi5Ll8fLNnY+fVbeKxbKpLlPmpMLCpUSUbzLn0xdNwSHLoqX39zsOTp6sr72Y3VBuCbLOdrcqndR5RYrss5syB759d467FuSE1OQjlzDGIrVEFy8y7oO3Qclhy6qjwYnLPkabVfa6yGAd9kuemDivNfvL0RyXV1n/nntmLW2wPRJbU+bikfi/hKNZFyV3+8MWsXsq9l4uE4uT8WTrmulvPm8VUYn56GJknuHxqWzFXQrPsQTPr5pPeZ337LdZnTLCy1Lw/vaVl45xzdPLkWU159GG1qlVPvb+0PEWj9WwnmpMbo1H84pv/6V8lezcW+VpDqjHMOi9epkv9dk+udOnVCQkKC072Pr1JdKxelYMnzocWyrH5SrosZYT0Sx6is1g+eF3NPBsgAGYgOBijXQ3SzSLkurlClJdfZmIljzxjpK0aFOaexZ933yJw2CRPGjcG4iVMxc+Ea7D17w3n1hBC1X5HBx3WsHFwPJoMEc/tR+M3tQyvBzLMFN05vxdLMaZj40ThMmDoby3ecwQ1fclL4O8Z0lF/bYEKd9J+KL+3vyz64TcQMdEZG/Qlm3fC+L8p17/EhL+GJD+W6OO5Bl+u8jvE6pkcGbp7HwY1LkDntU4wfOxYfT/oCc5dtwu+XXFdFEteZkLTnlhyc2bseS2Z/gUkTxmHcx5MxY853WLHlCC6Xel9YJzHQI0dhKlP16tWdhLr8gLa/Ul3jllKQfGssePqkXBczwnokjpEnvvj/jB0ZIANkgAxEAgOU6yG68aFcFzcIlOviGEVCo8IyMo/hYqBgXwbaxUqQzC3xzi6dDoJarSjY+x7amCVIsW2QsdfNqhghui6FK088bnS3EZTr0Z1/vdZ/ynUxl5Tr4hjplW+Wi7kjA9HBgDZzvSRSXWNl48aNmDp1Kr799ls+CMR7M7cMUK6L2xXKdXGMtDaHn4wVGSADZIAMRCIDlOsh6ihTrosbCMp1cYwisZFhmZnXkDFguYhvH6sBo8GEuukrcT1E7bt/53cDa16qD5PBiOoD5uOChXz4Fz/GK9LjRblOhvXIMOW6mEvKdXGM9Mg2y8S8kYHoYUCT6y+++KJbGUoWooeFUOSacl3ME+W6OEahYJXHYB7IABkgA2SgtBigXA+RfKFcF1diynVxjEqrIeB+GfuywkDBwTHolCBBSnwAU08W6m5gyXL6S/RMMkIqfwc+2M9Z62WFO56H720o5brvsSJXoYsV5bo41pTr4hixzjJGZIAMhJMBTa6PHDlSd/dA4YwLj1069ZJyXRxXynVxjFg/GSMyQAbIABmIZAYo1ynXdXPjRbnOxjSSG1OWXS/83sTWEa0RJ8Xg1lfW62z2+g388loKYqRYtBi+ybf3s4foGkV+9cJv2S8H5XrZz3EktieU62IuKdfFMYoI9guPY1L3GqhcuXLgPzW6Y9Jx/T3AGBHxZ79ON2MPZZEXyvUy0k5HSDtBuS7mjXJdHKOy2BbznJh3MkAGyED0MEC5HqKOK2euiysV5bo4RmycGSMy4AMD17fgnbblYSx/J0Yf1M/s8IJD49C5ghHxrd/ALzk+nEeIrk9kirkIJQOU6+QtlLz5eizKdTGXlOviGPnKW1i3KzyBz3rVRrVq1QL/qd0Ln52gXA9rHtlHpKR3wwDlehlpp93kVo/tDeW6mDfKdXGM9Mg2y8S8kQEyQAbIgK8MUK6HqONKuS6ulJTr4hj5WrG5HWMZ7QzkHVuHeZmzsXRPNiwhaue9x9yCy3uXYXbmXPx8JJcDgrrICdsJ78yWTnwo10snruHIZVk6JuW6mEvKdXGMylKd4Lkw32Qg8higXI+8nEVyPaNcF/NGuS6OUSTXAZad+SUDZIAMkAHK9RAN8FOuiysb5bo4Rmy0GSMyQAbIABmIZAYo18mvHvmlXBdzSbkujpEe2WaZmDcyED0MUK5HT671UK8p18W8Ua6LY6QHllkG5okMkAEyQAYCZYBynXJdNzMoKdfZkAXakPF7ZIcMkAEyEBkMUK5HRp6irT5Rrou5pFwXxyja6g3Pl0yQAX0xQLmur3yU9fpBuS7mjXJdHKOyXk94fmSADJABMlC2GaBcp1ynXA8RA2xMy3Zjyvwyv2SADJABMQOU6+IYkaPQx4hyXRxzynVxjFh3GSMyQAbCyQDlOvkLJX+U62LeKNfFMQolszwW80EGyAAZIAPBZoByPURilcvCiysvZ66LYxTsBoD7Y8zJABkgA2QglAxQrpO3UPLm67Eo18VcUq6LY+Qrb9yOsSQDZKA0GKBcJ1elwZWnfVKui3mjXBfHyBNf/H/GjgyQATJABiKBAcp1ynXOXA8RA5HQILCMvHCRATJABshAaTJAuU6+SpOvQPdNuS7mknJdHKNA+eP3GFsyQAaCwQDlOjkKBke+7oNyXcwb5bo4Rr7yxu0YSzJABsgAGdAjA5TrIRKrnLkubgA4c10cIz02IiwT80YGyAAZIAO+MkC5TlZ8ZSWU21Gui7mkXBfHKJTM8ljMBxkgA64MUK6TCVcmSvPflOti3ijXxTEqTUa5b8afDJABMkAGSpsBynXKdc5cDxEDpV2ZuX9eMMgAGSADZEDvDFCuk1E9Mkq5LuaScl0cIz2yzTIxb2QgehigXI+eXOuhXlOui3mjXBfHSA8sswzMExkgA2SADATKAOV6iMQqZ66LKylnrotjFGhF5/cYWzJABsgAGdADA5Tr5FAPHLqWgXJdzCXlujhGrlzx34wZGSADoWSAcp28hZI3ynUxb5Tr4hiFklkei/kgA2SADJCBYDNAuU65zpnrIWIg2JWX++MFgQyQATJABiKNAcp1MqtHZinXxVxSrotjpEe2WSbmjQxEDwOU69GTaz3Ua8p1MW+U6+IY6YFlloF5IgNkgAyQgUAZoFwPkVjlzHVxJeXMdXGMAq3o/B5jSwbIABkgA3pggHKdHOqBQ9cyUK6LuaRcF8fIlSv+mzEjA2QglAxQrpO3UPJGuS7mjXJdHKNQMstjMR9kgAyQATIQbAYo1ynXOXM9RAwEu/Jyf7wgkAEyQAbIQKQxQLlOZvXILOW6mEvKdXGM9Mg2y8S8kYHoYYByPXpyrYd6Tbku5o1yXRwjPbDMMjBPZIAMkAEyECgDlOshEqucuS6upJy5Lo5RoBWd32NsyQAZIANkQA8MUK6TQz1w6FoGynUxl5Tr4hi5csV/M2ZkgAyEkgHKdfIWSt4o18W8Ua6LYxRKZnks5oMMkAEyQAaCzQDlOuU6Z66HiIFgV17ujxcEMkAGyAAZiDQGKNfJrB6ZpVwXc0m5Lo6RHtlmmZg3MhA9DFCuR0+u9VCvKdfFvFGui2OkB5ZZBuaJDJABMkAGAmWAcj1EYpUz18WVlDPXxTEKtKLze4wtGSADZIAM6IEBynVyqAcOXctAuS7mknJdHCNXrvhvxowMkIFQMkC5Tt5CyRvlupg3ynVxjELJLI/FfJABMkAGyECwGaBcp1znzPUQMRDsysv98YJABsgAGSADkcYA5TqZ1SOzlOtiLinXxTHSI9ssE/NGBqKHAcr16Mm1Huo15bqYN8p1cYz0wDLLwDyRATJABshAoAxQrodIrHLmuriScua6OEaBVnR+j7ElA2SADJABPTBAuU4O9cChaxko18VcUq6LY+TKFf/NmJEBMhBKBijXyVsoeaNcF/NGuS6OUSiZ5bGYDzJABsgAGQg2A5TrlOucuR4iBoJdebk/XhDIABkgA2Qg0higXCezemSWcl3MJeW6OEZ6ZJtlYt7IQPQwQLkePbnWQ72mXBfzRrkujpEeWGYZmCcyQAbIABkIlAHK9RCJVc5cF1dSzlwXxyjQis7vMbZkgAyQATKgBwYo18mhHjh0LQPluphLynVxjFy54r8ZMzJABkLJAOU6eQslb5TrYt4o18UxCiWzPBbzQQbIABkgA8FmgHKdcp0z10PEQLArL/fHCwIZIANkgAxEGgOU62RWj8xSrou5pFwXx0iPbLNMzBsZiB4GKNejJ9d6qNeU62LeKNfFMdIDyywD80QGyAAZIAOBMkC5HiKxypnr4krKmeviGAVa0fk9xpYMkAEyQAb0wADlOjnUA4euZaBcF3NJuS6OkStX/DdjRgbIQCgZoFwnb6HkzVGu/+Mf/8CWLVv44xKDPn36wGAwoGHDhoyNS2zIC+sLGSADZIAMlAUGqlSpolzre/TooZsJzMHsDxqCubOS7ItyXXyjQ7kujlFJGOR3GV8yQAbIABkINwOU62Qw3Ay6Oz7luphLynVxjNyxxf9j3MgAGQgVA5TrZC1UrMnHcZTrskDmD2NABsgAGSADZIAMRCsDlOulPIOdcl18o0O5Lo5RKG+WeCzmgwyQATJABoLNAOU6mQo2U8HYH+W6mEvKdXGMgsEi98E4kwEyECgDlOtkJ1B2Avke5ToFSrQKFJ432ScDZIAMkAFXBijXKdfDvnQB5TpvBgO5qeN3yA0ZIANkIHIYoFyPnFxFU72iXBdzSbkujlE01RmeK3kgA/pjgHJdfzkpy/VEluv79+/nD2NABsgAGSADZIAMRD0DJ06cCLtbLY1+J5eFL+WHBoKZNMp13gwGkyfuizyRATJABvTHAOW6/nLCemIF5bqYS8p1cYxYlxgjMkAGwskA5Tr5Cyd/PDb5IwNkgAyQATJABshA2WKAcp1yvUw+NcKGqmw1VMwn80kGyEC0MEC5Ttb1yDrluphLynVxjPTINsvEvJGB6GGAcj16cs16zVyTATJABsgAGSADZIAMlDYDlOuU65TrEcRAaTcI3D8vOmSADJCB8DJAuR7e+JN/9/GnXHcfF0deKNfFMXKMF39nvMgAGQg1A5TrZC7UzPF4ZI4MkAEyQAbIABkgA2WXAcr1CBKrXBa+7FZENrLMLRkgA2SADMgMUK6TAz22BZTrYi4p18Ux0iPbLBPzRgaihwHK9ejJNes1c00GyAAZIANkgAyQATJQ2gxQrlOuc+Z6BDFQ2g0C98+LDhkgA2QgvAxQroc3/uTfffwp193HxZEXynVxjBzjxd8ZLzJABkLNAOU6mQs1czwemSMDZIAMkAEyQAbIQNllgHI9gsQqZ66X3YrIRpa5JQNkgAyQAZkBynVyoMe2gHJdzCXlujhGemSbZWLeyED0MEC5Hj25Zr1mrskAGSADZIAMkAEyQAZKmwHKdcp1zlyPIAZKu0Hg/nnRIQNkgAyElwHK9fDGn/y7jz/luvu4OPJCuS6OkWO8+DvjRQbIQKgZoFwnc//f3n0HR1H+fwC/vZKEHlBq6GAgdAhFpWikCIogiILtCxikiI0fIiqYQWkiTUA6giCKIr05NJUiIAxFQWHoDjVDmxAmyeRu7v2bLZfbu+xlL8ldspd7/5FJAsnd3ud5PXtP9v08zxa0OT4fzdEADdAADdAADdBA0TXAcD2EglWuXC+6HZEnWbYtDdAADdCAaIDhOh0Y8VzAcF3fJcN1/RoZ0TaPie1GA+FjgOF6+LQ1+zXbmgZogAZogAZogAZoINgGGK4zXOfK9RAyEOwTAh+fbzo0QAM0ULgGGK4Xbv3pX7v+DNe166L2wnBdv0bqevFr1osGaKCgDTBcp7mCNsfnozkaoAEaoAEaoAEaKLoGGK6HULDKletFtyPyJMu2pQEaoAEaEA0wXKcDI54LGK7ru2S4rl8jI9rmMbHdaCB8DDBcD5+2Zr9mW9MADdAADdAADdAADQTbAMN1hutcuR5CBoJ9QuDj802HBmiABgrXAMP1wq0//WvXn+G6dl3UXhiu69dIXS9+zXrRAA0UtAGG6zRX0Ob4fDRHAzRAAzRAAzRAA0XXAMP1EApWuXK96HZEnmTZtjRAAzRAA6IBhut0YMRzAcN1fZcM1/VrZETbPCa2Gw2EjwGG6+HT1uzXbGsaoAEaoAEaoAEaoIFgG2C4znCdK9dDyECwTwh8fL7p0AAN0EDhGmC4Xrj1p3/t+jNc166L2gvDdf0aqevFr1kvGqCBgjbAcJ3mCtocn4/maIAGaIAGaIAGaKDoGmC4HkLBKleuF92OyJMs25YGaIAGaEA0wHCdDox4LmC4ru+S4bp+jYxom8fEdqOB8DHAcD182pr9mm1NAzRAAzRAAzRAAzQQbAMM1xmuc+V6CBkI9gmBj883HRqgARooXAMM1wu3/vSvXX+G69p1UXthuK5fI3W9+DXrRQM0UNAGGK7TXEGb4/PRHA3QAA3QAA3QAA0UXQMM10MoWOXK9aLbEXmSZdvSAA3QAA2IBhiu04ERzwUM1/VdMlzXr5ERbfOY2G40ED4GGK6HT1uzX7OtaYAGaIAGaIAGaIAGgm2A4TrDda5cDyEDwT4h8PH5pkMDNEADhWuA4Xrh1p/+tevPcF27LmovDNf1a6SuF79mvWiABgraAMN1mitoc3w+mqMBGqABGqABGqCBomuA4XoIBatcuV50OyJPsmxbGqABGqAB0QDDdTow4rmA4bq+S4br+jUyom0eE9uNBsLHAMP18Glr9mu2NQ3QAA3QAA3QAA3QQLANMFxnuM6V6yFkINgnBD4+33RogAZooHANMFwv3PrTv3b9Ga5r10XtheG6fo3U9eLXrBcN0EBBG2C4TnMFbY7PR3M0QAM0QAM0QAM0UHQNMFwPoWCVK9eLbkfkSZZtSwM0QAM0IBpguE4HRjwXMFzXd8lwXb9GRrTNY2K70UD4GGC4Hj5tzX7NtqYBGqABGqABGqABGgi2AYbrDNe5cj2EDAT7hMDH55sODdAADRSuAYbrhVt/+teuP8N17bqovTBc16+Rul78mvWiARooaAMM12muoM3x+WiOBmiABmiABmiABoquAYbrIRSscuV60e2IPMmGQds60nDzzGHs2bkVm7bswO8HT+FaqoOTW/w8B9uvHMKmdeux8+87cPj5O8HuV447J7Fr/TpsPHAZmQY5pmC/Zj5+8M9VDNeDX2M6zn2NGa7r14zhun6NjN33HHhw4wwO79mOLZs245fd+3H84l2+v3N8w7F6ETLAcD3Uz9M8fmO/j7J92D40QAM0QAM0QAPhZYDhegj9schwXdU5HXdx/txNw4RsoXLidFxdhtca10O9eg3Ra/Zp2AvAv+P693ijeX3Uq1cPcU8mYW+6qh39eP7Mo5PRtYF4zHFo//FuzQtc6fuSkCD9TD3Ub56IH274EVo7krFyYGPpuMRj0/6oj/pxDdG4WUs8nvAsXho0GtNWHcL1DH9fgwN3/voJ4xM7o2H5SAiCCSaT60OAEPEQ4joPxpdbzyPNZy1S8PPgJvLxNe6PFf68NqcTmSdnoEdDuW4dPt2DDJ+P734teaqj04HklQPR2GcN5drWrx+Hho2boeXjCXj2pUEYPW0VDl3P0GzPbP0p/Rgmti0Nc2RTfHIw3et30nBy4wLMnTtX52MeFm8/59t8xlXsX5qEQb0S0KZ5YzRu/ig69hmGCT8cxS27u0Yex5Z+GEktomAu2QbjDqd5HZeP3/GjHTyegz8fdnVluM6+Y8RzAMN1fZdFOVx33D2Pczf9GFsF+D3LcWkR+jXyMUarXx9xDRqhSYvWaNfxOfQbMgZf/XwEN/weo8lt6rh3EmsmJKJTw/KIMguqcZoJJsGCElVb4vn3ZmPnRZ33efW4sskQrLmvb0bs6zmO1zIOYXynBj7GqPUgja2atECbJ7rhpcFjMWfTKdx1+Hhe1WM1eHoSjmT6+Lkc2vDOqkTd8Z72eDoObUbtQHoOj23E8x6PKfdGjF4zhutFr02Nbo7HR3M0QAM0QAM0QAM0UHQNMFwPoT/yGa6LHdGOG/vnYWjbGNR6cxsv0uSAScl1AAAgAElEQVTSr+PidHSIEMNdG1oknSiY1TiOq1jQrTQEMVS2VMeQ7Q9yEZalY++IWFil362GN7elavzufWxOjIHFFVoLxdBh6lnfIaqrZo5rmNMxwvMiqusxcvosmFGmSSK+O6MTDKedxo/vt0Mlm9eFWo3HFsxl0DhxBU5rTjy4i8XPRMrHGZGAWVf8u7ideXgMGtvEtrYgZtBWP/pKHuvodODanI6I0Hhd7okErgkF6s8CzGWaIPG7MzrBfwaOT3gMJQULqg5Yj9uu9nN9zjiAUXFWP9pRQOmXfsQD1++pPtuvbMLIRx+G1WPyg3Ksgg2VE5Kw00eocGdTImpYBJRoNQ5HNNuv6A4gODgMTtsyXA9OXek1f3VluK5fvyIZrttvYP+8oWgbUwtvbvOe3KZfk/z2O/vZyXhMGsuoxw85fC2YUbLuc0ja+p8fY1w7rmxLQudqkfIYVWccI5SIRe8pe3DTV3itHldGdsc39/yrT47jtfRf8U5tix9jHPeYpVKH0dhy1Z59vKx6LGvsCOzN5SQEsS2T5z+NSJ06aY/9zCj36tocJpL6V6v8euLvs84M12mA5wEaoAEaoAEaoAEaoAEaCJQBhuuqgCVQRQ3W4zBcd8KZtgavlDXLgSHD9ewXznQ8O/5bgF7VK6Ny5WroMvUf/QBa5/H8tX77+xfxkFm88GdBTOJmpPr7uA+2Y0gN+aKitd5I7NMKL++sQt+HzTCZS6FyldIwmwTYGo/BYb0VOeqLoNba6DJ4OIYP1/h4awgSX++NzvFVUSJrRZOAqMajsMfXqqQHxzCzW5WssFYoUQcd3/wMi9b9hiOnzuL82ZM4tP17TH23Gx4pKXoWV0fZUL3fd7iUbZV0AYXrea2jR7huRe0ug7XrOPwtDEl8Hb07x6NqCXPWhWwhqjFG7bnv07L9zFfoGG2GUCoBM85mv1jsuLkAXYvpT2AwmXyE66kHkNS6pHQ84iSHuOfew4SvF2L+9LEY0DYGEVLgbkbZhOn4W+tCtP08ZncqA0EojSen/VtgfcrfvsefC70BI8P10GuzcOhnDNf1XRbFcD1tzSsoK47fLDGFHK4LsD3SDUO9xmnDhryJxNdfwnMJzVG9tNU9toiojb7Lcpq8l4nz372GR6KU8YNgRunYbhg2fgk27jmMk2fP4fTxvdj0zXgM6VwXpVzjP6EEGg1Zg8vZxmpOONXjyiCE6+ay8XhxmOc49a1hQzBowMvo1aklapZxvX4BpR79LPuEv4CG61bU6vSmj/Ge5zHKY+u38eGyAprU6+/fGPw5n2PvovyexnBd/72sKLc/XxvbnwZogAZogAZogAZoIJAGGK6H0B/WDNedcD5YjZejxQthFsQwXA+diyL3N2JgjBySmyu+jrUp/p3IU9b3R2Xxoq5gQ/y4vzRWITlwbXF3lBFMEKKewoTpvZWLwDUxVG+FfK4vgtpxY+8XeCZGuXgplETH2Rezh6mO29g6LDYrlC3TfCh+OO17tX7qiXnoVd0mXxA2l0W3eRe8HrMgwvV81NEjXI9E92/u6bq039iLL56JUSYfCCjZcTYual6oTsbqV6vAYrKg5pBfcF/jfJ2+8y3UsJhgMldA/w06W7Zm+/1M/D3pMRQXA3RzOSRMPuz5HPZr2Px2E+X/y+LZhZc1b0WRums46lhNMFfq698tCbIdh3/9IZBv/nws49ac4bpx2yac+w3DdX2XRTFcf7D6ZUSL75EGCNdL9F6pufuMq1867v6Nle89hoctcmAulIjHpwe0x1+pf4xFfEnl52wx6DJuB65oTaCT3q/TcWH9h2hX3qKM1aLRftKx7Kuwcz2ulE35u3Jdb7W5I3kPkp4oB7M4YdMcjWcXXfEcswQ0XI9E14W3dMd7rrbhZ/3zB2tUMDViuF4wdaZn1pkGaIAGaIAGaIAGaCAcDDBcD6GQg+E6w/XQPSml4bd368rbu5sfRt8f7/hxQe42fnjpYekioVDsScw4n33VstN+ATMTiksXO20txuHEze/x4kPiSnAzyvddlX0LcXV/z9NFUAdurX4VVcQw1ySgWJd5uO61PeiDvR+ggbQVvABr7f5Yc1V/G/d7u99DnLJ9vKXmEGxPVb8BF0C4np865iFcFx07bq3Gq1XkCRdCsS6Ydz17nTJPjEN8pADB1gJJxzM1zDhwcXoHaUt6ISIBX/2X/TFy7DMPduKtWuIxCIhqOQ7HtXY7SNuHD+LEyQ8CbM2TtH/GfhLjW0dCECLQ7NMjOtvcq9uWX+fYPur+GkZfM1xnvzBiv2C4ru+S4bp+jXJr270tvAC9cF1+7HvYN6YVSkq7zggo2f5L/OM9eS/jKMbFF5PGjoIlBr2W5LTC3f2a7u3/FG1KKYF86Scx/V+vcWmexpVOBCpcF19/5tGxaCptoy+gZI+lnuNghusa40h3++bWJn8+NGvHcD002439je1GAzRAAzRAAzRAAzRgRAMM10Pogn3QwvX06/h7z1b8vHwRFixegTU7j+FKqh8hleMBrh7fibXffYMFC7/B92t34ti1nFaO3sPR1V9j1qw5WL7nqrKaIgO3/vkd61YswvyFy7Bq8x+4kKLx3I5kHPh+DmZNH4xWxcULW2ZEt38HM2bNwqw5q3Dolvg7Dtz+80fMmTULc77bjxsOJxz3TmPXj99g8fI12HniunbolXELp//Yip+WL8b8uXOxYMl3WLPjMC5pHYe3l4xbOLN/M35YugDz5i3C8tW/4NCFe14rj3M4+WXcwj+/b8CqZYvk591+BFce5PDz945i9dfia16OPa7QVnqMdVixaD4WLluFzX9cQIpX4Jt18kk5jjXi78+ag1WHbnmuaFG/tvzURP04qq/li4dy25XtvQK3VP+XdXyqf3Pc+AY9pF0KBJR5bkm2EFv8HfvJz9EqQnxMG5p+egyZznv4+dUKciBfqjO+vqxhyfUcebwI6ry3DD2UbcitDUbjoHqlk+MmVvR+SFk1VAEvfn/Dd41dxyF+dlzDNz3Lyr9niUHiZvW95YMfruerjnkM153Oe1jWQ764bbI2wOiD3vewv48tidVgEYPv9lNxzvviuFS/NGzoL7e39ZHc3z80/de3UUucKCFEosM07x0DXP3QjpOftYRNXAlma46kE1ohvx0XZyagmGCCJWYA1vt5n1Ut9/w3V93D9zPD9fBteyP3f4br+i4DH67nY9ysHmO4vs7FuN2RfADfz5mF6YNbKbu3RKP9OzMwSxxjrzqEW1rjzCCMHXMfrjvhTD+CpHjlPurWunjvd897xd/5+VVUlG5VZEb53stxTeu1uGrm8TkDxz9rJb3Xizto1Ry63fM2R3kcVwYyXHemrcVr0iRTE2yPf+E5dmK4znDdw7P+Oc3I70l5PTaG6+HZ7nn1wt+jFxqgARqgARqgARqggZwMMFwPoT8yAx2uO+4cxdKRPdGsonIBSgyPpA8BtrJx6PnpBpzXuse14w4OL3kXXR4pDYu0MsT1eyYIllKo2+V9LD1yJ3uoaD+HKW1tMJmsqPPub7h7aiXeS6imXKRyPYYAc4ma6DjyJ5xJU3XezKMY20T8XdfPqT6Lq1qlwCsTJz+Ll0Iwa9yH2PHbRHSqomy3Lf6eUAxNPt6fdWHFcesgFrzdBbHRqp/JenzxOKrjiaGLcEQrKHPcxO9fvoz4ChHyFpFZv2eCYC6GmDavYfKOKxrbmCuvKe0cNozrg6YPez+3AEupOuj8/jIc03he+7kpaCuuSLHWwbu/3cWple8hoZoSULqOQTCjRM2OGPnTmWxbVjouTkeHCLF2NrRIyn7vw3zVRK8v2f/FpMdka0KZ57DkRg7Bt9OB/77ujBLSdt0V8MpqrZXumTj0UUNpNbxga4ZPj8mhZ+qWQagqBaYRaPX5377bII8XQR1XZiFBCvRN2VcyJy9FD2VVk6X6EGzPaaKEV73uH1qJWcu34vDl+159J9jhej7rmNdw3XEFsxKU/iOG1t4r02+tRB/xArEQiXZfntOesGI/ic9aiucFAaV7rcBdr5rm9ObndNpxeuKjSmjeCB//qRWay/01ffdw1JRMRaHzvOte7SP/jOPiDDwp3rvVHI2eS/2cVJGr41WdD/l7WefxnNs4NGvGcD00260oWlS/Jobr+i4DHq7nZ9ysfp/Iw7hdXAHdRFoBrRpvK+NMW4sknFDt9BLMsWOewnWnA9cXPYtS0t8oVjzy/h7V5No7WPlCtDKZsTbe3p3TpGCNNneNTUwmmCu8jnX3VT+Tx3FlQMP15EV4RpmEXK7fT0hRO2C4XqTHDurzNb9W9Ut1H3A6wXDdd23ohrWhARqgARqgARqgARqggdwZYLju9QeXkQEFMlx3XF2PtxqXzAqGBVsZVK3fDM0b1UI5JTgU73NdrfcSnFVdQHNmnsXy12PlVSziRTYhAmVrNECzZg1QXRVSm0s1weDVXvejzrpIaEGNHm/g6crivasFWEvHoH7TZmhQo6xyn2r5Htt1B2/GbddqEvsF/PBBX/Tp3Q41pOMTULzuk+jdpw/69PsQP10Wt2Z0h+uWys3QXLw3thCJh2o3QqO65VHMFosRe+XVK47rGzC0gbyduBjMWUpURN3GLRDfojHqViyh3AtavKBoRoWeS7zuB52CvZ/EZ205KUSWQ424ZoiPb4rYyiWyJhwIkbEYulljdfjdfZjwVKWs5xBs0age1wzNmzyCSiWU+zmazCjT4h1scK1OV5xmheuWGujxxtOobBVgEqwoHVMfTZs1QI2y7rBfsNXF4M23PYLAnML1/NXEnxOPA5fndJLrJpTE0/O97gWp7ov2s5jaPkryKYbUv3hsk648V9puvF1b3tI7os1E97af6b/h3bpWaSKGNfb/sFdrgoj4XHm6CJqGI+Ncq5bMqDxwo8eqpbSNA1BBWQ318GtrPf4v7+eWIIfr+a1jHsP1tCPj0ErZAcBceSA2erXxnZUvIFqspVbw7rKS8j36lJF3Lmj5+UmkXv0T6xZMxpgRwzHsnQ/w6ZQl2PpXso8JFu5V70KxZ7Hkjm/DjovTlEkpVtR9T32RXvU7mSfxWbwS9PdYimTXMfIzL2bn0gDDdVW/ymXt8n6e5XPq1Y7hur6R4IXreRg3u/pOHsft9gs/4IO+fdC7XQ15bC4UR90ne6NPnz7o9+FPuKzsJhPssWPewnUnHJem4wlpMqm8gvusa/eb9K1IVG5JY678BjapJ/K6apbj57tSOC+IfwNZamL4LtWq+DyNKwO5LXwKDnzaSp6YaqmBQVvueb7/Mlz3rEeO7azf3/XOmfx/Y9aQ4box24X9he1CAzRAAzRAAzRAAzQQigYYrofQH9YBC9cdl/FNz/Lyqg2hOOq/PBO/X3FfHEq/9AuSOlaSQ2JzNJ5deFkJaNPw5zjloo0Y/jZPxMKDN9zBVcZ17J/bH41Life8NkEo9RgmHFNt9ZwVrsurYITIWugxYRsuZK3ufYCLW5OQUF75/WJPYNo5r/sZPliNl6Wtwi2IeXMb0j3azx2uS88fGYv/Lf8H96WfyUTymbNIlsL6FGx9swYs4oUx80No/9EGnPMI9lJxYdt4dKuqrCq3NUOSsipa7OT2M1PRXgwFBSuq9piBA8mqFa+OFJz8LhGNpFUjAiJbj8dJ1wU98Tgc17Dq5apysG6ORvzgRTh4Q/X7qWexaVw3VJMmEJhR7umvkXVBUHxu18p1afWQgMhaPTBh2wU8cNXhwUVsTUpAeSngFVDsiWkeW0L6DtfzVxN/T36Om9+iV7TYvgKKPzULl1yTJ1zHr3zO/PsztJRqYEX9UX+oVhy532hSNg6U730uFEfCTPWW3pn48+OG8opkSwwGbEjRvpiWy4ugGcknsDqpmzK5wwQhqjnGHnL3G3El9NkvHpef12RDu6nqY3Ift7+1cv+cKly3xWPEmt349ddfdT92Le6Pulaxr1kQM2irV19xH0++65jbcD0jGSdWJ6FbDWUiiBCF5mMPeR1fKta9Lp+jLDGDsM3HBImMQ6PRQHyNQiRqt4xHZdfEIKl/KOcZSxnE9Z6EX7PtlHALC7pGSucqS9XB+MXHc0jt8GAVXiwthvgCyvT9yd3fPNymY8fQ6tJ5xVyuH35KcdfY3Zb8N9ZC3wDDdf0a0VHB14jhun7Ngxeu53XcnM9xu9OJB6tfRrS4AtwSgze3qcc8Yj2CP3bMa7juTN+KQTHiBEwTzJUTsUUJ0dXj6IiEmfjPxzjU9znGjjOTlF1vTBFI+Oo/9xgzl+NK13P4u3LdUq0f5u70Hv/two6t67By/gQMf7YeSovjf6EEmryzBTe9XxvDdXdbeYzf9Pu2q634OfRrxXA99NuQ/ZBtSAM0QAM0QAM0QAM0YBQDDNdD6I/rQIXrGX+MQpxNvvd1xee9V2XLndORvBb/q6qsCn5sEk7bnXBcX4qeZeVg1FYnERtvam3r7cD1tQNQS3n8cs8vc98rWx2uC1FoNe6YV6AmPrcd575sp6ySKYley71WXfgdrptR6bU12ttE3/0BL5aTX0fpTrNxQR1+Z3lw4PrCZ+QtJYVieG6p+zhSV/aWV1/bfG0lnYbdb9eB1RKJ6JqvYWWyu07p+0aivlgbwYbYoVuVsN/7hJiOExMeV1aeVMOgrfezLgapLwoKUa0w7pj3hU4nnPZz+LKdHFwKJXthuWp7eZ/hej5r4v8J7R7WvF5JmtghRHXIPnlCqn8mDn/SSAqphYiW+Oxv1eSDrPa5hZV95HubC6WfwcJr7hqLx+IO582I7rnUbTDr971WrpvLom7L1mjdOvtHq/hmaFCrIkpKppUL3LYq6PbVca+QNQP7R9aTtqk3CaXw4qoHWe3mf328LYjfq8J1VWiseYsEzf/PKVwPQB09wnUzytZtqVnH1q3i0axBLVQsqboVgmBDlW5f4XjWBBvl9WccxOgG4u4DAiI6zvF5P9TkRc+4d9EwCTAXr4r4p/vg9YED0O/ZR1GrjGsnCAHF4wZhzRWVE/s5fPG4fKsJcYeDfRlatVf+LW0D+leQJ/1EPrMYd9SOVF/fXNAVUWIIYa2HkftVE4tUP5M/CzkcI58jQP2t8GvMcL3w24D9NHsbMFzPXhNvJ0EN1/Mwbs73uF0vXC+AsWOew/XMw/ikkfweL0T1wLfK9u0Zv7+nTDwUEP3yaq9xnH4bi22e+v0Lyu5VVsSNOuB+7wlyuO7PuE+wVsHTk/e7d/5Sjw0CGq6bUbZOvPZ4T2Ms/Xi/OTil3glNfVz82m2ItQh6LRiu+3ee835/4/esGw3QAA3QAA3QAA3QAA1kN8BwPYT+iA1MuJ6BP0bVlwNAaxw+POArAMrEiW8/xZhJc7B883EkOxy4uaS7sqV3KXSZ61rNnh2V03EJczrJW84LJbphoWvFqCpcF6I6Yo7XlueuDpqxdwRipRW3NrSfdtHzj2x/w3WhNHqtuOv5u662vncSW5fOwsSxH2DmLq17ecuvKePgh4iTjkNcmeLewlxaxSOtDCmOlqN/wy3vlSHiCvOUZCSneq26d6Zj9/Ca0spWoVgCZl1SBX2uY3N9vrUMPaWVshZUSdySde90d7guIKrjHFzVeG6nMwN7R8TKbWxrj2kX3c/jM1zPZ01cbefP5wc7hin3r47EY5P+zX4v7fQ9GBErB6vFE2ZqTn5wXF2IblJ9zCj3wne45aqb67P9HKZ1kLeVF4p1wLSz3m3hFa5rhtJykK6+mClYSqJG+4H4csdljdX06diltK/J/DBeX5fL+3i6jj3b5+CF6wGpo0e4nr1m6vplfS1YULJGewz8cgcua4Xad75Bd2nLeK0dKlznnHTsfruWvAOFEIVHXpyJfepdIMR+eGMvpvasAZt031UzyvdcgsuuPmM/hc+l+7WbYGs8Bodzuuib/gsGS5ONTIjoPBc3XI/h1Vbpu9z3Zu+68Jb2+cfrd/zpM/wZV5uHx2eG6+HRzqHWrxmu67sMZrie+3FzAMbteuF6AYwd8x6u/41x0q1aTDBFdsWCW3L7pW9JlHc90tnVJ6f+mbb+f8oOURbUeGuX+73eAOG6OCnRXKIOuo3dhEve45qAhut+jveU8bW14Uc4pDXe45jI7Ye1KJBaMFzXfy/L6fzH/2P9aIAGaIAGaIAGaIAGaMBtgOF6CP0hG5Bw3XEVs5+SVzVbqiRiS05bIXvUJh07hslbHptsbTHFe7t2j5+14/yXbbO25c7aRlIVrlvrvoc9Pi6y2E99jpY28aKNDY9OOu35h7a/4bq1IT46pLXi2Y3f94kgHcn/7sGPSU+jkkU8jgh0mH4p697ljpsr0UfZul5cgV6uXgL6vTcBizYewqX77iA72+Pb/8WENvIqGnP5BIyYMQuzZvn4mPkRuinbWdpafY5Tyup6d7iew72fnXac+rylXH/bo5h02h0s+wzXPdpPq0Y51yTba83p8TIO4MM4OTy3xY/D314X/x5sH4IaYt3N0ei59EZW3d3PYce5aR1QTAxMzZXw+lr3rgLun3HgyrynlckgNjQec9h9+wLXsakvglqqoV2/1/Daa8rHqy/jhW7xiIkSd3gQt9gsjrq9pmDn5VRPj67Hkj5n4I8PlIkrwVq5bmuDMbuO4fjx47ofR34crExS8bVyPUB19AjXLajWrp+7jq+9ipdf6Ib4GHmig3Q7gLq9MGXn5RzvR595PAnNlXNAi6QT2dtOqrcDN09sw09L52DKzPU44+N84kw9iDEtIiHeH1Wwqc4L9n8wvpWycl3voq/qHq2RXRdkn8yhOLD/OwGtleNuMvaoj+PW6l/8N3ffZS0YrtOAEfsDw3V9l8EM13M/bg7AuF0vXPcYA2nVJ/9jx7yH64fxSWP3yvVlysr19B1DUV0a25tR+Y3NWZNXc9PnHqzuJ2+Vb7Ii9v/2uceF6nFlZHd8o9o5KqfH93tb+Jr9sfyI9/jvKI4c2oddG1didtJAtK8qj3dMQgQeGbjGcxJuQMN1C6q27asa76nG0K6xtOpz/49W4bzmTmFabvhvOXnh/+XPB8P1/NWP/lg/GqABGqABGqABGqABGnAbYLiue2HIXazChhOQcD3jkLLdsglawabv13gfy58vJgdU0S9jtfc2zl51THPdo1GIQo9lyj2vVeG6rUUS/vIKVV3PbT89CY8qAVWbif+6L1qJz+FvuG57DJO1Vit7HWfGjePYuvwrfDb6bQx8qTsSWsWhanQEzNJKV9eqDDFcv6gKee24uOoNxJVQgtesVc8CzFEV0TDhFYycvhqHr3vtCpC+A0Oryfd/zFrBm/W7rufK/tlSazh2K5Mg3OG6DS2S/vIR3tlx2nU/SFsbTPw3d+F63mqSm36Sib8/aylv/W9rirFH1ZMgUrC+f2Vp23hzxVfx812Nx838S1qNJIWl1up44tUBGDAg+0f/F1qhonQB1QRLzaHY7m3Wj4ugaZe2YVznKrCKHoQIVO85Bye8HyfLlAOXpndAhNSmEXhiRg67O2T9jsbry/Z/qpXrEQmYpd7aPNvPuh8vx4u14u8Fqo4e4Xokun+jMdkh7RK2jeuMKlb5vuUR1Xtizgnf2+an//oOaisTW56cmd86OnBj8bPKFq42tPr8lHxOcVzE9A4R0uQJa933fU72kc5LaWvx2kPyrSSK9fwW933U3XFjLjpHiH3Ygppv7dK47YW7fVznO35mTbwNMFynCW8TRvie4bq+y2CG67kfNwdg3J6LcD1YY8c8h+vpW5BYRb6di3jP9c3KPdczTyShhfQ3hoDiPZbhno/3c999zoGrsxKUsZ4Nj00+4/47xXET8zrL4wpT5DNYrDWG1Xi+zEMfoaG0U5YFVQf/4jl2yGUg7ri+CUPi5EnUJkt1vLlV+RtMfN5cPpZWDZLnP41IaZwbCe7Qo39O0Koh/61w68ZwvXDrT/+sPw3QAA3QAA3QAA3QQFEywHBd4yKHURs4MOH6HrxXV1w1bILt8S9w1u9VBO6Az1xxADYqF6l81SptwwBUELdON6nCNnW43tK9Gtv7MQITrrfDl+fdobL3czjuHMScga1RKcI7IBePWYAtujbatG+IctJr8A7X5ZNgyj/r8cXQZ9GscjGvMF5+DHOpenhpzhGkuIylbcSAisqFvnKxaPP443jcj492vaZkbaWoDtdbfn4q+5bq0nPlLVwPRE286+zre/uFGUgoLtbeigajD7q3WL/9A16UQkwLag7boXkvzIwDru36xTr7+WEuj76rbrsvgIp18iNcl47//gGMe7yMFPiLOxXU6Ltcc6t68WfTtw1CjBQKi9v5b/W8QOpy4Ouz/SbOn73lrkXWz7n7nimA4XrA6uhPuC69lvs4MO5xlJH6lABbjb5YfkG7j7rrGIFOX19XTWzJ2wAk81gSmkkX0+WVarLLFHzbs7g0YchccWDO57R7S/GctE29zkq3O4vxTKRo0ozKiXlbEeerz/Df89b2oVg3huvh09ah5JPhur7LoIbruR43u8cOeR63+xGuB3vsmNdw3X5hKtpL7/tef++krka/svJY3Br7f9jna9ebrDGYd7unYWtijHxLGnMF9N+gvgXQPXzTPVIem0Z0wtfXc9jNSvX47gmFVtR59zfPcWAeAvFbK/sof7+YUeF/69xj6Tw8lvc5iuG6twd+723E6N8zXKdZoxvl8dEoDdAADdAADdAADYSOAYbrqosbRocbkHA98yjGNpG3SbQ1GYMjPlaPZ6/FA/z4Uhl55XqJXliRkjPye9/2RHFptW80Xl6trFA1Srj+4DDGt1XCUpOAyPJxeKJXf7z98Xh8tXQNdh27jBS7E+p7rnuuXPd67Y77uHRwAxZNeB+vPd0CVUtapDqJwa9gq4NhvyirRtJ3Y3hNeeW6rc1E/Ov3xAb38wUtXA90TfT6leMaFneXPVljR2CvdHHTgevf9JC32rQ2wOiDXiv/pcd8gB3D5PvWmyzl0axbL/Tq5fvj+c6NlAuMAkp1meu+3y8lQr8AAB/ySURBVLb4WP6G6+K9u8/OQ7eH5Yux4nb1T00/5Xnx0/V6by9HrzLyhA1r3CgcyMVF24wDo1DfZkPp6vHo/vmvqm3T3RfIAxeuB7COfofrTjjtZzGv28PyRAWTGdFPTccpjRql73pLvjWA1y0Zsp+X3H0jp/+zn56o7IZhRvn+G5RJFun49Z3a8gXyiM6Ye8P3RfDMk58hXtlNw/eOEU44rs1BR2XlerWhO3I3ucJliJ89J8GEYT0YrvvXr3Pq8/y/wNeQ4bp+TY0Vrgdg3K4XrhfA2DFv4bq4Y013lJJ2obIidsRe95jNcQOLnikpj9NtTTD2iHr3JP02dqb9infqyJOUhdI9sUy5l7t8zknDhv7l5TGOLR7j/vbvsVN/6odoaeKhDfHj/vbclSoPgbj7bwUTbO2muieE5uGxvM+lDNf9MBKG4xZvJ0b+nuE6DRvZJ4+NPmmABmiABmiABmggtAwwXA+hP4ADEq47b2NJd3m1plDmBaz0eT9AB258+zqaxrfH031G4+dL6Tj8SWP5Pt7Wehi5Xyv4dOHPwN4Rj8Aqriq2NcaYw8rFJUOE6w5cW/QsSkvBvxU1XlyMk8p9GL1PXunb3lRWIdvQfpp6W3jX69T+7Lh/Dps+ae9eNTJgo3xPR8claRtqaTvz6N747o7273sfh/p79wUzGwK3cj34NVG/BtfXd37sh/LixURLbby9Ox1Ox3+Y20W84CkgovV4nNSafHBvHf5XWVlxFPchDmoEs67Hlz6n78H7jygXQSNa4fOTqguduQjXnU47LizsLh+vOGmidHt8oXXR1HET3z4fLV9YtdTCsB053aNd3f5p+O1dpc8IEWg9Xr0rQRDC9UDWMTfhujhR4cJCdC+vTFQQSqP9F14Xkp1OZB77FE2zwmzte6477uzH4qQP8M7ggRg855D7wrnGOT1999uoJe0oYEXDjw5lhbfJC7vJk4AsNfHWrvSsf/cw5HQi5ce+KCtaNZfDKz/7blP1PdcbjznieYFc47i8n4ffq/tE+H7NcD18297I5wCG6/oujRWuZ+Z/3J5juF4wY8c8hev205jaQf5bx2Stj1F/qP9mceDm8l7KGN2Cqv3X4bbf788OXFveWxkLmvHQC9/hpkPtIhN/JbWQ/1YyP4RX1/geL7j7eib+Ghcv/45QCr1WeN1aJw+BuP2f8WilrNqPeHKGe2JpHh7LfZzy62S4rm5vfu3tIxS+Z7hOt6HglMdIpzRAAzRAAzRAAzQQGgYYrvt9QaXwGzQw4bodpyc/Jt/v2lweL/1wSztQciRjRe+yUkhofuhlrE5xIm37EFRXAqq6w3f6vO+wM+UXDKklr9C2xCRii+se1YEI19N+xivSdo4WxAzy3nY7Eyc/Uy5Q2XxtC5+GzYnyPb1Ntqb49JgqbPWwkOG+KGmyoe2Uc8oW7CnY9XkvPBkfi6otRmGPci/0bCe8Bz/jlXJigCggqscyZWv4TBwd20S5gFYaneZc8LGtuxOOS/PxXEwFVK/fAgmjNuGOcmzBCdfzW5M89o3UrRgk3YNevD/1TqRemo2nxK3ihRLoOEtrMoMDySt6yyGnyYamY4/6EV5m4ohYc9fqpf/b615NnKtwXVx1fQ5zu5Zzr7ruNBtnNCYA3NsySOknAkq0GYfDLv8evjxrlnlqGp4sIwfOQqlOmHNRvV16oMP1ANcxl+G6OFHh3NyuyoVtE8zRnTD7jPr1OuG8tRjPKNuwV0nc4m4zdQ1TvkefaHmXAFujj/Gnz104MnDoo4bKxe5K6L/efbHb/q+4ol18DBsaf3LYR0Cfiq2Dqkkr3IWS3bAwh21e03cMk9teiELXhcna51b1a+DXrJGGAYbrnufHbO+vGjXjzwS/ZgzX9WtsrHA9AON2pxNpP78ij7ssMRi0VT0JrWDGjrkP1+24uLQXKkl/rwgo0fYLnPIeqz3Yg5FxNnk3LlsdDFxz1a/bz9gvrUTfavLuVIKtPv5vj7Izl+qclLY5EVWkVegWxLyxUf+e7vZ/MfFR+R7pgq0NJv7rNR7KdSBux/mvElBCGvdaUG3IdvcYKtePld08w/XsNeH7T2jVhOF6aLUX+xfbiwZogAZogAZogAZowMgGGK6rLogYuaHEYwtMuC4Gt/PQNVoOfm2xb2DtFa8LOU4Hbu14Fw2l+5FbUC1xixwOZ/yJMU2VC0CRDTB4/ZXs4bD9MtYk1pPDe8GGBqP2uy/qBCRcd923XEB03x9VW2eLJxp/wvV07HyrhrwVtCUGAzd4rRCRPDhwe8+neFyqkXj/ZBtajf9Hea2ZOC6uShEvWpkrosfCc5oB771f30N9KbTzvKe4/cwMJJSSA0HzQwmYdEjj+dNPY9HzVZT7OUaj2/xLWRf9ghOu57cmeT3Jp2PviFhphwNLreH4YUYnaRWxOfp5fHtTY4vurJXt4nb7/m+3af93Eh6LlGtuiRmADa5bGuQ2XBdXVP/jDsFN5vJ4bvFFjT6gCuEFG2q+MA/HXM+pcb7JuLgagxspK6yECDQY+buX6wCH64GuY67DdSecmf9g2pOuWzOYUf65xbiovvid8QdG1Rd3HBAQ8eRM96ordf1UtxYwWWLwyk83svqJ+lye+e9sPP2QfL6z1n0Hu9WTHexnMKVdMekCu6XyS1h5Nbu7zDNfoaM08cGMcr2We61SU9t34PrcTogUzw3WWJ3dPdS/x6/V7cWvnWC4zj5hxH7AcF3fpdHCdWd+x+1iuL5xACqKYbEQjb4/uienOZ0FM3bMVbjuuI0jiwagUUl5zCdENsDI39TH7GpDB5I3DcYj0jjdBKFkIySuPCPvMqUeZ6i+fnBqKV6vJ48XTIINdQZtxC2PVevKY9/fgsSq8gRjIaohhm/RHpvIfTwT55c8nzURoNjjk/GPeiwkPn8uA/GUI9PwdEVlsqb1Ebz7q2oCQC4fS+s8xHDdZYiftXyEwr8xXKfdUHDKY6RTGqABGqABGqABGggNAwzXVRdOjI42UOG6eEHs+BcdlPv7CYiq/hTemvY9ftn/Jw7t2YhFY3ojrpQcRlkq9cLSS+7w/e7ukWgiri4Wt8aOiEH7Nydjxda9OHRoL7Ysn4RB7arIwbpJQLFG72PHbVVYFYhwPeMARsXJ23ybSzfBK0kz8PX8VTgohbH+hOtO3NswQNnuXYCtahd8snIvTl+/i5S713Dmj/WYPaIr6pQQIAjyh8kkbyWdoVhxXFmO3q4LVxEx6DB4Mr7d/DsOHT2Cg79txDefvY74cvLKFnFV7iyPVblpODqpvVJ7E8yl6qHHyNn4aecfOPznXmz5dgIGtqkAq7TixIzo9pNwTLU6Pjjhev5rkte+k3ksCc3Ei5vWqniktnjR0oxKr6/VXOljPzMF7aJEewIiH5vk/z3rHZcwu2MJ+f6a5mj0XHpdDmHzEK6LfefouNbyVuImEyxVtANZ+4XleLG6vCpKPN7iNZ5A4sQf8cfZm0iVLpzacff8Pvww4X9oWd4qH5vJjNKtP8W+bEF8YMP1gNcxL+G604n0o+PQWjmXmCxV8NJK9cqx+1jzmnzfUnPFAdiYpv2GmvrbCMRJk4BMMJd7HB+sOaOamJCBq799iV61I+XVaZYY9PtB/RzyY95ePxDVLKIrM8q2GYF159OyVlPfP7kcbzSS7QhRzTDmoHrVnvcxpWPbmzHSpBjzw6/gZx+3m8hrX+Hvede76H7PcL3otm0o92OG6/ouDReuO53I17jd6UTGgVGIs4oTTc0o3eQVJM34GvNXHZQmmuV3PO1Pf1CH65Hxb2LW3LmYq/6YMwvTJiVh5KAX0L5utDJ+NkGwlEenacfwwOffeffx5xdPoYL0/m+CYC6F2B6jMG/jUVxJVf7uyUzB5UPrMOv9btLfBeLfPibBjIeemICDPt/j7fj3q47KLksmCMVqo+uohdhxKtk92TjzLi4cXIvpwzogRhnDCBH18c6Ou1njj6zaqAJxS6UuGD3H6/WLtfh6NmZMGoNhvVsjRhoni8dpRdVXfsR19QQAfx5LXVvx6wXrcUL1Wt3hug2N+0/zbAvv3/X+fsFaHPN5OzL9/pVVE59tysdgjfQNMFzXrxEdsUY0QAM0QAM0QAM0QAM04J8Bhush9Ad64MJ1J5yOZPw2riMqK6s2pAtG4kWjrA8BtpjOmLD3jteFnkz8t2kU2j7sCgTVv6N8LdhQse1IrL/kteV6IMJ1Zyq2D62VdfFMOl5zBfTfIAZi/oXrTvtl/DggFlFSgK1x/CYBtopt8d6KpRhaV149G93ne1Xg68D1rR+gdbRZCUW1H8MSHY931v2XfWWz4yZ2JXVEjM/ayxfFyrcbjW3XVJMTxPtVn5uCtsq9qAN3z3Vxy/P81sS/E062E7O0cjjKXUdLLQzf5Q433T8v7hjQXN4xQIhCh2nns9fVZ1924MbSnlmTSYp1mIazYsCdp3DdCeeDfRjdWA5sTYIF1QesQ7L64qVyHKknFqBfrLIiXdWvzBElUKqYDWa1P7HPdPg4W3vLrz+Q4XoQ6pjHcN3pfIB9oxvLK71NAizVB2Bdstv7reW9EC2tAve+X6ramufFcXE1Wdm68eiQ0AGtYssrjy1eNC+Htkm/Z91ewe1KdHATW99ripJKewiRFVCvTQe0b1kHZV191PwQnvzicA4X6cXV+IfxSWObNPkj+vllSPbpUX38/NqjLVgz6f2W4Tr7hRH7BcN1fZdGDNfFsXGex+3iOTl1O4bW8hzzmyv0xwZx0lsBjB3d4brWWFvr3wRYopti4JK/VJPtfLVdCo4t/B8alZZXerv+BhIEK6JKlkSkErxn/bu5DBq9Nh9HVWGzZl91/Id1w5qilLQ9vHKMggBrVClER5dGMZvgHveKk5Wj6uDFhSe1V86rAnHXceh+FqJQo8cMHPY+zrw8VkQHTL/oHpu5w3Wt2uv8m+0xTD7rnrCtWTuOA7z+7vZll/+eVz8M12knr3b4e7RDAzRAAzRAAzRAAzTgbYDhegj9ER/QcF163XbcOvodkgZ0RXztioguZoOtWDRiGj6BfqOX4I8bvi+A2G8ewrJPB6BrfG1UjC4GW2RpVKjZAI89/w6mrjmOW97bGorPF5Bw3QlnylEsGvIU6lcsCZtZXHFqQ/upF/wP18VjcdzCoW8+xEsdGiBGPH5rBEqWi0Fcu14YNnkNTt4VLySlYM1rFeT7zpfvg5VeW5WnXdiOWSNeQkLTmihfMgIWwQxb8YdQo0kC+n0wF7svaYXErpOQA7eP/YDPB3VH69hKKBNphdkahdIV6yC+S3+MXXoANzTuIR20cD1ANfE+weh/78CV+V1RSgk2bQ193Ds7fR9Gxso7FgjFO2L2ZfeFPv3ncMJ5dzVeqaBsk2lrgjGHM/MerjuduLdjOGKV4FWw1cXQbRqrjZxOOO7+hR/G9kF8THHPMN0VtgtmlKqdgDdn/oqrGu0tv7YAhuvBqGOew3UnnPd2YHisssJfsKHu0G24K52bxPuuf4cXyoltZkP8Zyc1b78g1ycNZ9d8jO71omFRT1gQayyYUbJOF/zf9ydx3/W4Wp8d1/HrlL5oFC3vOOG+cC3AVr4l3lhwRDW5xtWHPT/bT0/Co+IKNHNZ9F6RrLlFvV9WtY6P/xZWF5sZrnv2LfYbY9SD4bp+OxgzXJePO0/jduW9J+XoIgx5qj4qllQmBtraY+oF5W+EAIync+rjeuG6II69o0qjfPUGaNP1Vfzf1NU4luz77xet53pwbiumJCagbrTnJALXWECwlUP9LkMxc/sF7QBc8z06BX//8DF6Naug7OiVPXgWrGXwSKfhmH8ghzGDbiAuQDDbEFW6PKrHtUHX1z/E7C2n5dt5eR+X7mNlP0YTw/WwGn9o9Y+i9m8M1/Xfy4pam/P1sM1pgAZogAZogAZogAaCZYDhuveFBwN/H/hwnR0rWB2Lj0tbHgbsKbh0ZCd+XjoXM6dOxsTJ0zFn8Sr8cvQKUjVWvXv8roHPScE9zvvYMqg6LOJOEvHj8LfPyQeKNXsKLh7chOXzZuCLiZPw5eylWLf3LO5qTfTxUVNH6iXsX7cUc6d/gclT52DZhoO4nOqPZTv+mdhGuoBuqZqIzdm29vfnMfgzwfUUOvVluB46bRVOZhmu67sMeLju470qnNwV6Gt9cA1//boGS+fOwJRJk/DlzHlYvn4P/knOyEfAKt4G6AC2/rgEc6ZPwcQJk/DljLlYtnY3/rqW0yRcfW8FWhtazIcBtqWRrDJcp0cjeeSx0CMN0AAN0AAN0AANhLYBhushdLGA4XpodzaeLNl+NJA7A5nHktAiQoBga4SP/8zPxe3cPW+u2ynzKD5tZoMgRKBZ0tEcVtkH+ThC6P0s1zUOo9fGcJ39xIj9g+G6vkuG6/o1MqJtHhPbjQbCxwDD9fBpa/ZrtjUN0AAN0AAN0AAN0ECwDTBcD6EL9gzXeUII9gmBj09jhjLguIHvX6oIs8mCaolbct7avRDP5am/DEENiwnmCn3w3fVc3rKgEI/bUG3NOmStimO4zvOwEfsmw3V9lwzX9WtkRNs8JrYbDYSPAYbr4dPW7NdsaxqgARqgARqgARqggWAbYLgeQhf0Ga7zhBDsEwIfn8aMZiDzr4l4rIQAoXRnzHHd49VI523HJczvGg2zUBytPz/OVetGapsQPRaG6zwPG+08LB4Pw3V9lwzX9WtkRNs8JrYbDYSPAYbr4dPW7NdsaxqgARqgARqgARqggWAbYLgeQhffGa7zhBDsEwIfn8aMZ+AB9o9ugkjBikfe3mW41eupv72HWKuAiIYjscev+7PTmPGMGatNGK4bqz3oVW4Phuv6Lhmu69eI/Yk1ogEaKEwDDNfprzD98bnpjwZogAZogAZogAaKlgGG6wzXs7aiZecuWp2b7cn2LDIG7u/Dx82Lw1z8UUz4K9M456zMk5jctiTMUU3wwW8pxjmuEHpfKzJGA1hzhus8dxuxXzBc13fJcF2/Rka0zWNiu9FA+BhguB4+bc1+zbamARqgARqgARqgARoItgGG6wG8IB7sxuLKdZ4Qgm2Mj09jRjWQfnYnVixdhnVHbsFhkPO24/ZRrF+2FMu3n0aaQY7JqO3H4/L/3MJw3f9a0VXB1Yrhun6tGa7r14h9ljWiARooTAMM1+mvMP3xuemPBmiABmiABmiABoqWAYbrIRSIMFwvWp2PJ1O2Jw3QAA3QgLcBhus04W3CCN8zXNd3yXBdv0ZGsMxjYDvRQPgaYLgevm3Pfs+2pwEaoAEaoAEaoAEaCLQBhusM17mVcQgZCPQJgI/HNxUaoAEaMJYBhuvGag/2D7k9GK7ru2S4rl8j9ifWiAZooDANMFynv8L0x+emPxqgARqgARqgARooWgYYrodQsMqV60Wr8/FkyvakARqgARrwNsBwnSa8TRjhe4br+i4ZruvXyAiWeQxsJxoIXwMM18O37dnv2fY0QAM0QAM0QAM0QAOBNsBwneE6V66HkIFAnwD4eHxToQEaoAFjGWC4bqz2YP+Q24Phur5Lhuv6NWJ/Yo1ogAYK0wDDdforTH98bvqjARqgARqgARqggaJlgOF6CAWrXLletDofT6ZsTxqgARqgAW8DDNdpwtuEEb5nuK7vkuG6fo2MYJnHwHaigfA1wHA9fNue/Z5tTwM0QAM0QAM0QAM0EGgDDNcZrnPleggZCPQJgI/HNxUaoAEaMJYBhuvGag/2D7k9GK7ru2S4rl8j9ifWiAZooDANMFynv8L0x+emPxqgARqgARqgARooWgYYrodQsMqV60Wr8/FkyvakARqgARrwNsBwnSa8TRjhe4br+i4ZruvXyAiWeQxsJxoIXwMM18O37dnv2fY0QAM0QAM0QAM0QAOBNsBwneE6V66HkIFAnwD4eHxToQEaoAFjGWC4bqz2YP+Q24Phur5Lhuv6NWJ/Yo1ogAYK0wDDdforTH98bvqjARqgARqgARqggaJlgOF6CAWrXLletDofT6ZsTxqgARqgAW8DDNdpwtuEEb5nuK7vkuG6fo2MYJnHwHaigfA1wHA9fNue/Z5tTwM0QAM0QAM0QAM0EGgDDNcZrnPleggZCPQJgI/HNxUaoAEaMJYBhuvGag/2D7k9GK7ru2S4rl8j9ifWiAZooDANMFynv8L0x+emPxqgARqgARqgARooWgYYrodQsMqV60Wr8/FkyvakARqgARrwNsBwnSa8TRjhe4br+i4ZruvXyAiWeQxsJxoIXwMM18O37dnv2fY0QAM0QAM0QAM0QAOBNsBwneE6V66HkIFAnwD4eHxToQEaoAFjGWC4bqz2YP+Q24Phur5Lhuv6NWJ/Yo1ogAYK0wDDdforTH98bvqjARqgARqgARqggaJlgOF6CAWrXLletDofT6ZsTxqgARqgAW8DDNdpwtuEEb5nuK7vkuG6fo2MYJnHwHaigfA1wHA9fNue/Z5tTwM0QAM0QAM0QAM0EGgDDNcZrnPleggZCPQJgI/HNxUaoAEaMJYBhuvGag/2D7k9GK7ru2S4rl8j9ifWiAZooDANMFynv8L0x+emPxqgARqgARqgARooWgYYrodQsMqV60Wr8/FkyvakARqgARrwNsBwnSa8TRjhe4br+i4ZruvXyAiWeQxsJxoIXwMM18O37dnv2fY0QAM0QAM0QAM0QAOBNsBwneE6V66HkIFAnwD4eHxToQEaoAFjGWC4bqz2YP+Q24Phur5Lhuv6NWJ/Yo1ogAYK0wDDdforTH98bvqjARqgARqgARqggaJlgOF6CAWrXLletDofT6ZsTxqgARqgAW8DDNdpwtuEEb5nuK7vkuG6fo2MYJnHwHaigfA1wHA9fNue/Z5tTwM0QAM0QAM0QAM0EGgDDNcZrnPleggZCPQJgI/HNxUaoAEaMJYBhuvGag/2D7k9GK7ru2S4rl8j9ifWiAZooDANMFynv8L0x+emPxqgARqgARqgARooWgYYrodQsMqV60Wr8/FkyvakARqgARrwNsBwnSa8TRjhe4br+i4ZruvXyAiWeQxsJxoIXwMM18O37dnv2fY0QAM0QAM0QAM0QAOBNmDIcD0iIgItWrTgh1cNoqKiYDKZ8PDDD7M2XrWhF/YXGqABGqCBomBAfJ8XP8aPH8+dZUJoAmSgB+hGezx1uN6gQQOOQzXGoYIgSH03JiaG9dGoT1E4P/M1cJxBA6FtwDXGGjt2LMdYHGPRAA3QAA3QAA3QAA3QAA3ky4Ahw3XXHz38LF9gZx1YBxqgARqgARoILwMM1zmj1kgBuzpc57kovM5FbG+2Nw3QQFEzwHCdYywjjbF4LPRIAzRAAzRAAzRAA6FpwDDh+unTp/HGG2/wgzWgARqgARqgARoIewObNm3K1+xJDsxDc2Bu1Hbbs2dP2PdJ/p3Cv9NogAZooGgYWLt2LcdYXKVEAzRAAzRAAzRAAzRAAzSQLwOGCdeNejGRx8WL0zRAAzRAAzRAAzRAAzRAAzRAAzRAAzRAAzRAAzRAAzRAAzRAAzRAAzRAAwzXOTsjX7MzeBLhSYQGaIAGaIAGaIAGaIAGaIAGaIAGaIAGaIAGaIAGaIAGaIAGaIAGaCAcDDBcZ7jOcJ0GaIAGaIAGaIAGaIAGaIAGaIAGaIAGaIAGaIAGaIAGaIAGaIAGaIAGaEDHAMN1nQKFwwwLvkbOJKIBGqABGqABGqABGqABGqABGqABGqABGqABGqABGqABGqABGqABGqCBnA0wXGe4zhkoNEADNEADNEADNEADNEADNEADNEADNEADNEADNEADNEADNEADNEADNEADOgYYrusUiLMzcp6dwfqwPjRAAzRAAzRAAzRAAzRAAzRAAzRAAzRAAzRAAzRAAzRAAzRAAzRAA+FggOE6w3XOQKEBGqABGqABGqABGqABGqABGqABGqABGqABGqABGqABGqABGqABGqABGtAxwHBdp0DhMMOCr5EziWiABmiABmiABmiABmiABmiABmiABmiABmiABmiABmiABmiABmiABmggZwMM1xmucwYKDdAADdAADdAADdAADdAADdAADdAADdAADdAADdAADdAADdAADdAADdCAjgGG6zoF4uyMnGdnsD6sDw3QAA3QAA3QAA3QAA3QAA3QAA3QAA3QAA3QAA3QAA3QAA3QAA3QQDgYYLjOcJ0zUGiABmiABmiABmiABmiABmiABmiABmiABmiABmiABmiABmiABmiABmiABnQMMFzXKVA4zLDga+RMIhqgARqgARqgARqgARqgARqgARqgARqgARqgARqgARqgARqgARqgARrI2QDDdYbrnIFCAzRAAzRAAzRAAzRAAzRAAzRAAzRAAzRAAzRAAzRAAzRAAzRAAzRAAzSgY4Dhuk6BODsj59kZrA/rQwM0QAM0QAM0QAM0QAM0QAM0QAM0QAM0QAM0QAM0QAM0QAM0QAM0EA4GGK4zXOcMFBqgARqgARqgARqgARqgARqgARqgARqgARqgARqgARqgARqgARqgARqgAR0DDNd1ChQOMyz4GjmTiAZogAZogAZogAZogAZogAZogAZogAZogAZogAZogAZogAZogAZogAZyNsBwneE6Z6DQAA3QAA3QAA3QAA3QAA3QAA3QAA3QAA3QAA3QAA3QAA3QAA3QAA3QAA3oGGC4rlMgzs7IeXYG68P60AAN0AAN0AAN0AAN0AAN0AAN0AAN0AAN0AAN0AAN0AAN0AAN0AANhIMBhusM1zkDhQZogAZogAZogAZogAZogAZogAZogAZogAZogAZogAZogAZogAZogAZoQMcAw3WdAoXDDAu+Rs4kogEaoAEaoAEaoAEaoAEaoAEaoAEaoAEaoAEaoAEaoAEaoAEaoAEaoIGcDTBcZ7jOGSg0QAM0QAM0QAM0QAM0QAM0QAM0QAM0QAM0QAM0QAM0QAM0QAM0QAM0QAM6Bv4fbeeFHMhX4mcAAAAASUVORK5CYII=;" parent="1" vertex="1">
          <mxGeometry x="31.5" y="170" width="307" height="85.35" as="geometry" />
        </mxCell>
        <mxCell id="LE_jhCVqHfi3gLf_MCrG-6" value="" style="shape=flexArrow;endArrow=classic;html=1;rounded=0;endWidth=38.82352941176471;endSize=2.794117647058824;width=17.647058823529413;" parent="1" edge="1">
          <mxGeometry width="50" height="50" relative="1" as="geometry">
            <mxPoint x="413.73" y="210.38" as="sourcePoint" />
            <mxPoint x="333.73" y="210.38" as="targetPoint" />
          </mxGeometry>
        </mxCell>
        <mxCell id="LE_jhCVqHfi3gLf_MCrG-7" value="DiseÃ±o lÃ³gico" style="edgeLabel;html=1;align=center;verticalAlign=middle;resizable=0;points=[];" parent="LE_jhCVqHfi3gLf_MCrG-6" vertex="1" connectable="0">
          <mxGeometry x="0.1236" y="4" relative="1" as="geometry">
            <mxPoint x="5" y="-4" as="offset" />
          </mxGeometry>
        </mxCell>
        <mxCell id="LE_jhCVqHfi3gLf_MCrG-8" value="&lt;div style=&quot;text-align: left;&quot;&gt;&lt;span style=&quot;background-color: initial;&quot;&gt;create data base test;&lt;/span&gt;&lt;/div&gt;&lt;div style=&quot;text-align: left;&quot;&gt;&lt;span style=&quot;background-color: initial;&quot;&gt;use test;&amp;nbsp;&lt;/span&gt;&lt;/div&gt;&lt;div style=&quot;text-align: left;&quot;&gt;&lt;span style=&quot;background-color: initial;&quot;&gt;create table materia(&lt;/span&gt;&lt;/div&gt;&lt;div style=&quot;text-align: left;&quot;&gt;&lt;span style=&quot;background-color: initial;&quot;&gt;&lt;span style=&quot;white-space: pre;&quot;&gt;&#x9;&lt;/span&gt;id bigint primary key auto_increment,&lt;/span&gt;&lt;/div&gt;&lt;div style=&quot;text-align: left;&quot;&gt;&lt;span style=&quot;background-color: initial;&quot;&gt;&amp;nbsp;&lt;span style=&quot;white-space: pre;&quot;&gt;&#x9;&lt;/span&gt;codigo varchar(10),&lt;br&gt;&lt;/span&gt;&lt;/div&gt;&lt;div style=&quot;text-align: left;&quot;&gt;&lt;span style=&quot;background-color: initial;&quot;&gt;&lt;span style=&quot;white-space: pre;&quot;&gt;&#x9;&lt;/span&gt;materia varchar(50),&lt;br&gt;&lt;/span&gt;&lt;/div&gt;&lt;div style=&quot;text-align: left;&quot;&gt;&lt;span style=&quot;background-color: initial;&quot;&gt;&lt;span style=&quot;white-space: pre;&quot;&gt;&#x9;&lt;/span&gt;descripcion varchar(200)&lt;br&gt;&lt;/span&gt;&lt;/div&gt;&lt;div style=&quot;text-align: left;&quot;&gt;&lt;span style=&quot;background-color: initial;&quot;&gt;);&lt;/span&gt;&lt;/div&gt;" style="rounded=0;whiteSpace=wrap;html=1;" parent="1" vertex="1">
          <mxGeometry x="40" y="280" width="240" height="120" as="geometry" />
        </mxCell>
        <mxCell id="LE_jhCVqHfi3gLf_MCrG-9" value="SQL=&amp;gt; DML =&amp;gt; Lenguaje de manipulaciÃ³n de datos&lt;br&gt;&lt;br&gt;INSERT INTO table1;&lt;br&gt;UPDATE table1 SET () WHERE&amp;nbsp;&lt;br&gt;DELETE table1 WHERE&amp;nbsp;&lt;br&gt;SELECT * FROM table1&lt;br&gt;TRUNCATE" style="rounded=0;whiteSpace=wrap;html=1;align=left;" parent="1" vertex="1">
          <mxGeometry x="470" y="80" width="290" height="130" as="geometry" />
        </mxCell>
        <mxCell id="LE_jhCVqHfi3gLf_MCrG-10" value="&lt;div style=&quot;text-align: left;&quot;&gt;&lt;span style=&quot;background-color: initial;&quot;&gt;use test;&amp;nbsp;&lt;/span&gt;&lt;br&gt;&lt;/div&gt;&lt;div style=&quot;text-align: left;&quot;&gt;&lt;span style=&quot;background-color: initial;&quot;&gt;insert into materia(&lt;/span&gt;&lt;/div&gt;&lt;div style=&quot;text-align: left;&quot;&gt;&lt;span style=&quot;background-color: initial;&quot;&gt;&amp;nbsp;&lt;span style=&quot;white-space: pre;&quot;&gt;&#x9;&lt;/span&gt;codigo,&lt;br&gt;&lt;/span&gt;&lt;/div&gt;&lt;div style=&quot;text-align: left;&quot;&gt;&lt;span style=&quot;background-color: initial;&quot;&gt;&lt;span style=&quot;white-space: pre;&quot;&gt;&#x9;&lt;/span&gt;materia,&lt;br&gt;&lt;/span&gt;&lt;/div&gt;&lt;div style=&quot;text-align: left;&quot;&gt;&lt;span style=&quot;background-color: initial;&quot;&gt;&lt;span style=&quot;white-space: pre;&quot;&gt;&#x9;&lt;/span&gt;descripcion&lt;br&gt;&lt;/span&gt;&lt;/div&gt;&lt;div style=&quot;text-align: left;&quot;&gt;&lt;span style=&quot;background-color: initial;&quot;&gt;)VALUES(&lt;/span&gt;&lt;/div&gt;&lt;div style=&quot;text-align: left;&quot;&gt;&lt;span style=&quot;background-color: initial;&quot;&gt;&lt;span style=&quot;white-space: pre;&quot;&gt;&#x9;&lt;/span&gt;&#39;1010&#39;,&lt;br&gt;&lt;/span&gt;&lt;/div&gt;&lt;div style=&quot;text-align: left;&quot;&gt;&lt;span style=&quot;background-color: initial;&quot;&gt;&lt;span style=&quot;white-space: pre;&quot;&gt;&#x9;&lt;/span&gt;&#39;Java&#39;,&lt;br&gt;&lt;/span&gt;&lt;/div&gt;&lt;div style=&quot;text-align: left;&quot;&gt;&lt;span style=&quot;background-color: initial;&quot;&gt;&lt;span style=&quot;white-space: pre;&quot;&gt;&#x9;&lt;/span&gt;&#39;ProgramaciÃ²n JAVA&#39;&lt;br&gt;&lt;/span&gt;&lt;/div&gt;&lt;div style=&quot;text-align: left;&quot;&gt;&lt;span style=&quot;background-color: initial;&quot;&gt;);&lt;/span&gt;&lt;/div&gt;" style="rounded=0;whiteSpace=wrap;html=1;" parent="1" vertex="1">
          <mxGeometry x="460" y="240" width="130" height="160" as="geometry" />
        </mxCell>
        <mxCell id="LE_jhCVqHfi3gLf_MCrG-11" value="" style="endArrow=none;dashed=1;html=1;dashPattern=1 3;strokeWidth=2;rounded=0;" parent="1" edge="1">
          <mxGeometry width="50" height="50" relative="1" as="geometry">
            <mxPoint x="40" y="420" as="sourcePoint" />
            <mxPoint x="770" y="420" as="targetPoint" />
          </mxGeometry>
        </mxCell>
        <mxCell id="LE_jhCVqHfi3gLf_MCrG-12" value="" style="shape=image;verticalLabelPosition=bottom;labelBackgroundColor=default;verticalAlign=top;aspect=fixed;imageAspect=0;image=https://www.researchgate.net/publication/340622952/figure/fig4/AS:880217438564360@1586871599608/SQL-vs-MongoDB-terms.png;" parent="1" vertex="1">
          <mxGeometry x="60" y="500" width="655.47" height="310" as="geometry" />
        </mxCell>
        <mxCell id="LE_jhCVqHfi3gLf_MCrG-13" value="Fuente: Google" style="text;html=1;align=center;verticalAlign=middle;resizable=0;points=[];autosize=1;strokeColor=none;fillColor=none;" parent="1" vertex="1">
          <mxGeometry x="70" y="810" width="110" height="30" as="geometry" />
        </mxCell>
        <mxCell id="tuNl4k_BK4aB1f5CuTpO-1" value="&lt;font style=&quot;font-size: 24px;&quot;&gt;&lt;b&gt;SQL&lt;/b&gt;&lt;/font&gt;" style="text;html=1;strokeColor=none;fillColor=none;align=center;verticalAlign=middle;whiteSpace=wrap;rounded=0;" vertex="1" parent="1">
          <mxGeometry x="655.47" y="10" width="60" height="30" as="geometry" />
        </mxCell>
        <mxCell id="tuNl4k_BK4aB1f5CuTpO-2" value="&lt;font style=&quot;font-size: 24px;&quot;&gt;&lt;b&gt;NoSQL&lt;/b&gt;&lt;/font&gt;" style="text;html=1;strokeColor=none;fillColor=none;align=center;verticalAlign=middle;whiteSpace=wrap;rounded=0;" vertex="1" parent="1">
          <mxGeometry x="655.47" y="440" width="60" height="30" as="geometry" />
        </mxCell>
      </root>
    </mxGraphModel>
  </diagram>
</mxfile>
